<svg width="16" height="16" viewBox="0 0 16 16" fill="none" xmlns="http://www.w3.org/2000/svg">
<path d="M7.99992 14.4333C7.79325 14.4333 7.59325 14.4066 7.42659 14.3467C4.87992 13.4733 0.833252 10.3733 0.833252 5.79332C0.833252 3.45998 2.71992 1.56665 5.03992 1.56665C6.16659 1.56665 7.21992 2.00665 7.99992 2.79332C8.77992 2.00665 9.83325 1.56665 10.9599 1.56665C13.2799 1.56665 15.1666 3.46665 15.1666 5.79332C15.1666 10.38 11.1199 13.4733 8.57325 14.3467C8.40659 14.4066 8.20659 14.4333 7.99992 14.4333ZM5.03992 2.56665C3.27325 2.56665 1.83325 4.01332 1.83325 5.79332C1.83325 10.3466 6.21325 12.88 7.75325 13.4066C7.87325 13.4466 8.13325 13.4466 8.25325 13.4066C9.78659 12.88 14.1733 10.3533 14.1733 5.79332C14.1733 4.01332 12.7333 2.56665 10.9666 2.56665C9.95325 2.56665 9.01325 3.03998 8.40659 3.85998C8.21992 4.11332 7.79325 4.11332 7.60659 3.85998C6.98659 3.03332 6.05325 2.56665 5.03992 2.56665Z" fill="#ADADAD"/>
</svg>
