<svg width="320" height="40" viewBox="0 0 320 40" fill="none" xmlns="http://www.w3.org/2000/svg">
<path d="M12.3887 19.7871C12.3496 20.0085 12.3154 20.2168 12.2861 20.4121C12.2601 20.6042 12.2471 20.7962 12.2471 20.9883C12.2471 21.1999 12.2796 21.3903 12.3447 21.5596C12.4131 21.7256 12.5384 21.8574 12.7207 21.9551C12.9062 22.0527 13.1748 22.1016 13.5264 22.1016H13.5312V23H13.5264C12.9665 23 12.5238 22.891 12.1982 22.6729C11.876 22.4515 11.6514 22.126 11.5244 21.6963C11.1826 22.1781 10.696 22.5166 10.0645 22.7119C9.4362 22.904 8.69401 23 7.83789 23C7.03385 23 6.38444 22.904 5.88965 22.7119C5.39811 22.5199 5.04004 22.2464 4.81543 21.8916C4.59082 21.5335 4.47852 21.1071 4.47852 20.6123C4.47852 20.3682 4.50293 20.1094 4.55176 19.8359C4.60384 19.5625 4.67546 19.2858 4.7666 19.0059L5.56738 19.2402C5.48926 19.4811 5.42904 19.7106 5.38672 19.9287C5.3444 20.1436 5.32324 20.3438 5.32324 20.5293C5.32324 20.8874 5.41113 21.1836 5.58691 21.418C5.76595 21.6491 6.05078 21.8216 6.44141 21.9355C6.83203 22.0462 7.34473 22.1016 7.97949 22.1016C8.60775 22.1016 9.13509 22.0544 9.56152 21.96C9.99121 21.8623 10.3411 21.7142 10.6113 21.5156C10.8815 21.3138 11.0898 21.0599 11.2363 20.7539C11.3861 20.4447 11.4951 20.0785 11.5635 19.6553L12.3887 19.7871ZM8.55566 19.0449L9.28809 18.3125L10.0156 19.0449L9.28809 19.7725L8.55566 19.0449ZM6.85156 19.0449L7.58398 18.3125L8.31152 19.0449L7.58398 19.7725L6.85156 19.0449ZM15.8262 18.8203C16.054 18.8203 16.2917 18.8675 16.5391 18.9619C16.7897 19.0563 17.0599 19.1702 17.3496 19.3037C17.6491 19.4372 17.973 19.5739 18.3213 19.7139C18.6696 19.8506 19.0553 19.9596 19.4785 20.041V20.8271L17.4619 22.1748C17.0322 22.458 16.5863 22.6663 16.124 22.7998C15.665 22.9333 15.1654 23 14.625 23H13.5312C13.4759 23 13.4368 22.9674 13.4141 22.9023C13.3913 22.834 13.3799 22.7168 13.3799 22.5508C13.3799 22.3815 13.3913 22.2643 13.4141 22.1992C13.4368 22.1341 13.4759 22.1016 13.5312 22.1016H14.7666C15.0596 22.1016 15.3346 22.0804 15.5918 22.0381C15.849 21.9925 16.0964 21.9242 16.334 21.833C16.5749 21.7386 16.8141 21.6165 17.0518 21.4668L18.4336 20.5781C18.1178 20.5163 17.833 20.4349 17.5791 20.334C17.3285 20.2331 17.0973 20.1354 16.8857 20.041C16.6872 19.9499 16.5049 19.8734 16.3389 19.8115C16.1761 19.7464 16.0166 19.7139 15.8604 19.7139C15.5999 19.7139 15.3981 19.8018 15.2549 19.9775C15.1149 20.1533 15.0124 20.3893 14.9473 20.6855L14.918 20.8418L14.1855 20.7051L14.2197 20.5195C14.3174 20.0117 14.4899 19.6016 14.7373 19.2891C14.9847 18.9766 15.3477 18.8203 15.8262 18.8203ZM15.9189 16.75L16.6514 16.0176L17.3789 16.75L16.6514 17.4775L15.9189 16.75ZM21.6855 23H20.7871V16.2812H21.6855V23ZM27.0029 21.1592C27.0029 21.5075 26.9281 21.8021 26.7783 22.043C26.6318 22.2839 26.4333 22.4775 26.1826 22.624C25.9352 22.7705 25.6585 22.8763 25.3525 22.9414C25.0498 23.0065 24.7422 23.0391 24.4297 23.0391C24.1758 23.0391 23.9219 23.0228 23.668 22.9902C23.4173 22.9544 23.1764 22.904 22.9453 22.8389L23.1504 21.9844C23.3327 22.0332 23.5329 22.0723 23.751 22.1016C23.9691 22.1309 24.1888 22.1455 24.4102 22.1455C24.7389 22.1455 25.0319 22.1097 25.2891 22.0381C25.5462 21.9665 25.748 21.8542 25.8945 21.7012C26.0443 21.5482 26.1191 21.3496 26.1191 21.1055C26.1191 20.793 25.9808 20.4333 25.7041 20.0264C25.4274 19.6162 25.014 19.167 24.4639 18.6787L25.0498 17.9854C25.4469 18.3369 25.792 18.6868 26.085 19.0352C26.3779 19.3835 26.6042 19.7334 26.7637 20.085C26.9232 20.4365 27.0029 20.7946 27.0029 21.1592ZM28.8584 20.0557L29.7178 19.7725L29.9961 20.7539C30.0938 21.1087 30.2028 21.3838 30.3232 21.5791C30.4437 21.7744 30.5999 21.9111 30.792 21.9893C30.984 22.0641 31.2363 22.1016 31.5488 22.1016H31.5537V23H31.5488C31.2363 23 30.958 22.9495 30.7139 22.8486C30.473 22.7477 30.2874 22.6045 30.1572 22.4189C30.167 22.9756 30.071 23.4606 29.8691 23.874C29.6706 24.2907 29.3548 24.6585 28.9219 24.9775C28.4922 25.2965 27.9339 25.5863 27.2471 25.8467L26.8662 25.0312C27.4587 24.8099 27.9355 24.5771 28.2969 24.333C28.6582 24.0921 28.9202 23.8187 29.083 23.5127C29.2458 23.2067 29.3271 22.8486 29.3271 22.4385C29.3271 22.1423 29.2881 21.7988 29.21 21.4082C29.1318 21.0143 29.0146 20.5635 28.8584 20.0557ZM31.0166 24.7383L31.749 24.0059L32.4766 24.7383L31.749 25.4658L31.0166 24.7383ZM32.7207 24.7383L33.4531 24.0059L34.1807 24.7383L33.4531 25.4658L32.7207 24.7383ZM31.876 26.2568L32.6084 25.5244L33.3359 26.2568L32.6084 26.9844L31.876 26.2568ZM34.0098 19.04C34.0977 19.4014 34.1693 19.7448 34.2246 20.0703C34.2799 20.3958 34.3076 20.6986 34.3076 20.9785C34.3076 21.3887 34.2311 21.7451 34.0781 22.0479C33.9284 22.3506 33.6777 22.585 33.3262 22.751C32.9779 22.917 32.5059 23 31.9102 23H31.5586C31.5033 23 31.4642 22.9674 31.4414 22.9023C31.4186 22.8372 31.4072 22.7201 31.4072 22.5508C31.4072 22.3783 31.4186 22.2611 31.4414 22.1992C31.4642 22.1341 31.5033 22.1016 31.5586 22.1016H31.9102C32.3008 22.1016 32.6068 22.056 32.8281 21.9648C33.0495 21.8737 33.2057 21.7402 33.2969 21.5645C33.388 21.3887 33.4336 21.1738 33.4336 20.9199C33.4336 20.7018 33.4076 20.4561 33.3555 20.1826C33.3066 19.9059 33.2432 19.6016 33.165 19.2695L34.0098 19.04ZM44.4395 23C44.1921 23 43.9902 22.9528 43.834 22.8584C43.681 22.764 43.5557 22.6354 43.458 22.4727C43.484 23.1562 43.3815 23.721 43.1504 24.167C42.9225 24.6162 42.5758 24.9499 42.1104 25.168C41.6481 25.3893 41.0752 25.5 40.3916 25.5C39.2946 25.5 38.4906 25.2526 37.9795 24.7578C37.4684 24.2663 37.2129 23.5485 37.2129 22.6045C37.2129 22.3408 37.2308 22.0625 37.2666 21.7695C37.3024 21.4766 37.3512 21.1852 37.4131 20.8955C37.4782 20.6025 37.5498 20.3307 37.6279 20.0801L38.4434 20.3193C38.3555 20.6318 38.2741 20.9834 38.1992 21.374C38.1276 21.7646 38.0918 22.1374 38.0918 22.4922C38.0918 22.9805 38.1715 23.3792 38.3311 23.6885C38.4938 24.001 38.7428 24.2305 39.0781 24.377C39.4167 24.5267 39.8496 24.6016 40.377 24.6016C40.9336 24.6016 41.3763 24.5267 41.7051 24.377C42.0339 24.2272 42.2699 24.0091 42.4131 23.7227C42.5596 23.4362 42.6328 23.0895 42.6328 22.6826C42.6328 22.4515 42.61 22.1992 42.5645 21.9258C42.5221 21.6523 42.4652 21.3708 42.3936 21.0811C42.3219 20.7913 42.2438 20.5081 42.1592 20.2314L43.043 19.9043L43.3164 20.9199C43.4043 21.3008 43.5247 21.5938 43.6777 21.7988C43.834 22.0007 44.0749 22.1016 44.4004 22.1016C44.6706 22.1016 44.8773 22.0186 45.0205 21.8525C45.1637 21.6865 45.2516 21.4229 45.2842 21.0615L45.3623 20.0996L46.168 20.1631L46.1045 21.0322C46.0752 21.4001 46.1354 21.6702 46.2852 21.8428C46.4349 22.0153 46.6595 22.1016 46.959 22.1016C47.4961 22.1016 47.7646 21.7793 47.7646 21.1348C47.7646 20.985 47.75 20.7897 47.7207 20.5488C47.6947 20.3079 47.6572 20.0638 47.6084 19.8164L48.4873 19.6064C48.5361 19.8473 48.5752 20.1061 48.6045 20.3828C48.637 20.6595 48.6533 20.9085 48.6533 21.1299C48.6533 21.7549 48.5215 22.2236 48.2578 22.5361C47.9974 22.8454 47.6068 23 47.0859 23C46.7148 23 46.4121 22.9219 46.1777 22.7656C45.9434 22.6061 45.7855 22.3799 45.7041 22.0869C45.626 22.3831 45.4714 22.6094 45.2402 22.7656C45.0124 22.9219 44.7454 23 44.4395 23ZM44.0488 18.2344L44.7812 17.502L45.5088 18.2344L44.7812 18.9619L44.0488 18.2344ZM45.7529 18.2344L46.4854 17.502L47.2129 18.2344L46.4854 18.9619L45.7529 18.2344ZM44.9033 16.7158L45.6357 15.9834L46.3633 16.7158L45.6357 17.4434L44.9033 16.7158ZM52.4668 22.9219C52.3138 22.9512 52.151 22.9772 51.9785 23C51.806 23.026 51.6221 23.0391 51.4268 23.0391C50.9157 23.0391 50.5104 22.9121 50.2109 22.6582C49.9115 22.4043 49.7617 22.012 49.7617 21.4814C49.7617 21.208 49.7959 20.9329 49.8643 20.6562C49.9359 20.3796 50.0433 20.1273 50.1865 19.8994C50.3298 19.6715 50.5104 19.4893 50.7285 19.3525C50.9466 19.2126 51.2038 19.1426 51.5 19.1426C51.8776 19.1426 52.1901 19.2435 52.4375 19.4453C52.6849 19.6471 52.8802 19.9141 53.0234 20.2461C53.1667 20.5781 53.2676 20.9476 53.3262 21.3545C53.3848 21.7581 53.4141 22.1618 53.4141 22.5654C53.4141 23.3662 53.1146 24.0303 52.5156 24.5576C51.9167 25.085 51.0573 25.5081 49.9375 25.8271L49.5762 25.002C50.4388 24.7708 51.1175 24.4811 51.6123 24.1328C52.1071 23.7845 52.3919 23.3809 52.4668 22.9219ZM52.5645 22.0088C52.5482 21.7712 52.5173 21.5352 52.4717 21.3008C52.4261 21.0664 52.361 20.8516 52.2764 20.6562C52.195 20.4609 52.0892 20.3047 51.959 20.1875C51.832 20.0703 51.6742 20.0117 51.4854 20.0117C51.2738 20.0117 51.0996 20.0817 50.9629 20.2217C50.8294 20.3584 50.7301 20.5342 50.665 20.749C50.5999 20.9639 50.5674 21.1852 50.5674 21.4131C50.5674 21.6865 50.6488 21.8753 50.8115 21.9795C50.9775 22.0837 51.2152 22.1357 51.5244 22.1357C51.723 22.1357 51.9102 22.1227 52.0859 22.0967C52.265 22.0706 52.4245 22.0413 52.5645 22.0088ZM55.7529 20.0557L56.6123 19.7725C56.7816 20.3421 56.9085 20.8402 56.9932 21.2666C57.0778 21.693 57.1201 22.0853 57.1201 22.4434C57.1201 22.9707 57.0176 23.4411 56.8125 23.8545C56.6107 24.2679 56.2917 24.6374 55.8555 24.9629C55.4193 25.2884 54.848 25.583 54.1416 25.8467L53.7607 25.0312C54.3564 24.8099 54.8333 24.5771 55.1914 24.333C55.5527 24.0921 55.8148 23.8187 55.9775 23.5127C56.1403 23.21 56.2217 22.8568 56.2217 22.4531C56.2217 22.1536 56.1826 21.8086 56.1045 21.418C56.0296 21.0241 55.9124 20.57 55.7529 20.0557Z" fill="#CBCBCB"/>
<path d="M66.5 18.875H63.5C63.295 18.875 63.125 18.705 63.125 18.5C63.125 18.295 63.295 18.125 63.5 18.125H66.5C66.705 18.125 66.875 18.295 66.875 18.5C66.875 18.705 66.705 18.875 66.5 18.875Z" fill="#CBCBCB"/>
<path d="M69.5199 21.4001C68.7649 21.4001 68.125 20.8401 68.065 20.1201C68.025 19.7051 68.175 19.3001 68.475 19.0051C68.725 18.7451 69.0799 18.6001 69.4549 18.6001H70.5C70.995 18.6151 71.375 19.0051 71.375 19.4851V20.5151C71.375 20.9951 70.995 21.3851 70.515 21.4001H69.5199ZM70.4849 19.3501H69.4599C69.2849 19.3501 69.125 19.4151 69.01 19.5351C68.865 19.6751 68.795 19.8651 68.815 20.0551C68.84 20.3851 69.1599 20.6501 69.5199 20.6501H70.5C70.565 20.6501 70.625 20.5901 70.625 20.5151V19.4851C70.625 19.4101 70.5649 19.3551 70.4849 19.3501Z" fill="#CBCBCB"/>
<path d="M68 24.625H63.5C61.78 24.625 60.625 23.47 60.625 21.75V18.25C60.625 16.71 61.575 15.595 63.05 15.41C63.185 15.39 63.34 15.375 63.5 15.375H68C68.12 15.375 68.275 15.38 68.435 15.405C69.91 15.575 70.875 16.695 70.875 18.25V18.975C70.875 19.18 70.705 19.35 70.5 19.35H69.46C69.285 19.35 69.125 19.415 69.01 19.535L69.005 19.54C68.865 19.675 68.8 19.86 68.815 20.05C68.84 20.38 69.16 20.645 69.52 20.645H70.5C70.705 20.645 70.875 20.815 70.875 21.02V21.745C70.875 23.47 69.72 24.625 68 24.625ZM63.5 16.125C63.38 16.125 63.265 16.135 63.15 16.15C62.05 16.29 61.375 17.09 61.375 18.25V21.75C61.375 23.04 62.21 23.875 63.5 23.875H68C69.29 23.875 70.125 23.04 70.125 21.75V21.4H69.52C68.765 21.4 68.125 20.84 68.065 20.12C68.025 19.71 68.175 19.3 68.475 19.01C68.735 18.745 69.085 18.6 69.46 18.6H70.125V18.25C70.125 17.08 69.44 16.275 68.33 16.145C68.21 16.125 68.105 16.125 68 16.125H63.5Z" fill="#CBCBCB"/>
<line x1="117.5" y1="20.5" x2="76.5" y2="20.5" stroke="#CBCBCB" stroke-linecap="round" stroke-dasharray="4 4"/>
<path d="M129.949 19.1377C130.031 19.4176 130.092 19.6862 130.135 19.9434C130.177 20.2005 130.198 20.4463 130.198 20.6807C130.198 21.2536 130.07 21.7093 129.812 22.0479C129.555 22.3864 129.144 22.6305 128.577 22.7803C128.011 22.9268 127.264 23 126.336 23C125.408 23 124.661 22.9268 124.095 22.7803C123.532 22.6305 123.121 22.3864 122.864 22.0479C122.607 21.7093 122.479 21.2536 122.479 20.6807C122.479 20.4463 122.5 20.2005 122.542 19.9434C122.588 19.6862 122.648 19.4176 122.723 19.1377L123.538 19.3281C123.476 19.5723 123.427 19.8001 123.392 20.0117C123.359 20.2233 123.343 20.4219 123.343 20.6074C123.343 20.9883 123.432 21.2878 123.611 21.5059C123.794 21.724 124.103 21.8786 124.539 21.9697C124.975 22.0576 125.574 22.1016 126.336 22.1016C127.098 22.1016 127.697 22.0576 128.133 21.9697C128.569 21.8786 128.878 21.724 129.061 21.5059C129.243 21.2878 129.334 20.9883 129.334 20.6074C129.334 20.4219 129.318 20.2233 129.285 20.0117C129.253 19.8001 129.204 19.5723 129.139 19.3281L129.949 19.1377ZM126.453 18.8154L127.186 18.083L127.913 18.8154L127.186 19.543L126.453 18.8154ZM124.749 18.8154L125.481 18.083L126.209 18.8154L125.481 19.543L124.749 18.8154ZM131.443 16.2812H132.347V20.8467C132.347 21.2926 132.438 21.6133 132.62 21.8086C132.806 22.0039 133.154 22.1016 133.665 22.1016V23C132.942 23 132.391 22.8226 132.01 22.4678C131.632 22.1097 131.443 21.5742 131.443 20.8613V16.2812ZM135.169 20.666C135.169 20.8906 135.223 21.0876 135.33 21.2568C135.438 21.4229 135.577 21.5514 135.75 21.6426C135.926 21.7305 136.115 21.7744 136.316 21.7744C136.378 21.7744 136.466 21.7679 136.58 21.7549C136.697 21.7386 136.814 21.7191 136.932 21.6963L138.475 21.4033L138.636 22.2871L136.053 22.7803C135.682 22.8486 135.311 22.9023 134.939 22.9414C134.572 22.9805 134.223 23 133.895 23H133.67C133.615 23 133.576 22.9642 133.553 22.8926C133.53 22.8177 133.519 22.7038 133.519 22.5508C133.519 22.3978 133.53 22.2855 133.553 22.2139C133.576 22.139 133.615 22.1016 133.67 22.1016H133.86C134.039 22.1016 134.22 22.0951 134.402 22.082C134.585 22.0658 134.79 22.0413 135.018 22.0088C134.803 21.8786 134.624 21.7028 134.48 21.4814C134.34 21.2568 134.271 20.9883 134.271 20.6758C134.271 20.2201 134.371 19.8229 134.573 19.4844C134.778 19.1426 135.049 18.8773 135.384 18.6885C135.722 18.4964 136.087 18.4004 136.478 18.4004C136.852 18.4004 137.173 18.4671 137.439 18.6006C137.71 18.7308 137.968 18.9261 138.216 19.1865L137.713 19.8311C137.544 19.6618 137.358 19.5316 137.156 19.4404C136.958 19.346 136.738 19.2988 136.497 19.2988C136.269 19.2988 136.053 19.3525 135.848 19.46C135.646 19.5641 135.481 19.7188 135.354 19.9238C135.231 20.1289 135.169 20.3763 135.169 20.666ZM140.057 16.4961L140.892 16.1738C141.217 16.9421 141.466 17.7152 141.639 18.4932C141.814 19.2679 141.917 20.0687 141.946 20.8955L141.072 20.9932C141.056 20.4723 141.006 19.9613 140.921 19.46C140.84 18.9554 140.727 18.4574 140.584 17.9658C140.441 17.4743 140.265 16.9844 140.057 16.4961ZM144.065 16.2812H144.969V20.8467C144.969 21.3122 145.065 21.6377 145.257 21.8232C145.452 22.0088 145.794 22.1016 146.282 22.1016H146.287V23H146.282C145.657 23 145.177 22.8633 144.842 22.5898C144.51 22.3164 144.316 21.9014 144.261 21.3447V21.1201C143.971 21.5465 143.618 21.8997 143.201 22.1797C142.788 22.4564 142.298 22.6631 141.731 22.7998C141.168 22.9333 140.517 23 139.778 23V22.1016C140.579 22.1016 141.256 22.0316 141.81 21.8916C142.363 21.7516 142.82 21.5286 143.182 21.2227C143.546 20.9134 143.841 20.5098 144.065 20.0117V16.2812ZM146.302 23C146.246 23 146.207 22.9674 146.185 22.9023C146.162 22.8372 146.15 22.7201 146.15 22.5508C146.15 22.3783 146.162 22.2611 146.185 22.1992C146.207 22.1341 146.246 22.1016 146.302 22.1016H147.02C147.062 22.0332 147.104 21.9681 147.146 21.9062C147.189 21.8444 147.229 21.7826 147.269 21.7207V16.2812H148.162V19.626C148.162 19.8473 148.156 20.0622 148.143 20.2705C148.133 20.4756 148.112 20.6823 148.079 20.8906C148.493 20.3307 148.916 19.9092 149.349 19.626C149.785 19.3395 150.221 19.1963 150.657 19.1963C151.032 19.1963 151.352 19.2777 151.619 19.4404C151.886 19.6032 152.091 19.8213 152.234 20.0947C152.378 20.3682 152.449 20.6742 152.449 21.0127C152.449 21.2764 152.404 21.527 152.312 21.7646C152.225 22.0023 152.067 22.2139 151.839 22.3994C151.611 22.585 151.295 22.7314 150.892 22.8389C150.488 22.9463 149.972 23 149.344 23H146.302ZM148.069 22.1016H149.515C149.775 22.1016 150.022 22.0869 150.257 22.0576C150.491 22.0283 150.7 21.9762 150.882 21.9014C151.067 21.8265 151.212 21.7191 151.316 21.5791C151.421 21.4391 151.473 21.2568 151.473 21.0322C151.473 20.7523 151.386 20.5244 151.214 20.3486C151.045 20.1696 150.812 20.0801 150.516 20.0801C150.314 20.0801 150.088 20.1403 149.837 20.2607C149.586 20.3812 149.313 20.5879 149.017 20.8809C148.724 21.1706 148.408 21.5775 148.069 22.1016ZM154.656 23H153.758V16.2812H154.656V23ZM165.022 22.1016V23H164.925C164.612 23 164.327 22.9414 164.07 22.8242C163.813 22.7038 163.624 22.5296 163.504 22.3018V22.8828C163.501 23.4818 163.383 23.9896 163.152 24.4062C162.924 24.8229 162.594 25.1387 162.161 25.3535C161.731 25.5716 161.209 25.6807 160.594 25.6807C160.011 25.6807 159.521 25.5798 159.124 25.3779C158.73 25.1794 158.431 24.8978 158.226 24.5332C158.021 24.1686 157.918 23.7389 157.918 23.2441C157.918 22.9154 157.955 22.5654 158.03 22.1943C158.108 21.82 158.224 21.4408 158.377 21.0566L159.173 21.3496C159.052 21.6719 158.96 21.9893 158.895 22.3018C158.829 22.611 158.797 22.891 158.797 23.1416C158.797 23.6624 158.951 24.0661 159.261 24.3525C159.573 24.639 160.044 24.7822 160.672 24.7822C161.342 24.7822 161.836 24.6113 162.151 24.2695C162.467 23.931 162.625 23.4118 162.625 22.7119V16.2812H163.523V20.6611C163.523 20.9704 163.564 21.2324 163.646 21.4473C163.727 21.6621 163.868 21.8249 164.07 21.9355C164.275 22.0462 164.56 22.1016 164.925 22.1016H165.022ZM166.033 24.7432L166.766 24.0107L167.493 24.7432L166.766 25.4707L166.033 24.7432ZM164.329 24.7432L165.062 24.0107L165.789 24.7432L165.062 25.4707L164.329 24.7432ZM167.884 19.8994V20.627C167.884 20.9622 167.92 21.2389 167.991 21.457C168.063 21.6751 168.211 21.8379 168.436 21.9453C168.663 22.0495 169.008 22.1016 169.471 22.1016H169.48V23H169.471C168.94 23 168.491 22.9089 168.123 22.7266C167.755 22.541 167.524 22.2822 167.43 21.9502C167.332 22.2855 167.103 22.5443 166.741 22.7266C166.38 22.9089 165.926 23 165.379 23H165.027C164.972 23 164.933 22.9674 164.91 22.9023C164.887 22.8372 164.876 22.7201 164.876 22.5508C164.876 22.3783 164.887 22.2611 164.91 22.1992C164.933 22.1341 164.972 22.1016 165.027 22.1016H165.379C165.841 22.1016 166.186 22.0479 166.414 21.9404C166.645 21.833 166.798 21.6702 166.873 21.4521C166.948 21.234 166.985 20.959 166.985 20.627V19.8994H167.884ZM171.517 21.4473C171.722 21.6784 171.935 21.8542 172.156 21.9746C172.378 22.0951 172.61 22.1553 172.854 22.1553C173.095 22.1553 173.297 22.0788 173.46 21.9258C173.623 21.7728 173.704 21.5612 173.704 21.291C173.704 21.0827 173.66 20.8841 173.572 20.6953C173.488 20.5033 173.372 20.3454 173.226 20.2217C173.082 20.098 172.921 20.0361 172.742 20.0361C172.576 20.0361 172.43 20.0801 172.303 20.168C172.179 20.2526 172.067 20.3763 171.966 20.5391C171.865 20.6986 171.766 20.8923 171.668 21.1201L171.517 21.4473ZM169.48 22.1016C169.76 22.1016 169.993 22.0332 170.179 21.8965C170.364 21.7565 170.522 21.5775 170.652 21.3594C170.783 21.1413 170.906 20.9134 171.023 20.6758C171.154 20.4154 171.29 20.1696 171.434 19.9385C171.58 19.7041 171.756 19.5137 171.961 19.3672C172.166 19.2207 172.425 19.1475 172.737 19.1475C173.063 19.1475 173.331 19.224 173.543 19.377C173.758 19.5267 173.937 19.7188 174.08 19.9531C174.223 20.1875 174.352 20.4333 174.466 20.6904C174.576 20.9346 174.694 21.1641 174.817 21.3789C174.941 21.5938 175.094 21.7679 175.276 21.9014C175.459 22.0348 175.69 22.1016 175.97 22.1016H175.975V23H175.97C175.709 23 175.47 22.9512 175.252 22.8535C175.034 22.7526 174.847 22.611 174.69 22.4287C174.534 22.2464 174.417 22.0316 174.339 21.7842C174.287 22.1813 174.122 22.4922 173.846 22.7168C173.572 22.9414 173.24 23.0537 172.85 23.0537C172.501 23.0537 172.173 22.9723 171.863 22.8096C171.557 22.6468 171.29 22.4271 171.062 22.1504C170.887 22.3978 170.674 22.6012 170.423 22.7607C170.175 22.9202 169.861 23 169.48 23C169.425 23 169.386 22.9674 169.363 22.9023C169.34 22.8372 169.329 22.7201 169.329 22.5508C169.329 22.3783 169.34 22.2611 169.363 22.1992C169.386 22.1341 169.425 22.1016 169.48 22.1016ZM180.32 15.7686L180.521 16.6426C179.869 16.8411 179.272 17.0479 178.729 17.2627C178.188 17.4743 177.667 17.7103 177.166 17.9707V18.0195C177.563 18.319 177.907 18.6071 178.196 18.8838C178.486 19.1605 178.737 19.4453 178.948 19.7383C179.163 20.028 179.355 20.3454 179.524 20.6904C179.7 21.0485 179.878 21.3301 180.057 21.5352C180.236 21.7402 180.441 21.8867 180.672 21.9746C180.906 22.0592 181.191 22.1016 181.526 22.1016V23C181.149 23 180.812 22.9479 180.516 22.8438C180.219 22.7396 179.959 22.5768 179.734 22.3555C179.51 22.1309 179.314 21.8444 179.148 21.4961C179.1 21.9941 178.86 22.3701 178.431 22.624C178.001 22.8747 177.397 23 176.619 23H175.975C175.923 23 175.885 22.9642 175.862 22.8926C175.836 22.821 175.823 22.7054 175.823 22.5459C175.823 22.3864 175.836 22.2725 175.862 22.2041C175.885 22.1357 175.923 22.1016 175.975 22.1016H176.604C177.246 22.1016 177.731 22.0169 178.06 21.8477C178.392 21.6751 178.558 21.4212 178.558 21.0859C178.558 20.7214 178.357 20.3161 177.957 19.8701C177.557 19.4209 176.961 18.9196 176.17 18.3662V17.5361C177.498 16.7614 178.882 16.1722 180.32 15.7686ZM183.631 19.04C183.719 19.4014 183.79 19.7448 183.846 20.0703C183.901 20.3958 183.929 20.6986 183.929 20.9785C183.929 21.3887 183.855 21.7451 183.709 22.0479C183.566 22.3506 183.336 22.585 183.021 22.751C182.705 22.917 182.29 23 181.775 23H181.531C181.476 23 181.437 22.9674 181.414 22.9023C181.391 22.8372 181.38 22.7201 181.38 22.5508C181.38 22.3783 181.391 22.2611 181.414 22.1992C181.437 22.1341 181.476 22.1016 181.531 22.1016H181.775C182.238 22.1016 182.566 22.0007 182.762 21.7988C182.957 21.5938 183.055 21.3008 183.055 20.9199C183.055 20.7018 183.029 20.4561 182.977 20.1826C182.928 19.9059 182.864 19.6016 182.786 19.2695L183.631 19.04ZM182.889 17.4336L183.621 16.7012L184.349 17.4336L183.621 18.1611L182.889 17.4336ZM181.185 17.4336L181.917 16.7012L182.645 17.4336L181.917 18.1611L181.185 17.4336Z" fill="#CBCBCB"/>
<path d="M194.5 25.375H191.5C188.785 25.375 187.625 24.215 187.625 21.5V18.5C187.625 15.785 188.785 14.625 191.5 14.625H194.5C197.215 14.625 198.375 15.785 198.375 18.5V21.5C198.375 24.215 197.215 25.375 194.5 25.375ZM191.5 15.375C189.195 15.375 188.375 16.195 188.375 18.5V21.5C188.375 23.805 189.195 24.625 191.5 24.625H194.5C196.805 24.625 197.625 23.805 197.625 21.5V18.5C197.625 16.195 196.805 15.375 194.5 15.375H191.5Z" fill="#CBCBCB"/>
<path d="M192.29 21.79C192.19 21.79 192.095 21.75 192.025 21.68L190.61 20.265C190.465 20.12 190.465 19.88 190.61 19.735C190.755 19.59 190.995 19.59 191.14 19.735L192.29 20.885L194.86 18.315C195.005 18.17 195.245 18.17 195.39 18.315C195.535 18.46 195.535 18.7 195.39 18.845L192.555 21.68C192.485 21.75 192.39 21.79 192.29 21.79Z" fill="#CBCBCB"/>
<line x1="244.5" y1="20.5" x2="203.5" y2="20.5" stroke="url(#paint0_linear_2399_747508)" stroke-linecap="round" stroke-dasharray="4 4"/>
<path d="M253.213 18.0645L254.795 21.7617C254.99 22.207 255.213 22.5117 255.463 22.6758C255.713 22.8398 256.043 22.9219 256.453 22.9219H256.547V24H256.441C255.949 24 255.514 23.9082 255.135 23.7246C254.756 23.541 254.451 23.2305 254.221 22.793C253.979 23.2148 253.639 23.5312 253.201 23.7422C252.764 23.9531 252.297 24.0586 251.801 24.0586C251.406 24.0586 251.01 23.9902 250.611 23.8535C250.213 23.7129 249.848 23.5 249.516 23.2148L250.025 22.3535C250.299 22.5684 250.588 22.7266 250.893 22.8281C251.197 22.9258 251.496 22.9746 251.789 22.9746C252.18 22.9746 252.543 22.8926 252.879 22.7285C253.219 22.5645 253.498 22.3184 253.717 21.9902L252.199 18.5508L253.213 18.0645ZM259.066 19.248C259.172 19.6816 259.258 20.0938 259.324 20.4844C259.391 20.875 259.424 21.2383 259.424 21.5742C259.424 22.0664 259.336 22.4941 259.16 22.8574C258.988 23.2207 258.713 23.502 258.334 23.7012C257.955 23.9004 257.457 24 256.84 24H256.547C256.48 24 256.434 23.9609 256.406 23.8828C256.379 23.8047 256.365 23.6641 256.365 23.4609C256.365 23.2539 256.379 23.1133 256.406 23.0391C256.434 22.9609 256.48 22.9219 256.547 22.9219H256.84C257.395 22.9219 257.789 22.8008 258.023 22.5586C258.258 22.3125 258.375 21.9609 258.375 21.5039C258.375 21.2422 258.344 20.9473 258.281 20.6191C258.223 20.2871 258.146 19.9219 258.053 19.5234L259.066 19.248ZM257.467 26.0918L258.346 25.2129L259.219 26.0918L258.346 26.9648L257.467 26.0918ZM255.422 26.0918L256.301 25.2129L257.174 26.0918L256.301 26.9648L255.422 26.0918ZM262.225 20.4668L263.256 20.127L263.59 21.3047C263.707 21.7305 263.838 22.0605 263.982 22.2949C264.127 22.5293 264.314 22.6934 264.545 22.7871C264.775 22.877 265.078 22.9219 265.453 22.9219H265.459V24H265.453C265.078 24 264.744 23.9395 264.451 23.8184C264.162 23.6973 263.939 23.5254 263.783 23.3027C263.795 23.9707 263.68 24.5527 263.438 25.0488C263.199 25.5488 262.82 25.9902 262.301 26.373C261.785 26.7559 261.115 27.1035 260.291 27.416L259.834 26.4375C260.545 26.1719 261.117 25.8926 261.551 25.5996C261.984 25.3105 262.299 24.9824 262.494 24.6152C262.689 24.248 262.787 23.8184 262.787 23.3262C262.787 22.9707 262.74 22.5586 262.646 22.0898C262.553 21.6172 262.412 21.0762 262.225 20.4668ZM268.219 18.9844C268.492 18.9844 268.777 19.041 269.074 19.1543C269.375 19.2676 269.699 19.4043 270.047 19.5645C270.406 19.7246 270.795 19.8887 271.213 20.0566C271.631 20.2207 272.094 20.3516 272.602 20.4492V21.3926L270.182 23.0098C269.666 23.3496 269.131 23.5996 268.576 23.7598C268.025 23.9199 267.426 24 266.777 24H265.465C265.398 24 265.352 23.9609 265.324 23.8828C265.297 23.8008 265.283 23.6602 265.283 23.4609C265.283 23.2578 265.297 23.1172 265.324 23.0391C265.352 22.9609 265.398 22.9219 265.465 22.9219H266.947C267.299 22.9219 267.629 22.8965 267.938 22.8457C268.246 22.791 268.543 22.709 268.828 22.5996C269.117 22.4863 269.404 22.3398 269.689 22.1602L271.348 21.0938C270.969 21.0195 270.627 20.9219 270.322 20.8008C270.021 20.6797 269.744 20.5625 269.49 20.4492C269.252 20.3398 269.033 20.248 268.834 20.1738C268.639 20.0957 268.447 20.0566 268.26 20.0566C267.947 20.0566 267.705 20.1621 267.533 20.373C267.365 20.584 267.242 20.8672 267.164 21.2227L267.129 21.4102L266.25 21.2461L266.291 21.0234C266.408 20.4141 266.615 19.9219 266.912 19.5469C267.209 19.1719 267.645 18.9844 268.219 18.9844ZM268.33 16.5L269.209 15.6211L270.082 16.5L269.209 17.373L268.33 16.5ZM279.732 18.0645L281.314 21.7617C281.51 22.207 281.732 22.5117 281.982 22.6758C282.232 22.8398 282.562 22.9219 282.973 22.9219H283.066V24H282.961C282.469 24 282.033 23.9082 281.654 23.7246C281.275 23.541 280.971 23.2305 280.74 22.793C280.498 23.2148 280.158 23.5312 279.721 23.7422C279.283 23.9531 278.816 24.0586 278.32 24.0586C277.926 24.0586 277.529 23.9902 277.131 23.8535C276.732 23.7129 276.367 23.5 276.035 23.2148L276.545 22.3535C276.818 22.5684 277.107 22.7266 277.412 22.8281C277.717 22.9258 278.016 22.9746 278.309 22.9746C278.699 22.9746 279.062 22.8926 279.398 22.7285C279.738 22.5645 280.018 22.3184 280.236 21.9902L278.719 18.5508L279.732 18.0645ZM286.072 21.1523C286.072 21.5469 286.109 21.877 286.184 22.1426C286.258 22.4043 286.402 22.5996 286.617 22.7285C286.836 22.8574 287.158 22.9219 287.584 22.9219H287.988V24H287.566C287.07 24 286.635 23.8906 286.26 23.6719C285.885 23.4531 285.641 23.1426 285.527 22.7402C285.449 23.0098 285.303 23.2383 285.088 23.4258C284.873 23.6133 284.615 23.7559 284.314 23.8535C284.014 23.9512 283.693 24 283.354 24H283.066C283 24 282.953 23.9609 282.926 23.8828C282.898 23.8047 282.885 23.6641 282.885 23.4609C282.885 23.2539 282.898 23.1133 282.926 23.0391C282.953 22.9609 283 22.9219 283.066 22.9219H283.354C283.814 22.9219 284.162 22.8574 284.396 22.7285C284.631 22.5957 284.789 22.3984 284.871 22.1367C284.953 21.875 284.994 21.5469 284.994 21.1523V20.2793H286.072V21.1523ZM283.031 26.0918L283.91 25.2129L284.783 26.0918L283.91 26.9648L283.031 26.0918ZM292.055 22.9219C292.387 22.9258 292.641 22.8301 292.816 22.6348C292.996 22.4355 293.105 22.1152 293.145 21.6738L293.238 20.5195L294.205 20.5957L294.129 21.6387C294.094 22.0801 294.166 22.4043 294.346 22.6113C294.525 22.8184 294.795 22.9219 295.154 22.9219C295.799 22.9219 296.121 22.5332 296.121 21.7559C296.121 21.627 296.113 21.4668 296.098 21.2754C296.082 21.084 296.061 20.8848 296.033 20.6777C296.006 20.4668 295.975 20.2695 295.939 20.0859L296.982 19.834C297.021 20.0176 297.057 20.2227 297.088 20.4492C297.119 20.6758 297.143 20.9023 297.158 21.1289C297.178 21.3555 297.188 21.5605 297.188 21.7441C297.188 22.4941 297.031 23.0586 296.719 23.4375C296.406 23.8125 295.938 24 295.312 24C294.867 24 294.502 23.9062 294.217 23.7188C293.936 23.5273 293.746 23.2559 293.648 22.9043C293.418 23.6348 292.877 24 292.025 24C291.572 24 291.209 23.8965 290.936 23.6895C290.662 23.4785 290.482 23.1738 290.396 22.7754C290.264 23.1426 290.004 23.4395 289.617 23.666C289.234 23.8887 288.789 24 288.281 24H287.988C287.926 24 287.881 23.957 287.854 23.8711C287.822 23.7812 287.807 23.6406 287.807 23.4492C287.807 23.2617 287.822 23.127 287.854 23.0449C287.881 22.9629 287.926 22.9219 287.988 22.9219H288.281C288.828 22.9219 289.236 22.791 289.506 22.5293C289.775 22.2676 289.939 21.832 289.998 21.2227L290.092 20.2324L291.176 20.3203L291.059 21.5332C291.016 21.9785 291.078 22.3203 291.246 22.5586C291.414 22.793 291.684 22.9141 292.055 22.9219Z" fill="#417F56"/>
<path d="M312.127 23.8333H305.027C304.367 23.8333 303.733 23.5533 303.287 23.0666C302.84 22.5799 302.613 21.9266 302.667 21.2666L303.22 14.6266C303.24 14.4199 303.167 14.2199 303.027 14.0666C302.887 13.9133 302.693 13.8333 302.487 13.8333H301.333C301.06 13.8333 300.833 13.6066 300.833 13.3333C300.833 13.0599 301.06 12.8333 301.333 12.8333H302.493C302.98 12.8333 303.44 13.0399 303.767 13.3932C303.947 13.5932 304.08 13.8266 304.153 14.0866H312.48C313.153 14.0866 313.773 14.3533 314.227 14.8333C314.673 15.3199 314.9 15.9533 314.847 16.6266L314.487 21.6266C314.413 22.8466 313.347 23.8333 312.127 23.8333ZM304.187 15.0799L303.667 21.3466C303.633 21.7332 303.76 22.0999 304.02 22.3866C304.28 22.6732 304.64 22.8266 305.027 22.8266H312.127C312.82 22.8266 313.447 22.2399 313.5 21.5466L313.86 16.5466C313.887 16.1533 313.76 15.7799 313.5 15.5066C313.24 15.2266 312.88 15.0732 312.487 15.0732H304.187V15.0799Z" fill="#417F56"/>
<path d="M310.833 27.1667C310.1 27.1667 309.5 26.5667 309.5 25.8333C309.5 25.1 310.1 24.5 310.833 24.5C311.567 24.5 312.167 25.1 312.167 25.8333C312.167 26.5667 311.567 27.1667 310.833 27.1667ZM310.833 25.5C310.647 25.5 310.5 25.6467 310.5 25.8333C310.5 26.02 310.647 26.1667 310.833 26.1667C311.02 26.1667 311.167 26.02 311.167 25.8333C311.167 25.6467 311.02 25.5 310.833 25.5Z" fill="#417F56"/>
<path d="M305.5 27.1667C304.767 27.1667 304.167 26.5667 304.167 25.8333C304.167 25.1 304.767 24.5 305.5 24.5C306.233 24.5 306.833 25.1 306.833 25.8333C306.833 26.5667 306.233 27.1667 305.5 27.1667ZM305.5 25.5C305.313 25.5 305.167 25.6467 305.167 25.8333C305.167 26.02 305.313 26.1667 305.5 26.1667C305.687 26.1667 305.833 26.02 305.833 25.8333C305.833 25.6467 305.687 25.5 305.5 25.5Z" fill="#417F56"/>
<path d="M314 17.8333H306C305.727 17.8333 305.5 17.6066 305.5 17.3333C305.5 17.0599 305.727 16.8333 306 16.8333H314C314.273 16.8333 314.5 17.0599 314.5 17.3333C314.5 17.6066 314.273 17.8333 314 17.8333Z" fill="#417F56"/>
<defs>
<linearGradient id="paint0_linear_2399_747508" x1="245" y1="20" x2="203" y2="20" gradientUnits="userSpaceOnUse">
<stop offset="0.485754" stop-color="#417F56"/>
<stop offset="0.501641" stop-color="#CBCBCB"/>
</linearGradient>
</defs>
</svg>
