<svg width="221" height="233" viewBox="0 0 221 233" fill="none" xmlns="http://www.w3.org/2000/svg">
<g clip-path="url(#clip0_2399_744777)">
<g opacity="0.5">
<path d="M78.1675 2.18553C110.958 -3.84624 183.312 0.377346 190.976 43.6927C194.782 65.2019 178.791 76.186 169.858 92.8914C163.719 104.361 167.632 112.498 172.49 123.442C182.921 146.934 186.402 171.372 165.608 189.791C142.925 209.897 102.861 226.036 72.689 212.798C50.5725 203.096 34.2045 183.449 29.8324 161.629C25.9192 142.023 36.377 121.728 30.2238 102.418C23.7467 82.0963 8.45813 63.9335 17.4181 41.6551C26.6614 18.675 54.1754 6.59803 78.1675 2.18553Z" fill="#E5F2E9"/>
</g>
<mask id="mask0_2399_744777" style="mask-type:luminance" maskUnits="userSpaceOnUse" x="0" y="0" width="206" height="218">
<path d="M78.1677 2.18553C110.958 -3.84624 183.312 0.377346 190.977 43.6927C194.782 65.2019 212.162 109.556 203.229 126.262C197.089 137.732 176.754 133.872 178.184 139.081C183.258 157.433 181.787 175.433 165.595 189.791C142.911 209.897 102.848 226.036 72.6757 212.798C56.3212 205.619 43.0972 193.016 35.5676 178.092C32.9093 172.843 8.76873 162.061 7.63524 156.38C3.72202 136.773 7.87813 126.599 1.72492 107.289C-4.75214 86.9676 8.45837 63.947 17.4183 41.6686C26.6616 18.675 54.1756 6.59803 78.1677 2.18553Z" fill="white"/>
</mask>
<g mask="url(#mask0_2399_744777)">
<path d="M116.422 123.145C113.089 136.234 103.752 136.234 46.4837 159.146C43.0697 160.509 39.6963 161.535 36.5252 161.737C34.1368 161.899 31.8563 161.602 29.7378 160.644C24.6371 157.81 22.9369 150.591 23.1528 143.372C23.1932 142.373 23.2472 141.361 23.3417 140.363C24.4886 137.57 31.8698 138.096 33.6105 136.773C38.5358 133.049 44.8509 129.014 51.355 125.142C64.0257 117.572 77.3847 110.582 82.4044 107.64C86.628 105.184 91 103.039 95.5879 101.42C104.372 98.3296 113.791 102.162 116.719 112.903C117.664 116.29 117.286 119.731 116.422 123.145Z" fill="#F0D0BB"/>
<path d="M51.3685 125.155C50.8827 129.257 50.3159 133.414 49.6277 137.529C48.2784 145.72 46.7266 155.017 40.209 159.848C39.0755 160.685 37.8476 161.413 36.5252 161.737C36.1069 161.845 35.6616 161.913 35.2163 161.913C33.0708 161.94 31.2491 161.494 29.7378 160.644C24.6371 157.81 22.9369 150.591 23.1528 143.372C23.1932 142.373 23.2472 141.361 23.3417 140.363C23.733 135.788 24.6641 131.268 25.865 126.788C37.1864 84.4172 39.4534 74.6746 44.77 71.9894C47.9815 70.3701 51.2605 70.8829 52.421 75.6057C53.7839 81.0438 54.0268 102.378 51.3685 125.155Z" fill="#F0D0BB"/>
<path d="M52.1104 127.085C52.1239 129.541 51.854 131.97 51.4222 134.372C50.9634 136.773 50.3022 139.148 49.3441 141.402C49.2497 141.631 48.9933 141.726 48.7639 141.631C48.548 141.537 48.4401 141.294 48.521 141.078V141.065C48.9393 139.945 49.3576 138.825 49.6815 137.678C50.0188 136.531 50.3022 135.37 50.5316 134.196C51.0309 131.862 51.3143 129.46 51.4222 127.085V127.071C51.4357 126.882 51.5841 126.734 51.773 126.748C51.962 126.748 52.0969 126.896 52.1104 127.085Z" fill="#353535"/>
<path d="M55.7679 62.6786C55.5654 62.4492 55.3495 62.2198 55.1336 61.9904C53.339 60.1687 51.2069 58.4415 48.4946 59.0757C44.9323 59.9123 41.019 63.4073 39.6697 66.7942C37.8345 71.3956 37.2408 79.3705 39.1839 84.1878C41.8422 90.7863 53.8247 92.554 60.6122 78.8173C62.3394 75.3224 60.7066 71.8409 59.2628 68.4C58.4261 66.3759 57.2522 64.3788 55.7679 62.6786Z" fill="#F0D0BB"/>
<path d="M50.5449 88.1955C49.209 88.9107 47.6977 89.3965 46.1054 89.41C44.5266 89.3965 42.9478 88.8297 41.7199 87.8852C41.531 87.7367 41.4905 87.4668 41.6389 87.2779C41.7739 87.089 42.0437 87.0485 42.2327 87.1835C43.4066 87.9796 44.729 88.5059 46.1324 88.5194C47.5357 88.5733 48.9256 88.155 50.248 87.5883C50.4234 87.5073 50.6258 87.5883 50.6933 87.7637C50.7608 87.9256 50.6933 88.1146 50.5449 88.1955Z" fill="#353535"/>
<path d="M67.0753 56.458L61.138 65.2425L53.1092 77.1036L48.6157 83.7561L47.1584 85.8882L27.7002 72.7316L33.651 63.9471L41.6799 52.086L47.6172 43.3015L55.8214 48.861L67.0753 56.458Z" fill="#963C4E"/>
<path d="M61.1384 65.2424L53.1095 77.1035L44.9592 71.5846L33.6514 63.947L41.6802 52.0859L49.871 57.6319L61.1384 65.2424Z" fill="#D46966"/>
<path d="M50.0322 60.1958L47.0905 61.8691C46.996 61.923 46.8881 61.923 46.8071 61.8826L43.7575 60.4117C43.5281 60.3038 43.2717 60.5062 43.3257 60.7491L44.0139 64.0686C44.0409 64.163 44.0004 64.271 43.9329 64.3384L41.585 66.7808C41.4096 66.9698 41.5175 67.2666 41.7739 67.3071L45.1339 67.6849C45.2283 67.6984 45.3228 67.7524 45.3768 67.8468L46.9825 70.829C47.104 71.0584 47.4278 71.0449 47.5358 70.8155L48.9257 67.7254C48.9661 67.6309 49.0471 67.5635 49.1551 67.55L52.488 66.9563C52.7444 66.9158 52.8254 66.5919 52.6365 66.43L50.1401 64.1495C50.0591 64.0821 50.0322 63.9741 50.0457 63.8797L50.5044 60.5197C50.5314 60.2498 50.2616 60.0609 50.0322 60.1958Z" fill="white"/>
<path d="M47.1444 85.9152L42.597 87.9527C41.531 88.425 40.276 88.3171 39.3045 87.6559L29.0086 80.693C28.0371 80.0318 27.4703 78.9118 27.5108 77.7379L27.6997 72.7451L47.1444 85.9152Z" fill="#B0B3C2"/>
<path d="M67.1019 56.4309L55.8615 48.8204L47.6572 43.2744L52.2047 41.2503C53.2842 40.7645 54.5391 40.886 55.5107 41.5472L59.6533 44.3539L65.793 48.4965C66.7781 49.1577 67.3313 50.2777 67.2908 51.4517L67.1019 56.4309Z" fill="#B0B3C2"/>
<path opacity="0.25" d="M47.914 61.3968C48.5078 60.1014 49.169 58.8464 49.8706 57.6185C51.7598 54.299 53.9053 51.2899 55.8214 48.8475L47.6172 43.3015L41.6799 52.086L33.651 63.9471L27.7002 72.7316L47.1584 85.8882L48.6157 83.7561C45.5121 80.1128 44.581 75.8892 44.9589 71.5847C45.0668 70.4377 45.2692 69.2772 45.5391 68.1302C46.0654 65.8632 46.902 63.5963 47.914 61.3968Z" fill="#6E7289"/>
<path opacity="0.25" d="M27.4981 77.7515C27.4576 78.9389 28.0244 80.0454 28.9959 80.7066L39.2918 87.6695C40.2633 88.3307 41.5183 88.4386 42.5843 87.9663L47.1317 85.9287L27.6735 72.7722L27.4981 77.7515Z" fill="#6E7289"/>
<path opacity="0.25" d="M55.5107 41.5338C54.5391 40.8726 53.2842 40.7646 52.2047 41.2369L47.6572 43.261L55.8615 48.807C57.3458 46.9313 58.6817 45.393 59.6533 44.327L55.5107 41.5338Z" fill="#6E7289"/>
<path d="M45.8094 67.3341C47.3747 67.1991 48.3058 66.2141 48.2923 64.7298C48.2788 62.7462 46.646 61.7341 48.4947 61.8286C48.7781 61.8421 49.048 61.896 49.3178 61.896C50.9641 61.923 51.8817 60.9515 51.6388 59.3997C50.8966 54.8253 43.475 50.6287 39.5753 51.7486C35.5136 52.9091 30.6828 59.4267 31.8433 63.5828C33.5435 68.3056 41.8557 73.1769 44.1632 70.0194C45.4316 68.2787 42.5574 67.0102 44.3521 67.2261C44.433 67.2261 45.1482 67.3881 45.8094 67.3341Z" fill="#F0D0BB"/>
<path d="M41.5175 56.8492C42.5701 57.4969 43.5821 58.2121 44.5941 58.9273C45.6062 59.6425 46.6182 60.3711 47.4953 61.2752C47.6438 61.4237 47.6438 61.6531 47.4953 61.8015C47.3604 61.9364 47.158 61.9364 47.0096 61.842C46.011 61.1403 45.0529 60.3846 44.0814 59.6155C43.1098 58.8463 42.1248 58.1177 41.1667 57.335C41.0453 57.2406 41.0183 57.0516 41.1262 56.9302C41.2342 56.7953 41.3961 56.7683 41.5175 56.8492Z" fill="#353535"/>
<path d="M37.7804 61.6398C38.9409 62.3684 40.0609 63.1646 41.1944 63.9472C42.3279 64.7164 43.4613 65.5125 44.5004 66.3896C44.6488 66.5245 44.6758 66.7539 44.5408 66.9024C44.4194 67.0373 44.217 67.0643 44.0686 66.9833L44.0011 66.9429C42.8271 66.2277 41.7476 65.418 40.6681 64.5949C39.5886 63.7718 38.4956 62.9757 37.4431 62.112C37.3216 62.0041 37.2946 61.8287 37.4026 61.7072C37.497 61.5858 37.659 61.5588 37.7804 61.6398Z" fill="#353535"/>
<path d="M55.4437 83.7291C56.4152 83.7022 57.3868 83.3378 58.1289 82.6631C59.5728 81.3677 60.3959 79.4381 61.0976 77.6704C61.9477 75.5249 64.3631 69.2097 61.1516 67.9278C59.141 67.1317 56.4692 70.91 55.5786 72.3673C53.9863 74.9581 50.6398 79.5325 52.583 82.4877C53.2172 83.4458 54.3776 83.7561 55.4437 83.7291Z" fill="#F0D0BB"/>
<path d="M67.8852 134.183C66.6842 133.36 65.6047 132.374 64.4442 131.511C60.0857 128.259 58.7093 121.984 59.3975 116.479C59.9508 112.161 61.7724 114.711 69.8418 111.014C80.5289 106.129 91.0137 95.5093 104.17 94.9156C106.909 94.7941 109.527 95.3339 111.835 96.9127C118.717 101.622 122.495 109.003 119.931 117.423C116.881 127.49 109.919 131.443 100.878 138.501C96.5057 141.915 94.1577 143.777 92.0662 149.039C90.0826 154.032 90.7033 153.695 90.2445 155.085C89.7857 156.475 88.7872 157.082 87.3703 156.65C84.9279 155.908 82.58 155.004 80.6234 153.236C70.341 143.898 74.6321 138.784 67.8852 134.183Z" fill="#3D4357"/>
<path d="M70.7189 117.572C69.8283 118.759 69.2346 120.284 69.3561 121.741C69.4775 123.226 70.4086 124.494 71.65 125.398C74.1194 127.355 76.8587 129.014 79.1121 131.403C80.2186 132.604 81.1362 134.075 81.4871 135.734C81.7839 137.34 82.0808 138.825 82.5935 140.322C83.0793 141.807 83.727 143.224 84.5906 144.492C85.4543 145.733 86.6147 146.799 88.0181 147.218H88.0316C88.261 147.285 88.3959 147.528 88.3284 147.757C88.261 147.987 88.0181 148.122 87.7887 148.054C86.1154 147.555 84.8065 146.341 83.8755 144.991C82.9444 143.628 82.2697 142.131 81.7569 140.606C81.2307 139.094 80.9068 137.448 80.6234 135.937C80.3131 134.466 79.4765 133.157 78.4644 132.01C76.3729 129.73 73.6471 128.029 71.1642 126.019C69.8688 125.047 68.7488 123.536 68.6274 121.795C68.5059 120.068 69.1806 118.449 70.1927 117.126C70.3006 116.978 70.5165 116.951 70.665 117.059C70.8134 117.167 70.8404 117.383 70.7324 117.531L70.7189 117.572Z" fill="#353535"/>
<path d="M132.008 111.945C127.069 117.504 120.309 121.296 113.103 122.51C112.091 122.672 110.89 122.78 109.621 122.821C102.915 122.956 94.0361 120.675 95.8173 112.08C96.6674 107.964 99.8924 102.877 102.186 99.5575C102.767 98.7073 103.333 97.7763 103.846 96.8047C104.386 95.7522 104.885 94.6456 105.303 93.5121C106.558 90.1386 107.152 86.4953 106.572 83.2837C106.531 83.0139 106.464 82.7576 106.41 82.4877C106.356 82.2718 106.302 82.0828 106.248 81.8669C106.086 81.3406 106.005 80.8415 105.965 80.3422C105.614 74.9176 112.874 71.8815 119.378 72.5157C121.887 72.7586 124.384 72.9745 126.813 73.7302C137.689 77.0497 137.163 80.4095 145.961 92.5945C150.252 98.5318 135.692 107.816 132.008 111.945Z" fill="#F0D0BB"/>
<path d="M120.146 90.7999C115.086 95.7252 108.218 96.3594 103.859 96.8047C104.399 95.7522 104.898 94.6457 105.317 93.5122C106.572 90.1387 107.165 86.4954 106.585 83.2838C106.545 83.014 106.477 82.7576 106.423 82.4877C106.369 82.2718 106.315 82.0829 106.261 81.867C106.099 81.3407 106.018 80.8415 105.978 80.3422C111.807 80.9494 121.266 79.654 122.252 79.1682C125.827 77.441 130.672 80.5446 120.146 90.7999Z" fill="#D99982"/>
<path d="M37.9141 317.645C37.9141 317.645 76.7495 337.036 101.74 325.593C116.219 318.968 133.464 331.072 148.254 330.384C164.851 329.601 176.888 321.923 185.227 309.482C191.555 300.049 174.877 310.413 164.136 286.96C153.732 264.237 158.064 241.122 147.417 217.184C145.163 212.123 142.896 206.861 141.48 201.423C140.225 196.646 139.644 191.761 140.333 186.782C142.95 167.634 163.34 143.925 165.85 122.025C166.835 113.443 163.326 96.8181 154.987 94.8615C138.214 90.9213 123.587 121.026 108.366 116.708C94.1431 112.673 106.692 95.86 101.875 98.8422C89.4877 106.52 78.5441 118.503 72.6878 130.472C69.8541 136.288 69.7731 139.31 69.5437 144.006C68.9365 156.178 74.442 164.382 73.8483 176.85C73.7133 179.549 74.2801 179.482 73.3355 184.528C69.3548 206.119 56.9134 227.803 49.7887 249.69C49.5863 250.324 49.3704 250.986 49.1815 251.674C44.9444 266.072 41.7598 291.251 39.142 304.975L37.9141 317.645Z" fill="#5B6482"/>
<path opacity="0.25" d="M37.9141 317.645C37.9141 317.645 76.7495 337.036 101.74 325.593C116.219 318.968 133.464 331.072 148.254 330.384C164.851 329.601 176.888 321.923 185.227 309.482C191.555 300.049 174.877 310.413 164.136 286.96C153.732 264.237 158.064 241.122 147.417 217.184C145.163 212.123 142.896 206.861 141.48 201.423C117.771 223.89 133.775 253.388 125.138 283.627C123.182 290.469 119.282 296.811 112.265 299.807C106.247 302.37 99.1898 300.576 93.8732 297.148C88.5431 293.734 85.3855 288.499 81.9041 283.492C75.562 274.357 70.6097 264.534 61.4744 257.733C57.6151 254.858 53.4725 252.713 49.2084 251.66C44.9714 266.058 41.7868 291.238 39.169 304.961L37.9141 317.645Z" fill="#B05F95"/>
<path d="M92.0511 110.15C92.5234 112.984 93.7109 115.79 95.5595 118.003C97.3947 120.257 99.9316 121.836 102.711 122.618C105.491 123.509 108.473 123.32 111.361 123.104C112.805 122.821 114.249 122.605 115.679 122.254L119.902 120.986L119.943 120.972C120.172 120.905 120.415 121.04 120.483 121.269C120.55 121.498 120.429 121.741 120.186 121.809L115.881 123.118C114.424 123.482 112.926 123.698 111.455 123.995C108.473 124.224 105.37 124.44 102.441 123.482C99.5132 122.632 96.828 120.905 94.9253 118.516C93.0092 116.141 91.8217 113.267 91.3494 110.245C91.3225 110.056 91.4439 109.88 91.6328 109.853C91.8217 109.826 91.9972 109.948 92.0241 110.137L92.0511 110.15Z" fill="#353535"/>
<path d="M81.5003 42.5457C83.2275 39.8065 85.6834 37.8768 85.8589 31.6697C85.9128 30.0774 85.9398 28.4716 86.1692 26.8928C86.8844 21.9945 89.2053 18.0273 93.2535 15.1127C98.1383 11.5908 104.386 10.2819 107.962 10.7407C114.425 11.5773 117.542 16.5025 116.989 20.2943C115.653 29.3487 109.81 27.662 105.223 29.0788C91.135 33.4374 88.9355 54.029 91.0135 66.2275C91.108 66.8077 91.2564 67.4015 91.2969 67.9817C86.5875 67.4959 81.4733 62.6786 79.6922 58.509C77.4657 53.2734 78.5182 47.2551 81.5003 42.5457Z" fill="#3D4357"/>
<path d="M90.6758 82.717C87.9635 80.612 85.5616 78.1831 83.4431 75.5113C81.3245 72.8395 79.5433 69.8708 78.3154 66.6593C77.101 63.4477 76.5072 59.9663 76.7771 56.5254C76.993 53.071 78.1265 49.738 79.7188 46.7018C79.8267 46.4859 80.0966 46.405 80.3125 46.5129C80.5284 46.6209 80.6094 46.8908 80.5014 47.1067V47.1201C78.9631 50.0618 77.8836 53.2734 77.6812 56.5929C77.4113 59.8989 78.0185 63.2318 79.1655 66.3489C80.326 69.466 82.0262 72.3807 84.0773 75.0255C86.1284 77.6703 88.4898 80.1127 91.0941 82.1772L91.1076 82.1907C91.256 82.3122 91.283 82.5281 91.1616 82.6765C91.0401 82.8115 90.8242 82.8384 90.6758 82.717Z" fill="#353535"/>
<path d="M90.1631 51.7621C87.9771 69.1558 93.8469 85.9691 109.999 86.9272C124.411 87.7773 139.861 75.6733 142.047 58.2797C144.233 40.8861 134.315 25.8269 120.066 23.5195C105.195 21.1175 92.2412 35.1917 90.1631 51.7621Z" fill="#F0D0BB"/>
<mask id="mask1_2399_744777" style="mask-type:luminance" maskUnits="userSpaceOnUse" x="89" y="23" width="54" height="64">
<path d="M90.1631 51.7621C87.9771 69.1558 93.8469 85.9691 109.999 86.9272C124.411 87.7773 139.861 75.6733 142.047 58.2797C144.233 40.8861 134.315 25.8269 120.066 23.5195C105.195 21.1175 92.2412 35.1917 90.1631 51.7621Z" fill="white"/>
</mask>
<g mask="url(#mask1_2399_744777)">
<path d="M100.661 47.2553C100.769 44.489 93.9001 44.8534 94.0756 47.6601C94.2375 50.035 100.58 49.5088 100.661 47.2553Z" fill="#353535"/>
<path d="M118.769 49.0096C119.525 46.3378 112.751 45.0964 112.278 47.8761C111.874 50.224 118.162 51.1821 118.769 49.0096Z" fill="#353535"/>
<path d="M95.1961 54.8794C95.3715 55.7835 95.9247 56.3503 96.6669 56.3503C98.2727 56.3503 98.9204 54.1103 98.2322 52.8823C97.571 51.6949 95.8438 51.9782 95.3715 53.1657C95.1421 53.692 95.0881 54.3262 95.1961 54.8794Z" fill="#353535"/>
<path d="M112.522 55.3785C112.724 56.2826 113.318 56.8224 114.047 56.7819C115.652 56.7144 116.206 54.4609 115.464 53.26C114.748 52.0995 113.035 52.4503 112.616 53.6513C112.427 54.191 112.387 54.8253 112.522 55.3785Z" fill="#353535"/>
<path d="M102.441 72.0031C102.954 72.6913 103.615 73.1905 104.317 73.5414C106.894 74.8233 110.268 74.0541 111.954 72.0031C112.008 71.9491 112.062 71.8816 112.103 71.8007C112.535 71.2204 112.872 70.5457 113.034 69.8036C113.196 69.0749 113.236 67.9549 112.656 67.4421C112.076 66.9294 111.266 66.7809 110.619 67.1857C110.295 67.3882 109.957 67.6176 109.633 67.8604C108.379 68.805 106.962 69.1963 105.315 69.0344C104.789 68.9804 104.222 68.9265 103.669 68.9804C102.158 69.1693 101.497 70.7616 102.441 72.0031Z" fill="#353535"/>
<path d="M104.317 73.5414C106.895 74.8233 110.268 74.0541 111.955 72.0031C112.009 71.9491 112.063 71.8816 112.103 71.8007C111.982 71.5443 111.361 71.3284 111.199 71.2609C110.767 71.0855 110.322 70.964 109.863 70.8831C107.961 70.5727 105.194 71.2474 104.317 73.5414Z" fill="#D46966"/>
<g opacity="0.75">
<path d="M125.867 66.4167C126.07 64.595 123.965 62.49 120.983 62.2336C118.284 61.9907 115.868 63.1917 115.544 65.6745C115.288 67.6042 117.528 69.7632 120.038 69.9791C122.939 70.2355 125.678 69.048 125.867 66.4167Z" fill="#D99982"/>
<path d="M88.2193 64.0553C88.1788 62.2201 90.4458 60.304 93.4414 60.2905C96.1402 60.2905 98.4611 61.6803 98.5691 64.1767C98.6636 66.1198 96.2346 68.0764 93.7248 68.0899C90.8101 68.1034 88.1788 66.6866 88.2193 64.0553Z" fill="#D99982"/>
</g>
<path d="M106.477 51.8702C106.045 53.0172 105.694 54.2316 105.303 55.4056C104.925 56.5931 104.561 57.794 104.237 58.995C103.899 60.1419 103.71 61.3969 104.439 62.1255C104.79 62.5034 105.303 62.7598 105.856 62.9622L106.72 63.313C106.976 63.421 107.259 63.5019 107.556 63.5694C107.759 63.6099 107.88 63.8123 107.84 64.0147C107.799 64.2036 107.61 64.325 107.435 64.2981C107.124 64.2576 106.787 64.2171 106.45 64.1091L105.559 63.7988C104.938 63.5829 104.304 63.286 103.778 62.7328C103.238 62.193 103.022 61.3969 103.036 60.7087C103.036 60.0205 103.198 59.3458 103.387 58.7386C104.169 56.3367 104.911 53.9617 105.95 51.6273C106.018 51.4789 106.18 51.4114 106.328 51.4789C106.463 51.5463 106.531 51.7083 106.477 51.8702Z" fill="#353535"/>
</g>
<mask id="mask2_2399_744777" style="mask-type:luminance" maskUnits="userSpaceOnUse" x="89" y="23" width="54" height="64">
<path d="M90.1631 51.7621C87.9771 69.1558 93.8469 85.9691 109.999 86.9272C124.411 87.7773 139.861 75.6733 142.047 58.2797C144.233 40.8861 134.315 25.8269 120.066 23.5195C105.195 21.1175 92.2412 35.1917 90.1631 51.7621Z" fill="white"/>
</mask>
<g mask="url(#mask2_2399_744777)">
<path d="M135.974 61.6668C135.745 62.193 135.448 62.5708 135.165 63.0026C134.854 63.4075 134.558 63.8123 134.153 64.1901C133.977 64.352 133.694 64.3385 133.532 64.1631C133.384 64.0012 133.384 63.7583 133.519 63.5829L133.532 63.5694L134.45 62.4629C134.773 62.0986 135.084 61.6937 135.354 61.3564L135.381 61.3294C135.502 61.181 135.718 61.154 135.866 61.2754C136.001 61.3564 136.028 61.5318 135.974 61.6668Z" fill="#353535"/>
</g>
<path d="M105.626 41.4932C105.464 40.9534 105.114 40.1303 104.857 39.4556C104.601 38.7269 104.358 37.9983 104.155 37.2561C103.751 35.7583 103.481 34.22 103.467 32.6412C103.454 31.0759 103.724 29.4836 104.317 27.9993C104.952 26.5285 105.991 25.2601 107.178 24.221C107.354 24.0591 107.637 24.0861 107.799 24.2615C107.961 24.4369 107.947 24.7068 107.772 24.8687L107.745 24.8957C106.679 25.8943 105.748 27.0278 105.168 28.3637C104.614 29.713 104.385 31.1704 104.371 32.6412C104.358 34.112 104.587 35.5964 104.952 37.0537C105.141 37.7824 105.356 38.4976 105.586 39.2127L105.95 40.2922L106.139 40.832L106.234 41.1154L106.314 41.4797C106.355 41.6551 106.234 41.8305 106.058 41.871C105.896 41.9115 105.721 41.8036 105.68 41.6416L105.626 41.4932Z" fill="#353535"/>
<path d="M25.6068 134.115C23.0295 134.574 20.4252 134.884 17.8073 135.046C15.7293 135.168 13.5703 135.195 11.6676 134.358C9.765 133.521 8.18621 131.592 8.38862 129.527C8.55055 127.895 9.7515 126.518 11.1819 125.722C12.6122 124.926 14.2585 124.616 15.8642 124.305C20.884 123.361 25.9037 122.416 30.9369 121.485C35.6867 119.07 40.4231 116.668 45.1729 114.252C46.6033 113.524 48.0471 112.795 49.6259 112.552C51.2047 112.309 52.9589 112.633 54.0789 113.766C55.5362 115.264 55.5092 117.761 54.5242 119.596C53.5391 121.444 51.8254 122.767 50.0982 123.941C42.852 128.92 34.2969 132.577 25.6068 134.115Z" fill="#5C363E"/>
<path d="M17.1872 116.978C13.6113 117.369 9.11787 118.233 6.98584 121.512C3.57188 126.734 7.55258 130.202 13.0851 128.407C16.2966 127.368 18.5096 124.993 22.072 126.208C23.8262 126.802 25.6344 127.274 27.4965 127.368C29.4801 127.463 37.1582 126.41 41.2603 119.623C43.9186 115.21 49.9504 117.815 53.3778 113.308C55.6853 110.272 53.3238 107.694 50.2877 106.642C46.5904 105.373 42.2993 107.114 39.4521 109.327C29.3452 117.207 23.5023 116.29 17.1872 116.978Z" fill="#86AF9A"/>
<path d="M27.4564 112.107L39.2095 108.072C39.9517 107.816 40.6264 108.585 40.2755 109.286C38.2785 113.2 33.704 121.971 32.3681 124.548C32.1522 124.953 31.6665 125.128 31.2481 124.939C28.6033 123.725 19.6164 119.609 15.6357 117.747C14.9205 117.41 14.988 116.384 15.7302 116.128L27.4564 112.107Z" fill="#F0D0BB"/>
<path d="M13.544 139.729C15.5142 141.942 18.5098 142.859 21.384 143.156C25.8909 143.601 30.3844 142.616 34.7294 141.523C36.794 140.997 38.899 140.376 40.8692 139.54C43.0147 138.636 45.1062 137.624 47.1033 136.423C48.9385 135.316 50.6792 134.048 52.231 132.577C54.3226 130.58 56.1037 128.016 56.3061 125.061C56.3196 124.899 56.3196 124.696 56.3196 124.454C56.2657 122.564 55.591 118.8 53.3645 120.527C51.4484 122.011 49.5052 123.482 47.4946 124.845C43.6624 127.409 39.4253 129.514 35.0263 131.079C31.248 132.428 27.3483 133.373 23.4351 133.886C22.45 134.021 21.4784 134.102 20.4934 134.169C18.0375 134.331 15.5681 134.345 13.0987 134.358C9.9277 134.358 12.559 138.622 13.544 139.729Z" fill="#D99982"/>
<path opacity="0.5" d="M13.5438 139.729C15.5139 141.942 18.5095 142.859 21.3837 143.156C25.8907 143.601 30.3842 142.616 34.7292 141.523C36.7937 140.997 38.8988 140.376 40.8689 139.54C43.0144 138.636 45.106 137.624 47.1031 136.423C48.9382 135.316 50.6789 134.048 52.2307 132.577C54.3223 130.58 56.1035 128.016 56.3059 125.061C56.3194 124.899 56.3194 124.696 56.3194 124.454H56.3059C33.4203 144.694 24.123 139.688 20.4796 134.156C18.0238 134.318 15.5544 134.331 13.085 134.345C9.92744 134.358 12.5587 138.622 13.5438 139.729Z" fill="#D99982"/>
<path d="M27.2122 112.498C28.3187 115.71 24.1895 120.028 18.0093 122.146C11.8291 124.265 5.93232 123.388 4.82582 120.19C3.71932 116.978 7.84845 112.66 14.0286 110.541C20.2088 108.409 26.1192 109.3 27.2122 112.498Z" fill="#963C4E"/>
<path d="M23.8923 113.159C24.594 115.224 21.5849 118.125 17.1589 119.636C12.7329 121.161 8.57678 120.716 7.86161 118.665C7.14643 116.614 10.1691 113.699 14.5951 112.188C19.021 110.663 23.1907 111.095 23.8923 113.159Z" fill="#D46966"/>
<path d="M41.9611 113.929C48.1427 111.807 52.2613 107.487 51.1603 104.28C50.0592 101.073 44.1555 100.193 37.974 102.316C31.7924 104.438 27.6738 108.758 28.7748 111.965C29.8758 115.172 35.7795 116.052 41.9611 113.929Z" fill="#963C4E"/>
<path d="M47.8305 104.941C48.5322 107.006 45.5231 109.907 41.0971 111.418C36.6711 112.943 32.515 112.498 31.7998 110.447C31.0981 108.382 34.1072 105.481 38.5332 103.97C42.9592 102.445 47.1288 102.877 47.8305 104.941Z" fill="#D46966"/>
<path d="M12.8422 116.087C18.2127 116.087 28.3601 112.889 28.5355 112.835C32.2329 111.526 35.8492 110.015 39.2362 108.032C41.6786 106.588 45.7942 103.916 46.1046 100.704C46.1855 99.9354 46.0371 99.1258 45.6053 98.3026C44.6337 96.4945 43.4193 94.8077 41.962 93.3639C35.4174 86.8733 26.336 86.2121 18.8334 89.3697C10.2513 92.9861 3.76079 101.581 5.54198 112.066C6.12221 115.467 9.96797 116.101 12.8422 116.087Z" fill="#D99982"/>
<path d="M32.6365 95.2258C32.1642 95.995 32.6095 97.1285 33.6485 97.7762C34.6876 98.4239 36.8061 98.8827 37.2919 98.1135C37.7642 97.3444 36.4148 95.6441 35.3757 94.9964C34.3502 94.3757 33.1223 94.4702 32.6365 95.2258Z" fill="#F0D0BB"/>
<path d="M23.542 92.1628C23.1507 92.9725 23.731 94.0655 24.8375 94.5917C25.944 95.118 28.103 95.3339 28.4943 94.5243C28.8856 93.7146 27.3473 92.1628 26.2408 91.6501C25.1343 91.1103 23.9199 91.3532 23.542 92.1628Z" fill="#F0D0BB"/>
<path d="M30.451 101.5C29.9518 102.256 30.3701 103.403 31.3821 104.078C32.3941 104.753 34.5127 105.279 35.012 104.537C35.5112 103.781 34.2158 102.04 33.1903 101.366C32.1782 100.691 30.9503 100.745 30.451 101.5Z" fill="#F0D0BB"/>
<path d="M22.382 98.6669C21.5859 99.0852 21.397 100.3 21.9772 101.379C22.5439 102.459 24.1497 103.929 24.9458 103.498C25.742 103.079 25.4316 100.92 24.8514 99.8408C24.2846 98.7748 23.1781 98.2486 22.382 98.6669Z" fill="#F0D0BB"/>
<path d="M13.0576 103.052C12.1805 102.823 11.2225 103.592 10.9256 104.78C10.6152 105.953 10.8042 108.126 11.6813 108.355C12.5584 108.585 13.7728 106.79 14.0832 105.603C14.3935 104.429 13.9347 103.282 13.0576 103.052Z" fill="#F0D0BB"/>
<path d="M17.7803 94.4162C16.9032 94.1868 15.9451 94.956 15.6483 96.1434C15.3379 97.3174 15.5268 99.4899 16.4039 99.7193C17.281 99.9487 18.4955 98.154 18.8058 96.9665C19.1027 95.7926 18.6439 94.6456 17.7803 94.4162Z" fill="#F0D0BB"/>
<path d="M19.5615 105.4C18.6844 105.171 17.7264 105.94 17.4295 107.127C17.1192 108.301 17.3081 110.474 18.1852 110.703C19.0623 110.933 20.2767 109.138 20.5871 107.951C20.8974 106.777 20.4386 105.63 19.5615 105.4Z" fill="#F0D0BB"/>
<path opacity="0.5" d="M12.8422 116.087C18.2127 116.087 28.3601 112.889 28.5356 112.835C32.2329 111.526 35.8492 110.015 39.2362 108.032C41.6786 106.588 45.7942 103.916 46.1046 100.704C9.99496 119.596 19.6296 89.302 19.6296 89.302L18.82 89.3695C10.2514 92.9859 3.76081 101.581 5.542 112.066C6.12223 115.467 9.96799 116.101 12.8422 116.087Z" fill="#D99982"/>
<path d="M82.5792 176.135C80.744 179.873 79.8264 182.882 79.651 186.094C79.4486 189.737 80.5011 194.338 83.7126 196.12C91.782 200.6 100.027 194.797 106.963 189.076C158.455 146.557 161.653 139.553 160.493 125.56C159.076 108.558 148.443 106.628 137.135 115.183C132.979 118.327 129.241 121.917 125.773 125.776C110.903 142.36 83.1729 174.853 82.5792 176.135Z" fill="#F0D0BB"/>
<path d="M87.7747 197.523C92.4301 198.387 96.0734 196.659 99.0016 193.259C100.297 191.761 100.742 189.818 100.931 187.861C101.714 179.455 94.3192 172.397 88.5033 165.65C78.3155 153.83 49.5195 125.938 44.7022 123.657C37.7394 120.365 31.7616 125.776 33.4213 130.323C35.3914 135.734 37.8338 139.688 47.0771 152.993C61.1917 173.315 73.2148 194.838 87.7747 197.523Z" fill="#F0D0BB"/>
<path d="M96.8418 175.177C94.3994 172.708 91.984 170.198 89.6496 167.621C89.4877 167.445 89.5012 167.162 89.6766 167C89.852 166.838 90.1219 166.851 90.2838 167.013L90.3108 167.04C92.7127 169.537 95.0337 172.087 97.3276 174.691C97.4491 174.826 97.4491 175.042 97.3006 175.177C97.1792 175.312 96.9633 175.299 96.8418 175.177Z" fill="#353535"/>
<path d="M53.9714 130.688C58.5458 134.601 63.0797 138.541 67.5462 142.562L67.5597 142.576C67.7351 142.738 67.7486 143.021 67.5867 143.197C67.4248 143.372 67.1549 143.385 66.9795 143.237C62.4455 139.283 57.9521 135.262 53.5126 131.201C53.3776 131.079 53.3641 130.863 53.4856 130.715C53.6205 130.58 53.8229 130.566 53.9714 130.688Z" fill="#353535"/>
<path d="M39.2369 141.348L44.0947 148.716L46.5101 152.399C47.3197 153.614 48.1293 154.882 48.9525 156.002L48.9794 156.043C49.1279 156.232 49.0739 156.515 48.885 156.65C48.6961 156.785 48.4262 156.758 48.2778 156.569C47.3197 155.341 46.564 154.14 45.7409 152.899L43.339 149.188C41.7737 146.691 40.1814 144.222 38.6566 141.699C38.5622 141.537 38.6027 141.321 38.7646 141.226C38.94 141.146 39.1424 141.186 39.2369 141.348Z" fill="#353535"/>
<path d="M19.3334 109.583C17.822 108.801 16.7021 109.583 16.9854 111.23C17.5117 114.387 21.4114 117.936 22.0726 119.016C21.9512 118.975 21.8027 118.975 21.7083 118.894C21.0876 118.395 20.4534 117.896 19.8596 117.356C18.1459 115.791 16.9719 116.29 16.8235 117.693C16.5671 120.311 19.8731 125.452 24.8659 129.73C29.8451 134.021 36.4841 137.421 42.5428 136.773C45.498 136.463 48.4666 133.144 48.6421 129.811C48.9389 123.806 45.8218 114.765 43.1231 110.191C41.153 106.858 38.7106 106.939 37.9954 109.084C37.3072 111.122 37.5771 114.05 37.5366 114.697C37.1723 119.218 30.1959 111.472 26.0803 106.777C23.476 103.821 21.1146 103.349 21.1146 106.115C21.128 109.125 23.7189 112.606 22.7338 111.918C22.1806 111.553 20.116 109.988 19.3334 109.583Z" fill="#F0D0BB"/>
<path d="M27.0932 115.777C26.3105 115.264 25.6088 114.684 24.8937 114.104C24.2055 113.497 23.5308 112.862 22.937 112.12C22.7886 111.931 22.8156 111.661 23.0045 111.499C23.1799 111.351 23.4498 111.378 23.5982 111.54C24.7857 112.835 26.1351 114.05 27.4845 115.224C27.6329 115.345 27.6464 115.561 27.525 115.71C27.4305 115.844 27.2281 115.871 27.0932 115.777Z" fill="#353535"/>
<path d="M25.46 122.376C24.6908 121.822 23.9757 121.215 23.2605 120.594C22.5723 119.947 21.8841 119.299 21.2769 118.543C21.1285 118.354 21.1554 118.084 21.3444 117.923C21.5198 117.774 21.7897 117.801 21.9381 117.963C23.166 119.299 24.5289 120.581 25.8783 121.836C26.0132 121.957 26.0267 122.173 25.9053 122.322C25.7973 122.456 25.6084 122.47 25.46 122.376Z" fill="#353535"/>
<path d="M40.3847 136.058C41.869 135.896 43.3534 135.559 44.5813 134.776C45.8362 134.034 46.7538 132.874 47.4015 131.565C47.5095 131.349 47.7659 131.254 47.9818 131.362C48.1977 131.47 48.2786 131.713 48.1977 131.929C47.5635 133.4 46.457 134.722 45.0401 135.546C43.6098 136.355 42.004 136.693 40.4387 136.733C40.2498 136.733 40.0878 136.585 40.0878 136.396C40.0744 136.234 40.2093 136.085 40.3847 136.058Z" fill="#353535"/>
<path d="M125.908 150.551C124.478 150.213 123.102 149.66 121.685 149.255C116.382 147.744 112.819 142.36 111.524 136.976C111.025 134.898 111.362 134.075 113.251 133.022C125.598 126.154 131.306 107.357 146.298 101.015C159.252 95.5364 177.846 111.27 165.351 132.361C162.139 137.786 161.114 140.525 158.078 145.882C155.379 150.618 153.868 158.661 154.556 161.562C154.92 163.127 154.286 164.571 152.451 164.679C149.873 164.841 147.323 164.827 144.827 163.856C131.724 158.782 133.964 152.48 125.908 150.551Z" fill="#3D4357"/>
<path d="M122.913 136.207C122.522 137.637 122.535 139.31 123.223 140.619C123.911 141.955 125.288 142.765 126.772 143.156C129.822 144.06 133.02 144.573 136.029 145.949C137.513 146.651 138.944 147.677 139.888 149.08C140.779 150.456 141.629 151.738 142.668 152.939C143.68 154.14 144.84 155.22 146.122 156.07C147.404 156.906 148.889 157.446 150.373 157.311H150.386C150.629 157.284 150.845 157.473 150.859 157.702C150.886 157.945 150.697 158.161 150.467 158.175C148.713 158.337 147.04 157.689 145.65 156.798C144.26 155.881 143.059 154.747 141.993 153.506C140.927 152.291 139.996 150.888 139.159 149.579C138.309 148.311 137.027 147.42 135.651 146.732C132.831 145.396 129.633 144.829 126.556 143.885C124.977 143.466 123.345 142.508 122.562 140.93C121.779 139.364 121.793 137.597 122.252 135.964C122.306 135.788 122.495 135.68 122.67 135.734C122.845 135.788 122.953 135.977 122.899 136.153L122.913 136.207Z" fill="#353535"/>
<path d="M138.956 12.5759C147.781 15.7065 153.611 22.1836 156.188 31.1165C158.779 40.1304 156.593 51.5597 163.839 58.5766C169.075 63.6368 176.82 61.7881 183.365 68.616C188.331 73.7976 186.671 79.5191 182.717 85.4968C180.302 89.1537 178.642 90.611 180.14 94.8211C183.311 103.74 195.266 105.805 190.382 118.408C184.336 134.021 159.278 139.486 150.359 122.591C146.257 114.832 150.98 109.286 149.994 102.971C149.455 99.5035 147.336 99.0582 143.72 97.8168C133.626 94.3623 128.971 83.5402 132.52 74.162C134.072 70.0868 136.878 69.4931 139.577 66.43C141.089 64.7163 141.952 62.2469 141.156 60.1149C139.739 56.2961 134.908 57.2002 131.845 56.0937C121.684 52.4098 125.53 39.847 114.222 37.3507C109.81 36.3791 105.95 33.1136 106.531 27.8645C106.814 25.3276 108.028 23.1956 109.243 21.0231C112.09 15.9629 117.92 11.4424 124.612 10.7407C130.509 10.1335 132.763 10.3764 138.956 12.5759Z" fill="#3D4357"/>
<path d="M113.777 16.3677C112.495 17.7711 111.24 19.2419 110.201 20.8342C109.675 21.6303 109.176 22.4265 108.784 23.2766C108.393 24.1267 108.069 25.0038 107.961 25.8809V25.8944C107.934 26.1373 107.705 26.2992 107.475 26.2722C107.246 26.2452 107.07 26.0293 107.097 25.7999C107.192 24.7474 107.543 23.7893 107.975 22.8852C108.393 21.9812 108.919 21.131 109.486 20.3214C110.633 18.7156 111.901 17.2313 113.318 15.8684C113.453 15.7335 113.669 15.747 113.804 15.8819C113.898 16.0169 113.898 16.2193 113.777 16.3677Z" fill="#353535"/>
<path d="M143.41 75.9567C148.308 77.8728 152.909 81.0708 155.689 85.6992C157.079 87.9932 157.875 90.6515 157.983 93.3233C158.118 95.9951 157.727 98.6264 157.497 101.217C157.254 103.808 157.173 106.399 157.808 108.868C158.469 111.324 159.764 113.591 161.451 115.521C164.838 119.407 169.507 122.011 174.284 123.981C174.513 124.076 174.621 124.332 174.526 124.548C174.432 124.764 174.176 124.885 173.946 124.791C169.088 122.78 164.325 120.149 160.776 116.101C159.009 114.09 157.646 111.702 156.93 109.084C156.256 106.453 156.337 103.727 156.607 101.123C156.863 98.5049 157.254 95.9141 157.146 93.3503C157.052 90.7864 156.323 88.2901 155.014 86.0771C152.397 81.6376 147.944 78.48 143.167 76.5774C142.991 76.5099 142.91 76.3075 142.978 76.1321C143.045 75.9702 143.234 75.8892 143.41 75.9567Z" fill="#353535"/>
<path d="M137.932 12.2251C140.077 13.1292 142.182 14.1412 144.206 15.2882C146.217 16.4756 148.147 17.7846 149.968 19.2419C153.585 22.1836 156.742 25.719 159.185 29.7131C160.426 31.6967 161.452 33.8018 162.329 35.9743C163.233 38.1468 163.826 40.4003 164.569 42.5728C165.311 44.7453 166.12 46.9043 167.227 48.8745C167.78 49.8595 168.428 50.7906 169.211 51.5462C169.993 52.3019 170.951 52.8551 171.99 52.9226C172.233 52.9361 172.409 53.152 172.395 53.3949C172.382 53.6378 172.166 53.8132 171.923 53.7997C170.627 53.7053 169.467 53.0306 168.603 52.1805C167.726 51.3303 167.038 50.3318 166.458 49.3063C165.284 47.2417 164.461 45.0557 163.719 42.8562C162.963 40.6432 162.369 38.4302 161.492 36.3117C160.615 34.2066 159.63 32.1285 158.429 30.1719C156.067 26.2587 152.991 22.7773 149.469 19.8491C147.688 18.4053 145.799 17.0964 143.829 15.9224C141.845 14.7619 139.78 13.7499 137.662 12.8593C137.486 12.7918 137.405 12.5894 137.473 12.414C137.554 12.2386 137.756 12.1576 137.932 12.2251Z" fill="#353535"/>
</g>
<path d="M128.621 154.477C122.522 158.269 119.324 162.817 116.22 169.01C113.683 174.057 111.673 179.347 109.406 184.501C106.599 190.87 102.848 196.997 97.4366 201.49C90.1365 207.549 79.4223 211.044 69.6797 210.18C67.4667 209.978 65.6855 209.29 65.6855 209.29C65.6855 209.29 73.4985 228.06 89.1649 231.581C91.5398 232.121 93.9822 232.162 96.4111 232.04C112.874 231.217 112.401 217.858 126.61 214.957C137.028 212.838 148.997 220.476 165.149 205.687C171.37 199.979 175.688 187.214 179.979 177.7C188.062 159.794 207.155 151.522 217.168 153.519C218.963 153.884 221.391 154.612 220.946 152.44C219.34 144.546 208.019 133.13 196.198 132.415C181.868 131.551 179.911 136.868 172.598 143.655C160.332 155.044 151.426 146.071 135.435 150.888C132.966 151.63 130.726 152.845 128.621 154.477Z" fill="#CAE4D3"/>
<mask id="mask3_2399_744777" style="mask-type:luminance" maskUnits="userSpaceOnUse" x="67" y="132" width="154" height="101">
<path d="M128.621 154.477C122.522 158.269 119.324 162.817 116.22 169.01C113.683 174.057 111.673 179.347 109.406 184.501C99.8114 206.294 79.8674 212.825 70.7321 210.76C70.0304 210.598 69.3017 210.464 68.573 210.423C64.1336 210.126 73.4848 228.06 89.1512 231.581C91.5261 232.121 93.9685 232.162 96.3974 232.04C112.86 231.217 112.388 217.858 126.597 214.957C137.014 212.838 148.983 220.476 165.135 205.687C171.356 199.979 175.674 187.214 179.965 177.7C188.048 159.794 207.142 151.522 217.154 153.519C218.949 153.884 221.378 154.612 220.932 152.44C219.327 144.546 208.005 133.13 196.185 132.415C181.854 131.551 179.898 136.868 172.584 143.655C160.318 155.044 151.412 146.071 135.422 150.888C132.966 151.63 130.726 152.845 128.621 154.477Z" fill="white"/>
</mask>
<g mask="url(#mask3_2399_744777)">
<path d="M190.166 127.584C190.422 129.581 190.449 131.565 190.382 133.562C190.301 135.546 190.112 137.529 189.788 139.486C189.451 141.442 189.046 143.399 188.479 145.302C187.953 147.218 187.251 149.08 186.509 150.929L186.172 150.321C191.057 151.117 195.752 152.642 200.232 154.68C202.472 155.692 204.631 156.879 206.696 158.229C208.787 159.538 210.69 161.116 212.525 162.763C212.701 162.925 212.728 163.194 212.566 163.383C212.404 163.559 212.134 163.586 211.945 163.424L211.932 163.41C210.123 161.818 208.275 160.266 206.21 158.984C204.186 157.675 202.068 156.502 199.855 155.516C197.655 154.518 195.388 153.641 193.081 152.926C190.773 152.21 188.412 151.603 186.05 151.212L185.497 151.117L185.713 150.605C186.455 148.797 187.157 146.975 187.697 145.086C188.277 143.21 188.682 141.294 189.032 139.378C189.37 137.448 189.572 135.505 189.667 133.548C189.748 131.605 189.734 129.622 189.505 127.706V127.692C189.478 127.503 189.613 127.341 189.802 127.314C189.964 127.26 190.139 127.395 190.166 127.584Z" fill="#417F56"/>
<path d="M169.736 137.664C170.586 142.967 171.099 148.297 171.194 153.668C171.221 156.353 171.14 159.038 170.829 161.724C170.492 164.395 169.979 167.081 168.832 169.591L168.387 168.956C171.301 168.754 174.176 168.902 177.05 169.226C179.911 169.537 182.758 170.049 185.551 170.778C188.344 171.493 191.097 172.37 193.742 173.504C196.427 174.57 198.964 175.946 201.46 177.39C201.676 177.512 201.744 177.781 201.622 177.984C201.501 178.2 201.231 178.267 201.028 178.146L201.015 178.132C198.559 176.715 196.049 175.366 193.418 174.313C190.8 173.207 188.088 172.33 185.335 171.628C182.582 170.913 179.776 170.414 176.955 170.103C174.135 169.793 171.274 169.658 168.481 169.82L167.726 169.86L168.036 169.186C169.129 166.824 169.669 164.207 170.006 161.589C170.33 158.957 170.438 156.299 170.424 153.641C170.37 148.324 169.898 142.994 169.088 137.745V137.732C169.061 137.543 169.183 137.367 169.372 137.34C169.534 137.354 169.709 137.475 169.736 137.664Z" fill="#417F56"/>
<path d="M155.501 146.988C155.379 153.411 155.055 159.821 154.448 166.231C154.138 169.429 153.746 172.627 153.139 175.798C152.829 177.377 152.478 178.969 151.979 180.521C151.722 181.303 151.439 182.072 151.048 182.815C150.656 183.543 150.197 184.312 149.347 184.825L149.05 183.989C152.397 183.435 155.73 183.395 159.076 183.543C162.409 183.719 165.729 184.11 168.994 184.771C172.246 185.473 175.498 186.269 178.629 187.416C180.221 187.915 181.746 188.603 183.298 189.197C184.836 189.831 186.321 190.587 187.845 191.275C188.061 191.37 188.169 191.64 188.061 191.855C187.967 192.071 187.697 192.179 187.481 192.071L187.454 192.058C185.956 191.383 184.485 190.641 182.961 190.007C181.422 189.413 179.924 188.738 178.346 188.253C175.242 187.119 172.044 186.337 168.819 185.648C165.594 185.001 162.315 184.609 159.022 184.447C155.743 184.299 152.41 184.366 149.212 184.866L146.729 185.257L148.916 184.043C149.469 183.732 149.914 183.084 150.265 182.41C150.616 181.735 150.899 180.993 151.142 180.251C151.628 178.753 151.992 177.201 152.302 175.636C152.91 172.505 153.315 169.334 153.652 166.15C154.3 159.781 154.65 153.371 154.812 146.975C154.812 146.786 154.974 146.638 155.163 146.638C155.352 146.638 155.501 146.799 155.501 146.988Z" fill="#417F56"/>
<path d="M132.709 149.431C132.75 157.311 132.507 165.192 131.846 173.045C131.508 176.972 131.049 180.898 130.334 184.785C129.97 186.728 129.538 188.657 128.944 190.56C128.337 192.449 127.635 194.365 126.313 195.998L125.908 195.269C129.983 194.77 134.032 194.811 138.08 195.054C142.128 195.323 146.149 195.823 150.13 196.646C154.097 197.482 158.037 198.454 161.856 199.803C165.715 201.058 169.426 202.678 173.11 204.378C173.326 204.486 173.42 204.742 173.326 204.958C173.218 205.174 172.961 205.268 172.746 205.174H172.732C169.089 203.487 165.405 201.881 161.586 200.64C157.794 199.304 153.895 198.346 149.968 197.523C146.041 196.713 142.047 196.228 138.039 195.958C134.045 195.715 129.997 195.701 126.057 196.147L124.95 196.268L125.652 195.404C126.826 193.974 127.541 192.125 128.135 190.29C128.728 188.442 129.16 186.539 129.525 184.609C130.253 180.764 130.726 176.864 131.076 172.964C131.765 165.151 132.048 157.284 132.034 149.431C132.034 149.242 132.183 149.08 132.372 149.08C132.561 149.093 132.709 149.242 132.709 149.431Z" fill="#417F56"/>
<path d="M111.942 174.867C112.293 180.426 112.428 185.999 112.266 191.572C112.185 194.352 112.01 197.145 111.673 199.925C111.308 202.691 110.876 205.484 109.756 208.143L109.365 207.522C112.482 207.643 115.532 208.075 118.568 208.696C121.591 209.317 124.586 210.153 127.474 211.233C130.375 212.326 133.182 213.662 135.8 215.335C138.417 216.995 140.833 219.005 142.897 221.326C143.059 221.502 143.046 221.785 142.857 221.947C142.682 222.109 142.398 222.082 142.236 221.906C140.226 219.653 137.878 217.696 135.314 216.077C132.75 214.444 129.997 213.135 127.15 212.069C124.303 211.003 121.361 210.18 118.379 209.573C115.397 208.979 112.361 208.547 109.338 208.399L108.69 208.372L108.947 207.778C110.013 205.295 110.485 202.543 110.849 199.817C111.2 197.078 111.389 194.311 111.484 191.545C111.673 186.013 111.578 180.453 111.268 174.921C111.254 174.732 111.389 174.57 111.578 174.556C111.767 174.529 111.929 174.678 111.942 174.867Z" fill="#417F56"/>
<path d="M92.4973 198.724C92.4703 198.953 92.5242 199.493 92.5782 199.884L92.7401 201.18L93.064 203.784C93.2529 205.525 93.3744 207.279 93.3744 209.033C93.3744 210.787 93.2529 212.555 92.9021 214.309C92.5647 216.05 91.971 217.777 90.9724 219.302L90.743 218.641C92.7401 219.316 94.6293 220.166 96.4779 221.137C98.3266 222.109 100.094 223.188 101.781 224.416C105.141 226.859 108.164 229.908 110.134 233.646C110.242 233.862 110.161 234.132 109.945 234.24C109.729 234.348 109.459 234.267 109.351 234.051C107.462 230.475 104.52 227.52 101.241 225.131C99.595 223.93 97.8543 222.864 96.0461 221.933C94.238 221.002 92.3623 220.139 90.4597 219.477L89.9199 219.289L90.2303 218.816C91.1479 217.426 91.7281 215.807 92.0789 214.134C92.4298 212.461 92.5647 210.747 92.5782 209.02C92.5917 207.292 92.4973 205.565 92.3218 203.852L92.025 201.261L91.863 199.965C91.8361 199.493 91.7281 199.156 91.8226 198.521C91.8496 198.333 92.025 198.211 92.2004 198.238C92.3758 198.265 92.5107 198.441 92.4838 198.616L92.4973 198.724Z" fill="#417F56"/>
</g>
<path d="M213.767 147.474C206.858 146.853 199.774 146.462 193.067 148.243C189.734 149.134 186.563 150.632 183.878 152.791C181.179 154.936 178.885 157.568 176.699 160.266C172.408 165.745 167.793 171.129 162.409 175.636C157.092 180.251 150.966 183.84 144.638 186.822C138.336 189.845 131.845 192.49 126.002 196.228C123.088 198.09 120.457 200.37 117.69 202.516C114.938 204.675 112.036 206.685 109.149 208.628C106.261 210.585 103.36 212.542 100.391 214.404C97.4225 216.266 94.3593 218.02 91.0803 219.343C89.4206 219.977 87.7204 220.49 85.9661 220.786C84.2119 221.083 82.4173 221.11 80.6361 220.989C77.0737 220.678 73.6462 219.464 70.5561 217.75C70.3402 217.629 70.2728 217.372 70.3807 217.157C70.5022 216.941 70.772 216.873 70.9744 216.981C73.9836 218.641 77.2896 219.815 80.7035 220.098C82.4038 220.206 84.131 220.193 85.8177 219.896C87.5044 219.599 89.1507 219.113 90.7565 218.492C93.9545 217.21 96.9772 215.47 99.9188 213.621C102.86 211.772 105.762 209.816 108.649 207.859C111.551 205.903 114.398 203.933 117.137 201.787C119.876 199.655 122.535 197.348 125.517 195.445C131.468 191.64 137.972 188.981 144.26 185.986C150.561 183.031 156.607 179.509 161.869 174.961C167.213 170.508 171.774 165.219 176.092 159.74C178.305 157.028 180.626 154.356 183.405 152.157C186.172 149.944 189.464 148.405 192.878 147.501C199.76 145.706 206.898 146.125 213.834 146.759C214.023 146.772 214.158 146.948 214.145 147.137C214.118 147.353 213.956 147.488 213.767 147.474Z" fill="#417F56"/>
</g>
<defs>
<clipPath id="clip0_2399_744777">
<rect width="221" height="233" fill="white"/>
</clipPath>
</defs>
</svg>
