<svg width="227" height="215" viewBox="0 0 227 215" fill="none" xmlns="http://www.w3.org/2000/svg">
<g clip-path="url(#clip0_2399_744883)">
<g opacity="0.5">
<path d="M164.749 30.7494C139.108 18.7426 78.7879 6.63267 63.1608 40.5564C55.4045 57.398 66.1739 69.8631 69.9089 85.5131C72.4752 96.2597 67.5144 102.103 61.1787 110.042C47.5565 127.09 39.4336 146.406 52.5403 166.02C66.8499 187.422 96.2711 209.293 123.893 204.928C144.149 201.72 161.816 189.118 170.11 172.127C177.557 156.866 173.318 137.951 182.541 123.412C192.234 108.118 208.709 96.5003 206.142 76.2675C203.496 55.3931 183.503 39.5482 164.749 30.7494Z" fill="#E5F2E9"/>
</g>
<path d="M207.78 148.4C197.664 154.518 189.85 152.788 193.184 149.981C198.729 145.306 206.371 144.516 214.677 138.008C224.049 130.676 219.077 118.933 225.229 110.581C226.718 108.564 227.268 107.957 226.879 107.281C225.951 105.677 223.889 106.983 219.237 107.041C211.126 107.155 205.661 104.967 199.623 113.582C191.947 124.535 191.787 126.918 188.98 128.946C184.844 131.948 179.78 121.075 186.287 109.114C187.547 106.8 189.106 104.921 190.71 103.054C191.947 101.621 193.849 100.682 193.104 99.456C192.76 98.8947 192.336 98.4135 191.615 98.3676C187.49 98.0927 174.899 104.188 170.66 111.692C168.838 114.911 167.842 118.452 167.383 122.209C166.765 127.308 167.12 132.326 167.532 134.377C167.83 135.832 169.377 147.323 168.403 149.293C167.83 150.439 166.513 150.565 165.539 149.557C165.184 149.179 164.886 148.744 164.599 148.308C157.828 137.894 156.362 123.768 157.737 112.173C157.954 110.283 158.115 109.618 157.496 108.725C155.285 105.494 150.095 114.751 148.457 117.89C143.267 127.835 148.09 133.941 152.512 147.953C155.949 158.814 155.617 170.374 154.197 171.737C153.566 171.6 153.509 171.004 153.257 170.592C152.512 169.389 152.134 168.06 151.607 166.777C146.566 154.541 147.07 146.853 145.936 139.658C145.696 138.134 144.252 136.966 143.049 137.791C140.804 139.326 138.615 144.482 137.687 147.071C131.856 163.351 134.64 173.983 143.553 184.237C144.504 185.325 148.147 188.82 149.431 189.438C151.309 190.366 152.753 192.268 156.408 193.047C165.997 195.098 168.311 188.843 177.706 189.736C183.813 190.32 190.091 190.87 196.037 186.356C197.286 185.405 198.5 184.42 199.52 183.229C200.116 182.541 200.941 182.083 201.468 181.327C202.487 179.872 207.918 173.376 208.296 171.52C208.479 170.615 207.471 169.801 206.234 170.867C193.883 181.407 175.037 177.97 169.858 173.021C168.77 171.978 169.835 171.188 171.153 170.546C178.966 166.777 185.027 168.209 191.374 168.025C200.815 167.762 210.919 163.947 215.147 155.641C217.954 150.118 219.661 141.056 219.512 140.22C219.363 139.337 218.458 138.891 217.759 139.349C217.553 139.486 217.381 139.693 217.209 139.876C214.379 143.015 212.466 145.57 207.78 148.4Z" fill="#CAE4D3"/>
<path d="M162.01 167.67C163.591 165.872 165.596 164.485 167.796 163.523C170.007 162.572 172.379 162.033 174.773 161.713C177.168 161.403 179.596 161.335 182.025 161.392C184.443 161.449 186.894 161.678 189.358 161.644C194.25 161.598 199.279 160.682 203.621 158.241C207.986 155.847 211.469 152.226 214.563 148.434C214.689 148.274 214.666 148.045 214.505 147.907C214.345 147.781 214.104 147.804 213.978 147.964C210.919 151.711 207.494 155.251 203.255 157.577C199.05 159.948 194.169 160.808 189.346 160.888C186.929 160.945 184.511 160.727 182.048 160.682C179.596 160.636 177.133 160.716 174.693 161.048C172.253 161.38 169.835 161.953 167.555 162.95C165.298 163.958 163.202 165.413 161.575 167.304C161.472 167.43 161.483 167.613 161.609 167.716C161.724 167.808 161.907 167.796 162.01 167.67Z" fill="#417F56"/>
<path d="M158.435 172.574C159.455 170.363 160.165 168.003 160.475 165.574C160.795 163.156 160.727 160.693 160.394 158.287C159.719 153.452 158.046 148.87 156.442 144.344C154.826 139.819 153.211 135.27 152.524 130.539C152.18 128.178 152.077 125.795 152.283 123.424C152.386 122.244 152.569 121.064 152.833 119.907C153.039 118.738 153.486 117.673 154.093 116.676C154.196 116.504 154.15 116.275 153.967 116.16C153.795 116.057 153.566 116.103 153.452 116.275C152.799 117.329 152.306 118.52 152.088 119.735C151.825 120.926 151.63 122.129 151.527 123.344C151.309 125.773 151.412 128.224 151.767 130.63C152.466 135.454 154.082 140.059 155.72 144.573C157.358 149.099 159.043 153.624 159.73 158.356C160.074 160.716 160.154 163.11 159.856 165.471C159.57 167.831 158.894 170.133 157.908 172.31C157.84 172.459 157.908 172.631 158.057 172.7C158.195 172.78 158.367 172.711 158.435 172.574Z" fill="#417F56"/>
<path d="M181.671 145.799C184.237 143.668 187.41 142.419 190.63 141.491C193.861 140.563 197.183 139.853 200.425 138.776C203.656 137.711 206.795 136.256 209.591 134.274C212.398 132.303 214.827 129.828 216.912 127.182L216.935 127.147C217.061 126.987 217.038 126.758 216.877 126.62C216.717 126.483 216.488 126.517 216.35 126.678C214.242 129.336 211.882 131.719 209.144 133.643C206.417 135.58 203.347 136.977 200.173 138.054C197 139.143 193.7 139.887 190.435 140.85C187.193 141.824 183.928 143.118 181.281 145.352C181.155 145.455 181.144 145.639 181.247 145.765C181.361 145.891 181.545 145.902 181.671 145.799Z" fill="#417F56"/>
<path d="M194.949 135.648C196.347 133.85 197 131.73 197.733 129.691C198.443 127.651 199.028 125.532 199.956 123.664C200.941 121.786 202.224 120.067 203.679 118.509C205.134 116.939 206.761 115.542 208.399 114.109C208.548 113.972 208.571 113.743 208.434 113.582C208.296 113.434 208.067 113.411 207.907 113.548L207.895 113.56C206.28 114.969 204.607 116.389 203.118 117.993C201.628 119.597 200.276 121.35 199.268 123.321C198.306 125.337 197.767 127.445 197.08 129.485C196.392 131.512 195.739 133.62 194.479 135.282L194.468 135.305C194.376 135.431 194.399 135.614 194.525 135.706C194.674 135.797 194.857 135.774 194.949 135.648Z" fill="#417F56"/>
<path d="M203.255 175.163C199.784 177.706 196.072 179.963 192.062 181.499C188.063 183.011 183.767 183.95 179.505 183.527C175.22 183.206 171.313 181.144 166.994 180.284C164.84 179.837 162.572 179.815 160.406 180.319C158.23 180.811 156.213 181.865 154.483 183.229C153.613 183.905 152.811 184.661 152.043 185.44C151.665 185.829 151.287 186.23 150.92 186.586C150.829 186.677 150.737 186.746 150.645 186.815C150.588 186.872 150.45 186.861 150.645 186.895C150.634 186.861 150.702 187.009 150.68 186.941C150.68 186.895 150.714 186.757 150.737 186.608C151.23 184.432 151.138 182.14 150.554 180.009C149.373 175.724 146.922 172.058 145.043 168.209C143.118 164.382 141.629 160.281 141.4 156.007C141.113 151.734 142.041 147.472 143.531 143.462C143.599 143.267 143.508 143.049 143.313 142.981C143.118 142.912 142.9 143.004 142.832 143.198C141.319 147.277 140.357 151.654 140.643 156.053C140.884 160.464 142.408 164.68 144.355 168.552C146.269 172.448 148.698 176.103 149.809 180.216C150.359 182.255 150.45 184.397 149.981 186.46C149.969 186.586 149.912 186.712 149.901 186.929C149.901 187.032 149.912 187.181 149.992 187.33C150.072 187.479 150.221 187.571 150.324 187.617C150.794 187.743 150.909 187.536 151.069 187.468C151.195 187.376 151.321 187.273 151.424 187.181C151.837 186.792 152.203 186.402 152.581 186.013C153.326 185.245 154.105 184.512 154.93 183.859C156.591 182.553 158.493 181.545 160.555 181.075C162.606 180.594 164.76 180.605 166.845 181.029C171.016 181.831 174.991 183.905 179.425 184.237C183.824 184.661 188.212 183.664 192.268 182.117C196.347 180.548 200.082 178.233 203.576 175.667C203.702 175.576 203.736 175.392 203.633 175.266C203.564 175.094 203.381 175.06 203.255 175.163Z" fill="#417F56"/>
<path d="M183.022 106.892C181.601 108.335 180.101 109.721 178.806 111.337C177.488 112.952 176.572 114.843 175.884 116.779C174.475 120.686 174.441 124.959 175.06 128.992C175.335 131.02 175.747 133.025 176.022 135.007C176.274 137 176.343 139.017 176.274 141.033C176.205 143.038 175.965 145.054 175.472 146.991C174.991 148.915 174.212 150.817 172.848 152.169L172.837 152.181C172.688 152.33 172.688 152.559 172.837 152.708C172.986 152.857 173.215 152.857 173.364 152.708C174.911 151.172 175.701 149.156 176.217 147.174C176.732 145.169 176.973 143.118 177.053 141.067C177.122 139.017 177.065 136.966 176.801 134.915C176.526 132.876 176.125 130.894 175.827 128.889C175.197 124.913 175.197 120.8 176.538 117.008C177.202 115.118 178.061 113.296 179.322 111.738C180.559 110.157 182.037 108.771 183.457 107.304C183.572 107.19 183.572 107.006 183.446 106.892C183.32 106.777 183.137 106.777 183.022 106.892Z" fill="#417F56"/>
<path d="M150.611 187.754C154.323 180.158 158.436 172.746 163.191 165.757C167.957 158.791 173.571 152.41 180.101 147.048C183.343 144.344 186.735 141.824 190.183 139.383C193.632 136.943 197.16 134.594 200.586 132.074C203.989 129.542 207.345 126.907 210.301 123.813C213.234 120.709 215.732 117.191 217.645 113.376C217.737 113.193 217.668 112.964 217.485 112.872C217.301 112.78 217.072 112.849 216.981 113.033V113.044C215.09 116.79 212.65 120.239 209.763 123.286C206.853 126.322 203.53 128.935 200.139 131.455C193.299 136.405 186.116 140.964 179.608 146.452C173.055 151.871 167.407 158.344 162.629 165.367C157.886 172.413 153.773 179.86 150.084 187.491C150.015 187.64 150.073 187.811 150.222 187.88C150.37 187.96 150.542 187.903 150.611 187.754Z" fill="#417F56"/>
<mask id="mask0_2399_744883" style="mask-type:luminance" maskUnits="userSpaceOnUse" x="45" y="0" width="162" height="206">
<path d="M156.465 4.16946C130.836 -7.83733 78.7878 6.63268 63.1607 40.5564C55.4044 57.398 66.1738 69.8631 69.9088 85.5131C72.4751 96.2597 67.5143 102.103 61.1786 110.042C46.9492 127.846 39.7657 146.91 52.5401 166.02C64.3751 183.721 86.5556 201.754 109.504 204.974C114.293 205.65 119.127 205.673 123.893 204.916C144.149 201.709 161.816 189.106 170.11 172.115C177.557 156.855 173.318 137.94 182.541 123.401C192.234 108.106 208.709 96.4888 206.142 76.256C203.496 55.3931 175.22 12.9569 156.465 4.16946Z" fill="white"/>
</mask>
<g mask="url(#mask0_2399_744883)">
<path d="M55.0715 103.833C55.0371 106.055 56.6525 108.106 58.4283 110.042C72.0047 124.684 96.6255 146.257 102.079 150.118C102.984 150.771 103.866 151.344 104.726 151.837C104.737 151.848 104.737 151.86 104.749 151.86C108.335 153.945 111.554 154.655 114.705 153.326C118.474 151.734 121.384 148.938 122.472 144.906C125.886 132.303 107.796 126.231 86.9215 112.712C80.1734 108.553 76.7708 106.582 69.805 102.481C65.7836 100.132 59.7459 95.9045 56.0568 101.049C55.0944 102.366 54.9913 103.775 55.0715 103.833Z" fill="#F0D0BB"/>
<path d="M110.992 199.635C105.528 201.709 101.747 204.997 98.6533 209.557C91.7334 219.73 98.1607 202.82 57.9357 399.603C57.5576 401.47 57.191 403.097 58.8637 404.38C64.1224 408.39 74.697 410.269 80.8723 407.989C91.1033 404.209 84 393.153 93.2572 374.868C97.5306 366.412 102.09 358.095 105.619 349.284C109.194 340.348 111.004 330.804 112.299 321.307C112.757 317.961 113.135 314.593 113.272 311.213C113.318 310.228 113.227 309.174 113.708 308.269C117.741 300.719 128.453 283.259 135.648 260.001C142.568 237.614 147.162 206.257 126.322 199.314C124.97 198.89 116.331 197.607 110.992 199.635Z" fill="#963C4E"/>
<path d="M78.6843 165.86C77.1605 177.008 75.5107 188.167 72.8756 199.108C70.5957 208.617 68.144 222.858 60.3533 229.48C59.116 230.534 59.0358 231.852 60.1585 233.02C70.7218 243.996 85.8677 244.42 100.063 244.534C107.934 244.592 114.35 248.074 121.35 251.191C130.893 255.43 146.647 253.597 155.491 247.742C155.491 247.742 151.756 234.59 151.447 230.431C149.041 198.638 158.115 167.086 171.187 138.581C177.156 125.555 180.479 111.222 171.21 99.2843C161.437 86.7047 145.948 80.0597 130.263 79.3494C114.877 78.662 100.636 86.338 93.9448 100.43C84.8022 119.689 81.5485 144.825 78.6843 165.86Z" fill="#5B6482"/>
<path d="M123.389 107.224C124.466 107.224 125.474 107.167 126.345 107.041C132.497 106.239 138.363 103.42 142.843 99.1124C146.234 95.8701 156.465 87.5181 151.63 83.829C144.722 78.5474 145.867 76.1185 146.394 67.2165C146.784 60.7549 138.26 63.1379 133.494 64.1003C129.266 64.9595 119.998 65.5782 120.445 71.5472C120.445 71.5702 120.445 71.5816 120.445 71.6045C120.479 72.0513 120.571 72.5211 120.72 73.0366C120.731 73.0595 120.731 73.0825 120.731 73.1054C120.777 73.2772 120.823 73.4262 120.868 73.598C120.926 73.8386 120.972 74.0677 121.017 74.3198C121.361 76.256 121.224 78.3182 120.731 80.3461C120.616 80.8273 120.49 81.297 120.341 81.7668C120.204 82.1907 120.055 82.626 119.895 83.0499C119.86 83.1301 119.837 83.2103 119.803 83.2791C119.425 84.2414 118.978 85.1809 118.485 86.0631C118.027 86.888 117.523 87.6556 116.996 88.3544C114.968 91.0812 112.161 95.2056 111.462 98.5167C110.053 105.299 117.672 107.212 123.389 107.224Z" fill="#F0D0BB"/>
<path d="M120.434 71.6045C120.468 72.0513 120.56 72.5211 120.709 73.0366C120.72 73.0595 120.72 73.0825 120.72 73.1054C120.766 73.2772 120.812 73.4262 120.858 73.598C120.915 73.8386 120.961 74.0678 121.007 74.3198C121.35 76.256 121.213 78.3182 120.72 80.3461C120.606 80.8273 120.48 81.297 120.331 81.7668C120.193 82.1907 120.044 82.626 119.884 83.0499C121.201 83.2791 122.553 83.302 123.836 83.2447C129.668 83.027 137.012 79.3952 138.226 73.873C138.261 73.7126 135.935 73.5293 135.591 73.4949C128.9 72.8304 123.997 72.1545 120.434 71.6045Z" fill="#D99982"/>
<path d="M118.806 26.6366C114.922 27.8968 110.615 29.18 107.258 34.6564C104.416 39.3078 105.001 45.5289 109.423 48.1525C112.849 50.1919 115.701 47.2131 117.512 43.6614C123.893 31.1391 130.435 36.0197 137.103 31.8036C141.743 28.8706 144.618 26.0752 141.01 22.1684C138.248 19.1667 133.78 18.6397 130.366 20.8394C126.815 23.1308 123.034 25.2617 118.806 26.6366Z" fill="#202538"/>
<path d="M112.711 32.4564C111.394 33.3615 110.351 34.6447 109.664 36.0883C108.988 37.5433 108.667 39.1587 108.736 40.7512C108.747 40.9574 108.919 41.1178 109.125 41.1064C109.32 41.0949 109.48 40.9345 109.48 40.7398C109.48 39.2504 109.744 37.761 110.363 36.4091C110.947 35.0457 111.898 33.8542 113.066 32.9262C113.193 32.8231 113.215 32.6398 113.112 32.5137C113.009 32.3992 112.837 32.3762 112.711 32.4564Z" fill="#3D4357"/>
<path d="M111.463 44.2801C107.167 58.5324 109.699 73.4378 123.08 76.5312C135.03 79.2923 149.672 71.3527 153.968 57.1003C158.264 42.848 152.1 28.8363 140.495 24.8837C128.385 20.7592 115.553 30.7037 111.463 44.2801Z" fill="#F0D0BB"/>
<mask id="mask1_2399_744883" style="mask-type:luminance" maskUnits="userSpaceOnUse" x="109" y="23" width="47" height="55">
<path d="M111.463 44.2801C107.167 58.5324 109.699 73.4378 123.08 76.5312C135.03 79.2923 149.672 71.3527 153.968 57.1003C158.264 42.848 152.1 28.8363 140.495 24.8837C128.385 20.7592 115.553 30.7037 111.463 44.2801Z" fill="white"/>
</mask>
<g mask="url(#mask1_2399_744883)">
<path d="M120.915 42.55C121.407 40.2472 115.587 39.5827 115.347 41.9543C115.14 43.9707 120.514 44.4175 120.915 42.55Z" fill="#202538"/>
<path d="M136.244 46.8004C137.252 44.6694 131.753 42.676 130.962 44.933C130.298 46.8462 135.419 48.5304 136.244 46.8004Z" fill="#202538"/>
<path d="M115.197 48.37C115.209 49.1605 115.598 49.7105 116.217 49.8136C117.569 50.0427 118.417 48.2669 118.016 47.1327C117.626 46.0443 116.137 46.0328 115.576 46.9608C115.323 47.3733 115.186 47.8888 115.197 48.37Z" fill="#202538"/>
<path d="M130.55 51.3717C130.595 52.1622 131.008 52.6892 131.627 52.7694C132.978 52.9413 133.769 51.1311 133.311 50.0198C132.875 48.9543 131.397 49.0001 130.87 49.9511C130.641 50.3635 130.515 50.8905 130.55 51.3717Z" fill="#202538"/>
<path d="M117.879 63.1837C118.234 63.8139 118.726 64.318 119.276 64.696C121.293 66.0709 124.226 65.8073 125.875 64.2721C125.921 64.2263 125.979 64.1805 126.013 64.1232C126.448 63.6878 126.803 63.1494 127.021 62.5536C127.239 61.9578 127.399 61.0298 126.975 60.5257C126.54 60.0331 125.887 59.8154 125.291 60.0789C124.993 60.2049 124.684 60.3653 124.386 60.5372C123.229 61.1902 121.98 61.3506 120.617 61.0298C120.181 60.9267 119.7 60.8122 119.242 60.8007C117.97 60.7663 117.226 62.0266 117.879 63.1837Z" fill="#202538"/>
<path d="M119.287 64.6961C121.304 66.071 124.237 65.8074 125.886 64.2722C125.932 64.2264 125.99 64.1806 126.024 64.1233C125.955 63.8827 125.463 63.6421 125.325 63.5619C124.981 63.3671 124.626 63.2067 124.248 63.0922C122.679 62.6224 120.284 62.863 119.287 64.6961Z" fill="#D46966"/>
<g opacity="0.75">
<path d="M139.394 61.0527C139.818 59.5519 138.363 57.5011 135.9 56.8481C133.677 56.2638 131.478 56.9283 130.859 58.9561C130.378 60.5372 131.947 62.6567 134.01 63.1952C136.393 63.8253 138.867 63.2181 139.394 61.0527Z" fill="#D99982"/>
<path d="M108.083 54.3048C108.301 52.7695 110.477 51.4749 112.987 51.8988C115.255 52.2769 116.985 53.7777 116.733 55.8858C116.527 57.5241 114.224 58.8188 112.116 58.4751C109.675 58.0626 107.682 56.493 108.083 54.3048Z" fill="#D99982"/>
</g>
<path d="M124.684 46.4109C123.492 48.2096 122.518 50.0885 121.533 51.9904C121.281 52.4601 121.052 53.01 120.96 53.5829C120.857 54.1557 120.926 54.8546 121.292 55.3816C121.648 55.9086 122.14 56.2523 122.633 56.5273L123.332 56.9054C123.595 57.0428 123.87 57.123 124.134 57.2032C124.306 57.2491 124.477 57.1574 124.523 56.997C124.569 56.8366 124.489 56.6762 124.34 56.6075C124.099 56.5044 123.87 56.4013 123.675 56.2752L123 55.8628C122.564 55.6107 122.163 55.3243 121.934 54.9577C121.43 54.2474 121.774 53.2163 122.209 52.3112C122.656 51.3602 123.126 50.4093 123.607 49.4584C124.099 48.5189 124.569 47.568 125.096 46.6629V46.6515C125.165 46.5369 125.119 46.388 125.004 46.3192C124.901 46.2734 124.752 46.3078 124.684 46.4109Z" fill="#353535"/>
</g>
<path d="M138.913 17.6772C136.645 17.2647 134.514 16.3253 132.177 16.9325C130.378 17.4022 127.491 18.1698 125.864 20.7476C123.435 24.5857 124.89 32.1587 128.591 35.5728C133.082 39.7202 133.872 38.6662 137.115 40.1326C145.593 43.9821 137.928 51.9905 144.539 54.8318C146.704 55.7598 149.442 55.9775 151.241 57.6387C152.811 59.0937 152.18 61.5226 150.439 62.4964C140.494 68.0415 139.188 83.852 151.39 82.9813C153.762 82.8094 156.271 80.1629 156.786 78.3985C158.241 73.4835 162.664 72.6014 165.333 70.7683C169.492 67.9156 172.345 62.2787 171.279 55.7827C170.202 49.2637 165.115 46.6974 166.272 42.5729C167.67 37.6007 168.358 32.6169 166.639 27.6217C165.047 23.0046 161.529 19.2926 157.027 17.4022C153.028 15.7181 148.904 15.9472 144.768 16.9669C142.603 17.5053 141.125 18.0896 138.913 17.6772Z" fill="#202538"/>
<path d="M162.743 50.4553C163.545 52.8268 164.462 55.164 164.783 57.5929C164.932 58.7958 164.932 60.0446 164.691 61.1903C164.439 62.3246 163.603 63.1838 162.583 63.814C161.563 64.467 160.406 64.9711 159.329 65.6929C158.252 66.4032 157.313 67.2968 156.465 68.2592C154.792 70.2069 153.589 72.4524 152.432 74.6636C152.34 74.8469 152.409 75.076 152.593 75.1677C152.776 75.2594 153.005 75.1906 153.097 75.0073C154.254 72.8076 155.445 70.6079 157.049 68.7519C157.851 67.8353 158.745 66.999 159.765 66.3345C160.761 65.6585 161.918 65.1659 163.007 64.467C163.545 64.1118 164.084 63.6994 164.519 63.1838C164.954 62.6683 165.275 62.0267 165.424 61.3622C165.688 60.0561 165.653 58.7729 165.481 57.5012C165.103 54.9578 164.13 52.6091 163.305 50.2719C163.247 50.123 163.087 50.0428 162.938 50.1001C162.766 50.1345 162.686 50.3063 162.743 50.4553Z" fill="#353535"/>
<path d="M128.545 18.0323C126.529 20.6445 125.28 23.841 124.856 27.1062C124.833 27.3124 124.97 27.4957 125.177 27.5186C125.371 27.5415 125.555 27.4041 125.589 27.2093C125.853 25.6397 126.231 24.0816 126.804 22.5922C127.354 21.1028 128.121 19.6936 129.015 18.3646C129.106 18.2271 129.072 18.0553 128.935 17.9636C128.809 17.8834 128.637 17.9178 128.545 18.0323Z" fill="#202538"/>
<path d="M147.918 59.8154C147.62 60.0445 147.288 60.331 146.944 60.5716L145.971 61.3163L145.959 61.3277C145.799 61.4537 145.764 61.6829 145.89 61.8547C146.005 62.0037 146.211 62.038 146.372 61.9578C146.784 61.7287 147.105 61.4423 147.437 61.1673C147.758 60.858 148.079 60.5945 148.365 60.2049C148.457 60.0789 148.434 59.8956 148.308 59.804C148.205 59.7238 148.056 59.7352 147.953 59.8154H147.918Z" fill="#353535"/>
<path d="M152.753 84.7686C152.753 84.7686 144.137 94.2434 134.216 97.2336C125.337 99.9031 114.395 97.0961 118.772 86.1778C124.099 72.8763 104.451 89.7752 101.426 103.294C99.7764 110.661 110.133 115.381 110.133 115.381L164.141 100.132L160.177 90.3939L152.753 84.7686Z" fill="#5B6482"/>
<path d="M111.486 93.7049C112.185 96.0306 113.491 98.196 115.267 99.8801C117.031 101.587 119.276 102.733 121.614 103.386C123.962 104.039 126.414 104.222 128.832 104.085C131.249 103.924 133.62 103.477 135.946 102.87C136.141 102.813 136.267 102.618 136.21 102.412C136.152 102.217 135.958 102.091 135.751 102.149H135.74C133.449 102.744 131.123 103.18 128.774 103.329C126.426 103.466 124.065 103.26 121.808 102.664C119.563 102.068 117.409 100.991 115.713 99.399C114.006 97.8179 112.746 95.7786 112.036 93.5445C111.99 93.3956 111.83 93.3039 111.669 93.3497C111.52 93.3956 111.44 93.556 111.486 93.7049Z" fill="#525768"/>
<path d="M166.192 45.4486C165.562 46.4454 165.081 46.5943 163.969 46.1475C160.658 44.8414 122.576 29.3059 119.551 27.4728C118.657 26.9343 118.531 26.5563 118.909 25.571C125.108 9.34803 146.738 1.98127 159.971 14.9734C165.218 20.129 168.025 26.4188 168.403 33.7512C168.666 38.8838 167.372 43.5926 166.192 45.4486Z" fill="#417F56"/>
<path d="M106.8 23.2567C105.448 22.6609 104.176 21.9506 104.898 20.656C106.066 18.5937 109.194 17.9063 111.508 18.1469C114.934 18.5021 118.245 19.327 121.453 20.5872C135.281 26.0178 153.269 35.779 165.447 44.2342C166.146 44.7268 166.937 45.4715 166.513 46.2277C166.226 46.7318 165.768 46.9609 165.184 46.9265C163.534 46.8463 112.791 25.8688 106.8 23.2567Z" fill="#61AE7B"/>
<path d="M156.213 14.79C154.689 15.4888 152.833 15.7638 151.332 15.0535C150.588 14.6983 149.912 14.2057 149.396 13.5297C149.11 13.2204 148.926 12.8194 148.686 12.4757L148.124 11.3185L148.102 11.2727C148.01 11.0894 147.792 11.0092 147.609 11.1009C147.426 11.1925 147.345 11.4102 147.437 11.5935C147.632 12.0174 147.815 12.4413 148.01 12.8538C148.273 13.2433 148.48 13.6672 148.8 14.0109C149.373 14.7556 150.152 15.3628 151.035 15.7523C151.917 16.1304 152.902 16.2335 153.841 16.1304C154.781 16.0158 155.663 15.7409 156.511 15.2941C156.648 15.2139 156.706 15.042 156.625 14.9045C156.557 14.7671 156.385 14.7212 156.247 14.7785L156.213 14.79Z" fill="#353535"/>
<path d="M144.756 14.3662C143.702 14.7671 142.751 15.3056 141.834 15.9128C140.929 16.5315 140.059 17.2075 139.268 17.9751C138.477 18.7427 137.744 19.5676 137.103 20.4612C136.438 21.3319 135.888 22.2943 135.384 23.2681C135.292 23.4514 135.361 23.6806 135.545 23.7722C135.728 23.8639 135.945 23.7952 136.037 23.6233L136.049 23.6118C136.564 22.6838 137.103 21.7673 137.733 20.9309C138.34 20.0717 139.062 19.2812 139.806 18.5365C140.551 17.7803 141.376 17.1043 142.235 16.4971C143.095 15.8899 144.023 15.3285 144.962 14.9275L144.985 14.9161C145.134 14.8473 145.203 14.687 145.134 14.538C145.054 14.3776 144.893 14.3089 144.756 14.3662Z" fill="#353535"/>
<path d="M155.789 33.4991C156.614 31.1619 156.992 28.7216 157.038 26.2469C157.072 25.0096 156.958 23.7837 156.751 22.5578C156.58 21.3319 156.19 20.1404 155.755 18.9833C155.686 18.7885 155.468 18.6969 155.274 18.7656C155.09 18.8343 154.987 19.0406 155.056 19.2353L155.067 19.2582C155.457 20.381 155.823 21.5038 155.995 22.6838C156.202 23.8524 156.293 25.044 156.282 26.2355C156.282 27.427 156.202 28.6185 156.03 29.7985C155.846 30.9786 155.606 32.1587 155.251 33.2814V33.2929C155.205 33.4418 155.285 33.6137 155.445 33.6595C155.583 33.7283 155.743 33.6481 155.789 33.4991Z" fill="#353535"/>
<g opacity="0.15">
<mask id="mask2_2399_744883" style="mask-type:luminance" maskUnits="userSpaceOnUse" x="59" y="79" width="119" height="175">
<path d="M60.3534 229.48C68.1441 222.858 70.5959 208.617 72.8758 199.108C75.5109 188.155 77.1607 177.008 78.6844 165.86C81.5486 144.825 84.8138 119.689 93.9564 100.419C100.647 86.3266 114.888 78.6505 130.275 79.3379C145.959 80.0482 161.46 86.6932 171.222 99.2728C173.49 102.194 174.991 105.253 175.896 108.392C177.855 113.983 178.222 120.136 176.881 125.933C175.048 133.815 170.041 140.632 168.861 148.721C168.678 149.947 168.69 150.542 166.868 150.966C166.49 151.058 166.123 151.127 165.757 151.195C155.72 176.251 149.396 203.244 151.447 230.419C151.756 234.578 155.491 247.731 155.491 247.731C146.647 253.585 130.893 255.418 121.35 251.179C114.35 248.063 107.922 244.592 100.063 244.523C85.8679 244.408 70.7219 243.984 60.1587 233.009C59.0245 231.852 59.1161 230.534 60.3534 229.48Z" fill="white"/>
</mask>
<g mask="url(#mask2_2399_744883)">
<path d="M89.0181 98.2874C96.5567 99.8799 104.038 101.977 111.164 104.921C114.704 106.41 118.199 108.129 121.246 110.432C122.759 111.589 124.168 112.906 125.187 114.488C126.23 116.046 126.723 117.948 126.402 119.769C126.253 120.686 125.932 121.568 125.474 122.381C125.038 123.218 124.477 123.974 123.87 124.707C122.632 126.151 121.177 127.411 119.654 128.557C118.118 129.714 116.492 130.733 114.83 131.707C113.169 132.658 111.451 133.655 109.904 134.835C106.776 137.184 104.061 140.151 102.251 143.645C100.441 147.128 99.4782 151.046 99.3865 154.965C99.272 158.883 99.9136 162.79 101.036 166.525C102.159 170.26 103.74 173.846 105.653 177.237C109.469 184.019 114.464 190.126 120.227 195.327C126.001 200.517 132.588 204.905 139.864 207.723C143.495 209.121 147.311 210.129 151.206 210.485C155.09 210.874 159.065 210.565 162.846 209.511C163.041 209.453 163.155 209.247 163.11 209.052C163.052 208.858 162.846 208.743 162.651 208.789C155.25 210.897 147.265 209.786 140.15 207.013C132.978 204.229 126.471 199.887 120.754 194.754C115.048 189.599 110.11 183.561 106.341 176.847C104.462 173.49 102.892 169.962 101.792 166.284C100.681 162.618 100.074 158.791 100.166 154.965C100.246 151.149 101.174 147.357 102.915 143.966C104.657 140.575 107.292 137.676 110.339 135.385C111.863 134.216 113.501 133.265 115.197 132.291C116.881 131.318 118.519 130.275 120.078 129.095C121.636 127.926 123.125 126.632 124.408 125.131C125.038 124.375 125.634 123.573 126.092 122.691C126.574 121.82 126.929 120.858 127.078 119.861C127.433 117.856 126.86 115.759 125.76 114.109C124.683 112.425 123.205 111.073 121.659 109.893C118.519 107.545 114.991 105.826 111.416 104.325C104.221 101.381 96.7285 99.2956 89.1326 97.7031C88.9722 97.6688 88.8234 97.7719 88.789 97.9323C88.7432 98.1041 88.8462 98.2531 89.0181 98.2874Z" fill="#B0B3C2"/>
<path d="M78.9814 108.358C82.1893 108.14 85.3628 107.797 88.5479 107.831C91.7099 107.865 94.9293 108.312 97.679 109.813C99.0309 110.558 100.257 111.6 101.345 112.723C102.434 113.846 103.396 115.106 103.98 116.538C104.576 117.959 104.725 119.54 104.416 121.041C104.118 122.542 103.407 123.962 102.514 125.246C100.704 127.812 98.2976 129.931 95.7771 131.856C93.2452 133.792 90.5643 135.522 87.8604 137.229C86.5085 138.089 85.1452 138.936 83.8162 139.83C82.4872 140.724 81.1696 141.606 79.8063 142.442C77.091 144.104 74.2497 145.559 71.2365 146.521C71.0418 146.578 70.9272 146.796 70.9959 146.991C71.0532 147.185 71.2709 147.3 71.4657 147.231C74.559 146.246 77.4576 144.757 80.1958 143.084C81.5706 142.248 82.9111 141.354 84.2286 140.46C85.5462 139.578 86.9095 138.73 88.2614 137.871C90.9653 136.164 93.6691 134.422 96.2354 132.463C98.7903 130.516 101.265 128.362 103.133 125.669C104.061 124.329 104.805 122.817 105.126 121.178C105.458 119.54 105.275 117.799 104.633 116.263C103.992 114.717 102.961 113.399 101.826 112.242C100.692 111.085 99.4319 110.019 97.9883 109.229C95.0783 107.648 91.7443 107.224 88.5479 107.201C85.317 107.178 82.1206 107.545 78.947 107.774C78.7866 107.785 78.6606 107.923 78.672 108.083C78.6835 108.255 78.821 108.37 78.9814 108.358Z" fill="#B0B3C2"/>
<path d="M71.0076 178.348C76.4267 177.569 82.1207 177.42 87.2877 179.288C88.5595 179.78 89.7739 180.387 90.8967 181.155C91.4351 181.567 91.9851 181.957 92.4548 182.461C92.9245 182.954 93.4745 183.366 93.8754 183.916C95.6742 185.967 96.774 188.533 97.1865 191.226C98.0686 196.622 96.5678 202.27 98.0343 207.815C98.7561 210.565 100.223 213.074 102.079 215.182C103.923 217.313 106.146 219.077 108.517 220.567C113.295 223.534 118.634 225.356 124.03 226.696C129.449 228.014 135.028 228.621 140.597 228.621C146.165 228.598 151.767 227.991 157.129 226.387C162.479 224.806 167.612 222.297 171.92 218.699C172.08 218.562 172.103 218.332 171.965 218.172C171.828 218.012 171.599 217.989 171.438 218.126C167.222 221.644 162.193 224.107 156.923 225.665C151.641 227.246 146.107 227.83 140.608 227.865C135.097 227.853 129.575 227.246 124.213 225.951C118.874 224.634 113.604 222.812 108.918 219.925C106.593 218.481 104.427 216.763 102.628 214.701C100.83 212.65 99.4091 210.255 98.7217 207.632C97.2896 202.327 98.7561 196.69 97.851 191.111C97.4271 188.327 96.247 185.612 94.3795 183.492C93.9556 182.919 93.3943 182.495 92.9016 181.98C92.4204 181.464 91.8361 181.052 91.2747 180.628C90.1061 179.837 88.8344 179.196 87.5169 178.692C84.8704 177.729 82.0634 177.317 79.2679 177.214C76.4725 177.134 73.677 177.34 70.9274 177.764C70.767 177.787 70.6639 177.936 70.6868 178.096C70.6982 178.268 70.8472 178.371 71.0076 178.348Z" fill="#B0B3C2"/>
<path d="M176.365 189.507C171.232 189.713 166.008 188.934 161.162 187.227C156.316 185.52 151.824 182.667 148.548 178.715C145.225 174.796 143.209 169.893 142.304 164.84C141.353 159.776 141.399 154.552 141.983 149.419C142.006 149.213 141.857 149.03 141.651 149.007C141.445 148.984 141.261 149.133 141.238 149.339C140.643 154.529 140.597 159.822 141.548 164.989C142.464 170.133 144.515 175.197 147.963 179.219C151.366 183.274 155.983 186.173 160.933 187.869C165.893 189.576 171.152 190.332 176.411 190.091C176.571 190.08 176.697 189.954 176.686 189.793C176.674 189.633 176.548 189.507 176.388 189.518L176.365 189.507Z" fill="#B0B3C2"/>
</g>
</g>
<path d="M126.31 163.741C126.345 163.683 126.368 163.615 126.402 163.557C126.78 163.775 127.135 164.004 127.502 164.233L126.31 163.741Z" fill="#F0D0BB"/>
<path d="M148.124 122.278C150.473 118.131 153.727 113.766 158.882 112.929C167.131 111.612 172.768 119.471 171.92 126.964C171.13 133.918 167.131 140.22 163.786 146.2C159.455 153.934 155.663 164.863 149.946 173.49C147.838 176.675 145.455 179.517 142.694 181.797C138.088 175.759 134.376 168.667 127.479 164.222C127.124 163.993 126.757 163.763 126.379 163.546C130.664 154.862 137.515 140.919 148.124 122.278Z" fill="#F0D0BB"/>
<path d="M73.07 144.951C76.0831 141.824 80.9523 143.874 81.0096 143.92C99.4666 151.298 118.256 159.811 128.544 162.813L129.633 163.489C135.682 169.034 139.199 175.048 142.716 181.785C139.485 184.363 136.575 185.829 133.723 186.288C124.179 187.834 113.295 180.319 105.516 175.702C95.1244 169.526 85.1684 162.503 75.6936 154.988C73.6772 153.372 71.7868 151.562 71.5004 149.374C71.2254 148.984 71.5233 146.578 73.07 144.951Z" fill="#F0D0BB"/>
<path d="M135.568 165.413C134.273 164.474 132.841 163.878 131.409 163.305C129.965 162.744 128.488 162.297 126.964 162.022C126.792 161.988 126.632 162.102 126.597 162.274C126.563 162.434 126.666 162.583 126.815 162.629C128.27 163.076 129.725 163.489 131.168 163.981C131.879 164.233 132.589 164.497 133.288 164.795C133.975 165.104 134.674 165.413 135.293 165.803L135.316 165.814C135.43 165.883 135.579 165.849 135.66 165.734C135.705 165.631 135.682 165.493 135.568 165.413Z" fill="#202538"/>
<path d="M172.436 101.461C167.75 94.4839 160.28 95.641 153.44 99.0552C142.04 104.738 142.132 121.006 133.814 137.779C131.718 141.995 144.641 148.102 151.928 150.004C157.106 151.356 161.219 152.295 166.879 150.966C168.701 150.542 168.689 149.947 168.861 148.721C170.041 140.632 175.048 133.827 176.881 125.933C178.806 117.615 177.202 108.553 172.436 101.461Z" fill="#3D4357"/>
<g opacity="0.15">
<mask id="mask3_2399_744883" style="mask-type:luminance" maskUnits="userSpaceOnUse" x="59" y="79" width="119" height="175">
<path d="M60.3535 229.48C68.1442 222.858 70.596 208.617 72.8759 199.108C75.5109 188.155 77.1607 177.008 78.6845 165.86C81.5487 144.825 84.8139 119.689 93.9565 100.419C100.647 86.3266 114.888 78.6505 130.275 79.3379C145.959 80.0482 161.46 86.6932 171.222 99.2728C173.49 102.194 174.991 105.253 175.896 108.392C177.855 113.983 178.222 120.136 176.881 125.933C175.048 133.815 170.041 140.632 168.861 148.721C168.678 149.947 168.69 150.542 166.868 150.966C166.49 151.058 166.123 151.127 165.757 151.195C155.72 176.251 149.396 203.244 151.447 230.419C151.756 234.578 155.491 247.731 155.491 247.731C146.647 253.585 130.893 255.418 121.35 251.179C114.35 248.063 107.922 244.592 100.063 244.523C85.868 244.408 70.722 243.984 60.1588 233.009C59.0245 231.852 59.1162 230.534 60.3535 229.48Z" fill="white"/>
</mask>
<g mask="url(#mask3_2399_744883)">
<path d="M161.552 79.441C160.635 82.8895 159.925 86.4068 159.616 89.9699C159.306 93.5329 159.398 97.1648 160.257 100.682C161.071 104.211 163.328 107.476 166.536 109.275C169.721 111.096 173.49 111.646 177.076 111.245C178.886 111.05 180.662 110.512 182.289 109.71C183.927 108.92 185.416 107.9 186.872 106.857C189.747 104.784 192.577 102.538 195.98 101.725C197.595 101.266 199.222 102.103 200.425 103.306C201.651 104.509 202.613 106.009 203.473 107.533C205.191 110.615 206.405 113.938 207.769 117.249C207.849 117.443 208.067 117.524 208.25 117.455C208.445 117.375 208.525 117.157 208.456 116.974L208.445 116.962C207.093 113.708 205.867 110.317 204.114 107.178C203.232 105.608 202.258 104.073 200.941 102.779C200.276 102.137 199.52 101.564 198.626 101.209C197.744 100.854 196.701 100.751 195.785 101.014C192.176 101.885 189.266 104.211 186.413 106.262C184.981 107.293 183.515 108.278 181.945 109.046C180.375 109.813 178.703 110.329 176.973 110.512C173.524 110.913 169.904 110.397 166.879 108.679C163.832 106.983 161.701 103.936 160.899 100.545C160.051 97.1304 159.936 93.5673 160.234 90.0501C160.532 86.5328 161.22 83.0385 162.113 79.6129C162.159 79.4525 162.056 79.3035 161.907 79.2577C161.747 79.2004 161.586 79.2921 161.552 79.441Z" fill="#CBCBCB"/>
<path d="M144.423 109.882C146.302 110.489 148.101 111.44 149.453 112.884C150.828 114.293 151.687 116.137 152.065 118.062C152.237 119.036 152.34 120.021 152.306 121.006C152.283 121.98 152.157 123 152.122 124.031C152.054 126.082 152.294 128.178 153.027 130.138C153.761 132.097 155.067 133.85 156.762 135.098C158.458 136.347 160.451 137.092 162.479 137.459C166.569 138.192 170.74 137.596 174.658 136.496C174.853 136.439 174.967 136.233 174.91 136.038C174.853 135.843 174.647 135.729 174.452 135.786C170.614 136.863 166.535 137.424 162.617 136.714C160.669 136.359 158.79 135.637 157.209 134.48C155.64 133.311 154.437 131.696 153.738 129.863C153.039 128.03 152.787 126.036 152.844 124.043C152.867 123.057 152.993 122.049 153.005 121.006C153.039 119.975 152.913 118.933 152.73 117.913C152.317 115.885 151.378 113.926 149.9 112.425C148.456 110.902 146.554 109.916 144.595 109.309C144.446 109.263 144.274 109.343 144.229 109.504C144.183 109.664 144.263 109.825 144.423 109.882Z" fill="#CBCBCB"/>
</g>
</g>
<path d="M140.173 134.617C142.247 135.454 144.286 136.496 146.383 137.378C148.468 138.283 150.599 139.12 152.764 139.842C157.095 141.285 161.586 142.259 166.112 142.797C166.318 142.82 166.501 142.671 166.524 142.477C166.547 142.27 166.398 142.087 166.192 142.064C163.958 141.778 161.724 141.423 159.524 140.919C157.324 140.426 155.147 139.807 152.993 139.12C150.84 138.432 148.72 137.63 146.635 136.76C144.538 135.9 142.51 134.904 140.368 134.067C140.219 134.01 140.047 134.079 139.99 134.228C139.933 134.377 140.001 134.537 140.15 134.606L140.173 134.617Z" fill="#353535"/>
<path d="M149.396 101.553C147.047 104.211 145.099 107.167 143.495 110.306C141.868 113.434 140.677 116.79 139.921 120.25C139.21 123.664 138.386 127.056 137.24 130.344C136.678 131.982 136.037 133.609 135.304 135.179C134.559 136.702 133.734 138.352 132.565 139.418L132.52 139.463C132.371 139.601 132.359 139.83 132.497 139.991C132.634 140.139 132.863 140.151 133.024 140.013C134.456 138.696 135.189 137.092 135.991 135.511C136.747 133.918 137.389 132.269 137.973 130.607C139.13 127.285 139.99 123.859 140.677 120.422C141.376 117.031 142.521 113.731 144.103 110.627C145.661 107.533 147.562 104.566 149.831 101.965L149.842 101.954C149.946 101.828 149.934 101.644 149.819 101.541C149.682 101.427 149.51 101.438 149.396 101.553Z" fill="#353535"/>
</g>
<path d="M32.4561 96.7866L37.5429 112.666C38.0012 114.087 39.2271 115.118 40.6936 115.312L77.1837 120.273C78.6501 120.468 80.1166 119.804 80.9301 118.566L80.9644 118.52L90.0841 104.635L32.4561 96.7866Z" fill="#ADADAD"/>
<path d="M32.4561 96.7867L90.0841 104.623L84.5504 92.6851C84.0005 91.4936 82.8662 90.6687 81.5602 90.4854L44.4514 85.4329C43.1453 85.2496 41.8393 85.7537 40.98 86.7505L32.4561 96.7867Z" fill="#ADADAD"/>
<path opacity="0.25" d="M56.7785 107.888L63.6756 108.828C67.9031 109.401 71.787 106.445 72.3599 102.217L50.1679 99.1926C49.5951 103.432 52.5624 107.316 56.7785 107.888Z" fill="#717171"/>
<path d="M86.4519 103.89L61.3614 100.373C52.9979 99.1926 44.6229 98.047 36.2479 96.9929C36.0761 96.97 35.9157 97.096 35.8928 97.2679C35.8699 97.4397 35.9959 97.6001 36.1563 97.623C44.5198 98.8375 52.8833 99.9832 61.2583 101.072L86.3831 104.383C86.5206 104.406 86.6467 104.302 86.6581 104.176C86.6696 104.027 86.5779 103.913 86.4519 103.89Z" fill="#353535"/>
<path opacity="0.25" d="M32.4556 96.7867L37.5425 112.666C38.0007 114.087 39.2266 115.118 40.6931 115.312L77.1832 120.273C78.6497 120.468 80.1162 119.804 80.9296 118.566L80.964 118.52C57.7867 114.831 46.5934 108.897 44.1875 100.51C43.2251 97.1648 44.5655 92.1352 45.8716 90.0844C47.1204 88.1368 47.5099 86.7734 47.3725 85.8454L44.4395 85.4444C43.1334 85.2611 41.8273 85.7652 40.9681 86.7619L32.4556 96.7867Z" fill="#717171"/>
<path d="M86.532 103.901L61.4414 100.384C53.0779 99.2041 44.703 98.0584 36.328 97.0044C36.1562 96.9815 35.9958 97.1075 35.9729 97.2793C35.9499 97.4512 36.076 97.6116 36.2364 97.6345C44.5999 98.8489 52.9634 99.9946 61.3383 101.083L86.4632 104.394C86.6007 104.417 86.7267 104.314 86.7382 104.188C86.7611 104.039 86.6694 103.924 86.532 103.901Z" fill="#353535"/>
<path d="M78.9134 94.1517L67.8805 92.5592L56.8361 91.0584C56.6299 91.0355 56.4465 91.1729 56.4122 91.3792C56.3893 91.5854 56.5267 91.7687 56.733 91.8031L67.7774 93.3154L78.8332 94.7246C78.9936 94.7475 79.1426 94.6329 79.154 94.4725C79.177 94.3236 79.0738 94.1746 78.9134 94.1517Z" fill="#EDEDED"/>
<path d="M41.7814 81.5949C44.5425 81.8126 48.2889 84.0581 48.8502 86.6245C49.2169 88.2972 48.3118 89.1679 46.1579 88.8815C45.5851 88.8013 46.0548 89.3283 46.2152 89.5689C46.8224 90.5083 47.3494 91.5853 46.6047 92.6164C46.1808 93.2007 45.4705 93.4986 44.7602 93.4986C44.2446 93.4986 43.4541 92.983 42.9843 93.2923C42.95 93.3153 43.5457 94.5182 43.603 94.6443C43.7978 95.114 44.004 95.6525 43.9811 96.168C43.9353 97.2679 42.9729 98.024 41.9303 98.0699C40.7961 98.1271 40.418 97.7376 39.8452 97.6918C39.8452 98.15 40.0628 98.425 40.1659 98.9864C40.7273 101.885 37.6225 101.725 35.9155 100.854C33.4293 99.5936 30.6568 96.9242 30.4047 94.0141C30.2214 91.8717 31.0005 89.7293 32.0774 87.9191C33.8761 84.8601 37.7829 80.7815 41.7814 81.5949Z" fill="#F0D0BB"/>
<path d="M45.986 88.8013C45.2757 88.2628 44.531 87.7701 43.8092 87.2546C43.076 86.7505 42.3427 86.2464 41.5408 85.8454C41.3804 85.7652 41.197 85.8339 41.1168 85.9829C41.0481 86.1204 41.0825 86.2808 41.1971 86.3724C41.8959 86.9338 42.6521 87.4035 43.4197 87.8618C44.1873 88.3201 44.9434 88.7898 45.7225 89.2137C45.8371 89.2825 45.9975 89.2366 46.0548 89.1106C46.112 89.0075 46.0891 88.8815 45.986 88.8013Z" fill="#353535"/>
<path d="M43.2826 93.0287C42.5723 92.4903 41.8276 91.9976 41.1058 91.4821C40.3726 90.978 39.6394 90.4739 38.8374 90.0729C38.677 89.9927 38.4937 90.0614 38.4135 90.2104C38.3447 90.3478 38.3791 90.5082 38.4937 90.5999C39.1925 91.1613 39.9487 91.631 40.7163 92.0893C41.4839 92.5475 42.2401 93.0173 43.0191 93.4412C43.1337 93.5099 43.2941 93.4641 43.3514 93.3381C43.4087 93.235 43.3743 93.1089 43.2826 93.0287Z" fill="#353535"/>
<path d="M39.8227 97.4168C39.1124 96.8783 38.3677 96.3857 37.6459 95.8701C36.9126 95.366 36.1794 94.8619 35.3774 94.4609C35.217 94.3807 35.0337 94.4495 34.9535 94.5984C34.8848 94.7359 34.9191 94.8963 35.0337 94.988C35.7326 95.5494 36.4887 96.0191 37.2563 96.4774C38.024 96.9356 38.7801 97.4054 39.5592 97.8293C39.6737 97.898 39.8341 97.8522 39.8914 97.7262C39.9487 97.623 39.9143 97.4856 39.8227 97.4168Z" fill="#353535"/>
<path d="M3.33273 195.556L53.2617 214.701C54.9917 215.365 56.8591 214.884 58.0506 213.647C58.3371 213.349 58.5891 213.016 58.7839 212.627C58.9099 212.375 59.0245 212.123 59.1047 211.836L71.2031 171.669C71.8791 169.435 70.7219 167.075 68.5451 166.238L24.3789 149.305C23.978 149.156 23.5655 149.064 23.1645 149.03C21.3543 148.881 19.5785 149.843 18.7651 151.562L0.903879 189.518C-0.184522 191.856 0.926787 194.628 3.33273 195.556Z" fill="#417F56"/>
<path opacity="0.25" d="M3.33253 195.556L53.2615 214.701C54.9915 215.365 56.8589 214.884 58.0505 213.647C58.3369 213.349 58.5889 213.016 58.7837 212.627C29.6947 196.141 15.832 176.561 25.3068 149.649L24.3902 149.293C23.9892 149.145 23.5768 149.053 23.1758 149.018C21.3656 148.87 19.5898 149.832 18.7763 151.55L0.915129 189.507C-0.184729 191.856 0.926587 194.628 3.33253 195.556Z" fill="#7CBC91"/>
<path d="M43.4881 164.543L39.5813 168.151C39.4897 168.243 39.3522 168.277 39.2376 168.243L34.0476 167.075C33.7383 167.006 33.4748 167.327 33.6123 167.613L35.8349 172.448C35.8922 172.562 35.8808 172.7 35.812 172.814L33.0967 177.386C32.9363 177.661 33.154 178.004 33.4748 177.97L38.7564 177.34C38.8824 177.328 39.0085 177.374 39.0887 177.466L42.5945 181.464C42.8121 181.705 43.2017 181.602 43.2704 181.281L44.313 176.068C44.3359 175.942 44.4276 175.839 44.5421 175.782L49.4227 173.674C49.7206 173.548 49.7435 173.135 49.4571 172.975L44.8171 170.374C44.7025 170.317 44.6338 170.202 44.6223 170.076L44.1297 164.783C44.1068 164.474 43.7287 164.325 43.4881 164.543Z" fill="white"/>
<path d="M50.9241 184.615L47.0173 188.224C46.9257 188.316 46.7882 188.35 46.6736 188.316L41.4837 187.147C41.1743 187.078 40.9108 187.399 41.0483 187.685L43.2709 192.52C43.3282 192.635 43.3168 192.772 43.248 192.887L40.5328 197.458C40.3724 197.733 40.59 198.077 40.9108 198.042L46.1924 197.412C46.3185 197.401 46.4445 197.447 46.5247 197.538L50.0305 201.537C50.2482 201.777 50.6377 201.674 50.7065 201.353L51.749 196.141C51.7719 196.015 51.8636 195.911 51.9782 195.854L56.8588 193.746C57.1567 193.62 57.1796 193.208 56.8931 193.047L52.2531 190.446C52.1385 190.389 52.0698 190.275 52.0584 190.149L51.5657 184.856C51.5428 184.535 51.1533 184.397 50.9241 184.615Z" fill="white"/>
<path d="M24.5502 174.499L20.6434 178.107C20.5518 178.199 20.4143 178.233 20.2997 178.199L15.1098 177.031C14.8004 176.962 14.5369 177.283 14.6744 177.569L16.897 182.404C16.9543 182.518 16.9429 182.656 16.8741 182.77L14.1588 187.342C13.9984 187.617 14.2161 187.96 14.5369 187.926L19.8185 187.296C19.9445 187.284 20.0706 187.33 20.1508 187.422L23.6566 191.42C23.8743 191.661 24.2638 191.558 24.3325 191.237L25.3751 186.024C25.398 185.898 25.4897 185.795 25.6042 185.738L30.4849 183.63C30.7827 183.504 30.8056 183.091 30.5192 182.931L25.8792 180.33C25.7646 180.273 25.6959 180.158 25.6844 180.032L25.1918 174.739C25.1689 174.43 24.7908 174.281 24.5502 174.499Z" fill="white"/>
<path d="M66.5858 164.966C68.8428 159.02 69.6219 152.41 68.1898 146.143C67.468 143.027 66.1848 140.002 64.2372 137.424C62.301 134.846 59.6773 132.75 56.6413 131.57C53.6052 130.401 50.2484 130.195 47.0748 130.814C43.9013 131.421 40.911 132.796 38.2874 134.64C33.0172 138.341 29.1563 143.783 26.8305 149.717C26.7503 149.935 26.8535 150.176 27.0711 150.256C27.2888 150.336 27.5294 150.233 27.6096 150.015C29.8781 144.207 33.6588 138.914 38.7686 135.328C41.312 133.552 44.1991 132.234 47.2352 131.65C50.2713 131.066 53.4448 131.272 56.3319 132.36C59.2191 133.472 61.7281 135.442 63.5956 137.905C65.4745 140.369 66.7462 143.279 67.4566 146.303C68.8772 152.387 68.1554 158.871 65.9672 164.726C65.8984 164.886 65.9901 165.081 66.1505 165.138C66.3338 165.219 66.5286 165.138 66.5858 164.966Z" fill="#353535"/>
<path d="M67.6282 131.249C67.8345 133.151 69.0031 135.305 69.8051 137.172C70.607 139.051 69.3353 139.303 68.4646 139.12C63.8017 138.169 55.5184 129.748 54.1321 133.082C53.5249 134.537 55.9308 136.817 55.3007 137.184C53.88 138.02 53.6623 140.117 54.7393 141.308C55.4038 142.041 55.9537 142.374 55.8048 143.405C55.7246 143.932 55.6444 144.447 55.61 144.986C55.4153 148.205 60.3073 150.794 62.6216 152.032C66.7575 154.254 72.5891 154.495 77.0802 153.384C86.28 151.115 81.3765 142.167 76.6219 136.141C72.1308 130.493 67.1356 126.804 67.6282 131.249Z" fill="#F0D0BB"/>
<path d="M55.8621 142.912C56.4464 143.714 57.2255 144.287 57.9931 144.825C58.3826 145.089 58.8065 145.318 59.2304 145.536C59.6772 145.742 60.0668 145.96 60.6625 146.028C60.8687 146.051 61.052 145.914 61.075 145.707C61.0979 145.513 60.9718 145.329 60.7771 145.295L60.7198 145.284C60.4105 145.226 59.9522 145.02 59.5741 144.837C59.1731 144.642 58.7836 144.413 58.4055 144.184C57.6379 143.725 56.9047 143.187 56.3204 142.557L56.3089 142.545C56.2058 142.431 56.0225 142.419 55.8965 142.522C55.7934 142.626 55.7704 142.797 55.8621 142.912Z" fill="#353535"/>
<path d="M55.6215 137.447C56.3318 138.215 57.0994 138.948 57.9357 139.612C58.7836 140.254 59.7116 140.85 60.7885 141.159C60.9833 141.216 61.1895 141.102 61.2468 140.907C61.3041 140.712 61.1895 140.518 61.0062 140.449C59.1387 139.807 57.5691 138.409 56.0339 137.035C55.9193 136.932 55.736 136.943 55.6215 137.058C55.5069 137.172 55.5183 137.344 55.6215 137.447Z" fill="#353535"/>
<path d="M78.3405 153.406C79.4519 152.753 80.4715 151.871 81.1818 150.726C81.8693 149.568 82.1442 148.182 82.0182 146.865C81.9953 146.658 81.812 146.509 81.6172 146.532C81.4224 146.555 81.2735 146.727 81.285 146.922C81.3422 148.113 81.136 149.316 80.5403 150.336C79.9674 151.379 79.0394 152.204 78.0427 152.914C77.9166 153.005 77.8823 153.189 77.9739 153.315C78.0427 153.452 78.2145 153.487 78.3405 153.406Z" fill="#353535"/>
<path d="M23.3362 39.9837C23.3362 55.0151 35.5263 67.2052 50.5577 67.2052C56.9965 67.2052 62.9082 64.9711 67.5711 61.2362C73.7922 56.2524 77.7792 48.5878 77.7792 39.9837C77.7792 24.9523 65.5891 12.7622 50.5577 12.7622C46.0322 12.7622 41.7588 13.8621 38.001 15.8212C29.2938 20.3581 23.3362 29.4778 23.3362 39.9837Z" fill="#21402B"/>
<path d="M46.7677 63.2085C33.9413 61.1135 25.2419 49.0173 27.337 36.191C29.432 23.3647 41.5282 14.6653 54.3545 16.7603C67.1808 18.8554 75.8802 30.9515 73.7852 43.7778C71.6901 56.6042 59.594 65.3036 46.7677 63.2085Z" fill="white"/>
<path d="M50.7989 23.2679C50.8906 22.2368 50.9249 21.2057 50.8791 20.1746C50.8676 19.9684 50.6958 19.808 50.4896 19.8194C50.2948 19.8309 50.1459 19.9798 50.1344 20.1746C50.0886 21.2057 50.1344 22.2368 50.2146 23.2679C50.2261 23.4283 50.3635 23.5429 50.5239 23.5315C50.6729 23.52 50.7875 23.4054 50.7989 23.2679Z" fill="#353535"/>
<path d="M42.447 25.3875C42.0002 24.448 41.519 23.5429 40.9691 22.6607C40.8545 22.4889 40.6254 22.4316 40.4535 22.5462C40.2931 22.6493 40.2358 22.867 40.3275 23.0388C40.8087 23.9554 41.3586 24.8261 41.9544 25.6739C42.046 25.8114 42.2293 25.8343 42.3554 25.7426C42.4699 25.6624 42.5043 25.5135 42.447 25.3875Z" fill="#353535"/>
<path d="M36.2716 31.391C35.4237 30.8067 34.5416 30.2567 33.625 29.7755C33.4417 29.6839 33.2126 29.7526 33.1209 29.9359C33.0293 30.1078 33.0865 30.3255 33.2469 30.4286C34.1177 30.9785 35.0342 31.4597 35.9737 31.9065C36.1226 31.9753 36.2945 31.9065 36.3632 31.769C36.432 31.6316 36.3861 31.4712 36.2716 31.391Z" fill="#353535"/>
<path d="M33.934 39.6857C32.9028 39.6055 31.8717 39.5712 30.8406 39.6055C30.6344 39.617 30.474 39.7888 30.4854 39.9951C30.4969 40.1898 30.6573 40.3388 30.8406 40.3502C31.8717 40.3846 32.9028 40.3502 33.934 40.2586C34.0943 40.2471 34.2089 40.0982 34.1975 39.9492C34.186 39.8117 34.0714 39.6972 33.934 39.6857Z" fill="#353535"/>
<path d="M36.0652 48.0378C35.1257 48.4846 34.2206 48.9658 33.3499 49.5272C33.1781 49.6417 33.1208 49.8709 33.2354 50.0427C33.3385 50.2031 33.5562 50.2604 33.728 50.1687C34.6446 49.6876 35.5153 49.1376 36.3631 48.5419C36.5006 48.4502 36.5235 48.2669 36.4318 48.1409C36.3516 48.0149 36.1912 47.9805 36.0652 48.0378Z" fill="#353535"/>
<path d="M42.0914 54.2015C41.5071 55.0493 40.9572 55.9314 40.476 56.848C40.3843 57.0313 40.4531 57.2604 40.6364 57.3521C40.8082 57.4438 41.0259 57.3865 41.129 57.2146C41.6789 56.3439 42.1601 55.4273 42.5955 54.4879C42.6642 54.3389 42.5955 54.1671 42.458 54.0984C42.3205 54.0411 42.1716 54.0869 42.0914 54.2015Z" fill="#353535"/>
<path d="M50.3867 56.5158C50.3065 57.5469 50.2721 58.578 50.3179 59.6091C50.3294 59.8153 50.5012 59.9757 50.7075 59.9643C50.9022 59.9528 51.0512 59.7924 51.0626 59.6091C51.097 58.578 51.0626 57.5469 50.971 56.5158C50.9595 56.3554 50.8106 56.2408 50.6502 56.2522C50.5127 56.2637 50.3981 56.3783 50.3867 56.5158Z" fill="#353535"/>
<path d="M58.7378 54.3735C59.1846 55.313 59.6772 56.2181 60.2272 57.0888C60.3417 57.2606 60.5709 57.3179 60.7427 57.2034C60.9031 57.1002 60.9604 56.8826 60.8688 56.7107C60.3876 55.7942 59.8262 54.9234 59.2419 54.0756C59.1502 53.9496 58.9669 53.9152 58.8409 54.0069C58.7149 54.0871 58.6805 54.2475 58.7378 54.3735Z" fill="#353535"/>
<path d="M64.891 48.3358C65.7502 48.9201 66.621 49.47 67.5375 49.9397C67.7208 50.0314 67.9499 49.9626 68.0416 49.7793C68.1333 49.6075 68.076 49.3898 67.9041 49.2867C67.0219 48.7367 66.1168 48.2556 65.1774 47.8202C65.0284 47.7515 64.8566 47.8202 64.7879 47.9577C64.7306 48.1066 64.7764 48.2556 64.891 48.3358Z" fill="#353535"/>
<path d="M67.1822 40.0293C68.2134 40.1095 69.2445 40.1439 70.2756 40.0866C70.4818 40.0752 70.6422 39.9033 70.6308 39.6971C70.6193 39.5023 70.4589 39.3534 70.2756 39.3419C69.2445 39.3076 68.2134 39.3534 67.1822 39.445C67.0218 39.4565 66.9074 39.6054 66.9188 39.7658C66.9303 39.9033 67.0448 40.0179 67.1822 40.0293Z" fill="#353535"/>
<path d="M65.0168 31.6888C65.9563 31.242 66.8614 30.7494 67.7321 30.188C67.9039 30.0734 67.9612 29.8443 67.8466 29.6724C67.7435 29.512 67.5259 29.4548 67.354 29.5464C66.4375 30.0391 65.5667 30.589 64.7189 31.1847C64.5929 31.2764 64.5585 31.4597 64.6502 31.5857C64.7418 31.7118 64.8908 31.7461 65.0168 31.6888Z" fill="#353535"/>
<path d="M58.9673 25.5479C59.5516 24.6886 60.0901 23.8179 60.5713 22.8899C60.663 22.7066 60.5942 22.4774 60.4109 22.3858C60.239 22.2941 60.0214 22.3629 59.9182 22.5233C59.3683 23.4054 58.8986 24.322 58.4632 25.2614C58.3945 25.4104 58.4632 25.5822 58.6007 25.651C58.7382 25.7083 58.8871 25.6624 58.9673 25.5479Z" fill="#353535"/>
<path d="M48.7021 39.9837C48.7021 41.0148 49.5384 41.8512 50.5695 41.8512C51.6007 41.8512 52.437 41.0148 52.437 39.9837C52.437 38.9526 51.6007 38.1162 50.5695 38.1162C49.527 38.1162 48.7021 38.9526 48.7021 39.9837Z" fill="#353535"/>
<path d="M38.7229 32.9835L50.3516 40.3158L50.237 40.2013L55.1405 47.7628C55.2551 47.9347 55.4842 47.9805 55.6561 47.8774C55.8279 47.7628 55.8738 47.5337 55.7707 47.3618L50.89 39.7774L50.8442 39.7086L50.7755 39.6628L39.0436 32.5023C38.9062 32.4221 38.7229 32.4564 38.6427 32.5939C38.551 32.72 38.5968 32.8918 38.7229 32.9835Z" fill="#353535"/>
<path opacity="0.25" d="M23.3359 39.9836C23.3359 55.015 35.526 67.2051 50.5574 67.2051C56.9961 67.2051 62.9079 64.971 67.5708 61.2361C65.7148 61.0069 63.9619 60.732 62.3006 60.3883C40.9451 56.0461 35.8582 42.6301 35.6291 31.368C35.5489 27.5185 36.0415 23.9096 36.6373 21.011C37.0956 18.8113 37.6111 17.0241 38.0006 15.8325C29.2934 20.358 23.3359 29.4777 23.3359 39.9836Z" fill="#717171"/>
</g>
<defs>
<clipPath id="clip0_2399_744883">
<rect width="227" height="215" fill="white"/>
</clipPath>
</defs>
</svg>
