<svg width="192" height="224" viewBox="0 0 192 224" fill="none" xmlns="http://www.w3.org/2000/svg">
<path d="M34.9232 185.539C39.6395 185.482 43.6249 183.769 46.7424 180.195C55.1358 170.58 51.2189 158.567 47.1878 162.004C45.9545 163.054 44.9267 164.311 44.0931 165.704C40.8956 171.082 40.4274 175.753 39.8564 179.156C39.7422 179.818 39.6623 179.864 39.0114 179.578C36.0994 178.334 33.1303 177.192 30.0585 176.415C27.3178 175.719 23.4352 174.679 20.6488 175.525C18.696 176.118 18.2964 178.379 21.8478 180.903C24.8283 183.016 28.1172 184.455 31.7143 185.128C32.7649 185.322 33.8155 185.574 34.9232 185.539Z" fill="#CAE4D3"/>
<path d="M29.0999 133.82C27.524 134.768 26.4163 136.139 25.5256 137.703C23.5272 141.243 23.1503 144.737 22.705 147.421C22.5794 148.198 22.5565 148.198 21.9627 147.786C17.235 144.52 11.9935 141.963 6.30656 140.718C3.99981 140.215 1.91005 142.202 4.61648 145.297C8.94448 150.242 24.9661 160.165 31.0983 148.312C34.7412 141.3 33.7819 131.011 29.0999 133.82Z" fill="#CAE4D3"/>
<path d="M35.9853 167.439C40.2905 163.477 41.3183 153.953 39.7652 151.566C38.0751 148.974 35.3344 152.286 34.398 153.816C32.5367 156.854 31.2691 160.074 30.7666 163.614C30.5154 165.384 29.4419 162.095 17.1888 159.731C16.0925 159.514 13.2605 159.332 12.2213 159.663C10.5769 160.2 9.98311 161.581 10.7824 163.1C13.466 168.205 29.3278 173.56 35.9853 167.439Z" fill="#CAE4D3"/>
<path d="M26.1985 125.804C26.3127 124.388 26.0615 121.876 24.7368 120.996C22.3615 119.409 19.952 124.194 19.3011 125.804C16.4805 132.747 17.2228 132.667 16.5947 134.072C16.5147 134.254 16.3206 134.243 16.195 134.129C15.978 133.935 7.35633 124.845 1.65799 124.81C-4.32585 124.765 7.12793 139.085 16.2749 139.964C22.4872 140.558 25.6618 132.153 26.1985 125.804Z" fill="#CAE4D3"/>
<path d="M17.7485 114.716C18.1824 105.922 13.2834 104.609 11.1823 115.058C10.223 119.809 11.3079 115.606 5.4839 111.027C4.36479 110.148 1.6812 108.949 1.61268 111.324C1.52133 114.362 3.26853 117.662 5.11849 119.968C9.49217 125.393 14.1742 127.049 16.675 120.642C17.4516 118.667 17.8969 116.634 17.7485 114.716Z" fill="#CAE4D3"/>
<path d="M15.5904 110.399C15.6475 111.975 15.5676 113.574 15.3049 115.127C15.0537 116.68 14.6083 118.198 13.8546 119.557V119.569C13.7519 119.752 13.8204 119.969 14.0031 120.071C14.1744 120.163 14.4028 120.106 14.4941 119.934C15.362 118.484 15.796 116.862 16.0472 115.241C16.2642 113.608 16.3327 111.986 16.1614 110.342C16.15 110.182 16.0015 110.068 15.8417 110.079C15.6932 110.091 15.579 110.228 15.579 110.376L15.5904 110.399Z" fill="#417F56"/>
<path d="M3.98894 113.003C4.50282 114.533 5.25652 115.926 6.13582 117.262C7.01512 118.587 8.07713 119.809 9.29902 120.848C9.45889 120.985 9.68729 120.962 9.82432 120.802C9.94994 120.654 9.93852 120.425 9.79007 120.288L9.77865 120.277C8.64812 119.249 7.62035 118.107 6.75247 116.828C5.86174 115.583 5.11948 114.202 4.52566 112.808L4.51425 112.797C4.45715 112.649 4.28586 112.58 4.1374 112.637C4.00037 112.706 3.93185 112.854 3.98894 113.003Z" fill="#417F56"/>
<path d="M3.70285 129.047C4.42228 129.755 5.19881 130.486 5.98675 131.16C6.7747 131.845 7.58549 132.496 8.43053 133.124C9.27558 133.752 10.1549 134.311 11.0913 134.825C12.0163 135.328 12.9984 135.773 14.0946 135.967C14.3002 136.002 14.4943 135.864 14.5286 135.67C14.5628 135.476 14.4372 135.282 14.2431 135.248H14.2317C13.2838 135.054 12.3589 134.631 11.4681 134.152C10.5774 133.672 9.72093 133.112 8.88731 132.519C8.05368 131.925 7.23147 131.308 6.44353 130.646C5.64416 129.983 4.89049 129.321 4.10254 128.613C3.98834 128.51 3.80563 128.51 3.69143 128.636C3.58866 128.75 3.58865 128.921 3.70285 129.036V129.047Z" fill="#417F56"/>
<path d="M8.48732 144.635C10.0062 146.096 11.6962 147.33 13.5348 148.357C15.3733 149.34 17.4403 150.116 19.6214 150.07C19.827 150.07 19.9868 149.899 19.9868 149.694C19.9868 149.488 19.8155 149.328 19.6214 149.328H19.61C18.6279 149.317 17.6458 149.145 16.6866 148.871C15.7273 148.574 14.8024 148.152 13.9116 147.695C12.1188 146.759 10.4401 145.548 8.90984 144.224L8.89842 144.212C8.77281 144.109 8.59009 144.121 8.48732 144.246C8.3617 144.361 8.37312 144.532 8.48732 144.635Z" fill="#417F56"/>
<path d="M13.9003 162.221C15.008 162.952 16.0472 163.386 17.1663 163.899C18.2626 164.379 19.3703 164.847 20.5008 165.258C21.6313 165.669 22.7847 166.023 23.9609 166.32C25.1371 166.594 26.3476 166.846 27.6494 166.697C27.855 166.674 28.0034 166.492 27.9806 166.286C27.9578 166.081 27.7751 165.944 27.5809 165.955H27.5581C26.4732 166.046 25.297 165.818 24.1551 165.567C23.0131 165.281 21.8826 164.916 20.7635 164.539C19.6443 164.151 18.5366 163.728 17.4404 163.271C16.3784 162.815 15.2021 162.324 14.2886 161.787L14.2086 161.741C14.0716 161.661 13.9003 161.707 13.8204 161.844C13.7404 161.97 13.7861 162.141 13.9003 162.221Z" fill="#417F56"/>
<path d="M22.8644 178.494C23.8922 178.95 25.057 179.521 26.1875 179.967C27.3295 180.423 28.4943 180.846 29.6819 181.189C32.0572 181.862 34.558 182.285 37.0703 181.988C37.2759 181.965 37.4243 181.782 37.4015 181.577C37.3787 181.371 37.1959 181.234 37.0018 181.246H36.9904C34.6265 181.463 32.217 181.097 29.8874 180.446C28.7226 180.138 27.5693 179.75 26.4388 179.316C25.2854 178.882 24.2462 178.391 23.0129 177.923C22.8644 177.866 22.7046 177.945 22.6475 178.082C22.5904 178.231 22.6589 178.379 22.7959 178.448L22.8644 178.494Z" fill="#417F56"/>
<path d="M48.3874 165.395C48.022 167.736 47.5081 170.077 46.7887 172.327C46.0807 174.577 45.1557 176.792 43.7625 178.631L43.7511 178.642C43.6255 178.802 43.6598 179.042 43.8196 179.167C43.9795 179.293 44.2079 179.259 44.3335 179.099C45.8866 177.157 46.7887 174.851 47.5081 172.544C48.1819 170.226 48.6843 167.862 48.9584 165.452C48.9813 165.293 48.8671 165.156 48.7072 165.133C48.5587 165.121 48.4217 165.235 48.3874 165.395Z" fill="#417F56"/>
<path d="M37.767 152.594C37.5386 154.695 37.1846 156.808 36.5793 158.841C35.9855 160.862 35.1519 162.849 33.8044 164.39L33.793 164.402C33.656 164.55 33.6674 164.79 33.8273 164.927C33.9757 165.064 34.2041 165.053 34.3411 164.904C35.8828 163.237 36.705 161.136 37.3102 159.058C37.8812 156.956 38.2352 154.821 38.3494 152.64C38.3608 152.48 38.2352 152.343 38.0753 152.331C37.9154 152.32 37.7898 152.434 37.767 152.594Z" fill="#417F56"/>
<path d="M30.1393 136.333C30.1735 137.383 30.0936 138.445 29.9451 139.496C29.7967 140.546 29.5454 141.574 29.2143 142.579C28.8945 143.584 28.4377 144.543 27.9124 145.445C27.3871 146.359 26.702 147.147 25.994 147.912L25.9711 147.935C25.8341 148.083 25.8341 148.323 25.994 148.46C26.1424 148.597 26.3708 148.597 26.5079 148.449C27.2958 147.661 28.0266 146.816 28.5748 145.845C29.1343 144.886 29.614 143.881 29.9337 142.819C30.5732 140.706 30.8701 138.502 30.7102 136.298C30.6988 136.139 30.5618 136.024 30.4019 136.036C30.242 136.047 30.1278 136.184 30.1393 136.333Z" fill="#417F56"/>
<path d="M23.0359 123.668C22.9103 124.548 22.6477 125.621 22.3965 126.569C22.1338 127.551 21.8369 128.522 21.5057 129.481C21.1746 130.44 20.8091 131.377 20.3638 132.279C19.9184 133.169 19.416 134.049 18.7651 134.745C18.628 134.894 18.628 135.122 18.7765 135.271C18.9249 135.408 19.1533 135.408 19.3018 135.259C20.0783 134.483 20.6036 133.546 21.0604 132.61C21.5172 131.662 21.9054 130.703 22.2252 129.721C22.5449 128.739 22.8304 127.745 23.0702 126.74C23.31 125.713 23.5384 124.788 23.6184 123.623C23.6298 123.463 23.5156 123.326 23.3557 123.314C23.2073 123.303 23.0702 123.406 23.0588 123.554L23.0359 123.668Z" fill="#417F56"/>
<path d="M10.988 118.278C12.9865 125.359 15.2589 132.359 18.011 139.188C19.3814 142.602 20.8773 145.971 22.4761 149.282C24.0634 152.583 25.5479 155.951 27.238 159.229C30.5839 165.795 34.4437 172.076 38.4977 178.208C42.5744 184.329 46.8797 190.301 51.2876 196.182C51.4133 196.342 51.6416 196.377 51.8014 196.262C51.9613 196.148 51.9957 195.908 51.8699 195.737C43.0998 183.975 34.6265 171.927 27.9004 158.886C26.2103 155.632 24.7143 152.286 23.1042 148.974C21.494 145.685 19.998 142.339 18.6163 138.936C15.8413 132.153 13.546 125.176 11.5248 118.119C11.4791 117.97 11.3192 117.879 11.1707 117.924C11.0337 117.97 10.9424 118.119 10.988 118.278Z" fill="#417F56"/>
<g opacity="0.5">
<path d="M92.2843 222.15C120.034 227.255 181.265 223.681 187.752 187.024C190.972 168.821 177.44 159.526 169.88 145.388C164.684 135.682 167.996 128.796 172.107 119.535C180.923 99.6532 183.869 78.9724 166.271 63.3733C147.064 46.3582 113.171 32.7005 87.6365 43.903C68.9199 52.1137 55.068 68.7405 51.3681 87.2059C48.0564 103.798 56.9066 120.973 51.6992 137.315C46.2179 154.513 33.2796 169.883 40.8621 188.737C48.6959 208.196 71.9803 218.416 92.2843 222.15Z" fill="#E5F2E9"/>
</g>
<mask id="mask0_2399_745338" style="mask-type:luminance" maskUnits="userSpaceOnUse" x="8" y="0" width="184" height="224">
<path d="M92.2841 222.15C120.034 227.255 181.265 223.681 187.751 187.024C190.412 171.95 181.596 162.986 174.196 152.32C172.107 149.317 183.732 133.546 185.285 130.828C187.26 127.38 195.619 94.6171 189.841 84.5337C183.732 73.8793 186.472 57.2867 186.461 45.5588C186.45 34.322 185.422 18.0606 175.59 10.8206C164.159 2.39302 147.646 0.383185 133.794 0.0291801C89.2693 -1.14703 56.7808 33.4541 29.1912 64.2184C22.0997 72.1321 11.2283 82.5695 9.04711 93.498C5.73544 110.091 15.7732 122.641 36.9336 136.39C39.8228 138.274 49.3466 143.847 47.942 147.033C42.0267 160.531 34.7411 173.503 40.8734 188.748C48.6957 208.196 71.9802 218.416 92.2841 222.15Z" fill="white"/>
</mask>
<g mask="url(#mask0_2399_745338)">
<path d="M18.3203 100.019L26.0399 100.453L55.6508 102.108C57.0211 102.188 58.2773 102.862 59.0995 103.947L65.5743 112.512C66.3965 113.608 67.6641 114.282 69.023 114.35L84.4166 115.207L84.6792 115.218L92.8442 115.675C94.4429 115.766 95.8932 115.035 96.8068 113.848C96.8867 113.745 96.9552 113.642 97.0237 113.528C97.4006 112.934 97.6518 112.26 97.7317 111.518C97.7432 111.438 97.7432 111.358 97.7432 111.278L97.9944 106.87L98.4055 99.5045C98.5425 97.0036 96.6811 94.8453 94.2031 94.6169L94.1003 94.6055H94.0204L93.6664 94.5827L89.6239 94.3543L86.3122 94.1716C86.3008 94.1716 86.2894 94.1716 86.278 94.1716L26.5652 90.8485L18.8456 90.4146C16.2762 90.2661 14.0837 92.2303 13.9467 94.7997L13.9238 95.0966C13.9124 95.3592 13.9124 95.6219 13.9467 95.8731C14.1979 98.1113 16.0136 99.8928 18.3203 100.019Z" fill="#202538"/>
<path d="M74.6298 98.3741C74.5613 99.596 75.4976 100.635 76.7195 100.704C77.9414 100.772 78.9807 99.8358 79.0492 98.6139C79.1177 97.392 78.1812 96.3528 76.9593 96.2843C75.7489 96.2158 74.6984 97.1522 74.6298 98.3741Z" fill="white"/>
<path d="M74.1963 106.105C74.1277 107.327 75.0641 108.366 76.286 108.435C77.5079 108.503 78.5471 107.567 78.6156 106.345C78.6841 105.123 77.7477 104.084 76.5258 104.015C75.3154 103.958 74.2648 104.883 74.1963 106.105Z" fill="white"/>
<path opacity="0.25" d="M26.2454 96.5812L58.3228 98.3741C59.6818 98.4426 60.9493 99.1163 61.7715 100.213L68.2464 108.777C69.0686 109.874 70.3362 110.547 71.6951 110.616L82.8748 111.244L83.0804 111.255L95.5162 111.952C95.8132 111.963 96.0986 111.952 96.3841 111.918C96.4184 111.918 96.4412 111.906 96.4755 111.906C96.9094 111.838 97.332 111.712 97.7202 111.541C97.6403 112.272 97.389 112.957 97.0122 113.551C96.9437 113.654 96.8637 113.756 96.7952 113.87C95.8931 115.058 94.4314 115.778 92.8327 115.698L84.6677 115.241L84.405 115.229L69.0115 114.373C67.6412 114.304 66.385 113.631 65.5628 112.534L59.0879 103.97C58.2657 102.873 56.9982 102.2 55.6392 102.131L26.0284 100.475L18.3088 100.041C16.0135 99.9157 14.1864 98.1343 13.9465 95.9189L26.2454 96.5812Z" fill="#6E7289"/>
<path d="M75.0206 88.7568C71.4436 88.5577 68.764 84.4449 69.0354 79.5708C69.3068 74.6966 72.4265 70.9068 76.0034 71.1059C79.5803 71.3051 82.26 75.4179 81.9885 80.292C81.7171 85.1662 78.5975 88.956 75.0206 88.7568Z" fill="#202538"/>
<path d="M45.5559 85.8811L45.8071 130.977C45.8185 133.672 48.228 135.979 51.1971 136.139L93.4494 138.491C96.407 138.651 99.0564 136.641 99.3761 133.957L104.629 89.1699C105.017 85.8583 102.619 83.0034 99.2847 82.8207L51.574 80.1599C48.228 79.9658 45.5444 82.5466 45.5559 85.8811Z" fill="#3D4357"/>
<path d="M45.5559 85.8811L45.5901 91.9677L103.921 95.2109L104.629 89.1585C105.017 85.8469 102.619 82.992 99.2847 82.8093L51.574 80.1485C48.228 79.9658 45.5444 82.5466 45.5559 85.8811Z" fill="#202538"/>
<path opacity="0.25" d="M45.5555 85.8811L45.8068 130.977C45.8182 133.672 48.2277 135.979 51.1968 136.139L93.449 138.491C96.4067 138.651 99.056 136.641 99.3758 133.957L99.7184 131C73.2936 127.334 64.7518 108.172 61.9311 92.8699C61.0632 88.1879 60.7435 83.9169 60.6522 80.651L51.5736 80.1485C48.2277 79.9658 45.5441 82.5466 45.5555 85.8811Z" fill="#6E7289"/>
<path d="M76.5596 72.9886C75.9202 73.2626 75.3948 73.6281 74.9038 74.062C74.4128 74.4959 73.9673 74.9756 73.6019 75.5237C73.2479 76.0718 72.9282 76.6542 72.7113 77.2595C72.4714 77.8647 72.3343 78.5042 72.2315 79.1437C72.1973 79.3492 72.3344 79.532 72.54 79.5662C72.7341 79.6005 72.9168 79.4749 72.9625 79.2807V79.2579C73.0881 78.6755 73.2251 78.0817 73.4307 77.5335C73.6248 76.9626 73.9217 76.4487 74.2301 75.9462C74.5498 75.4438 74.9266 74.987 75.3606 74.5759C75.7831 74.1762 76.2856 73.7879 76.7766 73.5367L76.7995 73.5253C76.9365 73.4568 76.9936 73.2741 76.9251 73.137C76.8566 72.9886 76.6967 72.9315 76.5596 72.9886Z" fill="white"/>
<path d="M100.438 226.17C90.9138 249.546 83.1371 273.63 77.1875 298.239C71.2494 322.836 67.1383 347.971 65.4368 373.345C65.1057 378.301 64.8773 383.269 64.7745 388.247C64.7288 390.326 64.6946 392.404 64.6831 394.483C64.6603 398.891 64.7517 402.83 64.8887 406.199C64.8887 406.199 64.7631 409.031 66.5217 410.23C66.6587 410.321 66.7958 410.39 66.9442 410.47C67.3782 410.664 67.9034 410.767 68.52 410.744C68.52 410.744 86.1747 410.95 86.2432 410.95C88.3787 410.972 89.749 408.654 89.8975 406.827C90.2515 403.241 90.674 399.656 91.1308 396.07C91.3934 394.163 91.6561 392.256 91.9073 390.349C95.0477 369.086 99.4899 347.971 105.782 327.347C112.599 305.045 123.014 284.033 133.931 263.66C136.306 259.23 139.492 253.634 142.53 247.593C145.568 241.541 148.468 235.043 150.215 228.682C151.951 222.322 152.533 216.087 150.878 210.445C150.044 207.625 148.651 204.953 146.55 202.463C144.448 199.985 141.651 197.678 138.054 195.543C137.174 194.961 136.249 194.527 135.347 194.173C134.434 193.841 133.531 193.579 132.652 193.373C130.893 192.974 129.192 192.859 127.548 192.985C124.27 193.236 121.255 194.47 118.538 196.342C113.102 200.088 108.945 206.403 106.204 212.569C104.217 217.08 102.299 221.602 100.438 226.17Z" fill="#202538"/>
<path d="M120.662 302.156C122.535 327.393 126.303 352.584 132.447 377.251C133.646 382.07 134.948 386.866 136.375 391.639C136.958 393.638 137.574 395.625 138.191 397.612C139.516 401.814 140.806 405.537 141.971 408.7C141.971 408.7 142.713 411.441 144.757 412.034C144.917 412.08 145.066 412.103 145.237 412.126C145.705 412.171 146.242 412.114 146.824 411.909C146.824 411.909 163.691 406.713 163.771 406.69C165.815 406.051 166.409 403.436 165.986 401.654C165.221 398.125 164.525 394.585 163.874 391.034C163.542 389.138 163.2 387.243 162.869 385.347C159.352 364.141 157.125 342.684 156.805 321.124C156.211 245.88 183.195 231.754 157.433 189.753C153.425 187.252 147.646 185.539 144.232 185.277C130.14 184.763 123.62 197.736 122.124 211.702C121.599 216.612 118.412 271.391 120.662 302.156Z" fill="#202538"/>
<path d="M103.007 222.858C114.415 231.492 133.897 219.273 146.904 218.987C155.011 218.805 163.211 222.482 171.318 220.654C177.908 219.159 176.297 215.881 174.402 210.959C169.16 197.37 167.87 178.528 169.834 163.865C172.118 146.861 183.994 139.176 183.4 119.694C182.864 102.154 157.764 95.7476 144.037 94.9596C131.693 94.2516 120.353 98.1571 112.542 108.412C102.059 122.172 101.751 142.945 103.349 159.08C105.04 176.164 105.416 191.375 101.614 208.344C100.175 214.751 98.8159 219.672 103.007 222.858Z" fill="#5B6482"/>
<path opacity="0.25" d="M103.006 222.858C114.414 231.492 133.896 219.273 146.903 218.987C155.011 218.805 163.21 222.482 171.318 220.654C177.907 219.159 176.297 215.881 174.401 210.959C171.01 202.166 169.285 191.249 169 180.709C168.863 181.246 168.748 181.68 168.691 181.954C167.275 188.246 165.288 195.052 161.109 200.145C155.639 206.791 146.469 205.524 138.841 205.318C135.677 205.227 131.304 204.587 128.3 205.821C120.307 209.121 118.434 215.493 109.139 212.261C108.545 212.056 104.833 210.057 101.624 208.333C101.419 209.246 101.225 210.171 101.031 211.085C100.06 215.813 99.2035 219.969 103.006 222.858Z" fill="#353535"/>
<path d="M126.12 122.96C124.795 125.381 123.527 127.825 122.26 130.269L120.41 133.969C119.805 135.214 119.199 136.435 118.708 137.783C118.64 137.977 118.731 138.183 118.925 138.263C119.119 138.331 119.325 138.24 119.393 138.046L119.405 138.023C119.885 136.801 120.513 135.545 121.095 134.311L122.922 130.611L126.611 123.223C126.679 123.075 126.622 122.903 126.485 122.835C126.359 122.778 126.188 122.835 126.12 122.96Z" fill="#353535"/>
<path d="M152.728 108.834C155.525 105.077 163.302 98.7053 159.203 94.2403C150.421 84.6936 155.937 81.2563 145.682 79.6005C143.375 79.235 141.046 79.3378 138.705 79.4406C132.07 79.7032 125.229 84.0769 127.924 89.5697C132.766 99.6874 124.579 103.673 124.259 111.655C123.848 121.944 142.245 122.983 152.728 108.834Z" fill="#F0D0BB"/>
<path d="M127.307 104.221C134.068 104.529 141.57 100.076 144.848 95.8959C148.536 91.1682 144.105 87.1828 141.799 88.4618C140.76 89.0442 133.234 90.9855 128.529 91.0426C129.865 95.108 129.077 100.304 127.307 104.221Z" fill="#D99982"/>
<path d="M131.248 57.1038C129.683 59.1022 123.791 60.0729 122.249 66.5592C120.765 72.8171 121.827 75.1467 121.827 80.2854C121.827 87.2856 109.06 84.7276 110.533 76.2886C111.035 73.3995 112.919 72.2461 111.081 69.5282C109.06 66.5249 108.226 61.3404 111.092 58.4741C114.393 55.1739 117.818 55.8819 117.739 53.2897C117.624 49.2015 117.065 44.3596 121.735 42.9093C125.938 41.6075 129.215 42.5325 132.23 45.4673C134.08 47.2373 134.799 52.5702 131.248 57.1038Z" fill="#202538"/>
<path d="M115.512 67.016C114.861 81.8386 120.97 95.6106 134.651 95.3136C146.87 95.051 159.066 83.7799 159.717 68.9574C160.368 54.1348 150.969 42.1215 138.785 41.1508C126.086 40.1345 116.128 52.9015 115.512 67.016Z" fill="#F0D0BB"/>
<mask id="mask1_2399_745338" style="mask-type:luminance" maskUnits="userSpaceOnUse" x="115" y="41" width="45" height="55">
<path d="M115.512 67.016C114.861 81.8386 120.97 95.6106 134.651 95.3136C146.87 95.051 159.066 83.7799 159.717 68.9574C160.368 54.1348 150.969 42.1215 138.785 41.1508C126.086 40.1345 116.128 52.9015 115.512 67.016Z" fill="white"/>
</mask>
<g mask="url(#mask1_2399_745338)">
<path d="M124.212 63.0192C124.121 60.6782 118.343 61.4547 118.685 63.8186C118.982 65.8056 124.292 64.9263 124.212 63.0192Z" fill="#202538"/>
<path d="M140.063 63.3732C140.52 61.0665 134.719 60.4841 134.502 62.8593C134.331 64.8692 139.698 65.246 140.063 63.3732Z" fill="#202538"/>
<path d="M120.113 70.0535C120.318 70.8072 120.832 71.2412 121.449 71.1955C122.808 71.0813 123.196 69.1514 122.534 68.1693C121.894 67.2215 120.456 67.5641 120.136 68.6033C119.999 69.0486 119.987 69.5853 120.113 70.0535Z" fill="#202538"/>
<path d="M135.69 69.1857C135.929 69.9279 136.455 70.3504 137.071 70.2705C138.419 70.0992 138.739 68.1579 138.031 67.1987C137.357 66.2737 135.929 66.6848 135.655 67.724C135.53 68.1922 135.541 68.7175 135.69 69.1857Z" fill="#202538"/>
<path d="M126.348 83.6999C126.851 84.2252 127.445 84.5906 128.073 84.8076C130.357 85.6412 133.12 84.6705 134.342 82.7863C134.376 82.7292 134.422 82.6721 134.445 82.6036C134.753 82.0669 134.97 81.4731 135.027 80.845C135.096 80.2169 135.027 79.2691 134.491 78.8923C133.954 78.5268 133.257 78.4697 132.755 78.8808C132.504 79.075 132.241 79.3034 131.99 79.5432C131.03 80.4567 129.866 80.9135 128.472 80.9364C128.027 80.9364 127.536 80.9478 127.091 81.0506C125.846 81.3475 125.435 82.7521 126.348 83.6999Z" fill="#202538"/>
<path d="M128.073 84.8191C130.357 85.6527 133.12 84.6821 134.342 82.7978C134.376 82.7407 134.422 82.6836 134.445 82.6151C134.319 82.4096 133.782 82.284 133.634 82.2383C133.257 82.1355 132.869 82.067 132.481 82.0556C130.848 81.9756 128.598 82.7978 128.073 84.8191Z" fill="#D46966"/>
<path opacity="0.75" d="M146.607 77.7046C146.652 76.1516 144.734 74.5186 142.199 74.5072C139.915 74.4957 137.951 75.672 137.848 77.7846C137.768 79.429 139.812 81.0962 141.936 81.1076C144.403 81.1191 146.629 79.9314 146.607 77.7046Z" fill="#D99982"/>
<path opacity="0.75" d="M114.712 77.522C114.552 75.9804 116.334 74.1989 118.858 73.9934C121.141 73.7992 123.186 74.827 123.448 76.9282C123.654 78.5612 121.747 80.3769 119.623 80.5596C117.167 80.7652 114.861 79.7488 114.712 77.522Z" fill="#D99982"/>
<path d="M128.804 65.8283C128.096 67.861 127.616 69.9165 127.125 71.9949C127 72.5087 126.908 73.0911 126.954 73.6735C127 74.2559 127.228 74.9183 127.719 75.3294C128.187 75.7519 128.758 75.9574 129.295 76.1059L130.072 76.3C130.357 76.3685 130.654 76.38 130.917 76.3914C131.088 76.4028 131.236 76.2658 131.248 76.0945C131.259 75.9346 131.134 75.7976 130.974 75.7633C130.711 75.7176 130.471 75.6834 130.254 75.6034L129.501 75.375C129.021 75.238 128.564 75.0553 128.244 74.7698C127.582 74.1988 127.662 73.1254 127.868 72.1433C128.062 71.1156 128.29 70.0764 128.519 69.0486C128.77 68.0209 128.987 66.9817 129.272 65.9768V65.9653C129.306 65.8397 129.238 65.7027 129.101 65.6684C128.975 65.6342 128.85 65.7141 128.804 65.8283Z" fill="#202538"/>
</g>
<path d="M152.145 72.7143C151.917 72.9998 151.643 73.3538 151.38 73.6507L150.604 74.5871L150.592 74.5985C150.467 74.7584 150.478 74.9868 150.638 75.1238C150.786 75.238 150.992 75.238 151.129 75.1124C151.472 74.7926 151.723 74.4615 151.985 74.1075C152.225 73.742 152.476 73.4109 152.671 72.9769C152.739 72.8285 152.671 72.6572 152.522 72.6001C152.397 72.543 152.259 72.5887 152.18 72.6915L152.145 72.7143Z" fill="#202538"/>
<path d="M44.3336 102.36C46.5833 100.749 50.8884 100.076 52.9554 101.697C54.3029 102.748 54.1658 103.993 52.3501 105.146C51.8591 105.454 52.5557 105.546 52.8412 105.637C53.9032 105.968 54.9995 106.459 55.0794 107.727C55.1251 108.446 54.7711 109.131 54.2343 109.588C53.8347 109.919 52.9097 110.022 52.7498 110.559C52.7384 110.604 53.9603 111.141 54.0859 111.198C54.5427 111.427 55.0337 111.712 55.3535 112.123C56.0158 112.991 55.7646 114.179 54.9995 114.887C54.1772 115.652 53.6405 115.595 53.1609 115.926C53.4578 116.28 53.789 116.349 54.2343 116.714C56.5183 118.575 54.0402 120.425 52.1674 120.859C49.461 121.487 45.6354 121.225 43.5799 119.146C42.0725 117.628 41.296 115.492 40.9649 113.414C40.371 109.908 40.7593 104.289 44.3336 102.36Z" fill="#F0D0BB"/>
<path d="M52.156 105.18C51.2653 105.214 50.386 105.317 49.5067 105.397C48.6274 105.477 47.7367 105.568 46.8688 105.763C46.6975 105.797 46.5947 105.968 46.629 106.139C46.6632 106.288 46.8003 106.391 46.9373 106.379C47.828 106.368 48.7073 106.231 49.5866 106.094C50.4659 105.957 51.3452 105.831 52.2131 105.66C52.3502 105.637 52.4301 105.5 52.4073 105.374C52.3844 105.26 52.2816 105.18 52.156 105.18Z" fill="#353535"/>
<path d="M52.784 110.148C51.8932 110.182 51.0139 110.285 50.1346 110.365C49.2553 110.445 48.3646 110.536 47.4967 110.73C47.3254 110.764 47.2227 110.936 47.2569 111.107C47.2912 111.255 47.4282 111.358 47.5652 111.347C48.456 111.335 49.3353 111.198 50.2146 111.061C51.0939 110.924 51.9732 110.799 52.8411 110.627C52.9781 110.604 53.058 110.467 53.0352 110.342C53.0124 110.228 52.9096 110.148 52.784 110.148Z" fill="#353535"/>
<path d="M52.9436 115.709C52.0529 115.743 51.1736 115.846 50.2943 115.926C49.415 116.006 48.5243 116.097 47.6564 116.291C47.4851 116.326 47.3823 116.497 47.4166 116.668C47.4508 116.817 47.5879 116.919 47.7249 116.908C48.6156 116.897 49.4949 116.76 50.3742 116.623C51.2535 116.486 52.1328 116.36 53.0007 116.189C53.1378 116.166 53.2177 116.029 53.1949 115.903C53.172 115.789 53.0693 115.709 52.9436 115.709Z" fill="#353535"/>
<path d="M139.675 153.268L139.389 153.69C139.252 153.884 139.127 154.09 138.99 154.284C138.567 154.889 138.156 155.472 137.745 156.043L137.14 156.854L136.991 157.048L136.911 157.139C136.9 157.15 136.911 157.15 136.9 157.15C136.9 157.173 136.9 157.173 136.9 157.185C136.9 157.253 136.889 157.345 136.854 157.447C136.797 157.676 136.58 157.824 136.295 157.847C136.226 157.858 136.146 157.847 136.066 157.847C136.032 157.847 135.964 157.813 135.907 157.801C135.884 157.79 135.884 157.801 135.849 157.779L135.667 157.642L135.29 157.379C134.285 156.648 133.223 155.769 132.161 154.798C130.025 152.845 127.856 150.561 125.743 148.152C122.477 144.406 119.394 140.409 116.333 136.31C113.273 132.199 110.213 127.939 106.981 123.52C105.907 122.058 104.788 120.539 103.658 118.998C103.03 118.153 102.402 117.296 101.762 116.428C101.762 116.417 101.762 116.417 101.751 116.417C101.751 116.406 101.739 116.406 101.728 116.394C99.9122 113.95 97.1829 112.432 94.4879 113.105C94.0996 113.208 93.7228 113.345 93.3459 113.539C93.2317 113.596 93.129 113.653 93.0148 113.722C92.9348 113.756 92.8663 113.802 92.7978 113.848C91.8271 114.441 91.1876 115.172 90.8222 115.994C90.8222 116.006 90.8108 116.006 90.8108 116.029C89.9087 118.027 90.5481 120.562 91.416 122.995C91.416 123.006 91.4275 123.006 91.4275 123.006C91.6102 123.509 91.7815 123.988 91.9642 124.479C91.987 124.525 91.9984 124.559 92.0099 124.605C92.7521 126.58 93.5172 128.556 94.3166 130.52C97.5597 138.525 101.237 146.428 105.69 154.17C107.929 158.041 110.361 161.878 113.182 165.658C114.598 167.554 116.128 169.426 117.841 171.288C118.697 172.224 119.611 173.149 120.582 174.063L121.347 174.748L121.723 175.091L121.918 175.262L122.192 175.49C122.945 176.095 123.676 176.701 124.498 177.249C129.146 180.64 134.753 182.764 140.36 182.171C145.967 181.44 150.809 177.728 154.84 173.241L155.56 172.43L156.108 171.802C156.462 171.391 156.827 170.968 157.147 170.557C160.698 166.206 163.519 161.924 166.191 157.619C168.84 153.314 171.284 149.008 173.591 144.692C177.12 138.091 180.934 131.251 181.939 123.851C182.453 120.048 181.333 116.086 179.095 113.242C179.084 113.22 179.072 113.208 179.061 113.197C178.033 111.895 176.777 110.833 175.35 110.125C175.338 110.125 175.338 110.125 175.338 110.125C174.847 109.874 174.333 109.68 173.785 109.52L173.739 109.508C172.997 109.291 172.221 109.154 171.41 109.131C170.359 109.086 169.263 109.223 168.121 109.531C162.982 110.97 159.945 115.823 157.684 120.323C154.806 126.078 151.894 131.799 148.902 137.383C145.933 142.967 142.85 148.472 139.675 153.268Z" fill="#F0D0BB"/>
<path d="M139.675 153.268C141.719 155.826 144.163 158.738 147.029 161.752C149.895 164.756 153.184 167.873 157.135 170.568C160.687 166.217 163.507 161.935 166.179 157.63C168.829 153.325 171.273 149.02 173.579 144.703C177.108 138.103 180.922 131.262 181.927 123.862C182.441 120.06 181.322 116.097 179.083 113.254C179.072 113.231 179.061 113.219 179.049 113.208C177.759 111.792 176.206 110.604 174.459 109.771C174.447 109.771 174.447 109.771 174.447 109.771C174.219 109.691 174.002 109.611 173.773 109.531L173.728 109.52C172.985 109.303 172.209 109.166 171.398 109.143C170.348 109.097 169.251 109.234 168.109 109.542C162.971 110.981 159.933 115.835 157.672 120.334C154.794 126.089 151.882 131.81 148.89 137.395C145.933 142.967 142.849 148.472 139.675 153.268Z" fill="#D17E64"/>
<path d="M84.9977 100.784C84.0271 99.8701 83.0107 100.213 82.8623 101.526C82.5654 104.027 84.7465 107.567 85.0092 108.538C84.9178 108.48 84.815 108.446 84.7579 108.366C84.3925 107.852 84.0271 107.338 83.6959 106.79C82.7367 105.237 81.7432 105.352 81.3321 106.379C80.5555 108.309 81.9487 112.923 84.7808 117.251C87.6128 121.59 91.8951 125.61 96.6228 126.443C98.9296 126.854 101.899 124.993 102.755 122.515C104.297 118.027 103.908 110.513 102.869 106.459C102.104 103.513 100.243 103.033 99.2265 104.495C98.2672 105.888 97.8333 108.161 97.6506 108.64C96.3944 111.986 93.3454 104.427 91.2556 99.9729C89.931 97.1637 87.7042 96.4557 87.0989 98.5455C86.4594 100.829 87.6471 104.027 87.0533 103.296C86.7221 102.885 85.5002 101.263 84.9977 100.784Z" fill="#F0D0BB"/>
<path d="M102.538 122.538C102.15 123.018 101.67 123.474 101.168 123.851C100.654 124.239 100.095 124.548 99.5121 124.788C98.9297 125.027 98.3131 125.21 97.685 125.279C97.0569 125.37 96.4174 125.336 95.7893 125.29H95.7665C95.561 125.279 95.3897 125.427 95.3668 125.633C95.3554 125.827 95.4924 125.998 95.6866 126.021C96.3832 126.101 97.0798 126.146 97.7763 126.044C98.4729 125.964 99.1581 125.77 99.7976 125.484C101.077 124.902 102.196 124.022 103.006 122.858C103.098 122.732 103.064 122.549 102.938 122.458C102.812 122.367 102.641 122.401 102.55 122.515L102.538 122.538Z" fill="#525768"/>
<path d="M89.9653 106.825C89.2002 105.637 88.4579 104.427 87.8298 103.193C87.7385 103.011 87.5101 102.931 87.3274 103.022C87.1561 103.113 87.0761 103.319 87.1446 103.49C87.4301 104.175 87.807 104.803 88.1838 105.42C88.5949 106.025 89.006 106.619 89.4857 107.167C89.5884 107.293 89.7711 107.304 89.8968 107.19C90.0224 107.11 90.0338 106.939 89.9653 106.825Z" fill="#525768"/>
<path d="M87.3046 111.472C86.5623 110.228 85.8086 108.96 85.1691 107.681V107.67C85.0778 107.487 84.8494 107.407 84.6667 107.498C84.4954 107.59 84.4154 107.795 84.4954 107.978C85.1006 109.371 85.9228 110.616 86.825 111.792C86.9277 111.918 87.099 111.941 87.2361 111.849C87.3503 111.769 87.3845 111.609 87.3046 111.472Z" fill="#525768"/>
<path d="M135.176 174.805C136.032 173.184 136.466 171.402 136.603 169.586C136.66 168.684 136.66 167.759 136.512 166.857C136.398 165.955 136.112 165.076 135.781 164.231C135.713 164.071 135.541 163.991 135.37 164.048C135.222 164.105 135.142 164.276 135.187 164.425V164.436C135.678 166.092 135.975 167.805 135.895 169.529C135.861 170.397 135.747 171.254 135.553 172.099C135.347 172.932 135.107 173.789 134.753 174.554L134.742 174.565C134.685 174.691 134.742 174.828 134.868 174.885C134.982 174.965 135.119 174.919 135.176 174.805Z" fill="#D17E64"/>
<path d="M169.366 106.905C164.033 108.263 159.168 113.562 156.153 118.027C151.951 124.262 148.171 130.634 144.779 137.372C136.5 153.827 124.35 168.285 125.892 178.025C126.839 184.032 137.106 186.442 142.37 185.037C147.383 183.689 151.003 178.311 154.36 174.634C161.92 166.332 167.973 156.831 173.968 147.375C178.204 140.706 182.258 132.838 183.446 124.822C184.691 116.486 180.157 104.152 169.366 106.905Z" fill="#3D4357"/>
<path d="M136.98 156.34C132.995 151.955 128.77 147.866 127.102 146.405C125.435 144.954 124.533 144.863 122.672 146.131C117.944 149.34 111.835 154.764 108.534 159.731C107.781 160.873 107.723 162.004 108.534 163.157C112.622 168.935 113.753 169.666 120.559 176.347C125.766 181.451 134.491 187.641 141.148 183.781C152.876 176.998 145.808 166.058 136.98 156.34Z" fill="#3D4357"/>
<path d="M127.17 150.676C124.315 152.32 121.598 154.17 119.04 156.248C116.516 158.361 114.129 160.725 112.462 163.637C112.359 163.819 112.428 164.036 112.599 164.139C112.782 164.242 112.999 164.173 113.101 164.002L113.113 163.991C114.7 161.216 117.053 158.909 119.519 156.819C121.997 154.73 124.669 152.834 127.456 151.167H127.467C127.604 151.087 127.65 150.904 127.57 150.767C127.49 150.641 127.307 150.607 127.17 150.676Z" fill="#525768"/>
<path d="M125.526 145.514C128.084 147.741 130.608 150.013 133.04 152.366C135.484 154.707 137.928 157.082 140.018 159.697C140.143 159.857 140.383 159.88 140.543 159.754C140.703 159.629 140.726 159.4 140.6 159.24C139.538 157.881 138.373 156.625 137.197 155.392C136.009 154.159 134.799 152.971 133.554 151.806C131.053 149.488 128.495 147.25 125.892 145.057C125.766 144.954 125.583 144.966 125.481 145.091C125.389 145.228 125.401 145.411 125.526 145.514Z" fill="#525768"/>
<path d="M154.349 120.231L145.065 136.264L135.861 152.343C135.758 152.526 135.815 152.743 135.998 152.845C136.181 152.948 136.398 152.891 136.501 152.708L145.716 136.641L154.852 120.517C154.932 120.38 154.886 120.197 154.738 120.117C154.6 120.048 154.429 120.094 154.349 120.231Z" fill="#525768"/>
<path d="M129.398 98.5796C129.546 96.5241 129.638 95.8732 126.76 96.3757C123.973 96.8667 121.313 97.392 119.349 99.1392C117.921 100.407 120.228 122.972 130.426 121.921C140.6 120.882 155.263 110.25 163.371 104.084C164.399 103.307 165.335 102.417 166.26 101.503C166.888 100.886 166.831 100.327 166.134 99.7787C163.93 98.0429 160.973 96.8096 158.278 96.1929C155.765 95.622 153.744 95.1995 151.552 96.9923C147.395 100.418 147.441 100.886 145.374 102.794C132.915 114.304 137.334 110.056 130.996 116.817C130.186 117.673 129.717 118.404 129.409 117.673C129.158 117.068 129.009 114.247 128.998 113.654C128.952 107.555 128.621 109.508 129.398 98.5796Z" fill="#3D4357"/>
<path d="M156.634 96.3643C155.424 93.5437 156.177 87.754 153.06 88.6105C147.921 90.0151 146.882 85.1389 148.926 81.4961C150.251 79.1209 156.954 76.6656 156.965 73.3882C156.977 71.3556 154.613 69.6198 152.763 69.5056C148.618 69.243 145.215 70.2022 143.353 64.1498C139.288 50.8804 136.684 56.8185 131.637 53.2899C125.151 48.7449 124.831 40.4772 130.837 35.03C132.094 33.8881 133.35 32.7347 134.937 32.0153C139.448 29.9826 142.234 31.6613 145.443 33.2714C149.234 35.1785 151.918 34.0251 154.236 33.6825C158.004 33.1344 152.866 39.8148 152.409 42.0302C149.074 58.1203 161.191 49.8298 164.696 58.7484C165.69 61.2835 163.497 65.4517 170.006 66.5365C175.168 67.4044 177.669 74.4046 174.266 79.3492C172.873 81.3705 170.703 83.0263 171.023 85.7784C171.274 87.9025 172.679 89.6953 172.964 91.8422C173.729 97.7461 168.647 102.211 163.315 101.48C160.448 101.069 157.799 99.0822 156.634 96.3643Z" fill="#202538"/>
<path d="M131.35 35.2354C130.277 37.0168 129.352 38.8782 128.564 40.8081C128.164 41.7788 127.833 42.7609 127.582 43.7886C127.33 44.805 127.136 45.867 127.228 46.9747C127.239 47.1802 127.422 47.3287 127.627 47.3173C127.833 47.3058 127.981 47.1231 127.97 46.929V46.9176C127.913 45.9583 128.096 44.9534 128.335 43.9828C128.575 43.0007 128.906 42.0414 129.272 41.0936C129.991 39.1866 130.893 37.3366 131.853 35.5323V35.5209C131.933 35.3839 131.875 35.2011 131.738 35.1326C131.601 35.0641 131.43 35.1098 131.35 35.2354Z" fill="#202538"/>
<path d="M161.418 60.3928C160.973 62.5397 161.555 64.835 162.834 66.5708C163.462 67.4615 164.262 68.2038 165.129 68.8433C166.009 69.4713 166.945 69.951 167.847 70.4763C168.738 71.0016 169.606 71.5611 170.303 72.2805C170.999 72.9886 171.479 73.8793 171.604 74.8499C171.753 75.8092 171.456 76.7684 170.942 77.6249C170.428 78.4928 169.754 79.2807 169.115 80.1258C168.475 80.9594 167.847 81.8615 167.425 82.8779C167.014 83.8942 166.82 85.0362 166.945 86.1324C167.094 88.3935 168.647 90.175 168.624 92.1049C168.601 94.0348 167.254 95.8961 165.461 96.6384C163.656 97.4149 161.441 97.0952 159.956 95.7934C159.808 95.6563 159.568 95.6677 159.431 95.8276C159.294 95.9761 159.306 96.2159 159.465 96.3529C161.144 97.8375 163.691 98.2257 165.746 97.335C167.802 96.4785 169.343 94.4116 169.378 92.1163C169.389 90.9629 168.944 89.9123 168.544 88.9531C168.133 87.9938 167.779 87.0574 167.699 86.0639C167.585 85.0818 167.733 84.0883 168.099 83.1634C168.475 82.2384 169.046 81.3933 169.663 80.5711C170.291 79.7375 170.976 78.9267 171.524 77.9903C172.084 77.0653 172.438 75.9005 172.255 74.77C172.095 73.6509 171.536 72.6117 170.759 71.8352C169.994 71.0472 169.069 70.4648 168.156 69.9395C167.242 69.4028 166.317 68.9346 165.484 68.3408C164.661 67.7584 163.908 67.0504 163.314 66.2282C162.103 64.6066 161.567 62.494 161.966 60.5184C162.001 60.3586 161.898 60.2101 161.738 60.1758C161.601 60.1416 161.452 60.2444 161.418 60.3928Z" fill="#3D4357"/>
<path d="M102.094 25.7344C102.025 28.3609 102.79 31.1016 104.583 33.6253C109.756 40.911 114.335 40.3629 115.671 42.9665C115.831 43.2748 115.945 43.6403 116.014 44.0628C116.025 44.1085 116.025 44.1541 116.025 44.2112C116.037 44.2912 116.048 44.3711 116.048 44.4625C116.06 44.6566 116.071 44.8622 116.06 45.0791C115.957 48.3223 116.048 51.554 116.117 54.7971C116.151 56.6357 122.923 57.4008 129.261 57.6863C132.504 57.8347 135.644 57.8462 137.677 57.8347C137.677 57.8347 159.134 57.3551 159.134 54.4546C159.123 51.0401 159.157 47.6257 159.02 44.2112C159.008 44.0399 159.008 43.8687 159.031 43.7088C159.031 43.6631 159.031 43.606 159.043 43.5603C159.077 43.252 159.134 42.9779 159.237 42.7267C159.408 42.2813 159.682 41.9159 160.048 41.5962C161.635 40.1573 164.89 39.4379 168.532 35.2355C168.966 34.733 169.4 34.1963 169.846 33.5911C174.802 26.7965 172.312 18.7 165.483 14.5433C164.924 14.2007 164.341 13.8924 163.736 13.6069C158.255 11.0489 158.152 13.5498 154.475 10.1239C145.796 2.02747 132.858 0.771331 123.322 7.6573C119.531 10.3866 115.808 12.4764 111.218 13.9495C105.748 15.6853 102.231 20.4929 102.094 25.7344Z" fill="#ADADAD"/>
<path opacity="0.25" d="M102.093 25.7344C102.024 28.3608 102.789 31.1015 104.582 33.6252C109.755 40.9109 114.335 40.3628 115.671 42.9664C116.413 42.8865 117.075 42.8522 117.669 42.8865C123.367 43.2747 132.195 35.7493 132.971 34.0021C132.971 34.0021 134.707 32.3577 134.65 31.0673C134.581 29.617 132.56 28.5436 129.854 29.3543C127.524 30.0509 125.583 30.6904 123.584 32.0493C120.775 33.9678 118.217 35.9891 114.78 36.149C111.468 36.2974 108.442 34.6644 106.238 32.4376C104.4 30.5876 102.812 28.2809 102.093 25.7344Z" fill="#717171"/>
<path opacity="0.25" d="M129.261 57.6862C132.504 57.8346 135.644 57.8461 137.677 57.8346C137.677 57.8346 159.134 57.355 159.134 54.4545C159.123 51.04 159.157 47.6256 159.02 44.2111C159.008 44.0399 159.008 43.8686 159.031 43.7087C159.031 43.663 159.031 43.6059 159.043 43.5602C159.077 43.2519 159.134 42.9778 159.237 42.7266C159.408 42.2812 159.682 41.9158 160.048 41.5961C161.635 40.1572 164.89 39.4378 168.532 35.2354C168.966 34.7329 169.4 34.1962 169.846 33.591C174.802 26.7964 172.312 18.6999 165.483 14.5432C164.33 19.9332 160.185 34.1391 148.765 34.5502C146.744 34.6302 142.507 34.516 141.148 36.4915C140.737 37.1082 140.669 37.6906 140.851 38.2387C141.125 39.0495 141.913 39.7575 142.816 40.3285C143.112 42.4754 143.558 51.9079 129.261 57.6862Z" fill="#717171"/>
<path d="M157.444 50.7318C150.855 51.6111 144.209 52.0222 137.574 51.9994C130.939 51.9879 124.293 51.554 117.715 50.6519C117.51 50.629 117.327 50.7661 117.293 50.9716C117.27 51.1772 117.407 51.3599 117.613 51.3941C124.224 52.3077 130.893 52.7759 137.574 52.7645C144.243 52.7302 150.923 52.2506 157.524 51.3142C157.684 51.2913 157.786 51.1429 157.775 50.983C157.741 50.8232 157.604 50.7204 157.444 50.7318Z" fill="#353535"/>
<path d="M158.449 41.4476C155.422 41.9843 152.316 42.1442 149.267 41.7788C146.241 41.4819 143.261 40.3057 141.216 38.0789C140.177 36.9826 139.424 35.6808 138.864 34.2647C138.236 32.7802 137.231 31.4213 135.906 30.4849C134.605 29.5142 133.006 28.9546 131.373 28.8861C129.74 28.8176 128.107 29.3201 126.748 30.188C126.577 30.3022 126.52 30.5305 126.634 30.7018C126.748 30.8731 126.976 30.9302 127.148 30.816C128.392 30.0281 129.865 29.5827 131.339 29.6398C132.812 29.7083 134.262 30.2108 135.45 31.1015C136.66 31.958 137.574 33.1913 138.145 34.5616C138.716 36.0233 139.526 37.4622 140.657 38.6156C142.872 40.9794 146.07 42.1785 149.187 42.4525C152.316 42.7951 155.468 42.601 158.54 42.03C158.7 41.9958 158.803 41.8473 158.768 41.6874C158.745 41.5276 158.597 41.4248 158.449 41.4476Z" fill="#353535"/>
<path d="M133.497 32.7346C132.561 34.1164 131.43 35.4182 130.22 36.583C128.998 37.7478 127.65 38.7984 126.223 39.6777C124.796 40.5798 123.254 41.2764 121.644 41.756C120.045 42.2928 118.355 42.4412 116.688 42.5097H116.653C116.448 42.5211 116.288 42.6924 116.299 42.898C116.311 43.1035 116.482 43.2634 116.688 43.252C118.435 43.1835 120.194 43.035 121.861 42.4755C123.528 41.9616 125.15 41.265 126.611 40.3058C128.084 39.3694 129.443 38.2731 130.677 37.0512C131.91 35.8179 133.029 34.5046 133.977 33.0201C134.068 32.8831 134.023 32.7118 133.886 32.6204C133.748 32.5405 133.577 32.5747 133.486 32.7004L133.497 32.7346Z" fill="#353535"/>
<path d="M112.645 17.3752C111.298 18.2317 110.144 19.3051 109.185 20.5613C108.237 21.8174 107.529 23.302 107.278 24.8893C107.175 25.2776 107.175 25.6772 107.164 26.0883C107.152 26.488 107.129 26.8877 107.209 27.2874C107.266 27.6871 107.312 28.0753 107.381 28.475L107.735 29.617C107.837 30.0052 107.997 30.3593 108.18 30.7133L108.694 31.7753C109.094 32.449 109.55 33.0885 109.973 33.7509C110.087 33.9221 110.315 33.9678 110.487 33.865C110.658 33.7509 110.704 33.5225 110.601 33.3512L110.578 33.3055C110.178 32.6774 109.744 32.0493 109.356 31.4099L108.877 30.3935C108.705 30.0623 108.545 29.7198 108.465 29.3543C107.917 27.9612 107.849 26.4424 108.032 25.0035C108.237 23.5532 108.854 22.16 109.722 20.9496C110.601 19.7505 111.709 18.6771 112.942 17.8663L112.965 17.8549C113.102 17.7635 113.136 17.5922 113.045 17.4552C112.953 17.3296 112.782 17.2953 112.645 17.3752Z" fill="#353535"/>
<path d="M146.332 10.5236C147.109 11.6542 148 12.6705 148.982 13.6069C149.964 14.5433 151.026 15.3998 152.179 16.1306C153.355 16.8386 154.623 17.3753 155.971 17.7179C157.318 18.0491 158.734 18.0491 160.104 17.8435C160.31 17.8093 160.447 17.6266 160.413 17.421C160.378 17.2269 160.196 17.0784 160.002 17.1127H159.979C158.7 17.2726 157.409 17.2612 156.153 16.9642C154.897 16.6559 153.709 16.1306 152.579 15.4797C151.46 14.806 150.421 14.0066 149.461 13.1044C148.502 12.2023 147.6 11.2316 146.823 10.1925L146.812 10.181C146.721 10.0554 146.538 10.0212 146.412 10.1239C146.275 10.2267 146.241 10.398 146.332 10.5236Z" fill="#353535"/>
</g>
<mask id="mask2_2399_745338" style="mask-type:luminance" maskUnits="userSpaceOnUse" x="8" y="0" width="184" height="224">
<path d="M92.2841 222.15C120.034 227.255 181.265 223.681 187.751 187.024C190.412 171.95 181.596 162.986 174.196 152.32C172.107 149.317 183.732 133.546 185.285 130.828C187.26 127.38 195.619 94.6171 189.841 84.5337C183.732 73.8793 186.472 57.2867 186.461 45.5588C186.45 34.322 185.422 18.0606 175.59 10.8206C164.159 2.39302 147.646 0.383185 133.794 0.0291801C89.2693 -1.14703 56.7808 33.4541 29.1912 64.2184C22.0997 72.1321 11.2283 82.5695 9.04711 93.498C5.73544 110.091 15.7732 122.641 36.9336 136.39C39.8228 138.274 49.3466 143.847 47.942 147.033C42.0267 160.531 34.7411 173.503 40.8734 188.748C48.6957 208.196 71.9802 218.416 92.2841 222.15Z" fill="white"/>
</mask>
<g mask="url(#mask2_2399_745338)">
<path d="M36.1573 151.76L171.193 212.056L39.9715 272.967L36.1573 151.76Z" fill="#353535"/>
<g opacity="0.5">
<mask id="mask3_2399_745338" style="mask-type:luminance" maskUnits="userSpaceOnUse" x="36" y="151" width="136" height="122">
<path d="M36.1573 151.76L171.193 212.056L39.9715 272.967L36.1573 151.76Z" fill="white"/>
</mask>
<g mask="url(#mask3_2399_745338)">
<path d="M94.7736 169.838C94.8078 173.138 95.4702 176.37 96.5322 179.453C97.5942 182.548 99.1358 185.482 101.1 188.097C103.076 190.712 105.428 193.031 108.1 194.938C110.795 196.799 113.684 198.364 116.756 199.494C122.889 201.812 129.546 202.497 136.044 201.961C142.553 201.39 148.925 199.391 154.612 196.16C154.795 196.057 154.852 195.828 154.749 195.657C154.646 195.474 154.418 195.417 154.247 195.52C148.662 198.683 142.393 200.647 135.987 201.207C129.592 201.744 123.048 201.036 117.03 198.786C114.016 197.69 111.172 196.16 108.523 194.355C105.908 192.505 103.59 190.244 101.648 187.698C99.7068 185.151 98.1994 182.285 97.1374 179.247C96.0754 176.233 95.4131 173.024 95.3674 169.838V169.826C95.3674 169.666 95.2304 169.541 95.0705 169.541C94.8992 169.552 94.7622 169.678 94.7736 169.838Z" fill="#353535"/>
<path d="M63.6778 154.044C66.0188 156.58 67.9144 159.617 69.0678 162.895C70.2326 166.161 70.6095 169.735 69.8558 173.115C69.1478 176.507 67.4577 179.647 65.2194 182.308C62.9812 184.98 60.2519 187.207 57.3856 189.205C51.5959 193.133 45.1667 196.08 38.5777 198.512C31.9772 200.933 25.2054 202.863 18.3879 204.564C18.1938 204.61 18.0682 204.816 18.1139 205.01C18.1595 205.204 18.3651 205.33 18.5592 205.284C25.3995 203.571 32.2056 201.652 38.8403 199.22C45.4636 196.776 51.9499 193.83 57.8196 189.822C60.7087 187.778 63.4837 185.505 65.7676 182.753C68.0515 180.024 69.7872 176.769 70.5067 173.241C71.2718 169.723 70.8607 166.023 69.6502 162.678C68.4397 159.309 66.5327 156.248 64.0889 153.622C63.9747 153.508 63.792 153.496 63.6778 153.61C63.5636 153.725 63.5522 153.907 63.6664 154.022L63.6778 154.044Z" fill="#353535"/>
<path d="M53.857 153.976C55.2844 157.15 55.8326 160.77 55.4215 164.231C54.9989 167.702 53.4687 171.002 51.1734 173.64C48.9123 176.312 46.0003 178.402 42.9057 180.081C39.7881 181.737 36.465 182.993 33.0734 184.021C32.8793 184.078 32.7651 184.283 32.8222 184.477C32.8793 184.672 33.0849 184.786 33.2904 184.729C36.7163 183.701 40.085 182.433 43.2711 180.743C46.4229 179.03 49.4262 176.918 51.7558 174.131C54.1196 171.379 55.6841 167.919 56.0838 164.311C56.4721 160.702 55.9011 157.025 54.3709 153.713C54.3023 153.565 54.1311 153.508 53.9826 153.576C53.8341 153.645 53.7771 153.816 53.8456 153.953L53.857 153.976Z" fill="#353535"/>
<path d="M17.4863 219.981C20.9121 216.669 24.9318 213.974 29.2712 211.998C33.6107 210 38.2127 208.595 42.9062 207.693C52.3044 205.889 62.0453 206.163 71.3979 208.116C80.7619 210.057 89.7376 213.791 97.777 218.976C101.785 221.579 105.611 224.48 109.094 227.757C112.588 231.023 115.808 234.575 118.778 238.332C118.903 238.492 119.143 238.515 119.303 238.389C119.463 238.263 119.497 238.024 119.36 237.864C116.379 234.072 113.125 230.487 109.608 227.198C106.09 223.886 102.231 220.951 98.1881 218.325C90.0802 213.095 81.0245 209.292 71.5578 207.362C62.1138 205.432 52.2702 205.181 42.7805 207.031C38.0414 207.956 33.3937 209.395 29.0086 211.428C24.6235 213.449 20.5467 216.189 17.0752 219.558C16.961 219.672 16.961 219.855 17.0638 219.969C17.1894 220.084 17.3721 220.095 17.4863 219.981Z" fill="#353535"/>
<path d="M82.3716 165.544C80.9327 170.443 80.4188 175.559 80.7157 180.64C80.8414 183.187 81.321 185.699 81.9491 188.166C82.3259 189.388 82.6571 190.61 83.1824 191.786C83.4336 192.368 83.6277 192.985 83.9246 193.545L84.8039 195.246C87.1906 199.768 90.8449 203.537 95.0016 206.46C99.1811 209.361 103.863 211.542 108.728 212.958C113.593 214.419 118.583 215.402 123.63 215.904L127.41 216.292L131.202 216.475C132.469 216.521 133.725 216.635 134.993 216.623L138.784 216.601C148.902 216.498 158.985 215.459 168.989 214.02C169.194 213.985 169.331 213.803 169.309 213.597C169.274 213.392 169.092 213.255 168.886 213.289C158.905 214.728 148.856 215.756 138.784 215.847L135.004 215.858C133.748 215.87 132.492 215.756 131.236 215.71L127.467 215.527L123.71 215.139C118.709 214.648 113.753 213.654 108.945 212.227C104.126 210.834 99.5123 208.71 95.4013 205.866C91.3131 203.011 87.7273 199.334 85.3863 194.915L84.5184 193.248C84.2215 192.699 84.0274 192.094 83.7876 191.523C83.2737 190.381 82.9425 189.171 82.5657 187.983C81.9491 185.562 81.458 183.096 81.3324 180.595C81.0127 175.604 81.5151 170.511 82.9197 165.727L82.9311 165.704C82.9768 165.555 82.8855 165.395 82.737 165.35C82.5771 165.304 82.4173 165.395 82.3716 165.544Z" fill="#353535"/>
</g>
</g>
</g>
<mask id="mask4_2399_745338" style="mask-type:luminance" maskUnits="userSpaceOnUse" x="8" y="0" width="184" height="224">
<path d="M92.2841 222.15C120.034 227.255 181.265 223.681 187.751 187.024C190.412 171.95 181.596 162.986 174.196 152.32C172.107 149.317 183.732 133.546 185.285 130.828C187.26 127.38 195.619 94.6171 189.841 84.5337C183.732 73.8793 186.472 57.2867 186.461 45.5588C186.45 34.322 185.422 18.0606 175.59 10.8206C164.159 2.39302 147.646 0.383185 133.794 0.0291801C89.2693 -1.14703 56.7808 33.4541 29.1912 64.2184C22.0997 72.1321 11.2283 82.5695 9.04711 93.498C5.73544 110.091 15.7732 122.641 36.9336 136.39C39.8228 138.274 49.3466 143.847 47.942 147.033C42.0267 160.531 34.7411 173.503 40.8734 188.748C48.6957 208.196 71.9802 218.416 92.2841 222.15Z" fill="white"/>
</mask>
<g mask="url(#mask4_2399_745338)">
<path d="M143.136 206.449C144.86 210.799 139.265 215.573 136.273 212.261C135.336 211.222 134.822 210.16 132.63 209.989C131.693 209.92 130.848 209.977 129.855 209.749C120.696 207.693 116.654 204.153 113.297 206.449C112.714 206.848 112.086 206.94 111.389 206.803C107.21 205.958 107.461 199.209 112.246 198.238C113.81 197.918 115.055 198.169 118.401 198.74C122.135 199.368 141.765 203 143.136 206.449Z" fill="#417F56"/>
<path d="M118.858 204.222C118.276 204.05 117.853 203.331 118.002 202.737C118.161 202.121 118.858 201.687 119.452 201.847C120.148 202.029 120.571 202.749 120.354 203.4C120.171 203.993 119.452 204.393 118.858 204.222Z" fill="#353535"/>
<path d="M138.557 206.666C140.098 207.065 139.493 209.441 137.951 209.041C136.467 208.664 136.946 206.254 138.557 206.666Z" fill="#353535"/>
<path d="M129.364 205.398C129.193 206.026 128.507 206.369 127.868 206.186C127.24 206.015 126.829 205.341 127.011 204.724C127.491 203.137 129.798 203.822 129.364 205.398Z" fill="#353535"/>
<path opacity="0.25" d="M141.4 204.884C142.736 205.581 142.918 205.866 143.158 206.494C144.677 210.423 139.995 215.287 136.569 212.558C136.386 212.41 136.352 212.25 136.455 212.033C137.049 210.925 136.797 208.321 135.69 207.145C131.567 202.783 122.763 205.387 117.761 200.316C117.373 199.917 116.254 198.512 116.848 198.512C119.017 198.523 135.781 201.961 141.4 204.884Z" fill="#7CBC91"/>
<path d="M69.4912 197.964C68.3378 196.89 67.6984 195.532 69.3313 195.315C78.1929 194.138 99.8786 196.045 112.063 197.77C114.975 198.181 114.678 197.975 114.633 198.992C114.45 202.429 113.319 208.915 111.207 211.587C110.956 211.907 110.67 212.044 110.248 212.01C96.0416 210.594 75.5436 203.559 69.4912 197.964Z" fill="#CBCBCB"/>
<path opacity="0.25" d="M95.8822 209.372C70.154 202.326 67.0821 195.383 68.7722 196.365C75.1101 200.042 100.587 207.522 112.224 208.653C112.76 208.71 112.703 208.767 112.406 209.463C112.109 210.183 111.755 210.868 111.276 211.496C110.99 211.873 110.659 212.033 110.168 211.998C107.667 211.816 107.644 211.827 103.431 211.165C103.225 211.131 100.587 210.503 99.6392 210.331C98.1889 210.057 96.8072 209.543 95.8822 209.372Z" fill="#717171"/>
<path opacity="0.25" d="M80.0197 203.936C79.563 203.742 80.2938 203.011 80.6935 202.714C84.5533 199.814 88.1847 200.67 92.9352 201.595C94.8423 201.972 99.9582 203.331 100.038 203.354C104.583 204.896 109.631 203.16 109.242 198.478C109.117 196.982 108.923 197.29 113.513 197.952C114.724 198.124 114.701 198.181 114.667 198.626C114.358 202.623 113.57 208.356 111.184 211.599C110.967 211.896 110.67 212.033 110.282 211.998C108.729 211.85 107.735 211.919 104.058 211.245C95.9728 209.772 86.506 206.688 80.0197 203.936Z" fill="#717171"/>
<path d="M75.8521 196.856L90.8117 198.398L105.783 199.837H105.806C106.011 199.86 106.194 199.711 106.205 199.506C106.228 199.3 106.08 199.117 105.874 199.106L90.8916 197.644L75.8978 196.285C75.7379 196.274 75.6009 196.388 75.578 196.548C75.5666 196.696 75.6922 196.845 75.8521 196.856Z" fill="white"/>
</g>
<mask id="mask5_2399_745338" style="mask-type:luminance" maskUnits="userSpaceOnUse" x="8" y="0" width="184" height="224">
<path d="M92.2841 222.15C120.034 227.255 181.265 223.681 187.751 187.024C190.412 171.95 181.596 162.986 174.196 152.32C172.107 149.317 183.732 133.546 185.285 130.828C187.26 127.38 195.619 94.6171 189.841 84.5337C183.732 73.8793 186.472 57.2867 186.461 45.5588C186.45 34.322 185.422 18.0606 175.59 10.8206C164.159 2.39302 147.646 0.383185 133.794 0.0291801C89.2693 -1.14703 56.7808 33.4541 29.1912 64.2184C22.0997 72.1321 11.2283 82.5695 9.04711 93.498C5.73544 110.091 15.7732 122.641 36.9336 136.39C39.8228 138.274 49.3466 143.847 47.942 147.033C42.0267 160.531 34.7411 173.503 40.8734 188.748C48.6957 208.196 71.9802 218.416 92.2841 222.15Z" fill="white"/>
</mask>
<g mask="url(#mask5_2399_745338)">
<path d="M63.347 173.755C64.6945 176.838 66.7615 179.339 69.6278 181.154C70.7583 181.874 71.9345 182.468 73.2249 182.867C73.8758 183.073 74.5039 183.347 75.1776 183.473C78.6263 184.089 81.9837 183.884 85.2383 182.479C88.6755 180.994 91.2678 178.562 93.2319 175.445C93.2548 175.399 93.289 175.353 93.3233 175.308C94.077 174.097 94.6594 172.784 94.9449 171.528C95.63 168.833 94.9449 165.361 93.152 163.226C91.9073 161.753 90.3542 160.793 88.5499 160.131C87.3965 159.708 86.2432 159.629 85.0555 159.606C83.8451 159.583 82.7145 159.937 81.6297 160.474C81.2528 160.668 80.8189 160.771 80.4306 160.965C80.0995 161.125 79.8939 161.022 79.6884 160.759C79.3915 160.394 79.0603 160.062 78.7634 159.697C77.7356 158.418 76.3995 157.642 74.8922 157.059C73.6474 156.58 72.3684 156.477 71.0895 156.511C70.7697 156.522 70.4614 156.534 70.1645 156.568C68.0975 156.797 66.259 157.607 64.763 159.149C64.6488 159.263 64.5347 159.377 64.4433 159.503C63.0273 161.079 62.148 162.952 61.9424 165.099C61.6455 168.09 62.148 171.002 63.347 173.755Z" fill="#D46966"/>
<g opacity="0.25">
<path d="M63.3459 173.755C64.6934 176.838 66.7603 179.339 69.6266 181.154C70.7572 181.874 71.9334 182.468 73.2238 182.867C73.8747 183.073 74.5028 183.347 75.1765 183.473C78.6252 184.089 81.9826 183.884 85.2371 182.479C88.6744 180.994 91.2666 178.562 93.2308 175.445C93.2536 175.399 93.2879 175.353 93.3222 175.308C90.5815 174.143 87.5325 173.675 84.5862 173.446C80.7036 173.149 74.5142 175.73 71.3396 172.658C69.8779 171.242 69.1813 169.21 68.6103 167.245C67.6967 164.151 66.2579 161.798 64.4308 159.503C63.0147 161.079 62.1354 162.952 61.9299 165.098C61.6444 168.09 62.1469 171.002 63.3459 173.755Z" fill="#B05F95"/>
</g>
<path d="M90.2853 164.333C90.9819 165.338 91.5186 166.537 91.6899 167.759C91.7927 168.364 91.8155 168.993 91.747 169.598C91.7013 170.214 91.5072 170.797 91.3131 171.391L91.3017 171.425C91.2331 171.619 91.3359 171.825 91.5301 171.893C91.7128 171.962 91.9183 171.859 91.9868 171.676C92.2381 171.037 92.455 170.374 92.5121 169.689C92.5921 169.004 92.5692 168.307 92.4322 167.634C92.1581 166.286 91.5986 165.03 90.7193 163.968C90.6165 163.842 90.4338 163.831 90.3082 163.934C90.194 164.025 90.1711 164.196 90.2511 164.322L90.2853 164.333Z" fill="#353535"/>
<path d="M72.8704 166.937C73.704 167.165 74.5148 167.017 75.3256 166.823C75.7709 166.709 75.8394 166.743 75.8965 167.188C75.9879 167.885 76.2962 168.49 76.5475 169.13C76.9243 170.089 78.8656 170.557 79.6536 169.872C80.2017 169.392 80.7497 168.947 81.1494 168.319C81.355 167.999 81.4349 168.01 81.7548 168.25C81.9602 168.399 82.143 168.57 82.3486 168.718C82.9424 169.164 83.6047 169.427 84.3356 169.518C85.8658 169.701 87.1105 168.467 86.8935 166.937C86.7565 166.001 86.4139 165.121 85.7516 164.413C85.6031 164.253 85.603 164.105 85.8314 163.991C86.5509 163.625 87.1562 163.123 87.5445 162.392C87.7158 162.072 87.8414 161.73 87.8871 161.376C88.0127 160.337 87.4644 159.537 86.4481 159.275C85.6944 159.08 84.9408 159.195 84.1985 159.389C83.7418 159.503 83.7075 159.48 83.6732 159C83.639 158.532 83.5704 158.064 83.4219 157.619C83.1707 156.865 82.7139 156.271 82.0516 155.86C80.9553 155.186 79.4708 155.46 78.5002 156.454C78.1119 156.842 77.8493 157.322 77.5752 157.779C77.461 157.973 77.3126 157.996 77.1298 157.859C76.9356 157.699 76.7416 157.527 76.536 157.39C76.1249 157.105 75.691 156.854 75.1771 156.728C73.9552 156.442 73.0187 157.013 72.7447 158.247C72.5962 158.898 72.6648 159.537 72.9389 160.154C73.0645 160.451 73.2015 160.759 73.3957 161.01C73.7154 161.421 73.7953 161.558 73.2129 161.787C72.4363 162.084 71.8997 162.666 71.4087 163.294C71.0318 163.762 70.8833 164.322 70.9518 164.916C71.0431 165.989 71.6942 166.663 72.8704 166.937Z" fill="#7CBC91"/>
<path d="M79.5623 167.668C79.6308 167.348 79.7222 167.04 79.7679 166.72C79.8135 166.423 79.7336 166.149 79.5052 165.944C79.2311 165.692 78.9228 165.647 78.6259 165.852C78.4774 165.955 78.3404 166.081 78.2491 166.229C77.8379 166.88 77.6781 167.611 77.6438 168.376C77.6324 168.593 77.7238 168.798 77.8608 168.97C78.2034 169.415 78.7972 169.426 79.1398 168.981C79.2083 168.901 79.2768 168.81 79.3111 168.707C79.4253 168.364 79.5052 168.022 79.608 167.679C79.5851 167.679 79.5737 167.668 79.5623 167.668Z" fill="#417F56"/>
<path d="M72.0823 164.185C71.9338 164.733 72.3678 165.327 72.8588 165.338C72.9959 165.338 73.1557 165.338 73.2813 165.281C73.8637 165.019 74.469 164.767 75.0171 164.436C75.4967 164.151 75.531 163.614 75.1884 163.226C75.0399 163.054 74.8687 162.94 74.6288 162.952C73.7381 163.009 72.9502 163.328 72.2764 163.911C72.1851 163.991 72.128 164.139 72.0823 164.185Z" fill="#417F56"/>
<path d="M82.9658 165.624C82.9772 165.704 82.9658 165.852 83.0229 165.978C83.3883 166.686 83.8222 167.337 84.4389 167.862C84.7929 168.159 85.1355 168.147 85.5237 167.873C85.8549 167.634 85.9577 167.314 85.775 166.926C85.421 166.16 84.9185 165.51 84.142 165.133C83.6966 164.893 83.1256 165.121 82.9658 165.624Z" fill="#417F56"/>
<path d="M75.086 158.03C74.378 157.859 73.9669 158.224 74.1268 158.829C74.3209 159.594 74.869 160.131 75.4514 160.599C75.7712 160.85 76.2165 160.759 76.5363 160.462C76.7989 160.222 76.8674 159.823 76.6505 159.48C76.3193 158.966 75.8854 158.532 75.3943 158.155C75.2801 158.075 75.1317 158.041 75.086 158.03Z" fill="#417F56"/>
<path d="M85.8435 160.451C85.7293 160.451 85.5124 160.417 85.3068 160.462C84.7472 160.588 84.2219 160.805 83.7423 161.147C83.4911 161.33 83.3312 161.547 83.3997 161.867C83.4797 162.209 83.6624 162.461 84.005 162.552C84.1649 162.598 84.3704 162.62 84.5303 162.575C85.067 162.392 85.6037 162.187 86.0719 161.833C86.1861 161.753 86.2775 161.627 86.3574 161.513C86.6771 161.067 86.4944 160.599 85.8435 160.451Z" fill="#417F56"/>
<path d="M79.5507 158.761C79.5507 158.761 79.4936 158.978 79.4936 159.195C79.4822 159.56 79.8019 159.971 80.1559 160.085C80.4528 160.188 80.8982 160.028 81.0809 159.697C81.3778 159.126 81.6062 158.521 81.5263 157.859C81.492 157.516 81.3093 157.253 80.9667 157.15C80.6241 157.048 80.3386 157.15 80.0988 157.402C79.7791 157.721 79.6763 158.133 79.5507 158.761Z" fill="#417F56"/>
<path d="M79.2191 164.813C79.7216 165.007 80.3154 164.984 80.875 164.916C82.5308 164.722 83.136 163.328 82.2796 161.901C81.9941 161.421 81.5716 161.079 81.0234 160.93C80.3954 160.77 79.7673 160.599 79.1278 160.508C78.1457 160.371 77.2093 160.896 76.821 161.741C76.4099 162.632 76.6155 163.431 77.4034 164.025C77.826 164.333 78.5568 164.653 79.2191 164.813Z" fill="#353535"/>
</g>
</svg>
