<svg width="320" height="40" viewBox="0 0 320 40" fill="none" xmlns="http://www.w3.org/2000/svg">
<path d="M14.0664 20.1445C14.0195 20.4102 13.9785 20.6602 13.9434 20.8945C13.9121 21.125 13.8965 21.3555 13.8965 21.5859C13.8965 21.8398 13.9355 22.0684 14.0137 22.2715C14.0957 22.4707 14.2461 22.6289 14.4648 22.7461C14.6875 22.8633 15.0098 22.9219 15.4316 22.9219H15.4375V24H15.4316C14.7598 24 14.2285 23.8691 13.8379 23.6074C13.4512 23.3418 13.1816 22.9512 13.0293 22.4355C12.6191 23.0137 12.0352 23.4199 11.2773 23.6543C10.5234 23.8848 9.63281 24 8.60547 24C7.64062 24 6.86133 23.8848 6.26758 23.6543C5.67773 23.4238 5.24805 23.0957 4.97852 22.6699C4.70898 22.2402 4.57422 21.7285 4.57422 21.1348C4.57422 20.8418 4.60352 20.5312 4.66211 20.2031C4.72461 19.875 4.81055 19.543 4.91992 19.207L5.88086 19.4883C5.78711 19.7773 5.71484 20.0527 5.66406 20.3145C5.61328 20.5723 5.58789 20.8125 5.58789 21.0352C5.58789 21.4648 5.69336 21.8203 5.9043 22.1016C6.11914 22.3789 6.46094 22.5859 6.92969 22.7227C7.39844 22.8555 8.01367 22.9219 8.77539 22.9219C9.5293 22.9219 10.1621 22.8652 10.6738 22.752C11.1895 22.6348 11.6094 22.457 11.9336 22.2188C12.2578 21.9766 12.5078 21.6719 12.6836 21.3047C12.8633 20.9336 12.9941 20.4941 13.0762 19.9863L14.0664 20.1445ZM9.4668 19.2539L10.3457 18.375L11.2188 19.2539L10.3457 20.127L9.4668 19.2539ZM7.42188 19.2539L8.30078 18.375L9.17383 19.2539L8.30078 20.127L7.42188 19.2539ZM18.1914 18.9844C18.4648 18.9844 18.75 19.041 19.0469 19.1543C19.3477 19.2676 19.6719 19.4043 20.0195 19.5645C20.3789 19.7246 20.7676 19.8887 21.1855 20.0566C21.6035 20.2207 22.0664 20.3516 22.5742 20.4492V21.3926L20.1543 23.0098C19.6387 23.3496 19.1035 23.5996 18.5488 23.7598C17.998 23.9199 17.3984 24 16.75 24H15.4375C15.3711 24 15.3242 23.9609 15.2969 23.8828C15.2695 23.8008 15.2559 23.6602 15.2559 23.4609C15.2559 23.2578 15.2695 23.1172 15.2969 23.0391C15.3242 22.9609 15.3711 22.9219 15.4375 22.9219H16.9199C17.2715 22.9219 17.6016 22.8965 17.9102 22.8457C18.2188 22.791 18.5156 22.709 18.8008 22.5996C19.0898 22.4863 19.377 22.3398 19.6621 22.1602L21.3203 21.0938C20.9414 21.0195 20.5996 20.9219 20.2949 20.8008C19.9941 20.6797 19.7168 20.5625 19.4629 20.4492C19.2246 20.3398 19.0059 20.248 18.8066 20.1738C18.6113 20.0957 18.4199 20.0566 18.2324 20.0566C17.9199 20.0566 17.6777 20.1621 17.5059 20.373C17.3379 20.584 17.2148 20.8672 17.1367 21.2227L17.1016 21.4102L16.2227 21.2461L16.2637 21.0234C16.3809 20.4141 16.5879 19.9219 16.8848 19.5469C17.1816 19.1719 17.6172 18.9844 18.1914 18.9844ZM18.3027 16.5L19.1816 15.6211L20.0547 16.5L19.1816 17.373L18.3027 16.5ZM25.2227 24H24.1445V15.9375H25.2227V24ZM31.6035 21.791C31.6035 22.209 31.5137 22.5625 31.334 22.8516C31.1582 23.1406 30.9199 23.373 30.6191 23.5488C30.3223 23.7246 29.9902 23.8516 29.623 23.9297C29.2598 24.0078 28.8906 24.0469 28.5156 24.0469C28.2109 24.0469 27.9062 24.0273 27.6016 23.9883C27.3008 23.9453 27.0117 23.8848 26.7344 23.8066L26.9805 22.7812C27.1992 22.8398 27.4395 22.8867 27.7012 22.9219C27.9629 22.957 28.2266 22.9746 28.4922 22.9746C28.8867 22.9746 29.2383 22.9316 29.5469 22.8457C29.8555 22.7598 30.0977 22.625 30.2734 22.4414C30.4531 22.2578 30.543 22.0195 30.543 21.7266C30.543 21.3516 30.377 20.9199 30.0449 20.4316C29.7129 19.9395 29.2168 19.4004 28.5566 18.8145L29.2598 17.9824C29.7363 18.4043 30.1504 18.8242 30.502 19.2422C30.8535 19.6602 31.125 20.0801 31.3164 20.502C31.5078 20.9238 31.6035 21.3535 31.6035 21.791ZM33.8301 20.4668L34.8613 20.127L35.1953 21.3047C35.3125 21.7305 35.4434 22.0605 35.5879 22.2949C35.7324 22.5293 35.9199 22.6934 36.1504 22.7871C36.3809 22.877 36.6836 22.9219 37.0586 22.9219H37.0645V24H37.0586C36.6836 24 36.3496 23.9395 36.0566 23.8184C35.7676 23.6973 35.5449 23.5254 35.3887 23.3027C35.4004 23.9707 35.2852 24.5527 35.043 25.0488C34.8047 25.5488 34.4258 25.9902 33.9062 26.373C33.3906 26.7559 32.7207 27.1035 31.8965 27.416L31.4395 26.4375C32.1504 26.1719 32.7227 25.8926 33.1562 25.5996C33.5898 25.3105 33.9043 24.9824 34.0996 24.6152C34.2949 24.248 34.3926 23.8184 34.3926 23.3262C34.3926 22.9707 34.3457 22.5586 34.252 22.0898C34.1582 21.6172 34.0176 21.0762 33.8301 20.4668ZM36.4199 26.0859L37.2988 25.207L38.1719 26.0859L37.2988 26.959L36.4199 26.0859ZM38.4648 26.0859L39.3438 25.207L40.2168 26.0859L39.3438 26.959L38.4648 26.0859ZM37.4512 27.9082L38.3301 27.0293L39.2031 27.9082L38.3301 28.7812L37.4512 27.9082ZM40.0117 19.248C40.1172 19.6816 40.2031 20.0938 40.2695 20.4844C40.3359 20.875 40.3691 21.2383 40.3691 21.5742C40.3691 22.0664 40.2773 22.4941 40.0938 22.8574C39.9141 23.2207 39.6133 23.502 39.1914 23.7012C38.7734 23.9004 38.207 24 37.4922 24H37.0703C37.0039 24 36.957 23.9609 36.9297 23.8828C36.9023 23.8047 36.8887 23.6641 36.8887 23.4609C36.8887 23.2539 36.9023 23.1133 36.9297 23.0391C36.957 22.9609 37.0039 22.9219 37.0703 22.9219H37.4922C37.9609 22.9219 38.3281 22.8672 38.5938 22.7578C38.8594 22.6484 39.0469 22.4883 39.1562 22.2773C39.2656 22.0664 39.3203 21.8086 39.3203 21.5039C39.3203 21.2422 39.2891 20.9473 39.2266 20.6191C39.168 20.2871 39.0918 19.9219 38.998 19.5234L40.0117 19.248ZM52.5273 24C52.2305 24 51.9883 23.9434 51.8008 23.8301C51.6172 23.7168 51.4668 23.5625 51.3496 23.3672C51.3809 24.1875 51.2578 24.8652 50.9805 25.4004C50.707 25.9395 50.291 26.3398 49.7324 26.6016C49.1777 26.8672 48.4902 27 47.6699 27C46.3535 27 45.3887 26.7031 44.7754 26.1094C44.1621 25.5195 43.8555 24.6582 43.8555 23.5254C43.8555 23.209 43.877 22.875 43.9199 22.5234C43.9629 22.1719 44.0215 21.8223 44.0957 21.4746C44.1738 21.123 44.2598 20.7969 44.3535 20.4961L45.332 20.7832C45.2266 21.1582 45.1289 21.5801 45.0391 22.0488C44.9531 22.5176 44.9102 22.9648 44.9102 23.3906C44.9102 23.9766 45.0059 24.4551 45.1973 24.8262C45.3926 25.2012 45.6914 25.4766 46.0938 25.6523C46.5 25.832 47.0195 25.9219 47.6523 25.9219C48.3203 25.9219 48.8516 25.832 49.2461 25.6523C49.6406 25.4727 49.9238 25.2109 50.0957 24.8672C50.2715 24.5234 50.3594 24.1074 50.3594 23.6191C50.3594 23.3418 50.332 23.0391 50.2773 22.7109C50.2266 22.3828 50.1582 22.0449 50.0723 21.6973C49.9863 21.3496 49.8926 21.0098 49.791 20.6777L50.8516 20.2852L51.1797 21.5039C51.2852 21.9609 51.4297 22.3125 51.6133 22.5586C51.8008 22.8008 52.0898 22.9219 52.4805 22.9219C52.8047 22.9219 53.0527 22.8223 53.2246 22.623C53.3965 22.4238 53.502 22.1074 53.541 21.6738L53.6348 20.5195L54.6016 20.5957L54.5254 21.6387C54.4902 22.0801 54.5625 22.4043 54.7422 22.6113C54.9219 22.8184 55.1914 22.9219 55.5508 22.9219C56.1953 22.9219 56.5176 22.5352 56.5176 21.7617C56.5176 21.582 56.5 21.3477 56.4648 21.0586C56.4336 20.7695 56.3887 20.4766 56.3301 20.1797L57.3848 19.9277C57.4434 20.2168 57.4902 20.5273 57.5254 20.8594C57.5645 21.1914 57.584 21.4902 57.584 21.7559C57.584 22.5059 57.4258 23.0684 57.1094 23.4434C56.7969 23.8145 56.3281 24 55.7031 24C55.2578 24 54.8945 23.9062 54.6133 23.7188C54.332 23.5273 54.1426 23.2559 54.0449 22.9043C53.9512 23.2598 53.7656 23.5312 53.4883 23.7188C53.2148 23.9062 52.8945 24 52.5273 24ZM52.0586 18.2812L52.9375 17.4023L53.8105 18.2812L52.9375 19.1543L52.0586 18.2812ZM54.1035 18.2812L54.9824 17.4023L55.8555 18.2812L54.9824 19.1543L54.1035 18.2812ZM53.084 16.459L53.9629 15.5801L54.8359 16.459L53.9629 17.332L53.084 16.459ZM62.1602 23.9062C61.9766 23.9414 61.7812 23.9727 61.5742 24C61.3672 24.0312 61.1465 24.0469 60.9121 24.0469C60.2988 24.0469 59.8125 23.8945 59.4531 23.5898C59.0938 23.2852 58.9141 22.8145 58.9141 22.1777C58.9141 21.8496 58.9551 21.5195 59.0371 21.1875C59.123 20.8555 59.252 20.5527 59.4238 20.2793C59.5957 20.0059 59.8125 19.7871 60.0742 19.623C60.3359 19.4551 60.6445 19.3711 61 19.3711C61.4531 19.3711 61.8281 19.4922 62.125 19.7344C62.4219 19.9766 62.6562 20.2969 62.8281 20.6953C63 21.0938 63.1211 21.5371 63.1914 22.0254C63.2617 22.5098 63.2969 22.9941 63.2969 23.4785C63.2969 24.4395 62.9375 25.2363 62.2188 25.8691C61.5 26.502 60.4688 27.0098 59.125 27.3926L58.6914 26.4023C59.7266 26.125 60.541 25.7773 61.1348 25.3594C61.7285 24.9414 62.0703 24.457 62.1602 23.9062ZM62.2773 22.8105C62.2578 22.5254 62.2207 22.2422 62.166 21.9609C62.1113 21.6797 62.0332 21.4219 61.9316 21.1875C61.834 20.9531 61.707 20.7656 61.5508 20.625C61.3984 20.4844 61.209 20.4141 60.9824 20.4141C60.7285 20.4141 60.5195 20.498 60.3555 20.666C60.1953 20.8301 60.0762 21.041 59.998 21.2988C59.9199 21.5566 59.8809 21.8223 59.8809 22.0957C59.8809 22.4238 59.9785 22.6504 60.1738 22.7754C60.373 22.9004 60.6582 22.9629 61.0293 22.9629C61.2676 22.9629 61.4922 22.9473 61.7031 22.916C61.918 22.8848 62.1094 22.8496 62.2773 22.8105ZM66.1035 20.4668L67.1348 20.127C67.3379 20.8105 67.4902 21.4082 67.5918 21.9199C67.6934 22.4316 67.7441 22.9023 67.7441 23.332C67.7441 23.9648 67.6211 24.5293 67.375 25.0254C67.1328 25.5215 66.75 25.9648 66.2266 26.3555C65.7031 26.7461 65.0176 27.0996 64.1699 27.416L63.7129 26.4375C64.4277 26.1719 65 25.8926 65.4297 25.5996C65.8633 25.3105 66.1777 24.9824 66.373 24.6152C66.5684 24.252 66.666 23.8281 66.666 23.3438C66.666 22.9844 66.6191 22.5703 66.5254 22.1016C66.4355 21.6289 66.2949 21.084 66.1035 20.4668Z" fill="#417F56"/>
<path d="M79.6665 18.5H75.6665C75.3932 18.5 75.1665 18.2733 75.1665 18C75.1665 17.7267 75.3932 17.5 75.6665 17.5H79.6665C79.9398 17.5 80.1665 17.7267 80.1665 18C80.1665 18.2733 79.9398 18.5 79.6665 18.5Z" fill="#417F56"/>
<path d="M83.6931 21.8666C82.6864 21.8666 81.8331 21.12 81.7531 20.16C81.6998 19.6066 81.8998 19.0666 82.2998 18.6733C82.6331 18.3266 83.1064 18.1333 83.6064 18.1333H84.9998C85.6598 18.1533 86.1664 18.6733 86.1664 19.3133V20.6866C86.1664 21.3266 85.6598 21.8466 85.0198 21.8666H83.6931ZM84.9798 19.1333H83.6131C83.3798 19.1333 83.1665 19.22 83.0131 19.38C82.8198 19.5666 82.7264 19.8199 82.7531 20.0733C82.7864 20.5133 83.2131 20.8666 83.6931 20.8666H84.9998C85.0864 20.8666 85.1664 20.7866 85.1664 20.6866V19.3133C85.1664 19.2133 85.0864 19.14 84.9798 19.1333Z" fill="#417F56"/>
<path d="M81.6668 26.1666H75.6668C73.3735 26.1666 71.8335 24.6266 71.8335 22.3333V17.6666C71.8335 15.6133 73.1001 14.1266 75.0668 13.8799C75.2468 13.8533 75.4535 13.8333 75.6668 13.8333H81.6668C81.8268 13.8333 82.0335 13.8399 82.2468 13.8733C84.2135 14.0999 85.5002 15.5933 85.5002 17.6666V18.6333C85.5002 18.9066 85.2735 19.1333 85.0002 19.1333H83.6135C83.3802 19.1333 83.1668 19.2199 83.0135 19.3799L83.0068 19.3866C82.8202 19.5666 82.7335 19.8132 82.7535 20.0666C82.7868 20.5066 83.2135 20.8599 83.6935 20.8599H85.0002C85.2735 20.8599 85.5002 21.0866 85.5002 21.3599V22.3266C85.5002 24.6266 83.9602 26.1666 81.6668 26.1666ZM75.6668 14.8333C75.5068 14.8333 75.3535 14.8466 75.2002 14.8666C73.7335 15.0532 72.8335 16.1199 72.8335 17.6666V22.3333C72.8335 24.0533 73.9468 25.1666 75.6668 25.1666H81.6668C83.3868 25.1666 84.5002 24.0533 84.5002 22.3333V21.8666H83.6935C82.6868 21.8666 81.8335 21.1199 81.7535 20.1599C81.7002 19.6132 81.9002 19.0666 82.3002 18.6799C82.6468 18.3266 83.1135 18.1333 83.6135 18.1333H84.5002V17.6666C84.5002 16.1066 83.5868 15.0332 82.1068 14.8599C81.9468 14.8332 81.8068 14.8333 81.6668 14.8333H75.6668Z" fill="#417F56"/>
<line x1="131" y1="20.5" x2="91.5" y2="20.5" stroke="#417F56" stroke-linecap="round" stroke-dasharray="4 4"/>
<path d="M143.449 19.1377C143.531 19.4176 143.592 19.6862 143.635 19.9434C143.677 20.2005 143.698 20.4463 143.698 20.6807C143.698 21.2536 143.57 21.7093 143.312 22.0479C143.055 22.3864 142.644 22.6305 142.077 22.7803C141.511 22.9268 140.764 23 139.836 23C138.908 23 138.161 22.9268 137.595 22.7803C137.032 22.6305 136.621 22.3864 136.364 22.0479C136.107 21.7093 135.979 21.2536 135.979 20.6807C135.979 20.4463 136 20.2005 136.042 19.9434C136.088 19.6862 136.148 19.4176 136.223 19.1377L137.038 19.3281C136.976 19.5723 136.927 19.8001 136.892 20.0117C136.859 20.2233 136.843 20.4219 136.843 20.6074C136.843 20.9883 136.932 21.2878 137.111 21.5059C137.294 21.724 137.603 21.8786 138.039 21.9697C138.475 22.0576 139.074 22.1016 139.836 22.1016C140.598 22.1016 141.197 22.0576 141.633 21.9697C142.069 21.8786 142.378 21.724 142.561 21.5059C142.743 21.2878 142.834 20.9883 142.834 20.6074C142.834 20.4219 142.818 20.2233 142.785 20.0117C142.753 19.8001 142.704 19.5723 142.639 19.3281L143.449 19.1377ZM139.953 18.8154L140.686 18.083L141.413 18.8154L140.686 19.543L139.953 18.8154ZM138.249 18.8154L138.981 18.083L139.709 18.8154L138.981 19.543L138.249 18.8154ZM144.943 16.2812H145.847V20.8467C145.847 21.2926 145.938 21.6133 146.12 21.8086C146.306 22.0039 146.654 22.1016 147.165 22.1016V23C146.442 23 145.891 22.8226 145.51 22.4678C145.132 22.1097 144.943 21.5742 144.943 20.8613V16.2812ZM148.669 20.666C148.669 20.8906 148.723 21.0876 148.83 21.2568C148.938 21.4229 149.077 21.5514 149.25 21.6426C149.426 21.7305 149.615 21.7744 149.816 21.7744C149.878 21.7744 149.966 21.7679 150.08 21.7549C150.197 21.7386 150.314 21.7191 150.432 21.6963L151.975 21.4033L152.136 22.2871L149.553 22.7803C149.182 22.8486 148.811 22.9023 148.439 22.9414C148.072 22.9805 147.723 23 147.395 23H147.17C147.115 23 147.076 22.9642 147.053 22.8926C147.03 22.8177 147.019 22.7038 147.019 22.5508C147.019 22.3978 147.03 22.2855 147.053 22.2139C147.076 22.139 147.115 22.1016 147.17 22.1016H147.36C147.539 22.1016 147.72 22.0951 147.902 22.082C148.085 22.0658 148.29 22.0413 148.518 22.0088C148.303 21.8786 148.124 21.7028 147.98 21.4814C147.84 21.2568 147.771 20.9883 147.771 20.6758C147.771 20.2201 147.871 19.8229 148.073 19.4844C148.278 19.1426 148.549 18.8773 148.884 18.6885C149.222 18.4964 149.587 18.4004 149.978 18.4004C150.352 18.4004 150.673 18.4671 150.939 18.6006C151.21 18.7308 151.468 18.9261 151.716 19.1865L151.213 19.8311C151.044 19.6618 150.858 19.5316 150.656 19.4404C150.458 19.346 150.238 19.2988 149.997 19.2988C149.769 19.2988 149.553 19.3525 149.348 19.46C149.146 19.5641 148.981 19.7188 148.854 19.9238C148.731 20.1289 148.669 20.3763 148.669 20.666ZM153.557 16.4961L154.392 16.1738C154.717 16.9421 154.966 17.7152 155.139 18.4932C155.314 19.2679 155.417 20.0687 155.446 20.8955L154.572 20.9932C154.556 20.4723 154.506 19.9613 154.421 19.46C154.34 18.9554 154.227 18.4574 154.084 17.9658C153.941 17.4743 153.765 16.9844 153.557 16.4961ZM157.565 16.2812H158.469V20.8467C158.469 21.3122 158.565 21.6377 158.757 21.8232C158.952 22.0088 159.294 22.1016 159.782 22.1016H159.787V23H159.782C159.157 23 158.677 22.8633 158.342 22.5898C158.01 22.3164 157.816 21.9014 157.761 21.3447V21.1201C157.471 21.5465 157.118 21.8997 156.701 22.1797C156.288 22.4564 155.798 22.6631 155.231 22.7998C154.668 22.9333 154.017 23 153.278 23V22.1016C154.079 22.1016 154.756 22.0316 155.31 21.8916C155.863 21.7516 156.32 21.5286 156.682 21.2227C157.046 20.9134 157.341 20.5098 157.565 20.0117V16.2812ZM159.802 23C159.746 23 159.707 22.9674 159.685 22.9023C159.662 22.8372 159.65 22.7201 159.65 22.5508C159.65 22.3783 159.662 22.2611 159.685 22.1992C159.707 22.1341 159.746 22.1016 159.802 22.1016H160.52C160.562 22.0332 160.604 21.9681 160.646 21.9062C160.689 21.8444 160.729 21.7826 160.769 21.7207V16.2812H161.662V19.626C161.662 19.8473 161.656 20.0622 161.643 20.2705C161.633 20.4756 161.612 20.6823 161.579 20.8906C161.993 20.3307 162.416 19.9092 162.849 19.626C163.285 19.3395 163.721 19.1963 164.157 19.1963C164.532 19.1963 164.852 19.2777 165.119 19.4404C165.386 19.6032 165.591 19.8213 165.734 20.0947C165.878 20.3682 165.949 20.6742 165.949 21.0127C165.949 21.2764 165.904 21.527 165.812 21.7646C165.725 22.0023 165.567 22.2139 165.339 22.3994C165.111 22.585 164.795 22.7314 164.392 22.8389C163.988 22.9463 163.472 23 162.844 23H159.802ZM161.569 22.1016H163.015C163.275 22.1016 163.522 22.0869 163.757 22.0576C163.991 22.0283 164.2 21.9762 164.382 21.9014C164.567 21.8265 164.712 21.7191 164.816 21.5791C164.921 21.4391 164.973 21.2568 164.973 21.0322C164.973 20.7523 164.886 20.5244 164.714 20.3486C164.545 20.1696 164.312 20.0801 164.016 20.0801C163.814 20.0801 163.588 20.1403 163.337 20.2607C163.086 20.3812 162.813 20.5879 162.517 20.8809C162.224 21.1706 161.908 21.5775 161.569 22.1016ZM168.156 23H167.258V16.2812H168.156V23ZM178.522 22.1016V23H178.425C178.112 23 177.827 22.9414 177.57 22.8242C177.313 22.7038 177.124 22.5296 177.004 22.3018V22.8828C177.001 23.4818 176.883 23.9896 176.652 24.4062C176.424 24.8229 176.094 25.1387 175.661 25.3535C175.231 25.5716 174.709 25.6807 174.094 25.6807C173.511 25.6807 173.021 25.5798 172.624 25.3779C172.23 25.1794 171.931 24.8978 171.726 24.5332C171.521 24.1686 171.418 23.7389 171.418 23.2441C171.418 22.9154 171.455 22.5654 171.53 22.1943C171.608 21.82 171.724 21.4408 171.877 21.0566L172.673 21.3496C172.552 21.6719 172.46 21.9893 172.395 22.3018C172.329 22.611 172.297 22.891 172.297 23.1416C172.297 23.6624 172.451 24.0661 172.761 24.3525C173.073 24.639 173.544 24.7822 174.172 24.7822C174.842 24.7822 175.336 24.6113 175.651 24.2695C175.967 23.931 176.125 23.4118 176.125 22.7119V16.2812H177.023V20.6611C177.023 20.9704 177.064 21.2324 177.146 21.4473C177.227 21.6621 177.368 21.8249 177.57 21.9355C177.775 22.0462 178.06 22.1016 178.425 22.1016H178.522ZM179.533 24.7432L180.266 24.0107L180.993 24.7432L180.266 25.4707L179.533 24.7432ZM177.829 24.7432L178.562 24.0107L179.289 24.7432L178.562 25.4707L177.829 24.7432ZM181.384 19.8994V20.627C181.384 20.9622 181.42 21.2389 181.491 21.457C181.563 21.6751 181.711 21.8379 181.936 21.9453C182.163 22.0495 182.508 22.1016 182.971 22.1016H182.98V23H182.971C182.44 23 181.991 22.9089 181.623 22.7266C181.255 22.541 181.024 22.2822 180.93 21.9502C180.832 22.2855 180.603 22.5443 180.241 22.7266C179.88 22.9089 179.426 23 178.879 23H178.527C178.472 23 178.433 22.9674 178.41 22.9023C178.387 22.8372 178.376 22.7201 178.376 22.5508C178.376 22.3783 178.387 22.2611 178.41 22.1992C178.433 22.1341 178.472 22.1016 178.527 22.1016H178.879C179.341 22.1016 179.686 22.0479 179.914 21.9404C180.145 21.833 180.298 21.6702 180.373 21.4521C180.448 21.234 180.485 20.959 180.485 20.627V19.8994H181.384ZM185.017 21.4473C185.222 21.6784 185.435 21.8542 185.656 21.9746C185.878 22.0951 186.11 22.1553 186.354 22.1553C186.595 22.1553 186.797 22.0788 186.96 21.9258C187.123 21.7728 187.204 21.5612 187.204 21.291C187.204 21.0827 187.16 20.8841 187.072 20.6953C186.988 20.5033 186.872 20.3454 186.726 20.2217C186.582 20.098 186.421 20.0361 186.242 20.0361C186.076 20.0361 185.93 20.0801 185.803 20.168C185.679 20.2526 185.567 20.3763 185.466 20.5391C185.365 20.6986 185.266 20.8923 185.168 21.1201L185.017 21.4473ZM182.98 22.1016C183.26 22.1016 183.493 22.0332 183.679 21.8965C183.864 21.7565 184.022 21.5775 184.152 21.3594C184.283 21.1413 184.406 20.9134 184.523 20.6758C184.654 20.4154 184.79 20.1696 184.934 19.9385C185.08 19.7041 185.256 19.5137 185.461 19.3672C185.666 19.2207 185.925 19.1475 186.237 19.1475C186.563 19.1475 186.831 19.224 187.043 19.377C187.258 19.5267 187.437 19.7188 187.58 19.9531C187.723 20.1875 187.852 20.4333 187.966 20.6904C188.076 20.9346 188.194 21.1641 188.317 21.3789C188.441 21.5938 188.594 21.7679 188.776 21.9014C188.959 22.0348 189.19 22.1016 189.47 22.1016H189.475V23H189.47C189.209 23 188.97 22.9512 188.752 22.8535C188.534 22.7526 188.347 22.611 188.19 22.4287C188.034 22.2464 187.917 22.0316 187.839 21.7842C187.787 22.1813 187.622 22.4922 187.346 22.7168C187.072 22.9414 186.74 23.0537 186.35 23.0537C186.001 23.0537 185.673 22.9723 185.363 22.8096C185.057 22.6468 184.79 22.4271 184.562 22.1504C184.387 22.3978 184.174 22.6012 183.923 22.7607C183.675 22.9202 183.361 23 182.98 23C182.925 23 182.886 22.9674 182.863 22.9023C182.84 22.8372 182.829 22.7201 182.829 22.5508C182.829 22.3783 182.84 22.2611 182.863 22.1992C182.886 22.1341 182.925 22.1016 182.98 22.1016ZM193.82 15.7686L194.021 16.6426C193.369 16.8411 192.772 17.0479 192.229 17.2627C191.688 17.4743 191.167 17.7103 190.666 17.9707V18.0195C191.063 18.319 191.407 18.6071 191.696 18.8838C191.986 19.1605 192.237 19.4453 192.448 19.7383C192.663 20.028 192.855 20.3454 193.024 20.6904C193.2 21.0485 193.378 21.3301 193.557 21.5352C193.736 21.7402 193.941 21.8867 194.172 21.9746C194.406 22.0592 194.691 22.1016 195.026 22.1016V23C194.649 23 194.312 22.9479 194.016 22.8438C193.719 22.7396 193.459 22.5768 193.234 22.3555C193.01 22.1309 192.814 21.8444 192.648 21.4961C192.6 21.9941 192.36 22.3701 191.931 22.624C191.501 22.8747 190.897 23 190.119 23H189.475C189.423 23 189.385 22.9642 189.362 22.8926C189.336 22.821 189.323 22.7054 189.323 22.5459C189.323 22.3864 189.336 22.2725 189.362 22.2041C189.385 22.1357 189.423 22.1016 189.475 22.1016H190.104C190.746 22.1016 191.231 22.0169 191.56 21.8477C191.892 21.6751 192.058 21.4212 192.058 21.0859C192.058 20.7214 191.857 20.3161 191.457 19.8701C191.057 19.4209 190.461 18.9196 189.67 18.3662V17.5361C190.998 16.7614 192.382 16.1722 193.82 15.7686ZM197.131 19.04C197.219 19.4014 197.29 19.7448 197.346 20.0703C197.401 20.3958 197.429 20.6986 197.429 20.9785C197.429 21.3887 197.355 21.7451 197.209 22.0479C197.066 22.3506 196.836 22.585 196.521 22.751C196.205 22.917 195.79 23 195.275 23H195.031C194.976 23 194.937 22.9674 194.914 22.9023C194.891 22.8372 194.88 22.7201 194.88 22.5508C194.88 22.3783 194.891 22.2611 194.914 22.1992C194.937 22.1341 194.976 22.1016 195.031 22.1016H195.275C195.738 22.1016 196.066 22.0007 196.262 21.7988C196.457 21.5938 196.555 21.3008 196.555 20.9199C196.555 20.7018 196.529 20.4561 196.477 20.1826C196.428 19.9059 196.364 19.6016 196.286 19.2695L197.131 19.04ZM196.389 17.4336L197.121 16.7012L197.849 17.4336L197.121 18.1611L196.389 17.4336ZM194.685 17.4336L195.417 16.7012L196.145 17.4336L195.417 18.1611L194.685 17.4336Z" fill="#417F56"/>
<path d="M208 25.375H205C202.285 25.375 201.125 24.215 201.125 21.5V18.5C201.125 15.785 202.285 14.625 205 14.625H208C210.715 14.625 211.875 15.785 211.875 18.5V21.5C211.875 24.215 210.715 25.375 208 25.375ZM205 15.375C202.695 15.375 201.875 16.195 201.875 18.5V21.5C201.875 23.805 202.695 24.625 205 24.625H208C210.305 24.625 211.125 23.805 211.125 21.5V18.5C211.125 16.195 210.305 15.375 208 15.375H205Z" fill="#417F56"/>
<path d="M205.79 21.79C205.69 21.79 205.595 21.75 205.525 21.68L204.11 20.265C203.965 20.12 203.965 19.88 204.11 19.735C204.255 19.59 204.495 19.59 204.64 19.735L205.79 20.885L208.36 18.315C208.505 18.17 208.745 18.17 208.89 18.315C209.035 18.46 209.035 18.7 208.89 18.845L206.055 21.68C205.985 21.75 205.89 21.79 205.79 21.79Z" fill="#417F56"/>
<line x1="256.5" y1="20.5" x2="217" y2="20.5" stroke="#417F56" stroke-linecap="round" stroke-dasharray="4 4"/>
<path d="M264.876 18.0537L266.194 21.1348C266.357 21.5059 266.543 21.7598 266.751 21.8965C266.959 22.0332 267.234 22.1016 267.576 22.1016H267.654V23H267.566C267.156 23 266.793 22.9235 266.478 22.7705C266.162 22.6175 265.908 22.3587 265.716 21.9941C265.514 22.3457 265.231 22.6094 264.866 22.7852C264.502 22.9609 264.113 23.0488 263.699 23.0488C263.37 23.0488 263.04 22.9919 262.708 22.8779C262.376 22.7607 262.072 22.5833 261.795 22.3457L262.22 21.6279C262.448 21.807 262.688 21.9388 262.942 22.0234C263.196 22.1048 263.445 22.1455 263.689 22.1455C264.015 22.1455 264.318 22.0771 264.598 21.9404C264.881 21.8037 265.114 21.5986 265.296 21.3252L264.031 18.459L264.876 18.0537ZM269.754 19.04C269.842 19.4014 269.913 19.7448 269.969 20.0703C270.024 20.3958 270.052 20.6986 270.052 20.9785C270.052 21.3887 269.979 21.7451 269.832 22.0479C269.689 22.3506 269.459 22.585 269.144 22.751C268.828 22.917 268.413 23 267.898 23H267.654C267.599 23 267.56 22.9674 267.537 22.9023C267.514 22.8372 267.503 22.7201 267.503 22.5508C267.503 22.3783 267.514 22.2611 267.537 22.1992C267.56 22.1341 267.599 22.1016 267.654 22.1016H267.898C268.361 22.1016 268.689 22.0007 268.885 21.7988C269.08 21.5938 269.178 21.3008 269.178 20.9199C269.178 20.7018 269.152 20.4561 269.1 20.1826C269.051 19.9059 268.987 19.6016 268.909 19.2695L269.754 19.04ZM268.421 24.7432L269.153 24.0107L269.881 24.7432L269.153 25.4707L268.421 24.7432ZM266.717 24.7432L267.449 24.0107L268.177 24.7432L267.449 25.4707L266.717 24.7432ZM272.386 20.0557L273.245 19.7725L273.523 20.7539C273.621 21.1087 273.73 21.3838 273.851 21.5791C273.971 21.7744 274.127 21.9111 274.319 21.9893C274.511 22.0641 274.764 22.1016 275.076 22.1016H275.081V23H275.076C274.764 23 274.485 22.9495 274.241 22.8486C274 22.7477 273.815 22.6045 273.685 22.4189C273.694 22.9756 273.598 23.4606 273.396 23.874C273.198 24.2907 272.882 24.6585 272.449 24.9775C272.02 25.2965 271.461 25.5863 270.774 25.8467L270.394 25.0312C270.986 24.8099 271.463 24.5771 271.824 24.333C272.186 24.0921 272.448 23.8187 272.61 23.5127C272.773 23.2067 272.854 22.8486 272.854 22.4385C272.854 22.1423 272.815 21.7988 272.737 21.4082C272.659 21.0143 272.542 20.5635 272.386 20.0557ZM277.381 18.8203C277.609 18.8203 277.846 18.8675 278.094 18.9619C278.344 19.0563 278.615 19.1702 278.904 19.3037C279.204 19.4372 279.528 19.5739 279.876 19.7139C280.224 19.8506 280.61 19.9596 281.033 20.041V20.8271L279.017 22.1748C278.587 22.458 278.141 22.6663 277.679 22.7998C277.22 22.9333 276.72 23 276.18 23H275.086C275.031 23 274.992 22.9674 274.969 22.9023C274.946 22.834 274.935 22.7168 274.935 22.5508C274.935 22.3815 274.946 22.2643 274.969 22.1992C274.992 22.1341 275.031 22.1016 275.086 22.1016H276.321C276.614 22.1016 276.889 22.0804 277.146 22.0381C277.404 21.9925 277.651 21.9242 277.889 21.833C278.13 21.7386 278.369 21.6165 278.606 21.4668L279.988 20.5781C279.673 20.5163 279.388 20.4349 279.134 20.334C278.883 20.2331 278.652 20.1354 278.44 20.041C278.242 19.9499 278.06 19.8734 277.894 19.8115C277.731 19.7464 277.571 19.7139 277.415 19.7139C277.155 19.7139 276.953 19.8018 276.81 19.9775C276.67 20.1533 276.567 20.3893 276.502 20.6855L276.473 20.8418L275.74 20.7051L275.774 20.5195C275.872 20.0117 276.045 19.6016 276.292 19.2891C276.539 18.9766 276.902 18.8203 277.381 18.8203ZM277.474 16.75L278.206 16.0176L278.934 16.75L278.206 17.4775L277.474 16.75ZM286.976 18.0537L288.294 21.1348C288.457 21.5059 288.642 21.7598 288.851 21.8965C289.059 22.0332 289.334 22.1016 289.676 22.1016H289.754V23H289.666C289.256 23 288.893 22.9235 288.577 22.7705C288.261 22.6175 288.007 22.3587 287.815 21.9941C287.614 22.3457 287.33 22.6094 286.966 22.7852C286.601 22.9609 286.212 23.0488 285.799 23.0488C285.47 23.0488 285.14 22.9919 284.808 22.8779C284.476 22.7607 284.171 22.5833 283.895 22.3457L284.319 21.6279C284.547 21.807 284.788 21.9388 285.042 22.0234C285.296 22.1048 285.545 22.1455 285.789 22.1455C286.115 22.1455 286.417 22.0771 286.697 21.9404C286.98 21.8037 287.213 21.5986 287.396 21.3252L286.131 18.459L286.976 18.0537ZM292.259 20.627C292.259 20.9557 292.29 21.2308 292.352 21.4521C292.413 21.6702 292.534 21.833 292.713 21.9404C292.895 22.0479 293.164 22.1016 293.519 22.1016H293.855V23H293.504C293.09 23 292.728 22.9089 292.415 22.7266C292.103 22.5443 291.899 22.2855 291.805 21.9502C291.74 22.1748 291.618 22.3652 291.438 22.5215C291.259 22.6777 291.045 22.7965 290.794 22.8779C290.543 22.9593 290.276 23 289.993 23H289.754C289.699 23 289.66 22.9674 289.637 22.9023C289.614 22.8372 289.603 22.7201 289.603 22.5508C289.603 22.3783 289.614 22.2611 289.637 22.1992C289.66 22.1341 289.699 22.1016 289.754 22.1016H289.993C290.377 22.1016 290.667 22.0479 290.862 21.9404C291.058 21.8298 291.189 21.6654 291.258 21.4473C291.326 21.2292 291.36 20.9557 291.36 20.627V19.8994H292.259V20.627ZM289.725 24.7432L290.457 24.0107L291.185 24.7432L290.457 25.4707L289.725 24.7432ZM297.244 22.1016C297.521 22.1048 297.732 22.0251 297.879 21.8623C298.029 21.6963 298.12 21.4294 298.152 21.0615L298.23 20.0996L299.036 20.1631L298.973 21.0322C298.943 21.4001 299.004 21.6702 299.153 21.8428C299.303 22.0153 299.528 22.1016 299.827 22.1016C300.364 22.1016 300.633 21.7777 300.633 21.1299C300.633 21.0225 300.626 20.889 300.613 20.7295C300.6 20.57 300.582 20.404 300.56 20.2314C300.537 20.0557 300.511 19.8913 300.481 19.7383L301.351 19.5283C301.383 19.6813 301.412 19.8522 301.438 20.041C301.465 20.2298 301.484 20.4186 301.497 20.6074C301.513 20.7962 301.521 20.9671 301.521 21.1201C301.521 21.7451 301.391 22.2155 301.131 22.5312C300.87 22.8438 300.48 23 299.959 23C299.588 23 299.284 22.9219 299.046 22.7656C298.812 22.6061 298.654 22.3799 298.572 22.0869C298.38 22.6956 297.929 23 297.22 23C296.842 23 296.539 22.9137 296.312 22.7412C296.084 22.5654 295.934 22.3115 295.862 21.9795C295.752 22.2855 295.535 22.5329 295.213 22.7217C294.894 22.9072 294.523 23 294.1 23H293.855C293.803 23 293.766 22.9642 293.743 22.8926C293.717 22.8177 293.704 22.7005 293.704 22.541C293.704 22.3848 293.717 22.2725 293.743 22.2041C293.766 22.1357 293.803 22.1016 293.855 22.1016H294.1C294.555 22.1016 294.896 21.9925 295.12 21.7744C295.345 21.5563 295.481 21.1934 295.53 20.6855L295.608 19.8604L296.512 19.9336L296.414 20.9443C296.378 21.3154 296.43 21.6003 296.57 21.7988C296.71 21.9941 296.935 22.0951 297.244 22.1016Z" fill="#417F56"/>
<path d="M313.095 22.875H307.77C307.275 22.875 306.8 22.665 306.465 22.3C306.13 21.935 305.96 21.445 306 20.95L306.415 15.97C306.43 15.815 306.375 15.665 306.27 15.55C306.165 15.435 306.02 15.375 305.865 15.375H305C304.795 15.375 304.625 15.205 304.625 15C304.625 14.795 304.795 14.625 305 14.625H305.87C306.235 14.625 306.58 14.78 306.825 15.045C306.96 15.195 307.06 15.37 307.115 15.565H313.36C313.865 15.565 314.33 15.765 314.67 16.125C315.005 16.49 315.175 16.965 315.135 17.47L314.865 21.22C314.81 22.135 314.01 22.875 313.095 22.875ZM307.14 16.31L306.75 21.01C306.725 21.3 306.82 21.575 307.015 21.79C307.21 22.005 307.48 22.12 307.77 22.12H313.095C313.615 22.12 314.085 21.68 314.125 21.16L314.395 17.41C314.415 17.115 314.32 16.835 314.125 16.63C313.93 16.42 313.66 16.305 313.365 16.305H307.14V16.31Z" fill="#417F56"/>
<path d="M312.125 25.375C311.575 25.375 311.125 24.925 311.125 24.375C311.125 23.825 311.575 23.375 312.125 23.375C312.675 23.375 313.125 23.825 313.125 24.375C313.125 24.925 312.675 25.375 312.125 25.375ZM312.125 24.125C311.985 24.125 311.875 24.235 311.875 24.375C311.875 24.515 311.985 24.625 312.125 24.625C312.265 24.625 312.375 24.515 312.375 24.375C312.375 24.235 312.265 24.125 312.125 24.125Z" fill="#417F56"/>
<path d="M308.125 25.375C307.575 25.375 307.125 24.925 307.125 24.375C307.125 23.825 307.575 23.375 308.125 23.375C308.675 23.375 309.125 23.825 309.125 24.375C309.125 24.925 308.675 25.375 308.125 25.375ZM308.125 24.125C307.985 24.125 307.875 24.235 307.875 24.375C307.875 24.515 307.985 24.625 308.125 24.625C308.265 24.625 308.375 24.515 308.375 24.375C308.375 24.235 308.265 24.125 308.125 24.125Z" fill="#417F56"/>
<path d="M314.5 18.375H308.5C308.295 18.375 308.125 18.205 308.125 18C308.125 17.795 308.295 17.625 308.5 17.625H314.5C314.705 17.625 314.875 17.795 314.875 18C314.875 18.205 314.705 18.375 314.5 18.375Z" fill="#417F56"/>
</svg>
