<svg width="320" height="40" viewBox="0 0 320 40" fill="none" xmlns="http://www.w3.org/2000/svg">
<path d="M12.3887 19.7871C12.3496 20.0085 12.3154 20.2168 12.2861 20.4121C12.2601 20.6042 12.2471 20.7962 12.2471 20.9883C12.2471 21.1999 12.2796 21.3903 12.3447 21.5596C12.4131 21.7256 12.5384 21.8574 12.7207 21.9551C12.9062 22.0527 13.1748 22.1016 13.5264 22.1016H13.5312V23H13.5264C12.9665 23 12.5238 22.891 12.1982 22.6729C11.876 22.4515 11.6514 22.126 11.5244 21.6963C11.1826 22.1781 10.696 22.5166 10.0645 22.7119C9.4362 22.904 8.69401 23 7.83789 23C7.03385 23 6.38444 22.904 5.88965 22.7119C5.39811 22.5199 5.04004 22.2464 4.81543 21.8916C4.59082 21.5335 4.47852 21.1071 4.47852 20.6123C4.47852 20.3682 4.50293 20.1094 4.55176 19.8359C4.60384 19.5625 4.67546 19.2858 4.7666 19.0059L5.56738 19.2402C5.48926 19.4811 5.42904 19.7106 5.38672 19.9287C5.3444 20.1436 5.32324 20.3438 5.32324 20.5293C5.32324 20.8874 5.41113 21.1836 5.58691 21.418C5.76595 21.6491 6.05078 21.8216 6.44141 21.9355C6.83203 22.0462 7.34473 22.1016 7.97949 22.1016C8.60775 22.1016 9.13509 22.0544 9.56152 21.96C9.99121 21.8623 10.3411 21.7142 10.6113 21.5156C10.8815 21.3138 11.0898 21.0599 11.2363 20.7539C11.3861 20.4447 11.4951 20.0785 11.5635 19.6553L12.3887 19.7871ZM8.55566 19.0449L9.28809 18.3125L10.0156 19.0449L9.28809 19.7725L8.55566 19.0449ZM6.85156 19.0449L7.58398 18.3125L8.31152 19.0449L7.58398 19.7725L6.85156 19.0449ZM15.8262 18.8203C16.054 18.8203 16.2917 18.8675 16.5391 18.9619C16.7897 19.0563 17.0599 19.1702 17.3496 19.3037C17.6491 19.4372 17.973 19.5739 18.3213 19.7139C18.6696 19.8506 19.0553 19.9596 19.4785 20.041V20.8271L17.4619 22.1748C17.0322 22.458 16.5863 22.6663 16.124 22.7998C15.665 22.9333 15.1654 23 14.625 23H13.5312C13.4759 23 13.4368 22.9674 13.4141 22.9023C13.3913 22.834 13.3799 22.7168 13.3799 22.5508C13.3799 22.3815 13.3913 22.2643 13.4141 22.1992C13.4368 22.1341 13.4759 22.1016 13.5312 22.1016H14.7666C15.0596 22.1016 15.3346 22.0804 15.5918 22.0381C15.849 21.9925 16.0964 21.9242 16.334 21.833C16.5749 21.7386 16.8141 21.6165 17.0518 21.4668L18.4336 20.5781C18.1178 20.5163 17.833 20.4349 17.5791 20.334C17.3285 20.2331 17.0973 20.1354 16.8857 20.041C16.6872 19.9499 16.5049 19.8734 16.3389 19.8115C16.1761 19.7464 16.0166 19.7139 15.8604 19.7139C15.5999 19.7139 15.3981 19.8018 15.2549 19.9775C15.1149 20.1533 15.0124 20.3893 14.9473 20.6855L14.918 20.8418L14.1855 20.7051L14.2197 20.5195C14.3174 20.0117 14.4899 19.6016 14.7373 19.2891C14.9847 18.9766 15.3477 18.8203 15.8262 18.8203ZM15.9189 16.75L16.6514 16.0176L17.3789 16.75L16.6514 17.4775L15.9189 16.75ZM21.6855 23H20.7871V16.2812H21.6855V23ZM27.0029 21.1592C27.0029 21.5075 26.9281 21.8021 26.7783 22.043C26.6318 22.2839 26.4333 22.4775 26.1826 22.624C25.9352 22.7705 25.6585 22.8763 25.3525 22.9414C25.0498 23.0065 24.7422 23.0391 24.4297 23.0391C24.1758 23.0391 23.9219 23.0228 23.668 22.9902C23.4173 22.9544 23.1764 22.904 22.9453 22.8389L23.1504 21.9844C23.3327 22.0332 23.5329 22.0723 23.751 22.1016C23.9691 22.1309 24.1888 22.1455 24.4102 22.1455C24.7389 22.1455 25.0319 22.1097 25.2891 22.0381C25.5462 21.9665 25.748 21.8542 25.8945 21.7012C26.0443 21.5482 26.1191 21.3496 26.1191 21.1055C26.1191 20.793 25.9808 20.4333 25.7041 20.0264C25.4274 19.6162 25.014 19.167 24.4639 18.6787L25.0498 17.9854C25.4469 18.3369 25.792 18.6868 26.085 19.0352C26.3779 19.3835 26.6042 19.7334 26.7637 20.085C26.9232 20.4365 27.0029 20.7946 27.0029 21.1592ZM28.8584 20.0557L29.7178 19.7725L29.9961 20.7539C30.0938 21.1087 30.2028 21.3838 30.3232 21.5791C30.4437 21.7744 30.5999 21.9111 30.792 21.9893C30.984 22.0641 31.2363 22.1016 31.5488 22.1016H31.5537V23H31.5488C31.2363 23 30.958 22.9495 30.7139 22.8486C30.473 22.7477 30.2874 22.6045 30.1572 22.4189C30.167 22.9756 30.071 23.4606 29.8691 23.874C29.6706 24.2907 29.3548 24.6585 28.9219 24.9775C28.4922 25.2965 27.9339 25.5863 27.2471 25.8467L26.8662 25.0312C27.4587 24.8099 27.9355 24.5771 28.2969 24.333C28.6582 24.0921 28.9202 23.8187 29.083 23.5127C29.2458 23.2067 29.3271 22.8486 29.3271 22.4385C29.3271 22.1423 29.2881 21.7988 29.21 21.4082C29.1318 21.0143 29.0146 20.5635 28.8584 20.0557ZM31.0166 24.7383L31.749 24.0059L32.4766 24.7383L31.749 25.4658L31.0166 24.7383ZM32.7207 24.7383L33.4531 24.0059L34.1807 24.7383L33.4531 25.4658L32.7207 24.7383ZM31.876 26.2568L32.6084 25.5244L33.3359 26.2568L32.6084 26.9844L31.876 26.2568ZM34.0098 19.04C34.0977 19.4014 34.1693 19.7448 34.2246 20.0703C34.2799 20.3958 34.3076 20.6986 34.3076 20.9785C34.3076 21.3887 34.2311 21.7451 34.0781 22.0479C33.9284 22.3506 33.6777 22.585 33.3262 22.751C32.9779 22.917 32.5059 23 31.9102 23H31.5586C31.5033 23 31.4642 22.9674 31.4414 22.9023C31.4186 22.8372 31.4072 22.7201 31.4072 22.5508C31.4072 22.3783 31.4186 22.2611 31.4414 22.1992C31.4642 22.1341 31.5033 22.1016 31.5586 22.1016H31.9102C32.3008 22.1016 32.6068 22.056 32.8281 21.9648C33.0495 21.8737 33.2057 21.7402 33.2969 21.5645C33.388 21.3887 33.4336 21.1738 33.4336 20.9199C33.4336 20.7018 33.4076 20.4561 33.3555 20.1826C33.3066 19.9059 33.2432 19.6016 33.165 19.2695L34.0098 19.04ZM44.4395 23C44.1921 23 43.9902 22.9528 43.834 22.8584C43.681 22.764 43.5557 22.6354 43.458 22.4727C43.484 23.1562 43.3815 23.721 43.1504 24.167C42.9225 24.6162 42.5758 24.9499 42.1104 25.168C41.6481 25.3893 41.0752 25.5 40.3916 25.5C39.2946 25.5 38.4906 25.2526 37.9795 24.7578C37.4684 24.2663 37.2129 23.5485 37.2129 22.6045C37.2129 22.3408 37.2308 22.0625 37.2666 21.7695C37.3024 21.4766 37.3512 21.1852 37.4131 20.8955C37.4782 20.6025 37.5498 20.3307 37.6279 20.0801L38.4434 20.3193C38.3555 20.6318 38.2741 20.9834 38.1992 21.374C38.1276 21.7646 38.0918 22.1374 38.0918 22.4922C38.0918 22.9805 38.1715 23.3792 38.3311 23.6885C38.4938 24.001 38.7428 24.2305 39.0781 24.377C39.4167 24.5267 39.8496 24.6016 40.377 24.6016C40.9336 24.6016 41.3763 24.5267 41.7051 24.377C42.0339 24.2272 42.2699 24.0091 42.4131 23.7227C42.5596 23.4362 42.6328 23.0895 42.6328 22.6826C42.6328 22.4515 42.61 22.1992 42.5645 21.9258C42.5221 21.6523 42.4652 21.3708 42.3936 21.0811C42.3219 20.7913 42.2438 20.5081 42.1592 20.2314L43.043 19.9043L43.3164 20.9199C43.4043 21.3008 43.5247 21.5938 43.6777 21.7988C43.834 22.0007 44.0749 22.1016 44.4004 22.1016C44.6706 22.1016 44.8773 22.0186 45.0205 21.8525C45.1637 21.6865 45.2516 21.4229 45.2842 21.0615L45.3623 20.0996L46.168 20.1631L46.1045 21.0322C46.0752 21.4001 46.1354 21.6702 46.2852 21.8428C46.4349 22.0153 46.6595 22.1016 46.959 22.1016C47.4961 22.1016 47.7646 21.7793 47.7646 21.1348C47.7646 20.985 47.75 20.7897 47.7207 20.5488C47.6947 20.3079 47.6572 20.0638 47.6084 19.8164L48.4873 19.6064C48.5361 19.8473 48.5752 20.1061 48.6045 20.3828C48.637 20.6595 48.6533 20.9085 48.6533 21.1299C48.6533 21.7549 48.5215 22.2236 48.2578 22.5361C47.9974 22.8454 47.6068 23 47.0859 23C46.7148 23 46.4121 22.9219 46.1777 22.7656C45.9434 22.6061 45.7855 22.3799 45.7041 22.0869C45.626 22.3831 45.4714 22.6094 45.2402 22.7656C45.0124 22.9219 44.7454 23 44.4395 23ZM44.0488 18.2344L44.7812 17.502L45.5088 18.2344L44.7812 18.9619L44.0488 18.2344ZM45.7529 18.2344L46.4854 17.502L47.2129 18.2344L46.4854 18.9619L45.7529 18.2344ZM44.9033 16.7158L45.6357 15.9834L46.3633 16.7158L45.6357 17.4434L44.9033 16.7158ZM52.4668 22.9219C52.3138 22.9512 52.151 22.9772 51.9785 23C51.806 23.026 51.6221 23.0391 51.4268 23.0391C50.9157 23.0391 50.5104 22.9121 50.2109 22.6582C49.9115 22.4043 49.7617 22.012 49.7617 21.4814C49.7617 21.208 49.7959 20.9329 49.8643 20.6562C49.9359 20.3796 50.0433 20.1273 50.1865 19.8994C50.3298 19.6715 50.5104 19.4893 50.7285 19.3525C50.9466 19.2126 51.2038 19.1426 51.5 19.1426C51.8776 19.1426 52.1901 19.2435 52.4375 19.4453C52.6849 19.6471 52.8802 19.9141 53.0234 20.2461C53.1667 20.5781 53.2676 20.9476 53.3262 21.3545C53.3848 21.7581 53.4141 22.1618 53.4141 22.5654C53.4141 23.3662 53.1146 24.0303 52.5156 24.5576C51.9167 25.085 51.0573 25.5081 49.9375 25.8271L49.5762 25.002C50.4388 24.7708 51.1175 24.4811 51.6123 24.1328C52.1071 23.7845 52.3919 23.3809 52.4668 22.9219ZM52.5645 22.0088C52.5482 21.7712 52.5173 21.5352 52.4717 21.3008C52.4261 21.0664 52.361 20.8516 52.2764 20.6562C52.195 20.4609 52.0892 20.3047 51.959 20.1875C51.832 20.0703 51.6742 20.0117 51.4854 20.0117C51.2738 20.0117 51.0996 20.0817 50.9629 20.2217C50.8294 20.3584 50.7301 20.5342 50.665 20.749C50.5999 20.9639 50.5674 21.1852 50.5674 21.4131C50.5674 21.6865 50.6488 21.8753 50.8115 21.9795C50.9775 22.0837 51.2152 22.1357 51.5244 22.1357C51.723 22.1357 51.9102 22.1227 52.0859 22.0967C52.265 22.0706 52.4245 22.0413 52.5645 22.0088ZM55.7529 20.0557L56.6123 19.7725C56.7816 20.3421 56.9085 20.8402 56.9932 21.2666C57.0778 21.693 57.1201 22.0853 57.1201 22.4434C57.1201 22.9707 57.0176 23.4411 56.8125 23.8545C56.6107 24.2679 56.2917 24.6374 55.8555 24.9629C55.4193 25.2884 54.848 25.583 54.1416 25.8467L53.7607 25.0312C54.3564 24.8099 54.8333 24.5771 55.1914 24.333C55.5527 24.0921 55.8148 23.8187 55.9775 23.5127C56.1403 23.21 56.2217 22.8568 56.2217 22.4531C56.2217 22.1536 56.1826 21.8086 56.1045 21.418C56.0296 21.0241 55.9124 20.57 55.7529 20.0557Z" fill="#CBCBCB"/>
<path d="M66.5 18.875H63.5C63.295 18.875 63.125 18.705 63.125 18.5C63.125 18.295 63.295 18.125 63.5 18.125H66.5C66.705 18.125 66.875 18.295 66.875 18.5C66.875 18.705 66.705 18.875 66.5 18.875Z" fill="#CBCBCB"/>
<path d="M69.5199 21.4001C68.7649 21.4001 68.125 20.8401 68.065 20.1201C68.025 19.7051 68.175 19.3001 68.475 19.0051C68.725 18.7451 69.0799 18.6001 69.4549 18.6001H70.5C70.995 18.6151 71.375 19.0051 71.375 19.4851V20.5151C71.375 20.9951 70.995 21.3851 70.515 21.4001H69.5199ZM70.4849 19.3501H69.4599C69.2849 19.3501 69.125 19.4151 69.01 19.5351C68.865 19.6751 68.795 19.8651 68.815 20.0551C68.84 20.3851 69.1599 20.6501 69.5199 20.6501H70.5C70.565 20.6501 70.625 20.5901 70.625 20.5151V19.4851C70.625 19.4101 70.5649 19.3551 70.4849 19.3501Z" fill="#CBCBCB"/>
<path d="M68 24.625H63.5C61.78 24.625 60.625 23.47 60.625 21.75V18.25C60.625 16.71 61.575 15.595 63.05 15.41C63.185 15.39 63.34 15.375 63.5 15.375H68C68.12 15.375 68.275 15.38 68.435 15.405C69.91 15.575 70.875 16.695 70.875 18.25V18.975C70.875 19.18 70.705 19.35 70.5 19.35H69.46C69.285 19.35 69.125 19.415 69.01 19.535L69.005 19.54C68.865 19.675 68.8 19.86 68.815 20.05C68.84 20.38 69.16 20.645 69.52 20.645H70.5C70.705 20.645 70.875 20.815 70.875 21.02V21.745C70.875 23.47 69.72 24.625 68 24.625ZM63.5 16.125C63.38 16.125 63.265 16.135 63.15 16.15C62.05 16.29 61.375 17.09 61.375 18.25V21.75C61.375 23.04 62.21 23.875 63.5 23.875H68C69.29 23.875 70.125 23.04 70.125 21.75V21.4H69.52C68.765 21.4 68.125 20.84 68.065 20.12C68.025 19.71 68.175 19.3 68.475 19.01C68.735 18.745 69.085 18.6 69.46 18.6H70.125V18.25C70.125 17.08 69.44 16.275 68.33 16.145C68.21 16.125 68.105 16.125 68 16.125H63.5Z" fill="#CBCBCB"/>
<line x1="115.5" y1="20.5" x2="76.5" y2="20.5" stroke="#CBCBCB" stroke-linecap="round" stroke-dasharray="4 4"/>
<path d="M129.539 19.3652C129.637 19.7012 129.711 20.0234 129.762 20.332C129.812 20.6406 129.838 20.9355 129.838 21.2168C129.838 21.9043 129.684 22.4512 129.375 22.8574C129.066 23.2637 128.572 23.5566 127.893 23.7363C127.213 23.9121 126.316 24 125.203 24C124.09 24 123.193 23.9121 122.514 23.7363C121.838 23.5566 121.346 23.2637 121.037 22.8574C120.729 22.4512 120.574 21.9043 120.574 21.2168C120.574 20.9355 120.6 20.6406 120.65 20.332C120.705 20.0234 120.777 19.7012 120.867 19.3652L121.846 19.5938C121.771 19.8867 121.713 20.1602 121.67 20.4141C121.631 20.668 121.611 20.9062 121.611 21.1289C121.611 21.5859 121.719 21.9453 121.934 22.207C122.152 22.4688 122.523 22.6543 123.047 22.7637C123.57 22.8691 124.289 22.9219 125.203 22.9219C126.117 22.9219 126.836 22.8691 127.359 22.7637C127.883 22.6543 128.254 22.4688 128.473 22.207C128.691 21.9453 128.801 21.5859 128.801 21.1289C128.801 20.9062 128.781 20.668 128.742 20.4141C128.703 20.1602 128.645 19.8867 128.566 19.5938L129.539 19.3652ZM125.344 18.9785L126.223 18.0996L127.096 18.9785L126.223 19.8516L125.344 18.9785ZM123.299 18.9785L124.178 18.0996L125.051 18.9785L124.178 19.8516L123.299 18.9785ZM131.332 15.9375H132.416V21.416C132.416 21.9512 132.525 22.3359 132.744 22.5703C132.967 22.8047 133.385 22.9219 133.998 22.9219V24C133.131 24 132.469 23.7871 132.012 23.3613C131.559 22.9316 131.332 22.2891 131.332 21.4336V15.9375ZM135.803 21.1992C135.803 21.4688 135.867 21.7051 135.996 21.9082C136.125 22.1074 136.293 22.2617 136.5 22.3711C136.711 22.4766 136.938 22.5293 137.18 22.5293C137.254 22.5293 137.359 22.5215 137.496 22.5059C137.637 22.4863 137.777 22.4629 137.918 22.4355L139.77 22.084L139.963 23.1445L136.863 23.7363C136.418 23.8184 135.973 23.8828 135.527 23.9297C135.086 23.9766 134.668 24 134.273 24H134.004C133.938 24 133.891 23.957 133.863 23.8711C133.836 23.7812 133.822 23.6445 133.822 23.4609C133.822 23.2773 133.836 23.1426 133.863 23.0566C133.891 22.9668 133.938 22.9219 134.004 22.9219H134.232C134.447 22.9219 134.664 22.9141 134.883 22.8984C135.102 22.8789 135.348 22.8496 135.621 22.8105C135.363 22.6543 135.148 22.4434 134.977 22.1777C134.809 21.9082 134.725 21.5859 134.725 21.2109C134.725 20.6641 134.846 20.1875 135.088 19.7812C135.334 19.3711 135.658 19.0527 136.061 18.8262C136.467 18.5957 136.904 18.4805 137.373 18.4805C137.822 18.4805 138.207 18.5605 138.527 18.7207C138.852 18.877 139.162 19.1113 139.459 19.4238L138.855 20.1973C138.652 19.9941 138.43 19.8379 138.188 19.7285C137.949 19.6152 137.686 19.5586 137.396 19.5586C137.123 19.5586 136.863 19.623 136.617 19.752C136.375 19.877 136.178 20.0625 136.025 20.3086C135.877 20.5547 135.803 20.8516 135.803 21.1992ZM141.668 16.1953L142.67 15.8086C143.061 16.7305 143.359 17.6582 143.566 18.5918C143.777 19.5215 143.9 20.4824 143.936 21.4746L142.887 21.5918C142.867 20.9668 142.807 20.3535 142.705 19.752C142.607 19.1465 142.473 18.5488 142.301 17.959C142.129 17.3691 141.918 16.7812 141.668 16.1953ZM146.479 15.9375H147.562V21.416C147.562 21.9746 147.678 22.3652 147.908 22.5879C148.143 22.8105 148.553 22.9219 149.139 22.9219H149.145V24H149.139C148.389 24 147.812 23.8359 147.41 23.5078C147.012 23.1797 146.779 22.6816 146.713 22.0137V21.7441C146.365 22.2559 145.941 22.6797 145.441 23.0156C144.945 23.3477 144.357 23.5957 143.678 23.7598C143.002 23.9199 142.221 24 141.334 24V22.9219C142.295 22.9219 143.107 22.8379 143.771 22.6699C144.436 22.502 144.984 22.2344 145.418 21.8672C145.855 21.4961 146.209 21.0117 146.479 20.4141V15.9375ZM149.162 24C149.096 24 149.049 23.9609 149.021 23.8828C148.994 23.8047 148.98 23.6641 148.98 23.4609C148.98 23.2539 148.994 23.1133 149.021 23.0391C149.049 22.9609 149.096 22.9219 149.162 22.9219H150.023C150.074 22.8398 150.125 22.7617 150.176 22.6875C150.227 22.6133 150.275 22.5391 150.322 22.4648V15.9375H151.395V19.9512C151.395 20.2168 151.387 20.4746 151.371 20.7246C151.359 20.9707 151.334 21.2188 151.295 21.4688C151.791 20.7969 152.299 20.291 152.818 19.9512C153.342 19.6074 153.865 19.4355 154.389 19.4355C154.838 19.4355 155.223 19.5332 155.543 19.7285C155.863 19.9238 156.109 20.1855 156.281 20.5137C156.453 20.8418 156.539 21.209 156.539 21.6152C156.539 21.9316 156.484 22.2324 156.375 22.5176C156.27 22.8027 156.08 23.0566 155.807 23.2793C155.533 23.502 155.154 23.6777 154.67 23.8066C154.186 23.9355 153.566 24 152.812 24H149.162ZM151.283 22.9219H153.018C153.33 22.9219 153.627 22.9043 153.908 22.8691C154.189 22.834 154.439 22.7715 154.658 22.6816C154.881 22.5918 155.055 22.4629 155.18 22.2949C155.305 22.127 155.367 21.9082 155.367 21.6387C155.367 21.3027 155.264 21.0293 155.057 20.8184C154.854 20.6035 154.574 20.4961 154.219 20.4961C153.977 20.4961 153.705 20.5684 153.404 20.7129C153.104 20.8574 152.775 21.1055 152.42 21.457C152.068 21.8047 151.689 22.293 151.283 22.9219ZM159.188 24H158.109V15.9375H159.188V24ZM171.627 22.9219V24H171.51C171.135 24 170.793 23.9297 170.484 23.7891C170.176 23.6445 169.949 23.4355 169.805 23.1621V23.8594C169.801 24.5781 169.66 25.1875 169.383 25.6875C169.109 26.1875 168.713 26.5664 168.193 26.8242C167.678 27.0859 167.051 27.2168 166.312 27.2168C165.613 27.2168 165.025 27.0957 164.549 26.8535C164.076 26.6152 163.717 26.2773 163.471 25.8398C163.225 25.4023 163.102 24.8867 163.102 24.293C163.102 23.8984 163.146 23.4785 163.236 23.0332C163.33 22.584 163.469 22.1289 163.652 21.668L164.607 22.0195C164.463 22.4062 164.352 22.7871 164.273 23.1621C164.195 23.5332 164.156 23.8691 164.156 24.1699C164.156 24.7949 164.342 25.2793 164.713 25.623C165.088 25.9668 165.652 26.1387 166.406 26.1387C167.211 26.1387 167.803 25.9336 168.182 25.5234C168.561 25.1172 168.75 24.4941 168.75 23.6543V15.9375H169.828V21.1934C169.828 21.5645 169.877 21.8789 169.975 22.1367C170.072 22.3945 170.242 22.5898 170.484 22.7227C170.73 22.8555 171.072 22.9219 171.51 22.9219H171.627ZM172.84 26.0918L173.719 25.2129L174.592 26.0918L173.719 26.9648L172.84 26.0918ZM170.795 26.0918L171.674 25.2129L172.547 26.0918L171.674 26.9648L170.795 26.0918ZM175.061 20.2793V21.1523C175.061 21.5547 175.104 21.8867 175.189 22.1484C175.275 22.4102 175.453 22.6055 175.723 22.7344C175.996 22.8594 176.41 22.9219 176.965 22.9219H176.977V24H176.965C176.328 24 175.789 23.8906 175.348 23.6719C174.906 23.4492 174.629 23.1387 174.516 22.7402C174.398 23.1426 174.123 23.4531 173.689 23.6719C173.256 23.8906 172.711 24 172.055 24H171.633C171.566 24 171.52 23.9609 171.492 23.8828C171.465 23.8047 171.451 23.6641 171.451 23.4609C171.451 23.2539 171.465 23.1133 171.492 23.0391C171.52 22.9609 171.566 22.9219 171.633 22.9219H172.055C172.609 22.9219 173.023 22.8574 173.297 22.7285C173.574 22.5996 173.758 22.4043 173.848 22.1426C173.938 21.8809 173.982 21.5508 173.982 21.1523V20.2793H175.061ZM179.42 22.1367C179.666 22.4141 179.922 22.625 180.188 22.7695C180.453 22.9141 180.732 22.9863 181.025 22.9863C181.314 22.9863 181.557 22.8945 181.752 22.7109C181.947 22.5273 182.045 22.2734 182.045 21.9492C182.045 21.6992 181.992 21.4609 181.887 21.2344C181.785 21.0039 181.646 20.8145 181.471 20.666C181.299 20.5176 181.105 20.4434 180.891 20.4434C180.691 20.4434 180.516 20.4961 180.363 20.6016C180.215 20.7031 180.08 20.8516 179.959 21.0469C179.838 21.2383 179.719 21.4707 179.602 21.7441L179.42 22.1367ZM176.977 22.9219C177.312 22.9219 177.592 22.8398 177.814 22.6758C178.037 22.5078 178.227 22.293 178.383 22.0312C178.539 21.7695 178.688 21.4961 178.828 21.2109C178.984 20.8984 179.148 20.6035 179.32 20.3262C179.496 20.0449 179.707 19.8164 179.953 19.6406C180.199 19.4648 180.51 19.377 180.885 19.377C181.275 19.377 181.598 19.4688 181.852 19.6523C182.109 19.832 182.324 20.0625 182.496 20.3438C182.668 20.625 182.822 20.9199 182.959 21.2285C183.092 21.5215 183.232 21.7969 183.381 22.0547C183.529 22.3125 183.713 22.5215 183.932 22.6816C184.15 22.8418 184.428 22.9219 184.764 22.9219H184.77V24H184.764C184.451 24 184.164 23.9414 183.902 23.8242C183.641 23.7031 183.416 23.5332 183.229 23.3145C183.041 23.0957 182.9 22.8379 182.807 22.541C182.744 23.0176 182.547 23.3906 182.215 23.6602C181.887 23.9297 181.488 24.0645 181.02 24.0645C180.602 24.0645 180.207 23.9668 179.836 23.7715C179.469 23.5762 179.148 23.3125 178.875 22.9805C178.664 23.2773 178.408 23.5215 178.107 23.7129C177.811 23.9043 177.434 24 176.977 24C176.91 24 176.863 23.9609 176.836 23.8828C176.809 23.8047 176.795 23.6641 176.795 23.4609C176.795 23.2539 176.809 23.1133 176.836 23.0391C176.863 22.9609 176.91 22.9219 176.977 22.9219ZM189.984 15.3223L190.225 16.3711C189.443 16.6094 188.727 16.8574 188.074 17.1152C187.426 17.3691 186.801 17.6523 186.199 17.9648V18.0234C186.676 18.3828 187.088 18.7285 187.436 19.0605C187.783 19.3926 188.084 19.7344 188.338 20.0859C188.596 20.4336 188.826 20.8145 189.029 21.2285C189.24 21.6582 189.453 21.9961 189.668 22.2422C189.883 22.4883 190.129 22.6641 190.406 22.7695C190.688 22.8711 191.029 22.9219 191.432 22.9219V24C190.979 24 190.574 23.9375 190.219 23.8125C189.863 23.6875 189.551 23.4922 189.281 23.2266C189.012 22.957 188.777 22.6133 188.578 22.1953C188.52 22.793 188.232 23.2441 187.717 23.5488C187.201 23.8496 186.477 24 185.543 24H184.77C184.707 24 184.662 23.957 184.635 23.8711C184.604 23.7852 184.588 23.6465 184.588 23.4551C184.588 23.2637 184.604 23.127 184.635 23.0449C184.662 22.9629 184.707 22.9219 184.77 22.9219H185.525C186.295 22.9219 186.877 22.8203 187.271 22.6172C187.67 22.4102 187.869 22.1055 187.869 21.7031C187.869 21.2656 187.629 20.7793 187.148 20.2441C186.668 19.7051 185.953 19.1035 185.004 18.4395V17.4434C186.598 16.5137 188.258 15.8066 189.984 15.3223ZM193.957 19.248C194.062 19.6816 194.148 20.0938 194.215 20.4844C194.281 20.875 194.314 21.2383 194.314 21.5742C194.314 22.0664 194.227 22.4941 194.051 22.8574C193.879 23.2207 193.604 23.502 193.225 23.7012C192.846 23.9004 192.348 24 191.73 24H191.438C191.371 24 191.324 23.9609 191.297 23.8828C191.27 23.8047 191.256 23.6641 191.256 23.4609C191.256 23.2539 191.27 23.1133 191.297 23.0391C191.324 22.9609 191.371 22.9219 191.438 22.9219H191.73C192.285 22.9219 192.68 22.8008 192.914 22.5586C193.148 22.3125 193.266 21.9609 193.266 21.5039C193.266 21.2422 193.234 20.9473 193.172 20.6191C193.113 20.2871 193.037 19.9219 192.943 19.5234L193.957 19.248ZM193.066 17.3203L193.945 16.4414L194.818 17.3203L193.945 18.1934L193.066 17.3203ZM191.021 17.3203L191.9 16.4414L192.773 17.3203L191.9 18.1934L191.021 17.3203Z" fill="#417F56"/>
<path d="M207 27.1666H203C199.38 27.1666 197.833 25.6199 197.833 21.9999V17.9999C197.833 14.3799 199.38 12.8333 203 12.8333H207C210.62 12.8333 212.167 14.3799 212.167 17.9999V21.9999C212.167 25.6199 210.62 27.1666 207 27.1666ZM203 13.8333C199.927 13.8333 198.833 14.9266 198.833 17.9999V21.9999C198.833 25.0733 199.927 26.1666 203 26.1666H207C210.073 26.1666 211.167 25.0733 211.167 21.9999V17.9999C211.167 14.9266 210.073 13.8333 207 13.8333H203Z" fill="#417F56"/>
<path d="M204.053 22.3867C203.92 22.3867 203.793 22.3334 203.7 22.2401L201.813 20.3534C201.62 20.1601 201.62 19.8401 201.813 19.6467C202.007 19.4534 202.327 19.4534 202.52 19.6467L204.053 21.1801L207.48 17.7534C207.673 17.5601 207.993 17.5601 208.187 17.7534C208.38 17.9467 208.38 18.2667 208.187 18.4601L204.407 22.2401C204.313 22.3334 204.187 22.3867 204.053 22.3867Z" fill="#417F56"/>
<line x1="256.5" y1="20.5" x2="217.5" y2="20.5" stroke="#417F56" stroke-linecap="round" stroke-dasharray="4 4"/>
<path d="M264.876 18.0537L266.194 21.1348C266.357 21.5059 266.543 21.7598 266.751 21.8965C266.959 22.0332 267.234 22.1016 267.576 22.1016H267.654V23H267.566C267.156 23 266.793 22.9235 266.478 22.7705C266.162 22.6175 265.908 22.3587 265.716 21.9941C265.514 22.3457 265.231 22.6094 264.866 22.7852C264.502 22.9609 264.113 23.0488 263.699 23.0488C263.37 23.0488 263.04 22.9919 262.708 22.8779C262.376 22.7607 262.072 22.5833 261.795 22.3457L262.22 21.6279C262.448 21.807 262.688 21.9388 262.942 22.0234C263.196 22.1048 263.445 22.1455 263.689 22.1455C264.015 22.1455 264.318 22.0771 264.598 21.9404C264.881 21.8037 265.114 21.5986 265.296 21.3252L264.031 18.459L264.876 18.0537ZM269.754 19.04C269.842 19.4014 269.913 19.7448 269.969 20.0703C270.024 20.3958 270.052 20.6986 270.052 20.9785C270.052 21.3887 269.979 21.7451 269.832 22.0479C269.689 22.3506 269.459 22.585 269.144 22.751C268.828 22.917 268.413 23 267.898 23H267.654C267.599 23 267.56 22.9674 267.537 22.9023C267.514 22.8372 267.503 22.7201 267.503 22.5508C267.503 22.3783 267.514 22.2611 267.537 22.1992C267.56 22.1341 267.599 22.1016 267.654 22.1016H267.898C268.361 22.1016 268.689 22.0007 268.885 21.7988C269.08 21.5938 269.178 21.3008 269.178 20.9199C269.178 20.7018 269.152 20.4561 269.1 20.1826C269.051 19.9059 268.987 19.6016 268.909 19.2695L269.754 19.04ZM268.421 24.7432L269.153 24.0107L269.881 24.7432L269.153 25.4707L268.421 24.7432ZM266.717 24.7432L267.449 24.0107L268.177 24.7432L267.449 25.4707L266.717 24.7432ZM272.386 20.0557L273.245 19.7725L273.523 20.7539C273.621 21.1087 273.73 21.3838 273.851 21.5791C273.971 21.7744 274.127 21.9111 274.319 21.9893C274.511 22.0641 274.764 22.1016 275.076 22.1016H275.081V23H275.076C274.764 23 274.485 22.9495 274.241 22.8486C274 22.7477 273.815 22.6045 273.685 22.4189C273.694 22.9756 273.598 23.4606 273.396 23.874C273.198 24.2907 272.882 24.6585 272.449 24.9775C272.02 25.2965 271.461 25.5863 270.774 25.8467L270.394 25.0312C270.986 24.8099 271.463 24.5771 271.824 24.333C272.186 24.0921 272.448 23.8187 272.61 23.5127C272.773 23.2067 272.854 22.8486 272.854 22.4385C272.854 22.1423 272.815 21.7988 272.737 21.4082C272.659 21.0143 272.542 20.5635 272.386 20.0557ZM277.381 18.8203C277.609 18.8203 277.846 18.8675 278.094 18.9619C278.344 19.0563 278.615 19.1702 278.904 19.3037C279.204 19.4372 279.528 19.5739 279.876 19.7139C280.224 19.8506 280.61 19.9596 281.033 20.041V20.8271L279.017 22.1748C278.587 22.458 278.141 22.6663 277.679 22.7998C277.22 22.9333 276.72 23 276.18 23H275.086C275.031 23 274.992 22.9674 274.969 22.9023C274.946 22.834 274.935 22.7168 274.935 22.5508C274.935 22.3815 274.946 22.2643 274.969 22.1992C274.992 22.1341 275.031 22.1016 275.086 22.1016H276.321C276.614 22.1016 276.889 22.0804 277.146 22.0381C277.404 21.9925 277.651 21.9242 277.889 21.833C278.13 21.7386 278.369 21.6165 278.606 21.4668L279.988 20.5781C279.673 20.5163 279.388 20.4349 279.134 20.334C278.883 20.2331 278.652 20.1354 278.44 20.041C278.242 19.9499 278.06 19.8734 277.894 19.8115C277.731 19.7464 277.571 19.7139 277.415 19.7139C277.155 19.7139 276.953 19.8018 276.81 19.9775C276.67 20.1533 276.567 20.3893 276.502 20.6855L276.473 20.8418L275.74 20.7051L275.774 20.5195C275.872 20.0117 276.045 19.6016 276.292 19.2891C276.539 18.9766 276.902 18.8203 277.381 18.8203ZM277.474 16.75L278.206 16.0176L278.934 16.75L278.206 17.4775L277.474 16.75ZM286.976 18.0537L288.294 21.1348C288.457 21.5059 288.642 21.7598 288.851 21.8965C289.059 22.0332 289.334 22.1016 289.676 22.1016H289.754V23H289.666C289.256 23 288.893 22.9235 288.577 22.7705C288.261 22.6175 288.007 22.3587 287.815 21.9941C287.614 22.3457 287.33 22.6094 286.966 22.7852C286.601 22.9609 286.212 23.0488 285.799 23.0488C285.47 23.0488 285.14 22.9919 284.808 22.8779C284.476 22.7607 284.171 22.5833 283.895 22.3457L284.319 21.6279C284.547 21.807 284.788 21.9388 285.042 22.0234C285.296 22.1048 285.545 22.1455 285.789 22.1455C286.115 22.1455 286.417 22.0771 286.697 21.9404C286.98 21.8037 287.213 21.5986 287.396 21.3252L286.131 18.459L286.976 18.0537ZM292.259 20.627C292.259 20.9557 292.29 21.2308 292.352 21.4521C292.413 21.6702 292.534 21.833 292.713 21.9404C292.895 22.0479 293.164 22.1016 293.519 22.1016H293.855V23H293.504C293.09 23 292.728 22.9089 292.415 22.7266C292.103 22.5443 291.899 22.2855 291.805 21.9502C291.74 22.1748 291.618 22.3652 291.438 22.5215C291.259 22.6777 291.045 22.7965 290.794 22.8779C290.543 22.9593 290.276 23 289.993 23H289.754C289.699 23 289.66 22.9674 289.637 22.9023C289.614 22.8372 289.603 22.7201 289.603 22.5508C289.603 22.3783 289.614 22.2611 289.637 22.1992C289.66 22.1341 289.699 22.1016 289.754 22.1016H289.993C290.377 22.1016 290.667 22.0479 290.862 21.9404C291.058 21.8298 291.189 21.6654 291.258 21.4473C291.326 21.2292 291.36 20.9557 291.36 20.627V19.8994H292.259V20.627ZM289.725 24.7432L290.457 24.0107L291.185 24.7432L290.457 25.4707L289.725 24.7432ZM297.244 22.1016C297.521 22.1048 297.732 22.0251 297.879 21.8623C298.029 21.6963 298.12 21.4294 298.152 21.0615L298.23 20.0996L299.036 20.1631L298.973 21.0322C298.943 21.4001 299.004 21.6702 299.153 21.8428C299.303 22.0153 299.528 22.1016 299.827 22.1016C300.364 22.1016 300.633 21.7777 300.633 21.1299C300.633 21.0225 300.626 20.889 300.613 20.7295C300.6 20.57 300.582 20.404 300.56 20.2314C300.537 20.0557 300.511 19.8913 300.481 19.7383L301.351 19.5283C301.383 19.6813 301.412 19.8522 301.438 20.041C301.465 20.2298 301.484 20.4186 301.497 20.6074C301.513 20.7962 301.521 20.9671 301.521 21.1201C301.521 21.7451 301.391 22.2155 301.131 22.5312C300.87 22.8438 300.48 23 299.959 23C299.588 23 299.284 22.9219 299.046 22.7656C298.812 22.6061 298.654 22.3799 298.572 22.0869C298.38 22.6956 297.929 23 297.22 23C296.842 23 296.539 22.9137 296.312 22.7412C296.084 22.5654 295.934 22.3115 295.862 21.9795C295.752 22.2855 295.535 22.5329 295.213 22.7217C294.894 22.9072 294.523 23 294.1 23H293.855C293.803 23 293.766 22.9642 293.743 22.8926C293.717 22.8177 293.704 22.7005 293.704 22.541C293.704 22.3848 293.717 22.2725 293.743 22.2041C293.766 22.1357 293.803 22.1016 293.855 22.1016H294.1C294.555 22.1016 294.896 21.9925 295.12 21.7744C295.345 21.5563 295.481 21.1934 295.53 20.6855L295.608 19.8604L296.512 19.9336L296.414 20.9443C296.378 21.3154 296.43 21.6003 296.57 21.7988C296.71 21.9941 296.935 22.0951 297.244 22.1016Z" fill="#417F56"/>
<path d="M313.095 22.875H307.77C307.275 22.875 306.8 22.665 306.465 22.3C306.13 21.935 305.96 21.445 306 20.95L306.415 15.97C306.43 15.815 306.375 15.665 306.27 15.55C306.165 15.435 306.02 15.375 305.865 15.375H305C304.795 15.375 304.625 15.205 304.625 15C304.625 14.795 304.795 14.625 305 14.625H305.87C306.235 14.625 306.58 14.78 306.825 15.045C306.96 15.195 307.06 15.37 307.115 15.565H313.36C313.865 15.565 314.33 15.765 314.67 16.125C315.005 16.49 315.175 16.965 315.135 17.47L314.865 21.22C314.81 22.135 314.01 22.875 313.095 22.875ZM307.14 16.31L306.75 21.01C306.725 21.3 306.82 21.575 307.015 21.79C307.21 22.005 307.48 22.12 307.77 22.12H313.095C313.615 22.12 314.085 21.68 314.125 21.16L314.395 17.41C314.415 17.115 314.32 16.835 314.125 16.63C313.93 16.42 313.66 16.305 313.365 16.305H307.14V16.31Z" fill="#417F56"/>
<path d="M312.125 25.375C311.575 25.375 311.125 24.925 311.125 24.375C311.125 23.825 311.575 23.375 312.125 23.375C312.675 23.375 313.125 23.825 313.125 24.375C313.125 24.925 312.675 25.375 312.125 25.375ZM312.125 24.125C311.985 24.125 311.875 24.235 311.875 24.375C311.875 24.515 311.985 24.625 312.125 24.625C312.265 24.625 312.375 24.515 312.375 24.375C312.375 24.235 312.265 24.125 312.125 24.125Z" fill="#417F56"/>
<path d="M308.125 25.375C307.575 25.375 307.125 24.925 307.125 24.375C307.125 23.825 307.575 23.375 308.125 23.375C308.675 23.375 309.125 23.825 309.125 24.375C309.125 24.925 308.675 25.375 308.125 25.375ZM308.125 24.125C307.985 24.125 307.875 24.235 307.875 24.375C307.875 24.515 307.985 24.625 308.125 24.625C308.265 24.625 308.375 24.515 308.375 24.375C308.375 24.235 308.265 24.125 308.125 24.125Z" fill="#417F56"/>
<path d="M314.5 18.375H308.5C308.295 18.375 308.125 18.205 308.125 18C308.125 17.795 308.295 17.625 308.5 17.625H314.5C314.705 17.625 314.875 17.795 314.875 18C314.875 18.205 314.705 18.375 314.5 18.375Z" fill="#417F56"/>
</svg>
