<svg width="200" height="193" viewBox="0 0 200 193" fill="none" xmlns="http://www.w3.org/2000/svg">
<g opacity="0.35" clip-path="url(#clip0_2399_747495)">
<path fill-rule="evenodd" clip-rule="evenodd" d="M4.61368 132.271C4.23204 126.244 3.85041 120.072 3.47909 113.993L2.78802 102.392L2.66424 100.259C2.07632 97.7859 2.08663 95.1688 2.15884 92.902C1.6328 92.9432 1.09645 92.9845 0.570409 93.0257C0.250661 93.0463 0.054686 92.8711 0.0134282 92.7063C-0.0381441 92.5311 0.054686 92.3147 0.36412 92.2426C2.37544 91.7687 2.59204 91.7377 4.66525 91.3359C32.0605 66.0925 41.2094 41.9618 31.8542 19.6239C25.191 15.2244 17.3624 9.16594 10.988 5.59065C10.7611 5.4567 10.7611 5.25063 10.8746 5.10639C10.988 4.96214 11.2356 4.89001 11.4728 5.02396C29.6159 15.1007 51.792 21.4064 77.4028 23.7659C89.0375 24.8375 101.405 25.1569 115.236 24.7241C124.591 24.4356 135.649 23.8896 146.685 22.0659C159.64 19.933 170.254 16.2341 179.114 10.7733C179.238 10.6909 179.423 10.7115 179.526 10.8248C179.629 10.9278 179.619 11.0618 179.495 11.1442C163.25 21.9937 140.785 24.3944 120.94 25.3114C106.407 25.9812 93.2974 25.8781 81.1986 24.9611C68.7799 24.0132 57.4237 22.2204 46.6864 19.5312C34.9898 16.605 24.6237 12.4527 14.8147 7.31132C26.7795 15.1419 34.1337 20.4173 46.1088 28.3303C49.822 30.7826 53.5249 33.2348 57.2381 35.687C67.9857 42.7758 98.0318 46.0214 111.441 45.1353C119.857 44.5789 128.119 43.0952 136.02 40.7357C143.23 38.5823 149.418 35.5634 155.978 32.3693C167.933 21.5816 180.052 10.7836 192.203 0.0989131C192.296 0.0164855 192.409 -0.0144248 192.543 0.00618207C192.677 0.0370924 192.801 0.129823 192.853 0.243161C192.904 0.366803 192.873 0.48014 192.77 0.572871C188.551 4.2512 184.065 8.19742 178.67 12.9885C178.289 14.0395 177.793 15.0904 177.319 16.1002C176.845 17.0996 176.349 18.1402 175.978 19.1809C175.122 21.561 174.462 24.075 174.008 26.6406C173.162 31.4626 173.121 36.3876 173.874 41.2715C175.277 50.4106 179.619 59.3643 186.777 67.8853C190.852 67.2877 195.225 66.6695 199.65 66.1028C199.805 66.0822 199.949 66.1543 199.99 66.2882C200.031 66.4119 199.939 66.5355 199.784 66.5664C193.317 67.8647 188.345 68.6271 182.198 69.4926C165.426 96.6731 165.684 127.346 165.932 157.01C169.614 162.069 173.369 167.169 177.102 172.166C177.175 172.259 177.133 172.362 177.03 172.414C176.906 172.465 176.762 172.434 176.69 172.342C173.565 168.303 170.429 164.171 167.108 159.72C167.025 159.751 166.912 159.74 166.809 159.73C145.406 158.102 125.035 166.438 114.875 180.986C114.782 185.375 114.648 189.25 114.494 192.825C114.494 192.928 114.39 193 114.256 193H114.246C114.122 192.99 114.019 192.907 114.019 192.804C113.926 187.879 113.916 183.871 113.926 179.544C98.0008 163.079 79.7545 149.571 59.6929 139.412C53.3908 147.325 47.2227 155.32 40.9103 163.223C40.7659 163.408 40.4977 163.45 40.2708 163.336C40.0542 163.233 39.9098 162.996 40.0645 162.77C43.5714 157.7 47.4909 152.446 52.0396 146.696C51.4929 134.816 48.182 124.472 41.9108 115.075C37.8572 108.996 32.7206 103.453 26.6454 98.6101C25.9956 105.503 22.1483 109.449 15.5264 110.016C11.7925 110.335 7.90399 108.697 5.38726 105.73C4.64462 104.854 4.03607 103.896 3.5616 102.835C4.19078 112.623 4.77871 122.566 5.346 132.179M113.895 178.792C113.906 176.824 113.926 174.763 113.947 172.517C103.994 155.238 85.9432 141.009 64.4169 133.487C63.0348 135.187 61.6217 136.939 60.1055 138.845C81.5802 149.705 100.167 163.512 113.895 178.792ZM141.28 100.939C141.445 99.8363 141.641 98.7338 141.879 97.6519C143.849 88.4715 148.201 79.93 154.503 72.934C152.441 73.1606 150.378 73.3873 148.366 73.6037C147.696 78.5906 146.138 83.2374 143.745 87.4412C142.209 90.1304 139.97 93.1493 136.102 92.5414C134.421 92.2838 132.874 91.3977 131.482 89.914C129.883 94.5712 129.377 99.4653 129.996 104.473C130.007 104.566 129.924 104.648 129.811 104.658C129.78 104.658 129.738 104.658 129.707 104.648C129.718 104.658 129.728 104.679 129.738 104.689C129.759 104.699 129.769 104.71 129.79 104.71C129.831 104.73 129.872 104.751 129.903 104.772C129.986 104.823 130.048 104.885 130.058 104.967C130.068 105.019 130.048 105.081 130.017 105.132C134.143 111.459 138.423 117.878 142.755 124.225C140.93 117.723 140.3 110.943 140.888 104.277C140.981 103.144 141.115 102.041 141.28 100.939ZM80.6209 50.6888C80.2393 50.5755 79.8577 50.4725 79.476 50.3591L80.59 51.101L80.6106 50.73C80.6106 50.7094 80.6106 50.6991 80.6209 50.6888ZM67.5628 54.7793C66.9027 58.7667 65.5206 62.8057 63.4577 66.6901C62.1787 69.0908 60.6831 71.3678 58.9915 73.48C55.268 78.1372 50.6265 82.0422 45.4177 84.8241L46.2738 84.6799C48.0479 84.3708 49.8116 84.0617 51.5754 83.7526C53.9993 83.3198 61.2504 82.4234 62.8079 81.4961C69.0791 77.756 73.8031 73.1194 76.8355 67.7307C79.3419 63.2796 80.0433 58.9522 80.4043 53.9962C80.4559 53.2853 80.5075 52.564 80.5487 51.8325L77.4131 49.7615H77.3925C77.2791 49.7306 77.1862 49.6585 77.1243 49.576L67.3669 43.1158C68.1714 46.8353 68.2333 50.7815 67.5628 54.7793ZM68.8418 126.429C72.8851 121.721 76.5983 117.424 80.8891 112.643C80.6003 106.729 79.4451 102.031 77.1965 97.7034C76.8768 97.0852 76.5364 96.4773 76.1651 95.8694C73.5865 91.6038 69.8939 87.74 64.9326 84.1338C64.2209 83.6186 63.4886 83.1035 62.7253 82.5986C58.4449 83.4023 54.9792 84.0514 51.8127 84.6181C50.3789 84.8756 48.9452 85.1332 47.5115 85.3805L45.7477 85.6896C54.185 89.8213 61.1988 96.1579 65.5103 103.576C69.9042 111.139 71.0801 119.217 68.8418 126.429ZM114.225 157.051C112.111 153.291 109.625 149.715 106.789 146.356C98.2896 136.28 86.7271 128.16 73.2358 122.937C71.9981 124.379 70.6778 125.935 69.1822 127.728C67.6041 129.624 66.4179 131.045 64.9326 132.869C70.3271 134.755 75.4843 137.052 80.3321 139.7C94.8962 147.634 106.737 158.71 113.968 171.445C113.999 169.56 114.019 167.592 114.06 165.397C114.112 162.461 114.164 159.947 114.225 157.051ZM139.259 75.8086C139.795 75.3037 140.342 74.8092 140.909 74.3352C140.29 74.397 139.661 74.4486 139.042 74.5104L138.64 74.5413C133.947 77.5087 130.852 80.27 128.594 83.4744C128.604 83.495 128.604 83.5259 128.604 83.5465C128.614 83.5877 128.624 83.6289 128.635 83.6701C129.068 85.2466 129.924 86.9879 130.945 88.3994C132.688 83.6495 135.535 79.353 139.259 75.8086ZM131.688 89.3267C132.967 90.7898 135.061 92.4281 137.804 92.0159C141.497 91.4698 143.323 87.2661 144.529 84.4841C144.622 84.2677 144.715 84.0617 144.798 83.8659C146.211 80.6925 147.19 77.2614 147.727 73.6552C145.561 73.8819 143.745 74.057 142.054 74.2219C137.165 78.8069 133.679 83.8865 131.688 89.3267ZM126.108 75.7159C123.787 78.1784 122.322 80.4658 121.528 82.9077C121.064 84.309 120.806 85.7411 120.734 87.1527C120.693 88.1315 120.734 89.6461 120.878 90.6662C121.394 91.7687 122.064 92.7475 123.715 95.3336C123.797 92.1602 124.653 88.9043 126.159 85.8751C126.665 84.8653 127.242 83.8865 127.882 82.9386C127.366 80.373 127.645 77.756 128.697 75.345C127.933 75.3965 127.18 75.4583 126.417 75.5098C126.345 75.5304 126.231 75.5819 126.108 75.7159ZM114.762 120.113V119.825C114.679 119.773 114.617 119.701 114.607 119.629C114.597 119.578 114.597 119.526 114.617 119.475C114.638 119.423 114.669 119.382 114.721 119.341C114.741 119.33 114.751 119.32 114.772 119.31L114.844 113.53C111.76 106.358 104.87 101.289 94.9168 98.878C93.2871 100.568 91.9772 101.948 90.8013 103.226C90.5538 103.504 90.2959 103.772 90.0484 104.05L89.6152 104.524C100.714 106.266 110.275 112.2 114.762 120.113ZM91.2036 105.4C93.3902 106.472 95.4738 107.646 97.4335 108.924C98.7435 109.779 100.002 110.665 101.198 111.603C102.395 112.53 103.54 113.499 104.612 114.488C109.45 118.97 112.988 124.049 114.648 129.16L114.751 120.979C114.741 120.969 114.731 120.958 114.721 120.938C109.821 113.025 101.281 107.399 91.2036 105.4ZM115.742 98.1774C115.711 100.568 115.68 102.793 115.659 105.143C117.743 103.556 120.889 102.845 124.045 103.092C125.551 103.205 127.057 103.535 128.459 104.092C127.469 102.556 126.479 101.021 125.489 99.4756C122.694 97.8786 119.764 97.4871 115.742 98.1774ZM124.952 98.6308L124.726 98.2701C124.591 98.0537 124.447 97.8374 124.313 97.621C124.313 97.8786 124.323 98.1053 124.323 98.3319C124.53 98.4247 124.746 98.5277 124.952 98.6308ZM120.043 63.6506C113.576 65.5052 105.943 65.4331 99.6202 63.3518C109.151 68.6374 119.847 65.4227 120.146 65.567L120.775 64.9797L120.827 64.9282C121.673 64.1245 122.518 63.3311 123.354 62.5275L123.426 62.4554C122.941 62.6614 122.446 62.8572 121.93 63.0426L120.043 63.6506ZM92.1938 76.0044C93.5346 75.7365 94.5455 75.5304 95.7626 75.2831C97.4438 74.9431 99.1045 74.6031 100.775 74.2631C102.57 73.9025 102.601 74.0055 102.415 73.2019C102.261 72.5733 102.127 71.9242 101.993 71.2957C101.425 68.6065 100.848 65.8143 98.5268 63.6609C98.1555 63.4548 97.7842 63.2487 97.4232 63.0426C99.2901 67.7925 97.0519 73.2843 92.1938 76.0044ZM114.978 102.155C110.688 97.7859 105.757 95.0245 99.9296 93.716L98.4443 95.2409C97.4438 96.2713 96.433 97.3016 95.4325 98.3319C103.756 99.6611 111.616 105.318 114.855 112.242C114.896 108.543 114.937 105.75 114.978 102.155ZM114.989 101.32C115.03 98.0125 115.051 96.2713 115.092 92.4178C112.761 89.5843 109.697 88.0182 105.716 87.637C104.22 89.2546 102.549 91.0165 100.466 93.1493C106.51 94.5712 111.76 97.5283 114.989 101.32ZM105.262 86.6272C105.809 86.1121 106.737 85.2569 107.366 84.6799C107.717 83.8247 107.48 82.2174 105.468 79.1263C105.107 78.6833 104.726 78.2299 104.406 77.7869C103.715 76.8184 103.23 75.8807 102.818 74.5825C102.446 74.5928 101.549 74.8092 101.25 74.871C100.971 74.9328 100.693 74.9843 100.414 75.0462C104.55 77.8487 106.448 82.4234 105.262 86.6272ZM106.283 87.0394C109.842 87.3691 113.297 89.1413 115.113 91.5626L115.154 87.9152C112.916 86.2769 110.698 85.4629 108.037 85.2981C107.975 85.2981 107.923 85.2878 107.872 85.2878C107.335 85.8648 106.809 86.4521 106.283 87.0394ZM104.489 87.3691C104.85 86.2563 105.004 85.1435 104.963 84.0514C104.85 80.7543 102.993 77.6014 99.6305 75.211C98.63 75.4274 97.6398 75.6335 96.6393 75.8395L95.6388 76.0456C99.7955 80.0227 102.003 84.9375 101.889 89.9449C102.725 89.0898 103.602 88.2243 104.489 87.3691ZM119.506 66.3294C118.877 66.2264 116.814 66.7313 115.649 66.958C114.896 67.1022 114.246 67.2258 113.916 67.2465C111.771 67.3495 109.615 67.2156 107.5 66.8343C105.53 66.484 103.643 65.9276 101.869 65.1858C101.735 65.1239 101.58 65.0621 101.415 65.0003C101.064 64.8561 100.683 64.7118 100.332 64.5366C101.817 66.5149 102.261 68.7817 102.694 70.9763C102.89 71.9654 103.086 72.9752 103.385 73.9437C103.932 75.7468 104.911 77.0656 105.964 78.4669C106.335 78.9615 106.717 79.4766 107.098 80.033C107.975 81.3107 108.109 82.238 108.284 83.5362C108.305 83.6598 108.346 83.8144 108.305 83.9277C108.119 84.4841 108.202 84.5666 108.418 84.649L108.48 84.7005C108.625 84.8035 109.78 84.9684 110.399 85.0611C110.935 85.1435 111.255 85.1848 111.368 85.226C112.823 85.6793 114.102 86.3387 115.164 87.2145C115.463 86.8951 117.041 85.9781 117.547 85.5248C117.536 85.5248 117.557 85.5248 117.547 85.5248C118.31 83.8762 121.662 76.8802 121.435 75.4995C121.373 75.0977 120.93 74.531 120.507 73.9952C120.156 73.5419 119.816 73.1194 119.661 72.7588C119.331 71.9963 119.104 71.2133 118.991 70.4199C118.919 70.0078 119.372 66.4634 119.506 66.3294ZM115.752 97.4665C118.135 96.7967 121.126 97.044 123.839 98.1259C123.787 97.6622 123.746 97.1883 123.725 96.7143C121.569 93.3142 119.661 90.285 117.536 86.8642L115.804 87.8636C115.721 87.9255 115.762 96.4876 115.752 97.4665ZM94.6074 97.6416C94.0091 90.7177 90.8219 84.3811 84.8705 78.2711C77.4441 79.7754 70.5128 81.1355 63.6949 82.4234C73.6071 88.3891 80.3837 98.3732 81.3945 107.935C81.5389 109.295 81.5699 110.655 81.4667 111.994C85.7988 107.172 90.2237 102.412 94.6074 97.6416ZM95.0818 97.1367C96.9075 95.1585 99.0529 92.8505 101.301 90.5528C101.487 85.2157 99.2901 80.2597 94.958 76.2001C91.8018 76.8596 88.6869 77.5087 85.706 78.1166L85.6957 78.1269C91.2861 83.021 94.7724 90.0995 95.0818 97.1367ZM90.3681 76.3753C96.2474 72.7588 98.238 68.2047 96.4536 62.445C94.9168 61.4971 93.3799 60.4462 91.9978 59.488C94.6589 65.2167 92.6889 72.2952 87.1087 77.0244C88.2021 76.8081 89.2851 76.5917 90.3681 76.3753ZM92.5341 58.911C93.1943 59.3334 93.8647 59.7455 94.5352 60.1783C94.6074 60.2092 94.6692 60.2401 94.7414 60.271C97.3923 61.5074 100.229 62.6923 103.416 63.4445C103.942 63.5681 104.489 63.6712 105.035 63.7742C105.169 63.7948 105.283 63.8257 105.417 63.8566C106.789 64.0936 108.212 64.2378 109.728 64.2791C114.762 64.413 119.517 63.4548 124.705 61.2499C125.138 60.8377 125.582 60.4256 126.015 60.0134C126.572 59.488 127.119 58.9625 127.676 58.437C121.838 60.1165 115.205 60.8789 108.449 60.6419C103.467 60.4668 96.433 59.7868 90.43 57.5612C91.1107 58.0146 91.8328 58.4679 92.5341 58.911ZM120.858 65.6082L120.249 66.1646C119.073 69.2968 119.713 72.5321 122.044 75.2934C122.075 75.2831 122.116 75.2728 122.157 75.2625L125.313 74.9843C122.694 72.3982 121.116 69.0908 120.858 65.6082ZM122.477 75.7777C121.373 78.436 119.795 81.1664 118.145 86.5036C118.754 87.4824 119.362 88.4612 119.981 89.4401C119.517 84.1956 121.507 79.1881 125.499 75.5716C124.499 75.6438 123.488 75.7159 122.477 75.7777ZM128.346 82.2792C130.656 79.116 133.699 76.499 137.175 74.6752C134.597 74.9019 131.935 75.1183 129.274 75.314C128.305 77.6426 127.985 79.9918 128.346 82.2792ZM128.717 85.6072C128.511 85.1332 128.325 84.6181 128.171 84.0926C128.067 84.2471 127.954 84.4017 127.851 84.5666C125.664 88.0903 124.478 92.0365 124.313 96.2919C125.932 98.8162 127.645 101.474 129.553 104.411C128.583 99.3932 128.996 94.0766 130.729 89.0279C129.749 87.7606 129.089 86.4624 128.717 85.6072ZM129.037 104.988C127.706 104.349 126.324 103.947 124.911 103.772C124.684 103.741 124.447 103.731 124.22 103.71C124.169 103.71 124.117 103.7 124.065 103.7C123.869 103.69 123.674 103.69 123.488 103.69C123.395 103.69 123.302 103.679 123.209 103.69C122.972 103.69 122.735 103.71 122.498 103.721C122.446 103.721 122.405 103.721 122.353 103.731C121.807 103.772 121.26 103.855 120.713 103.968C120.693 103.968 120.672 103.978 120.641 103.978C120.074 104.102 119.506 104.256 118.949 104.452C118.506 104.607 118.073 104.792 117.64 104.988C116.969 105.297 116.299 105.647 115.649 106.07L115.556 113.921L115.587 114.003C115.608 114.065 115.597 114.117 115.556 114.158L115.494 118.805C119.176 116.363 124.344 115.302 129.326 115.673C132.214 115.889 135.04 116.59 137.495 117.795C134.731 113.705 131.894 109.398 129.037 104.988ZM112.544 126.234C110.399 122.287 108.026 118.836 104.695 115.58C101.466 112.417 97.6914 109.655 93.4418 107.327C92.0287 106.554 90.5538 105.823 89.0375 105.143C86.397 108.027 83.8081 110.892 81.343 113.663C89.4192 116.332 96.4846 121.35 101.013 125.111C107.005 130.087 111.657 135.589 114.514 141.071L114.648 130.334C113.947 128.913 113.256 127.542 112.544 126.234ZM114.349 141.905C110.223 135.187 105.922 130.067 100.817 125.791C94.8652 120.814 88.0164 117.435 80.9407 114.137C78.4652 116.93 76.031 119.701 73.7103 122.39C91.8637 129.459 106.603 141.74 114.246 156.186C114.267 154.62 114.762 142.317 114.349 141.905ZM77.2894 68.2871C76.8871 68.9671 76.4745 69.6369 76.031 70.286C72.916 74.8607 68.6665 78.7142 63.6021 81.5373C71.111 80.1361 78.6509 78.673 86.1082 77.2099C91.7502 72.4909 93.4934 66.1543 91.1417 58.8801C90.3475 58.3237 89.4914 57.7364 88.6456 57.18L81.3739 52.3683C81.9721 57.0151 80.4869 62.7954 77.2894 68.2871ZM81.2501 51.5234L87.8617 55.8921C88.6765 56.1084 89.4811 56.3248 90.2856 56.5515C96.1339 58.1382 101.652 59.6425 107.934 59.9413C114.494 60.2607 121.126 59.5498 128.212 57.7673C128.882 57.283 133.689 52.8113 134.37 52.1828C133.874 52.4301 133.369 52.6671 132.874 52.8835C117.258 59.7868 98.2071 55.7066 81.1057 50.8331C81.1573 51.07 81.2089 51.307 81.2501 51.5234ZM128.831 58.2309C128.573 63.2075 130.749 67.7616 135.308 71.8006C135.958 72.3776 136.659 72.9443 137.402 73.5006C137.474 73.5522 137.485 73.6449 137.423 73.7067C137.361 73.7685 137.247 73.7891 137.154 73.7376C131.523 70.7084 127.923 64.7736 128.119 58.8904L125.87 60.9717C125.891 60.9923 125.912 61.0129 125.922 61.0438C125.963 61.1365 125.932 61.2292 125.84 61.2808C125.613 61.4147 125.375 61.5383 125.138 61.662C124.004 62.7129 122.869 63.7639 121.734 64.8045C121.868 68.4004 123.209 71.6254 125.932 74.9431C135.174 74.1292 144.942 73.2328 154.091 72.2436C143.323 68.9774 136.917 59.4777 136.061 51.5852C133.679 53.7592 131.048 56.1909 128.831 58.2309ZM142.497 63.9184C145.881 67.6689 150.305 70.049 154.586 72.0582C154.638 72.0788 154.668 72.12 154.679 72.1612C156.876 71.9242 159.001 71.6872 161.063 71.44C162.322 71.2957 163.663 71.1309 165.148 70.9454C153.245 65.67 145.055 54.3878 145.066 43.3013C142.26 45.8771 139.455 48.4427 136.649 51.0288C137.051 55.6757 139.073 60.1268 142.497 63.9184ZM138.042 118.65C130.275 115.415 122.477 115.786 115.474 119.712L115.226 139.783C117.65 135.043 122.601 131.488 128.624 130.201C129.14 130.087 129.666 130.005 130.203 129.933C130.368 129.912 130.522 129.891 130.687 129.871C131.069 129.83 131.461 129.788 131.853 129.757C132.028 129.747 132.193 129.737 132.369 129.727C132.802 129.706 133.245 129.696 133.679 129.696C133.782 129.696 133.895 129.696 133.998 129.696C134.545 129.706 135.102 129.727 135.649 129.768C135.68 129.768 135.71 129.768 135.731 129.768C135.814 129.778 135.896 129.788 135.979 129.799C136.443 129.84 136.907 129.891 137.371 129.953C137.536 129.974 137.691 129.994 137.846 130.025C138.32 130.097 138.784 130.18 139.248 130.273C139.341 130.293 139.434 130.304 139.527 130.324C140.084 130.448 140.62 130.582 141.157 130.736C141.28 130.777 141.404 130.808 141.538 130.85C141.951 130.973 142.363 131.107 142.766 131.251C142.91 131.303 143.065 131.354 143.209 131.416C143.663 131.591 144.106 131.767 144.54 131.962C144.591 131.983 144.653 132.004 144.705 132.035C145.189 132.251 145.654 132.488 146.107 132.735C146.231 132.807 146.345 132.869 146.468 132.941C146.809 133.137 147.129 133.333 147.448 133.549C147.572 133.632 147.686 133.704 147.809 133.786C148.212 134.075 148.614 134.363 148.975 134.672C145.251 129.304 141.662 124.06 138.042 118.65ZM129.243 130.788C128.006 131.035 126.809 131.385 125.675 131.818C120.744 133.724 116.876 137.351 115.195 141.812C115.133 147.541 115.113 153.507 115.082 159.143C119.001 154.177 125.85 150.117 133.503 148.242C137.588 147.242 142.786 146.748 147.892 147.139C152.306 147.479 156.649 148.469 160.156 150.364C156.7 145.604 153.245 140.762 149.841 135.909C144.292 131.509 136.598 129.325 129.243 130.788ZM58.8677 138.217L58.8781 138.227C64.2209 131.777 62.189 134.209 67.305 128.233C69.6257 118.609 68.7077 110.645 64.4169 103.154C60.384 96.127 53.3598 90.0068 44.6441 85.906C38.115 87.06 32.6278 88.0079 27.4086 88.8837C37.8159 94.0045 46.2635 101.33 51.8642 110.078C57.5269 118.929 59.8682 128.634 58.6408 138.155C58.713 138.155 58.7955 138.175 58.8677 138.217ZM52.5037 146.057C54.2159 143.904 56.021 141.679 57.8672 139.432C57.9498 138.804 58.0116 138.175 58.0735 137.537C59.7135 118.012 47.4703 99.1459 26.4288 89.0279L25.8718 89.1207C26.3566 91.3256 26.8723 94.5918 26.666 97.8889C43.4992 111.149 53.1329 129.119 52.5037 146.057ZM25.387 89.2237C23.4066 89.5637 21.3747 89.9346 19.4149 90.2953C18.3422 90.491 17.2695 90.6868 16.1968 90.8826C19.6522 92.8402 22.9837 95.0555 26.0987 97.4665C26.2122 94.7463 25.8305 91.9026 25.387 89.2237ZM2.87053 92.8402C3.04588 95.4058 3.21091 97.9713 3.37594 100.527C3.68538 101.907 4.21141 103.133 4.985 104.246C7.32638 107.657 12.3289 110.562 17.7749 108.893C22.9115 107.306 25.6242 103.803 26.0471 98.1774C22.7259 95.5809 19.1055 93.1802 15.2891 91.0474C11.6172 91.6965 7.27481 92.4281 2.87053 92.8402ZM50.5543 31.9984L45.4074 28.5982C41.1681 25.7957 36.9186 22.9932 32.6793 20.1906C37.9191 32.0705 37.4859 44.8777 31.3797 58.2825C30.7608 59.6425 30.0904 60.9923 29.3581 62.3626C24.2627 71.8933 16.4547 81.527 6.09896 91.0783C9.78122 90.4189 12.6693 90.0274 16.3515 89.5225C19.4459 89.1001 20.6217 88.2964 23.582 86.4727C24.2421 86.0708 24.9022 85.6484 25.5417 85.226C33.9067 79.7445 40.5389 73.0061 44.9329 65.4743C50.6677 55.6757 52.5037 44.7231 50.5543 31.9984ZM52.5862 33.3378L51.2454 32.4517C53.8343 43.0952 52.153 54.2126 46.3666 64.6294C40.8174 74.6237 31.7201 83.2271 20.7042 88.9146C24.1699 88.42 42.9525 85.7927 44.5306 84.7417C53.3392 78.8997 59.1462 72.8515 62.7976 65.7318C66.2632 58.9728 67.4597 51.6058 66.5623 42.5697C61.9002 39.4993 57.2484 36.4082 52.5862 33.3378ZM135.339 41.5806C127.284 43.971 118.939 45.4444 110.543 45.9492C93.6275 46.9796 76.0104 44.1564 60.7656 38.0053L66.4901 41.7763L66.4695 41.6115C66.4592 41.4878 66.552 41.3848 66.7067 41.3745C66.8511 41.3642 66.9749 41.4363 67.0059 41.5497C67.0471 41.7145 67.0884 41.8691 67.1296 42.0339L67.1709 42.24L77.4544 49.0197C77.5369 48.9991 77.6297 49.0094 77.7226 49.0403C97.8564 54.9751 118.919 59.9928 135.865 50.8022C138.99 47.8966 142.095 45.0322 145.097 42.2812V42.1679C145.097 42.0751 145.159 42.0133 145.262 41.9824C145.313 41.9618 145.375 41.9618 145.437 41.9721C148.387 39.2623 151.327 36.5937 154.173 34.0075C149.212 36.8101 143.044 39.2932 135.339 41.5806ZM156.494 32.8845C152.997 36.0579 149.357 39.3756 145.674 42.7449C145.973 54.1199 153.4 64.3615 166.045 70.8424C167.489 70.6569 176.246 69.6472 176.669 69.235C170.068 64.8561 164.725 59.1479 161.208 52.7392C157.752 46.4438 156.133 39.5817 156.494 32.8845ZM186.076 67.9986C179.134 60.6523 174.524 51.0597 173.059 40.983C172.337 35.9858 172.399 31.0092 173.245 26.1872C173.915 22.3956 174.874 18.0887 176.896 14.534C174.183 16.945 171.471 19.3664 168.82 21.7568C168.675 22.2513 168.541 22.7459 168.407 23.2508C168.036 24.7551 167.747 26.2903 167.562 27.8358C167.293 30.6383 167.262 33.4512 167.479 36.2022V36.2125C167.603 37.5313 167.809 38.8502 168.057 40.1587C168.077 40.2514 168.088 40.3442 168.108 40.4369C168.149 40.643 168.201 40.849 168.242 41.0448C169.996 49.1845 174.111 57.2315 180.217 64.4027C180.692 64.9591 181.187 65.5155 181.682 66.0616C182.373 66.824 183.085 67.5762 183.827 68.318L186.076 67.9986ZM183.291 68.4108C182.095 67.3186 180.96 66.1852 179.887 65.0209C178.815 63.8566 177.814 62.6511 176.865 61.425C176.391 60.8068 175.937 60.1886 175.504 59.5498C170.687 52.595 167.85 44.6922 167.19 36.2228V36.2125C167.025 34.5536 166.984 32.8948 167.035 31.2462C167.046 30.7929 167.056 30.3395 167.087 29.8862C167.128 29.1855 167.19 28.4952 167.273 27.8049C167.273 27.8049 167.273 27.8049 167.273 27.7946C167.448 25.9709 167.716 24.1678 168.077 22.4059C167.108 23.2714 166.159 24.1265 165.23 24.9714C162.435 27.4855 159.774 29.8862 157.185 32.2354C156.546 41.6321 159.857 51.0288 166.334 58.9934C168.314 61.425 174.689 67.9677 177.711 69.0702C177.835 68.9877 182.28 68.555 183.291 68.4108ZM166.798 111.778C169.129 95.3542 173.926 81.5579 181.476 69.6059C179.825 69.8326 178.196 70.049 176.628 70.2551C163.539 82.7428 155.679 98.1877 153.596 114.694C152.513 123.338 153.008 132.282 155.174 141.246C155.205 141.359 155.122 141.452 154.988 141.472C154.854 141.493 154.73 141.431 154.689 141.318C147.407 117.177 155.36 90.0377 175.431 70.4199C170.594 71.0381 166.025 71.5739 161.218 72.1509C159.867 72.3158 158.454 72.4806 156.876 72.6558C156.35 72.7176 155.803 72.7794 155.236 72.8412C142.188 89.1516 138.176 108.017 143.952 125.966C150.677 135.785 157.794 145.872 165.117 155.959C164.818 141.679 164.704 126.522 166.798 111.778ZM165.179 158.236L165.158 157.165C163.601 155.073 162.054 152.951 160.496 150.818L160.465 150.807C159.403 150.539 158.34 150.261 157.319 149.983C153.771 149.035 150.419 148.139 146.623 147.902C141.868 147.624 137.031 148.128 132.616 149.365C112.183 155.114 115.154 165.727 114.875 179.43C117.382 176.01 120.528 172.929 124.138 170.26C125.035 169.591 125.974 168.952 126.923 168.334C127.882 167.715 128.862 167.128 129.872 166.572C139.95 160.967 152.41 158.113 164.663 159.04C165.344 159.091 166.014 159.153 166.695 159.225L166.489 158.947C166.293 158.69 166.107 158.432 165.911 158.174V158.267C165.911 158.422 165.767 158.535 165.571 158.535C165.385 158.545 165.179 158.422 165.179 158.236Z" fill="#CBCBCB"/>
</g>
<defs>
<clipPath id="clip0_2399_747495">
<rect width="200" height="193" fill="white"/>
</clipPath>
</defs>
</svg>
