<svg width="120" height="116" viewBox="0 0 120 116" fill="none" xmlns="http://www.w3.org/2000/svg">
<g clip-path="url(#clip0_2399_748939)">
<path d="M115.146 27.8433C114.819 28.0838 101.254 38.7503 101.254 38.7503V94.1553C101.254 98.168 97.9946 101.433 93.989 101.433H21.801C17.7903 101.433 14.5357 98.168 14.5357 94.1553V21.8396C14.5357 17.8217 17.7903 14.5614 21.801 14.5614H87.1069C92.8088 10.4515 98.7099 6.52577 104.729 2.84063C101.561 1.02877 97.8925 0 93.989 0H21.801C9.77903 0 0 9.79633 0 21.8396V94.1553C0 106.199 9.77903 115.995 21.801 115.995H93.989C106.011 115.995 115.79 106.193 115.79 94.1553V27.3622L115.146 27.8433Z" fill="#C30000"/>
<path d="M108.959 7.07349C101.08 11.8539 93.4472 17.0029 86.1206 22.4948C78.8042 27.9969 71.6615 33.714 64.7743 39.6921C62.8533 41.3709 60.9475 43.0548 59.0469 44.754C58.4491 44.0477 57.8514 43.3363 57.2791 42.6044L54.6479 39.1751L53.3297 37.4656L52.0933 35.6896L49.6 32.1478C49.1708 31.5694 48.7927 30.9501 48.4095 30.3359C48.0212 29.7217 47.587 29.1434 47.0862 28.606C46.5804 28.0685 46.0235 27.5618 45.3798 27.1063C44.7309 26.6508 44.0207 26.2311 43.1113 25.924L42.0792 25.5708C41.3435 25.3252 40.5669 25.1767 39.7545 25.1358C34.957 24.9055 30.8849 28.6111 30.6499 33.412C30.4609 37.2814 32.2491 40.0504 34.114 42.7119L36.9496 46.6939L38.375 48.6797L39.9027 50.594L42.9733 54.4122C43.801 55.3949 44.6696 56.3469 45.533 57.2989C45.2316 57.5906 44.9302 57.8721 44.6287 58.1638L39.7596 62.9545C38.1553 64.5719 36.5357 66.1688 34.9417 67.8066C33.3425 69.4342 31.8148 71.1284 30.4251 72.9658C29.7252 73.8717 29.061 74.8289 28.4325 75.8116C28.1209 76.3029 27.8143 76.8045 27.5282 77.3266C27.237 77.8435 26.9662 78.3707 26.6954 78.9593C25.7553 81.0117 25.7144 83.4941 26.8282 85.6591C28.7493 89.3903 33.3271 90.8592 37.0518 88.9348L37.4911 88.7044C37.9714 88.4588 38.4619 88.1619 38.9268 87.8548C39.3969 87.5477 39.8516 87.2304 40.3063 86.9028C41.2158 86.2477 42.0741 85.5567 42.9222 84.8453C44.6185 83.4224 46.2024 81.892 47.7351 80.3054C49.2577 78.7136 50.8211 77.1525 52.3641 75.5761L57.0543 70.9032C57.4477 70.5193 57.8411 70.1405 58.2345 69.7567C58.9754 70.3913 59.7213 71.0158 60.4877 71.6248C61.1212 72.1469 61.7599 72.6638 62.4037 73.1757L64.3962 74.6446L66.3888 76.1084C67.053 76.5947 67.753 77.0399 68.4376 77.5057C69.1223 77.9663 69.812 78.427 70.5018 78.8774C71.1966 79.3278 71.9221 79.7424 72.6272 80.1723C73.3425 80.5971 74.0424 81.0322 74.7679 81.4468L76.9649 82.6496C77.6904 83.0539 78.4517 83.4224 79.2078 83.7909C79.964 84.1594 80.7099 84.5382 81.4968 84.8862C82.2785 85.2343 83.0449 85.5823 83.8777 85.9048C84.2966 86.0685 84.6696 86.2323 85.1192 86.3961L86.5651 86.913C89.5642 87.9828 93.0231 86.9591 94.9136 84.2106C97.1616 80.9298 96.3339 76.4462 93.0589 74.1891L91.8225 73.3395L91.7254 73.2729C91.705 73.2576 91.6079 73.2013 91.5517 73.1706L91.1583 72.9454C90.9028 72.8072 90.5963 72.6127 90.3153 72.454C89.7481 72.1315 89.1657 71.7477 88.5832 71.3894C88.0008 71.0465 87.4184 70.6473 86.8359 70.2634C86.2534 69.8795 85.671 69.5008 85.1039 69.0811L83.377 67.8732C82.8047 67.4637 82.2427 67.0235 81.6756 66.5987C81.1136 66.1688 80.5414 65.7593 79.9844 65.3089C79.4378 64.8534 78.8809 64.4081 78.324 63.9679C77.7722 63.5175 77.205 63.0978 76.6686 62.627L75.0541 61.2194L73.4396 59.817C72.9235 59.3206 72.4024 58.8292 71.8761 58.3481C71.5798 58.082 71.2886 57.8107 70.9973 57.5394C72.7447 55.9118 74.4972 54.2944 76.2649 52.6976L81.1596 48.2498L86.1257 43.8993C87.776 42.4355 89.4569 41.028 91.1327 39.6L93.6465 37.4656L94.9033 36.3959L96.1806 35.362L101.28 31.2009C102.976 29.8087 104.728 28.5087 106.45 27.1524L109.035 25.1204C109.894 24.4397 110.788 23.8204 111.662 23.1653L116.914 19.2447L117.088 19.1167C120.041 16.8954 120.889 12.7547 118.932 9.52513C116.868 6.09078 112.397 4.99036 108.959 7.07349Z" fill="#C30000"/>
</g>
<defs>
<clipPath id="clip0_2399_748939">
<rect width="120" height="116" fill="white"/>
</clipPath>
</defs>
</svg>
