<svg width="25" height="24" viewBox="0 0 25 24" fill="none" xmlns="http://www.w3.org/2000/svg">
<path d="M21.2301 8.01002L14.6801 2.77002C13.4001 1.75002 11.4001 1.74002 10.1301 2.76002L3.58011 8.01002C2.64011 8.76002 2.07011 10.26 2.27011 11.44L3.53011 18.98C3.82011 20.67 5.39011 22 7.10011 22H17.7001C19.3901 22 20.9901 20.64 21.2801 18.97L22.5401 11.43C22.7201 10.26 22.1501 8.76002 21.2301 8.01002ZM13.1501 18C13.1501 18.41 12.8101 18.75 12.4001 18.75C11.9901 18.75 11.6501 18.41 11.6501 18V15C11.6501 14.59 11.9901 14.25 12.4001 14.25C12.8101 14.25 13.1501 14.59 13.1501 15V18Z" fill="#417F56"/>
</svg>
