<svg width="148" height="71" viewBox="0 0 148 71" fill="none" xmlns="http://www.w3.org/2000/svg">
<path d="M0 15.4711C0 15.3475 0.0708511 15.2857 0.212553 15.2857C0.396241 15.2857 0.687518 15.4066 1.08638 15.6485C4.79163 17.9919 9.60163 19.1635 15.5164 19.1635C19.1377 19.1635 22.6671 18.5213 26.1047 17.2367C26.7082 17.0056 27.3328 16.6294 27.9783 16.108C28.5136 15.6028 29.0568 15.1029 29.6079 14.6085L29.6709 14.5117C29.6709 14.3451 29.3376 14.2134 28.6711 14.1167C28.3037 14.0361 27.9153 13.9796 27.506 13.9474C27.2488 13.9044 26.9601 13.7673 26.64 13.5362C26.2831 13.3159 26.0942 13.074 26.0732 12.8106V12.1818C26.0732 11.1445 26.5272 10.0131 27.4351 8.78766C28.3431 7.56222 29.2694 6.85545 30.214 6.66733C30.7231 6.8877 30.9777 7.23437 30.9777 7.70734C30.9777 7.91696 30.9226 8.21525 30.8123 8.60223C30.6759 9.01608 30.5053 9.24182 30.3006 9.27945C29.8808 8.83872 29.6052 8.61836 29.474 8.61836C29.1329 8.61836 28.6081 9.02415 27.8996 9.83573C27.1963 10.6419 26.8447 11.2305 26.8447 11.6013C26.8447 11.7249 26.863 11.8029 26.8998 11.8351C27.2829 12.0985 27.6372 12.2517 27.9626 12.2947C29.0227 12.4505 29.5816 12.5392 29.6394 12.5607C30.2849 12.7596 30.6077 13.1788 30.6077 13.8184C30.6077 14.8396 30.1668 15.8473 29.2851 16.8417C28.5084 17.664 27.6057 18.2902 26.577 18.7201C24.9606 19.3705 23.1368 19.916 21.1057 20.3567C18.9907 20.819 17.1171 21.0501 15.4849 21.0501C11.0869 21.0501 7.62567 20.5529 5.10128 19.5586C4.52922 19.2952 4.17234 19.1313 4.03064 19.0668C3.07546 18.4057 2.31447 17.8548 1.74766 17.4141C0.582553 16.3929 0 15.7452 0 15.4711Z" fill="#417F56"/>
<path d="M32.2215 1.76559C32.3527 0.89489 32.5626 0.338607 32.8513 0.0967449C32.8985 0.150492 32.9379 0.188115 32.9694 0.209614C33.1058 0.956699 33.2685 2.16601 33.4574 3.83755C33.6464 5.50371 33.8038 7.00325 33.9298 8.33618C34.061 9.66911 34.1266 10.3732 34.1266 10.4484C34.1266 10.6043 34.0872 10.8516 34.0085 11.1902C33.935 11.5234 33.7802 11.7491 33.544 11.8674C33.3761 10.5022 33.2082 9.14508 33.0402 7.79602C32.8775 6.44697 32.6991 5.11942 32.5049 3.81336C32.316 2.50193 32.2215 1.81934 32.2215 1.76559Z" fill="#417F56"/>
<path d="M39.3696 10.1985C39.3696 9.7578 39.5559 9.04833 39.9285 8.07014C40.3379 7.11344 40.6895 6.46309 40.9834 6.11911C41.6814 6.49534 42.18 6.83126 42.4791 7.12687C42.8885 7.55685 43.0932 8.11313 43.0932 8.79572C43.0932 10.0534 42.6733 10.951 41.8336 11.4885C41.7706 11.5959 41.5817 11.6793 41.2668 11.7384C40.9572 11.7921 40.7157 11.819 40.5426 11.819C40.1699 11.819 39.8708 11.6416 39.6451 11.2869C39.4614 10.959 39.3696 10.5963 39.3696 10.1985ZM40.3536 9.45681C40.3536 9.58043 40.4245 9.70942 40.5662 9.84379C40.7131 9.97278 40.8286 10.0373 40.9126 10.0373H41.1566C41.6709 10.0373 42.0042 9.9271 42.1564 9.70674C42.1564 9.30901 42.0226 8.95965 41.7549 8.65867C41.4872 8.35231 41.1855 8.16688 40.8496 8.10238C40.5189 8.68823 40.3536 9.1397 40.3536 9.45681Z" fill="#417F56"/>
<path d="M43.5262 16.7207C43.5262 16.6132 43.9093 16.4493 44.6755 16.229C45.8249 15.842 46.6148 15.5168 47.0451 15.2534C47.8481 14.7697 48.3965 14.2134 48.6904 13.5846C48.7429 13.4287 48.7691 13.34 48.7691 13.3185C48.7691 12.636 48.7088 12.0797 48.5881 11.6497C48.5251 11.467 48.2784 10.9402 47.8481 10.0695C47.9163 9.19883 48.0344 8.67479 48.2023 8.49743L48.5251 8.69898C48.8295 9.1827 49.0027 9.45144 49.0447 9.50518C49.2389 9.72555 49.5065 9.88679 49.8477 9.98891C50.2675 10.1609 50.5378 10.22 50.6585 10.1663V11.8351C50.2491 11.8566 49.845 11.8083 49.4462 11.69V12.4478C49.4462 13.4475 49.1654 14.3827 48.6038 15.2534C48.0475 16.1241 47.3285 16.7449 46.4468 17.1158C44.4997 17.1749 43.5262 17.0432 43.5262 16.7207Z" fill="#417F56"/>
<path d="M50.3436 10.1663C50.6113 10.177 51.0023 10.0668 51.5166 9.83573C52.0309 9.60462 52.3379 9.48906 52.4377 9.48906C52.6318 9.48906 52.9677 9.60193 53.4453 9.82767C53.9229 10.0534 54.306 10.1663 54.5947 10.1663V11.8351C54.264 11.8351 53.8652 11.7115 53.3981 11.4643C52.931 11.217 52.6108 11.0934 52.4377 11.0934C52.3589 11.0934 52.0887 11.217 51.6268 11.4643C51.165 11.7115 50.7845 11.8351 50.4853 11.8351H50.3436V10.1663ZM52.5636 14.5843C52.8103 13.848 53.036 13.4422 53.2406 13.3669C53.4243 13.4637 53.6238 13.5846 53.8389 13.7297C54.0646 13.9178 54.2194 14.0871 54.3034 14.2376C54.1407 15.0868 53.9098 15.5114 53.6106 15.5114C53.5004 15.5114 53.301 15.3959 53.0123 15.1648C52.7867 14.9229 52.6371 14.7294 52.5636 14.5843ZM50.6743 15.326C50.6743 15.0734 50.8684 14.6622 51.2568 14.0925C51.8499 14.5117 52.2304 14.8073 52.3983 14.9793V15.0358C52.3983 15.2293 52.3458 15.4657 52.2408 15.7452C52.1201 16.0408 52.0021 16.1886 51.8866 16.1886C51.7554 16.1886 51.5192 16.0758 51.1781 15.85C50.8422 15.6243 50.6743 15.4496 50.6743 15.326Z" fill="#417F56"/>
<path d="M54.2404 10.1663C55.0906 10.1663 56.0012 10.0561 56.9721 9.83573C58.0218 9.56162 58.8904 9.2257 59.5779 8.82797C58.2343 8.36574 57.4733 8.13463 57.2949 8.13463C57.0692 8.13463 56.7176 8.21525 56.24 8.37649C55.7677 8.53774 55.4029 8.61836 55.1457 8.61836C55.4029 7.6939 55.5551 7.21287 55.6023 7.17525C55.7388 6.91188 56.0826 6.6324 56.6336 6.33679C56.8226 6.2293 57.085 6.17555 57.4208 6.17555C57.5625 6.17555 58.1425 6.40129 59.1606 6.85276C60.289 7.36873 60.966 7.66434 61.1917 7.73959C62.3621 8.10507 63.4747 8.28781 64.5296 8.28781C64.6293 8.37381 64.6844 8.44368 64.6949 8.49743C64.6949 8.69629 64.5584 9.08864 64.2855 9.67449H64.0179C63.3041 9.67449 62.7662 9.61805 62.404 9.50518L62.3568 9.73898L62.404 10.0212C62.6192 10.2415 62.9367 10.3517 63.3566 10.3517C63.9864 10.3517 64.5768 10.2899 65.1279 10.1663V11.8351L63.4038 11.8674C62.984 11.8781 62.6376 11.7384 62.3647 11.4481C62.097 11.1579 61.9632 10.7978 61.9632 10.3678C61.9632 10.298 61.9737 10.1958 61.9947 10.0615C62.0209 9.92172 62.034 9.81423 62.034 9.73898V9.50518C61.5355 9.50518 60.9529 9.62074 60.2864 9.85185C59.3732 10.1958 58.6594 10.4941 58.1451 10.7467C57.1374 11.166 56.5313 11.4025 56.3266 11.4562C55.6391 11.7088 55.004 11.8351 54.4215 11.8351H54.2404V10.1663ZM58.2474 14.5601C58.4836 13.7109 58.7303 13.2648 58.9874 13.2218C59.1501 13.2433 59.3653 13.332 59.633 13.4878C59.9689 13.7082 60.1368 13.8963 60.1368 14.0522C60.1368 14.1704 60.0817 14.3774 59.9715 14.673C59.8665 14.9417 59.7537 15.1298 59.633 15.2373H59.5543C59.3496 15.2373 59.1029 15.1648 58.8143 15.0196C58.4364 14.9014 58.2474 14.7482 58.2474 14.5601Z" fill="#417F56"/>
<path d="M64.4587 4.94205C64.6949 4.09285 64.9416 3.64674 65.1987 3.60375C65.3614 3.62525 65.5766 3.71393 65.8443 3.8698C66.1801 4.09016 66.3481 4.27827 66.3481 4.43414C66.3481 4.55238 66.293 4.75931 66.1828 5.05492C66.0778 5.32366 65.965 5.51177 65.8443 5.61927H65.7655C65.5609 5.61927 65.3142 5.54671 65.0255 5.40159C64.6477 5.28335 64.4587 5.13017 64.4587 4.94205ZM64.8602 10.1663C65.5897 10.177 66.0017 10.0185 66.0962 9.69061C66.0647 9.55624 65.9361 9.30363 65.7104 8.93278C65.5162 8.62104 65.4034 8.36037 65.3719 8.15076C65.4926 7.8014 65.6369 7.41173 65.8049 6.98176H65.8757C66.1119 6.98176 66.3376 7.32842 66.5528 8.02176C66.7784 8.62911 66.8913 9.10746 66.8913 9.45681C66.8913 10.2146 66.7732 10.7817 66.537 11.1579C66.2536 11.6094 65.7682 11.8351 65.0806 11.8351H64.8602V10.1663Z" fill="#417F56"/>
<path d="M66.3481 15.2051C67.7861 15.1137 68.6337 15.0358 68.8909 14.9713C69.6518 14.7294 70.3945 14.2484 71.1187 13.5282C71.8482 12.8079 72.3416 12.0501 72.5987 11.2547C72.3521 10.8139 72.1159 10.3813 71.8902 9.95666C71.5228 9.2472 71.3391 8.78229 71.3391 8.56192L71.3943 8.38456C71.4153 8.34156 71.4835 8.16419 71.5989 7.85246C71.6882 7.57835 71.7747 7.44129 71.8587 7.44129C72.1054 7.44129 72.3967 7.80946 72.7326 8.5458C73.0737 9.18539 73.2443 9.66643 73.2443 9.98891C73.2443 12.1334 72.6092 13.8614 71.3391 15.1728C70.7409 15.764 70.1242 16.0596 69.4892 16.0596C69.1113 16.0596 68.1535 15.9226 66.6157 15.6485C66.5738 15.6162 66.4845 15.5168 66.3481 15.3502V15.2051ZM69.8434 5.69182C70.0796 4.84262 70.3262 4.39652 70.5834 4.35352C70.7461 4.37502 70.9613 4.4637 71.2289 4.61957C71.5648 4.83993 71.7328 5.02805 71.7328 5.18391C71.7328 5.30216 71.6777 5.50908 71.5674 5.80469C71.4625 6.07343 71.3496 6.26154 71.2289 6.36904H71.1502C70.9455 6.36904 70.6989 6.29648 70.4102 6.15136C70.0323 6.03312 69.8434 5.87994 69.8434 5.69182Z" fill="#417F56"/>
<path d="M55.3583 15.4711C55.3583 15.3475 55.4291 15.2857 55.5709 15.2857C55.7545 15.2857 56.0458 15.4066 56.4447 15.6485C60.1499 17.9919 64.9599 19.1635 70.8747 19.1635C74.496 19.1635 78.0254 18.5213 81.463 17.2367C82.0665 17.0056 82.6911 16.6294 83.3366 16.108C83.8719 15.6028 84.4151 15.1029 84.9662 14.6085L85.0292 14.5117C85.0292 14.3451 84.6959 14.2134 84.0294 14.1167C83.662 14.0361 83.2736 13.9796 82.8643 13.9474C82.6071 13.9044 82.3184 13.7673 81.9983 13.5362C81.6414 13.3159 81.4525 13.074 81.4315 12.8106V12.1818C81.4315 11.1445 81.8855 10.0131 82.7934 8.78766C83.7013 7.56222 84.6277 6.85545 85.5723 6.66733C86.0814 6.8877 86.336 7.23437 86.336 7.70734C86.336 7.91696 86.2809 8.21525 86.1706 8.60223C86.0342 9.01608 85.8636 9.24182 85.6589 9.27945C85.2391 8.83872 84.9635 8.61836 84.8323 8.61836C84.4912 8.61836 83.9664 9.02415 83.2579 9.83573C82.5546 10.6419 82.203 11.2305 82.203 11.6013C82.203 11.7249 82.2214 11.8029 82.2581 11.8351C82.6412 12.0985 82.9955 12.2517 83.3209 12.2947C84.381 12.4505 84.9399 12.5392 84.9977 12.5607C85.6432 12.7596 85.966 13.1788 85.966 13.8184C85.966 14.8396 85.5251 15.8473 84.6434 16.8417C83.8667 17.664 82.964 18.2902 81.9353 18.7201C80.3189 19.3705 78.4951 19.916 76.464 20.3567C74.349 20.819 72.4754 21.0501 70.8432 21.0501C66.4452 21.0501 62.984 20.5529 60.4596 19.5586C59.8875 19.2952 59.5306 19.1313 59.3889 19.0668C58.4338 18.4057 57.6728 17.8548 57.106 17.4141C55.9408 16.3929 55.3583 15.7452 55.3583 15.4711Z" fill="#417F56"/>
<path d="M87.2255 1.64466C87.3777 0.768584 87.4853 0.220363 87.5483 0C87.69 0.128993 87.7871 0.360106 87.8396 0.693338C87.9078 0.84383 87.9577 1.08569 87.9892 1.41892C88.5245 5.43384 88.7974 7.52998 88.8079 7.70734C88.9601 8.75541 89.0782 9.34932 89.1621 9.48906C89.3983 9.94054 89.8496 10.1663 90.5162 10.1663V11.8351C89.5715 11.8351 88.9968 11.647 88.7921 11.2708C88.6294 11.0397 88.4641 10.5129 88.2962 9.69061C88.2489 9.32513 88.1728 8.7581 88.0679 7.98951C87.69 4.73244 87.4092 2.61749 87.2255 1.64466Z" fill="#417F56"/>
<path d="M90.2091 10.1663C90.6343 10.1663 91.1118 10.0964 91.6419 9.95666C92.2769 9.80079 92.7231 9.62343 92.9802 9.42456C92.7021 8.80647 92.563 8.4598 92.563 8.38456C92.563 8.14269 92.6706 7.84977 92.8857 7.50579C93.1114 7.10269 93.2452 6.8232 93.2872 6.66733C93.135 6.57059 93.0589 6.3986 93.0589 6.15136C93.0589 5.89875 93.135 5.61389 93.2872 5.29678C93.4342 4.92055 93.61 4.73244 93.8147 4.73244C94.4602 4.73244 95.2081 5.24035 96.0583 6.25617C96.7353 7.04625 97.0896 7.46279 97.1211 7.50579C97.5619 8.11313 97.7823 8.63179 97.7823 9.06177C97.7823 9.26063 97.5829 9.69061 97.184 10.3517C97.0686 10.5022 96.8587 10.5774 96.5543 10.5774C95.5256 10.5774 94.7541 10.4458 94.2398 10.1824C93.6257 10.5264 93.017 10.8677 92.4134 11.2063C91.5527 11.6255 90.8652 11.8351 90.3509 11.8351H90.2091V10.1663ZM95.0113 9.11014C95.9665 9.36275 96.5411 9.48906 96.7353 9.48906C96.877 9.48906 96.9479 9.43531 96.9479 9.32782C96.9479 9.10745 96.7038 8.74466 96.2157 8.23944C95.8641 7.85246 95.5151 7.54341 95.1687 7.3123C95.2579 7.90352 95.2055 8.5028 95.0113 9.11014ZM93.0589 8.4168C93.0589 8.54042 93.0799 8.60761 93.1219 8.61836C93.4473 8.8011 93.7753 8.87097 94.106 8.82797C94.4628 8.58611 94.6413 8.3335 94.6413 8.07014C94.6413 7.84977 94.5862 7.64016 94.476 7.44129C94.3605 7.25318 94.2109 7.15912 94.0272 7.15912C93.8645 7.15912 93.6625 7.32574 93.4211 7.65897C93.1796 7.98683 93.0589 8.23944 93.0589 8.4168Z" fill="#417F56"/>
<path d="M77.1883 15.1728C77.1883 15.0922 77.2486 15.0519 77.3694 15.0519C77.5216 15.0519 77.8496 15.1916 78.3534 15.4711C81.135 16.9115 83.5203 17.879 85.5094 18.3735C87.7241 18.9002 90.2511 19.1635 93.0904 19.1635C97.4517 19.1635 100.9 18.7497 103.435 17.922C105.975 17.0997 107.901 15.5437 109.213 13.254C109.213 12.5392 108.993 11.7464 108.552 10.8757C108.111 10.005 107.89 9.52131 107.89 9.42456C107.89 9.21495 108.03 8.74735 108.308 8.02176C108.287 7.7799 108.334 7.65897 108.449 7.65897C108.665 7.65897 108.993 8.2475 109.433 9.42456C109.885 10.5479 110.11 11.303 110.11 11.69C110.294 13.1842 109.664 14.767 108.221 16.4386C106.783 18.1155 104.479 19.3543 101.309 20.1552C98.5381 20.7088 95.8562 20.9856 93.2636 20.9856C91.2011 20.9856 89.2461 20.8808 87.3987 20.6712C84.9163 20.3272 83.0558 19.8246 81.8172 19.1635C81.0877 18.7927 80.2821 18.2364 79.4004 17.4947C79.0016 17.1238 78.5922 16.7718 78.1723 16.4386C77.5163 15.8366 77.1883 15.4147 77.1883 15.1728ZM105.08 3.88592C105.08 3.77842 105.195 3.55269 105.426 3.2087C105.657 2.85935 105.804 2.68467 105.867 2.68467C105.956 2.68467 106.177 2.77873 106.529 2.96684C106.906 3.18721 107.095 3.36726 107.095 3.507C107.095 3.60912 106.988 3.82411 106.773 4.15197C106.578 4.5282 106.41 4.71631 106.269 4.71631C106.143 4.71631 105.912 4.60882 105.576 4.39383C105.245 4.17884 105.08 4.00954 105.08 3.88592Z" fill="#417F56"/>
<path d="M111.323 1.76559C111.454 0.89489 111.664 0.338607 111.953 0.0967449C112 0.150492 112.039 0.188115 112.071 0.209614C112.207 0.956699 112.37 2.16601 112.559 3.83755C112.748 5.50371 112.905 7.00325 113.031 8.33618C113.162 9.66911 113.228 10.3732 113.228 10.4484C113.228 10.6043 113.189 10.8516 113.11 11.1902C113.036 11.5234 112.881 11.7491 112.645 11.8674C112.477 10.5022 112.309 9.14508 112.141 7.79602C111.979 6.44697 111.8 5.11942 111.606 3.81336C111.417 2.50193 111.323 1.81934 111.323 1.76559Z" fill="#417F56"/>
<path d="M112.748 15.2051C114.186 15.1137 115.033 15.0358 115.29 14.9713C116.051 14.7294 116.794 14.2484 117.518 13.5282C118.248 12.8079 118.741 12.0501 118.998 11.2547C118.752 10.8139 118.515 10.3813 118.29 9.95666C117.922 9.2472 117.739 8.78229 117.739 8.56192L117.794 8.38456C117.815 8.34156 117.883 8.16419 117.999 7.85246C118.088 7.57835 118.174 7.44129 118.258 7.44129C118.505 7.44129 118.796 7.80946 119.132 8.5458C119.473 9.18539 119.644 9.66643 119.644 9.98891C119.644 12.1334 119.009 13.8614 117.739 15.1728C117.14 15.764 116.524 16.0596 115.889 16.0596C115.511 16.0596 114.553 15.9226 113.015 15.6485C112.973 15.6162 112.884 15.5168 112.748 15.3502V15.2051Z" fill="#417F56"/>
<path d="M119.604 15.068C119.646 15.0358 119.725 15.0196 119.841 15.0196H120.636C121.754 15.0196 122.512 14.9659 122.911 14.8584C123.436 14.681 124.079 14.2618 124.84 13.6007C125.637 12.9289 126.128 12.3403 126.312 11.8351C125.419 11.8351 124.826 11.7733 124.533 11.6497C123.997 11.467 123.73 10.9994 123.73 10.2469C123.73 9.77392 123.903 9.24182 124.249 8.6506C124.622 7.98951 124.997 7.65897 125.375 7.65897C125.653 7.65897 125.971 8.00564 126.327 8.69898C126.658 9.23645 126.879 9.72555 126.989 10.1663H127.406V11.8351H126.823C126.75 12.5822 126.338 13.418 125.587 14.3424C124.821 15.2131 124.084 15.7802 123.375 16.0435C122.74 15.936 122.013 15.8044 121.195 15.6485C120.135 15.4066 119.604 15.2131 119.604 15.068ZM124.572 9.85185C124.819 10.0615 125.097 10.1663 125.406 10.1663C125.459 10.1663 125.524 10.1555 125.603 10.134C125.603 9.96741 125.564 9.80348 125.485 9.64224C125.37 9.42188 125.241 9.31169 125.099 9.31169C124.842 9.31169 124.666 9.49175 124.572 9.85185Z" fill="#417F56"/>
<path d="M127.13 10.1663C127.398 10.177 127.789 10.0668 128.303 9.83573C128.818 9.60462 129.125 9.48906 129.224 9.48906C129.419 9.48906 129.755 9.60193 130.232 9.82767C130.71 10.0534 131.093 10.1663 131.381 10.1663V11.8351C131.051 11.8351 130.652 11.7115 130.185 11.4643C129.718 11.217 129.398 11.0934 129.224 11.0934C129.146 11.0934 128.875 11.217 128.414 11.4643C127.952 11.7115 127.571 11.8351 127.272 11.8351H127.13V10.1663ZM129.02 5.54671C129.266 4.81037 129.492 4.40458 129.697 4.32933C129.88 4.42608 130.08 4.54701 130.295 4.69213C130.521 4.88024 130.676 5.04954 130.76 5.20004C130.597 6.04924 130.366 6.47384 130.067 6.47384C129.957 6.47384 129.757 6.35829 129.469 6.12718C129.243 5.88531 129.093 5.69182 129.02 5.54671ZM127.13 6.28842C127.13 6.03581 127.325 5.62464 127.713 5.05492C128.306 5.47415 128.687 5.76976 128.854 5.94175V5.99818C128.854 6.19167 128.802 6.42816 128.697 6.70764C128.576 7.00325 128.458 7.15106 128.343 7.15106C128.212 7.15106 127.975 7.03819 127.634 6.81245C127.298 6.58671 127.13 6.41204 127.13 6.28842Z" fill="#417F56"/>
<path d="M131.027 10.1663C131.772 10.1663 132.484 10.0776 133.161 9.90023C134.168 9.65836 134.753 9.31169 134.916 8.86022C135.079 8.40874 135.228 8.12926 135.365 8.02176C135.412 8.05401 135.436 8.12657 135.436 8.23944C135.436 8.5888 135.339 9.0564 135.144 9.64224C135.291 9.69599 135.42 9.72286 135.53 9.72286C136.627 9.72286 137.391 9.55624 137.821 9.22301C138.089 9.00265 138.293 8.63986 138.435 8.13463C138.572 7.65091 138.784 7.34992 139.073 7.23168L139.112 7.29618C139.133 7.32842 139.144 7.36605 139.144 7.40904C139.144 7.57566 139.073 7.97876 138.931 8.61836C139.083 8.86022 139.238 9.00802 139.396 9.06177C139.443 9.07252 139.674 9.12627 140.088 9.22301L140.498 9.06177C140.498 8.9489 140.474 8.82797 140.427 8.69898C140.385 8.56461 140.364 8.47055 140.364 8.4168C140.364 8.35231 140.435 8.0997 140.576 7.65897C140.76 7.15375 140.852 6.88501 140.852 6.85276C140.967 6.85276 141.085 7.03819 141.206 7.40904C141.311 7.70465 141.364 7.94652 141.364 8.13463C141.364 8.78497 141.251 9.3735 141.025 9.90023C140.726 10.5936 140.296 10.9402 139.734 10.9402C139.456 10.9402 138.984 10.7333 138.317 10.3195C138.154 10.7226 137.774 11.0343 137.176 11.2547C136.714 11.4105 136.223 11.4885 135.703 11.4885C135.189 11.4885 134.711 11.4105 134.271 11.2547C133.252 11.6416 132.303 11.8351 131.421 11.8351H131.027V10.1663Z" fill="#417F56"/>
<path d="M141.104 15.2051C142.542 15.1137 143.389 15.0358 143.647 14.9713C144.408 14.7294 145.15 14.2484 145.874 13.5282C146.604 12.8079 147.097 12.0501 147.354 11.2547C147.108 10.8139 146.872 10.3813 146.646 9.95666C146.279 9.2472 146.095 8.78229 146.095 8.56192L146.15 8.38456C146.171 8.34156 146.239 8.16419 146.355 7.85246C146.444 7.57835 146.531 7.44129 146.614 7.44129C146.861 7.44129 147.152 7.80946 147.488 8.5458C147.829 9.18539 148 9.66643 148 9.98891C148 12.1334 147.365 13.8614 146.095 15.1728C145.497 15.764 144.88 16.0596 144.245 16.0596C143.867 16.0596 142.909 15.9226 141.371 15.6485C141.329 15.6162 141.24 15.5168 141.104 15.3502V15.2051Z" fill="#417F56"/>
<path d="M30.5104 56.2175H27.8913C24.5381 56.2175 21.6115 55.1609 19.1115 53.0476C16.7702 51.0766 15.1036 48.4351 14.1115 45.123C13.675 43.66 12.7127 42.9285 11.2246 42.9285C10.3515 42.9285 9.60749 43.2333 8.99241 43.8429C8.39717 44.4321 8.09955 45.1636 8.09955 46.0374C8.09955 46.9111 8.39717 47.6629 8.99241 48.2928C9.60749 48.9024 10.3515 49.2072 11.2246 49.2072H16.0163V56.2175H11.5519C8.77415 56.2175 6.37334 55.2523 4.34952 53.3219C2.34554 51.3916 1.34355 48.9634 1.34355 46.0374C1.34355 43.2536 2.30586 40.8762 4.23047 38.9052C6.15509 36.9342 8.48645 35.9487 11.2246 35.9487C13.3476 35.9487 15.2921 36.6192 17.0579 37.9603C18.8238 39.2811 20.0341 40.9879 20.6889 43.0809C21.9191 47.1651 24.3199 49.2072 27.8913 49.2072H30.5104V56.2175Z" fill="#417F56"/>
<path d="M43.4867 30.31H40.0938C39.1613 30.31 38.3577 29.9747 37.6831 29.3042C37.0085 28.6133 36.6712 27.7904 36.6712 26.8354C36.6712 25.8803 37.0085 25.0574 37.6831 24.3665C38.3577 23.6757 39.1613 23.3302 40.0938 23.3302C41.0263 23.3302 41.82 23.6757 42.4748 24.3665C43.1494 25.0574 43.4867 25.8803 43.4867 26.8354V30.31ZM55.2129 56.2175H52.5641C49.8062 56.2175 47.2665 55.3539 44.945 53.6267V56.2175H27.8913V49.2072H38.1295V36.162H44.945V40.5206C44.945 43.0199 45.6494 45.0925 47.0581 46.7384C48.4669 48.3843 50.3022 49.2072 52.5641 49.2072H55.2129V56.2175Z" fill="#417F56"/>
<path d="M79.6774 56.2175H77.0286C74.2706 56.2175 71.7309 55.3539 69.4095 53.6267V56.2175H52.3558V49.2072H62.5939V36.162H69.4095V40.5206C69.4095 43.0199 70.1138 45.0925 71.5226 46.7384C72.9313 48.3843 74.7666 49.2072 77.0286 49.2072H79.6774V56.2175ZM74.0821 68.6226H70.6297C69.6972 68.6226 68.8936 68.2772 68.219 67.5863C67.5642 66.8954 67.2368 66.0725 67.2368 65.1175C67.2368 64.1421 67.5642 63.3192 68.219 62.6486C68.8936 61.9781 69.6972 61.6428 70.6297 61.6428C71.5821 61.6428 72.3956 61.9781 73.0702 62.6486C73.7448 63.3192 74.0821 64.1421 74.0821 65.1175V68.6226ZM66.344 68.6226H62.9213C61.9689 68.6226 61.1554 68.2772 60.4808 67.5863C59.8261 66.8954 59.4987 66.0725 59.4987 65.1175C59.4987 64.1421 59.8261 63.3192 60.4808 62.6486C61.1554 61.9781 61.9689 61.6428 62.9213 61.6428C63.8539 61.6428 64.6574 61.9781 65.3321 62.6486C66.0067 63.3192 66.344 64.1421 66.344 65.1175V68.6226Z" fill="#417F56"/>
<path d="M110.63 56.2175H76.8202V49.2072H103.428C102.852 47.4191 101.82 45.9561 100.332 44.8182C98.864 43.6803 97.1775 43.1113 95.2727 43.1113L85.1239 43.1418V36.162H95.2727C99.4989 36.162 103.11 37.6962 106.106 40.7644C109.122 43.8124 110.63 47.5105 110.63 51.8589V56.2175ZM93.1894 32.5655H89.7965C88.8639 32.5655 88.0604 32.2302 87.3858 31.5597C86.7112 30.8688 86.3738 30.0458 86.3738 29.0908C86.3738 28.1358 86.7112 27.3129 87.3858 26.622C88.0604 25.9311 88.8639 25.5857 89.7965 25.5857C90.729 25.5857 91.5227 25.9311 92.1775 26.622C92.8521 27.3129 93.1894 28.1358 93.1894 29.0908V32.5655Z" fill="#417F56"/>
<path d="M132.191 56.2175H129.542C126.804 56.2175 124.265 55.3539 121.923 53.6267V55.3031C121.923 59.6921 120.376 63.4005 117.28 66.4281C114.205 69.476 110.356 71 105.733 71V64.0202C108.491 64.0202 110.743 63.177 112.489 61.4904C114.255 59.8039 115.138 57.7415 115.138 55.3031V36.162H121.923V40.5206C121.923 43.0199 122.628 45.0925 124.036 46.7384C125.465 48.3843 127.3 49.2072 129.542 49.2072H132.191V56.2175Z" fill="#417F56"/>
<path d="M146.596 56.2175H129.542V49.2072H139.781V36.162H146.596V56.2175ZM146.894 29.8223H143.441C142.509 29.8223 141.705 29.4769 141.031 28.786C140.376 28.0952 140.048 27.2722 140.048 26.3172C140.048 25.3419 140.376 24.5189 141.031 23.8484C141.705 23.1778 142.509 22.8425 143.441 22.8425C144.394 22.8425 145.207 23.1778 145.882 23.8484C146.556 24.5189 146.894 25.3419 146.894 26.3172V29.8223ZM139.156 29.8223H135.733C134.781 29.8223 133.967 29.4769 133.292 28.786C132.638 28.0952 132.31 27.2722 132.31 26.3172C132.31 25.3419 132.638 24.5189 133.292 23.8484C133.967 23.1778 134.781 22.8425 135.733 22.8425C136.665 22.8425 137.469 23.1778 138.144 23.8484C138.818 24.5189 139.156 25.3419 139.156 26.3172V29.8223Z" fill="#417F56"/>
</svg>
