    <svg width="25" height="24" viewBox="0 0 25 24" fill="none" xmlns="http://www.w3.org/2000/svg">
<path d="M16.58 2H9.02005C5.24005 2 4.30005 3.01 4.30005 7.04V18.3C4.30005 20.96 5.76005 21.59 7.53005 19.69L7.54005 19.68C8.36005 18.81 9.61005 18.88 10.32 19.83L11.33 21.18C12.14 22.25 13.45 22.25 14.26 21.18L15.27 19.83C15.99 18.87 17.24 18.8 18.06 19.68C19.84 21.58 21.29 20.95 21.29 18.29V7.04C21.3 3.01 20.36 2 16.58 2ZM8.58005 12C8.03005 12 7.58005 11.55 7.58005 11C7.58005 10.45 8.03005 10 8.58005 10C9.13005 10 9.58005 10.45 9.58005 11C9.58005 11.55 9.13005 12 8.58005 12ZM8.58005 8C8.03005 8 7.58005 7.55 7.58005 7C7.58005 6.45 8.03005 6 8.58005 6C9.13005 6 9.58005 6.45 9.58005 7C9.58005 7.55 9.13005 8 8.58005 8ZM17.03 11.75H11.53C11.12 11.75 10.78 11.41 10.78 11C10.78 10.59 11.12 10.25 11.53 10.25H17.03C17.44 10.25 17.78 10.59 17.78 11C17.78 11.41 17.44 11.75 17.03 11.75ZM17.03 7.75H11.53C11.12 7.75 10.78 7.41 10.78 7C10.78 6.59 11.12 6.25 11.53 6.25H17.03C17.44 6.25 17.78 6.59 17.78 7C17.78 7.41 17.44 7.75 17.03 7.75Z" fill="#417F56"/>
</svg>
