<svg width="25" height="24" viewBox="0 0 25 24" fill="none" xmlns="http://www.w3.org/2000/svg">
<path d="M11.7002 21.75C6.0502 21.75 1.4502 17.15 1.4502 11.5C1.4502 5.85 6.0502 1.25 11.7002 1.25C17.3502 1.25 21.9502 5.85 21.9502 11.5C21.9502 17.15 17.3502 21.75 11.7002 21.75ZM11.7002 2.75C6.8702 2.75 2.9502 6.68 2.9502 11.5C2.9502 16.32 6.8702 20.25 11.7002 20.25C16.5302 20.25 20.4502 16.32 20.4502 11.5C20.4502 6.68 16.5302 2.75 11.7002 2.75Z" fill="#417F56"/>
<path d="M22.2001 22.75C22.0101 22.75 21.8201 22.68 21.6701 22.53L19.6701 20.53C19.3801 20.24 19.3801 19.76 19.6701 19.47C19.9601 19.18 20.4401 19.18 20.7301 19.47L22.7301 21.47C23.0201 21.76 23.0201 22.24 22.7301 22.53C22.5801 22.68 22.3901 22.75 22.2001 22.75Z" fill="#417F56"/>
</svg>
