<svg width="155" height="51" viewBox="0 0 155 51" fill="none" xmlns="http://www.w3.org/2000/svg">
<path d="M1.854 12.3983C1.854 12.3175 1.90147 12.277 1.99639 12.277C2.11945 12.277 2.31457 12.3561 2.58178 12.5144C5.06394 14.0472 8.28618 14.8137 12.2485 14.8137C14.6744 14.8137 17.0388 14.3936 19.3416 13.5533C19.746 13.4021 20.1643 13.156 20.5968 12.815C20.9554 12.4845 21.3193 12.1575 21.6884 11.834L21.7306 11.7708C21.7306 11.6618 21.5074 11.5756 21.0609 11.5124C20.8148 11.4596 20.5546 11.4227 20.2804 11.4016C20.1081 11.3735 19.9147 11.2838 19.7003 11.1326C19.4612 10.9885 19.3346 10.8303 19.3205 10.658V10.2467C19.3205 9.56811 19.6247 8.82803 20.2329 8.02642C20.8411 7.22482 21.4617 6.76249 22.0945 6.63944C22.4356 6.78359 22.6061 7.01036 22.6061 7.31975C22.6061 7.45686 22.5692 7.65199 22.4953 7.90513C22.4039 8.17585 22.2896 8.32351 22.1525 8.34812C21.8713 8.05982 21.6867 7.91568 21.5988 7.91568C21.3703 7.91568 21.0187 8.18112 20.544 8.71201C20.0729 9.23938 19.8374 9.62436 19.8374 9.86695C19.8374 9.94781 19.8497 9.99879 19.8743 10.0199C20.1309 10.1922 20.3683 10.2924 20.5862 10.3205C21.2964 10.4224 21.6709 10.4805 21.7095 10.4945C22.142 10.6246 22.3582 10.8988 22.3582 11.3172C22.3582 11.9852 22.0629 12.6444 21.4722 13.2949C20.9519 13.8328 20.3472 14.2424 19.6581 14.5236C18.5752 14.9491 17.3534 15.3059 15.9928 15.5942C14.576 15.8966 13.3208 16.0477 12.2274 16.0477C9.28115 16.0477 6.96247 15.7225 5.27137 15.0721C4.88815 14.8998 4.64907 14.7926 4.55415 14.7504C3.91427 14.318 3.40448 13.9576 3.02477 13.6693C2.24426 13.0013 1.854 12.5776 1.854 12.3983Z" fill="white"/>
<path d="M23.4393 3.43302C23.5272 2.86346 23.6678 2.49957 23.8612 2.34136C23.8929 2.37652 23.9192 2.40113 23.9403 2.41519C24.0317 2.90389 24.1407 3.69495 24.2673 4.78836C24.3939 5.87827 24.4993 6.85918 24.5837 7.7311C24.6716 8.60302 24.7156 9.06359 24.7156 9.11281C24.7156 9.21477 24.6892 9.3765 24.6364 9.59799C24.5872 9.81597 24.4835 9.96364 24.3253 10.041C24.2128 9.14797 24.1003 8.26023 23.9878 7.37776C23.8788 6.49529 23.7593 5.62688 23.6292 4.77254C23.5026 3.91469 23.4393 3.46818 23.4393 3.43302Z" fill="white"/>
<path d="M28.2278 8.94932C28.2278 8.66103 28.3527 8.19694 28.6023 7.55706C28.8765 6.93125 29.1121 6.50584 29.309 6.28083C29.7766 6.52693 30.1106 6.74667 30.311 6.94004C30.5852 7.2213 30.7223 7.58519 30.7223 8.0317C30.7223 8.8544 30.441 9.44154 29.8785 9.79312C29.8363 9.86344 29.7098 9.91793 29.4988 9.9566C29.2914 9.99176 29.1297 10.0093 29.0136 10.0093C28.764 10.0093 28.5636 9.89332 28.4124 9.66128C28.2894 9.44681 28.2278 9.20949 28.2278 8.94932ZM28.8871 8.46414C28.8871 8.54501 28.9345 8.62939 29.0295 8.71728C29.1279 8.80166 29.2052 8.84385 29.2615 8.84385H29.425C29.7695 8.84385 29.9928 8.77178 30.0947 8.62763C30.0947 8.36746 30.0051 8.13893 29.8258 7.94205C29.6465 7.74164 29.4443 7.62035 29.2193 7.57816C28.9978 7.96138 28.8871 8.25671 28.8871 8.46414Z" fill="white"/>
<path d="M31.0124 13.2158C31.0124 13.1454 31.269 13.0382 31.7823 12.8941C32.5523 12.6409 33.0814 12.4282 33.3697 12.2559C33.9076 11.9395 34.275 11.5756 34.4719 11.1643C34.5071 11.0623 34.5247 11.0043 34.5247 10.9903C34.5247 10.5437 34.4842 10.1799 34.4034 9.89859C34.3612 9.77906 34.1959 9.43451 33.9076 8.86495C33.9533 8.29538 34.0324 7.95259 34.145 7.83657L34.3612 7.96841C34.5651 8.28484 34.6811 8.46063 34.7092 8.49579C34.8393 8.63993 35.0186 8.74541 35.2472 8.81221C35.5284 8.92471 35.7095 8.96339 35.7904 8.92823V10.0199C35.5161 10.034 35.2454 10.0023 34.9782 9.92496V10.4207C34.9782 11.0746 34.7901 11.6864 34.4139 12.2559C34.0412 12.8255 33.5596 13.2316 32.9689 13.4742C31.6646 13.5128 31.0124 13.4267 31.0124 13.2158Z" fill="white"/>
<path d="M35.5794 8.92823C35.7587 8.93526 36.0206 8.86319 36.3652 8.71201C36.7097 8.56083 36.9154 8.48524 36.9822 8.48524C37.1123 8.48524 37.3373 8.55907 37.6572 8.70673C37.9772 8.8544 38.2338 8.92823 38.4272 8.92823V10.0199C38.2057 10.0199 37.9385 9.93903 37.6256 9.7773C37.3127 9.61557 37.0982 9.53471 36.9822 9.53471C36.9295 9.53471 36.7484 9.61557 36.439 9.7773C36.1296 9.93903 35.8747 10.0199 35.6743 10.0199H35.5794V8.92823ZM37.0666 11.8182C37.2318 11.3366 37.383 11.0711 37.5201 11.0219C37.6432 11.0852 37.7768 11.1643 37.9209 11.2592C38.0721 11.3823 38.1758 11.493 38.2321 11.5915C38.1231 12.147 37.9684 12.4247 37.768 12.4247C37.6942 12.4247 37.5606 12.3491 37.3672 12.1979C37.216 12.0397 37.1158 11.9132 37.0666 11.8182ZM35.8009 12.3034C35.8009 12.1382 35.931 11.8692 36.1912 11.4965C36.5884 11.7708 36.8433 11.9641 36.9558 12.0766V12.1136C36.9558 12.2401 36.9207 12.3948 36.8504 12.5776C36.7695 12.771 36.6904 12.8677 36.6131 12.8677C36.5252 12.8677 36.3669 12.7939 36.1384 12.6462C35.9134 12.4985 35.8009 12.3843 35.8009 12.3034Z" fill="white"/>
<path d="M38.1899 8.92823C38.7595 8.92823 39.3694 8.85616 40.0199 8.71201C40.723 8.5327 41.3049 8.31296 41.7655 8.05279C40.8654 7.75043 40.3556 7.59925 40.2361 7.59925C40.0849 7.59925 39.8494 7.65199 39.5294 7.75747C39.213 7.86294 38.9686 7.91568 38.7964 7.91568C38.9686 7.31096 39.0706 6.99629 39.1022 6.97168C39.1937 6.79941 39.4239 6.61658 39.7931 6.42322C39.9197 6.3529 40.0955 6.31774 40.3205 6.31774C40.4154 6.31774 40.8039 6.4654 41.486 6.76073C42.2419 7.09825 42.6954 7.29162 42.8466 7.34084C43.6306 7.57992 44.376 7.69945 45.0826 7.69945C45.1494 7.75571 45.1864 7.80141 45.1934 7.83657C45.1934 7.96666 45.102 8.22331 44.9192 8.60653H44.7398C44.2617 8.60653 43.9013 8.56962 43.6587 8.49579L43.6271 8.64872L43.6587 8.8333C43.8029 8.97745 44.0156 9.04953 44.2969 9.04953C44.7188 9.04953 45.1143 9.00909 45.4834 8.92823V10.0199L44.3285 10.041C44.0472 10.048 43.8152 9.9566 43.6324 9.76675C43.4531 9.5769 43.3634 9.34134 43.3634 9.06007C43.3634 9.01437 43.3704 8.94757 43.3845 8.85967C43.4021 8.76826 43.4109 8.69794 43.4109 8.64872V8.49579C43.0769 8.49579 42.6866 8.57138 42.2401 8.72256C41.6284 8.94757 41.1502 9.14269 40.8057 9.30794C40.1306 9.58217 39.7245 9.73687 39.5874 9.77202C39.1269 9.93727 38.7014 10.0199 38.3112 10.0199H38.1899V8.92823ZM40.8742 11.8024C41.0324 11.2469 41.1977 10.9551 41.3699 10.927C41.4789 10.941 41.6231 10.999 41.8024 11.101C42.0274 11.2451 42.1399 11.3682 42.1399 11.4702C42.1399 11.5475 42.103 11.6829 42.0292 11.8762C41.9588 12.052 41.8833 12.1751 41.8024 12.2454H41.7496C41.6125 12.2454 41.4473 12.1979 41.2539 12.103C41.0008 12.0257 40.8742 11.9255 40.8742 11.8024Z" fill="white"/>
<path d="M45.0352 5.51086C45.1934 4.95537 45.3586 4.66355 45.5309 4.63543C45.6399 4.64949 45.784 4.7075 45.9633 4.80946C46.1884 4.95361 46.3009 5.07666 46.3009 5.17862C46.3009 5.25597 46.264 5.39133 46.1901 5.5847C46.1198 5.76049 46.0442 5.88354 45.9633 5.95386H45.9106C45.7735 5.95386 45.6083 5.90639 45.4149 5.81146C45.1617 5.73412 45.0352 5.63392 45.0352 5.51086ZM45.3041 8.92823C45.7928 8.93526 46.0688 8.83154 46.1321 8.61708C46.111 8.52919 46.0249 8.36394 45.8737 8.12135C45.7436 7.91743 45.668 7.74692 45.6469 7.6098C45.7278 7.38127 45.8245 7.12638 45.937 6.84511H45.9844C46.1427 6.84511 46.2938 7.07188 46.438 7.52542C46.5892 7.92271 46.6648 8.23562 46.6648 8.46414C46.6648 8.95987 46.5856 9.33079 46.4274 9.5769C46.2376 9.87222 45.9124 10.0199 45.4518 10.0199H45.3041V8.92823Z" fill="white"/>
<path d="M46.3009 12.2243C47.2642 12.1645 47.832 12.1136 48.0043 12.0714C48.5141 11.9132 49.0116 11.5985 49.4967 11.1274C49.9854 10.6562 50.3159 10.1605 50.4882 9.64018C50.323 9.35189 50.1647 9.06886 50.0136 8.79111C49.7675 8.32703 49.6444 8.02291 49.6444 7.87876L49.6813 7.76274C49.6954 7.73461 49.7411 7.61859 49.8184 7.41467C49.8782 7.23537 49.9362 7.14571 49.9925 7.14571C50.1577 7.14571 50.3528 7.38655 50.5778 7.86821C50.8064 8.28659 50.9206 8.60126 50.9206 8.81221C50.9206 10.215 50.4952 11.3453 49.6444 12.2032C49.2436 12.5899 48.8305 12.7833 48.4051 12.7833C48.1519 12.7833 47.5103 12.6937 46.4802 12.5144C46.452 12.4933 46.3923 12.4282 46.3009 12.3192V12.2243ZM48.6424 6.00132C48.8006 5.44582 48.9658 5.15401 49.1381 5.12588C49.2471 5.13995 49.3913 5.19796 49.5706 5.29991C49.7956 5.44406 49.9081 5.56712 49.9081 5.66907C49.9081 5.74642 49.8712 5.88178 49.7973 6.07515C49.727 6.25094 49.6514 6.37399 49.5706 6.44431H49.5178C49.3807 6.44431 49.2155 6.39685 49.0221 6.30192C48.769 6.22457 48.6424 6.12437 48.6424 6.00132Z" fill="white"/>
<path d="M38.9388 12.3983C38.9388 12.3175 38.9862 12.277 39.0812 12.277C39.2042 12.277 39.3993 12.3561 39.6665 12.5144C42.1487 14.0472 45.3709 14.8137 49.3333 14.8137C51.7592 14.8137 54.1235 14.3936 56.4264 13.5533C56.8307 13.4021 57.2491 13.156 57.6815 12.815C58.0402 12.4845 58.404 12.1575 58.7732 11.834L58.8154 11.7708C58.8154 11.6618 58.5921 11.5756 58.1456 11.5124C57.8995 11.4596 57.6394 11.4227 57.3651 11.4016C57.1928 11.3735 56.9995 11.2838 56.785 11.1326C56.5459 10.9885 56.4194 10.8303 56.4053 10.658V10.2467C56.4053 9.56811 56.7094 8.82803 57.3177 8.02642C57.9259 7.22482 58.5464 6.76249 59.1793 6.63944C59.5203 6.78359 59.6908 7.01036 59.6908 7.31975C59.6908 7.45686 59.6539 7.65199 59.5801 7.90513C59.4887 8.17585 59.3744 8.32351 59.2373 8.34812C58.956 8.05982 58.7714 7.91568 58.6835 7.91568C58.455 7.91568 58.1034 8.18112 57.6288 8.71201C57.1577 9.23938 56.9221 9.62436 56.9221 9.86695C56.9221 9.94781 56.9344 9.99879 56.959 10.0199C57.2157 10.1922 57.453 10.2924 57.671 10.3205C58.3812 10.4224 58.7556 10.4805 58.7943 10.4945C59.2267 10.6246 59.443 10.8988 59.443 11.3172C59.443 11.9852 59.1476 12.6444 58.557 13.2949C58.0366 13.8328 57.4319 14.2424 56.7428 14.5236C55.66 14.9491 54.4382 15.3059 53.0776 15.5942C51.6607 15.8966 50.4056 16.0477 49.3122 16.0477C46.3659 16.0477 44.0472 15.7225 42.3561 15.0721C41.9729 14.8998 41.7338 14.7926 41.6389 14.7504C40.999 14.318 40.4892 13.9576 40.1095 13.6693C39.329 13.0013 38.9388 12.5776 38.9388 12.3983Z" fill="white"/>
<path d="M60.2868 3.35391C60.3887 2.78084 60.4608 2.42222 60.503 2.27808C60.5979 2.36246 60.6629 2.51364 60.6981 2.73162C60.7438 2.83006 60.7772 2.98827 60.7983 3.20625C61.1569 5.83256 61.3397 7.20373 61.3468 7.31975C61.4487 8.00533 61.5278 8.39383 61.5841 8.48524C61.7423 8.78057 62.0447 8.92823 62.4912 8.92823V10.0199C61.8583 10.0199 61.4733 9.89684 61.3362 9.65073C61.2272 9.49955 61.1165 9.155 61.004 8.61708C60.9723 8.37801 60.9214 8.00709 60.851 7.50433C60.5979 5.37375 60.4098 3.99028 60.2868 3.35391Z" fill="white"/>
<path d="M62.2855 8.92823C62.5703 8.92823 62.8902 8.88252 63.2453 8.79111C63.6707 8.68916 63.9696 8.57313 64.1418 8.44305C63.9555 8.03873 63.8623 7.81196 63.8623 7.76274C63.8623 7.60453 63.9344 7.41292 64.0786 7.1879C64.2297 6.92422 64.3194 6.7414 64.3475 6.63944C64.2456 6.57615 64.1946 6.46365 64.1946 6.30192C64.1946 6.13668 64.2456 5.95034 64.3475 5.74291C64.446 5.4968 64.5637 5.37375 64.7009 5.37375C65.1333 5.37375 65.6343 5.70599 66.2039 6.37048C66.6574 6.8873 66.8947 7.15978 66.9158 7.1879C67.2111 7.58519 67.3588 7.92447 67.3588 8.20573C67.3588 8.33582 67.2252 8.61708 66.958 9.04953C66.8807 9.14797 66.74 9.19719 66.5361 9.19719C65.847 9.19719 65.3302 9.11105 64.9856 8.93878C64.5743 9.16379 64.1665 9.38704 63.7621 9.60854C63.1855 9.88277 62.725 10.0199 62.3804 10.0199H62.2855V8.92823ZM65.5025 8.23737C66.1423 8.40262 66.5273 8.48524 66.6574 8.48524C66.7523 8.48524 66.7998 8.45008 66.7998 8.37976C66.7998 8.23562 66.6363 7.9983 66.3093 7.66781C66.0738 7.41467 65.84 7.21251 65.6079 7.06134C65.6677 7.44807 65.6325 7.84009 65.5025 8.23737ZM64.1946 7.78383C64.1946 7.8647 64.2086 7.90865 64.2368 7.91568C64.4547 8.03521 64.6745 8.08092 64.896 8.05279C65.1351 7.89458 65.2546 7.72934 65.2546 7.55706C65.2546 7.41292 65.2177 7.2758 65.1438 7.14571C65.0665 7.02266 64.9663 6.96113 64.8432 6.96113C64.7343 6.96113 64.5989 7.07012 64.4372 7.2881C64.2754 7.50257 64.1946 7.66781 64.1946 7.78383Z" fill="white"/>
<path d="M53.5628 12.2032C53.5628 12.1505 53.6032 12.1241 53.6841 12.1241C53.786 12.1241 54.0058 12.2155 54.3433 12.3983C56.2067 13.3406 57.8046 13.9734 59.1371 14.2969C60.6208 14.6414 62.3136 14.8137 64.2157 14.8137C67.1373 14.8137 69.4472 14.543 71.1453 14.0015C72.847 13.4636 74.1373 12.4458 75.0162 10.9481C75.0162 10.4805 74.8686 9.96188 74.5732 9.39232C74.2779 8.82276 74.1303 8.50633 74.1303 8.44305C74.1303 8.30593 74.2234 8.00006 74.4098 7.52542C74.3957 7.36721 74.4273 7.2881 74.5047 7.2881C74.6488 7.2881 74.8686 7.67309 75.1639 8.44305C75.4663 9.17785 75.6174 9.67182 75.6174 9.92496C75.7405 10.9024 75.3186 11.9378 74.3518 13.0312C73.3884 14.1281 71.845 14.9385 69.7214 15.4624C67.8651 15.8245 66.0685 16.0056 64.3317 16.0056C62.95 16.0056 61.6403 15.937 60.4028 15.7999C58.7398 15.5749 57.4934 15.2461 56.6637 14.8137C56.175 14.5711 55.6353 14.2072 55.0447 13.722C54.7775 13.4794 54.5033 13.2492 54.222 13.0312C53.7825 12.6374 53.5628 12.3614 53.5628 12.2032ZM72.2475 4.82001C72.2475 4.74969 72.3249 4.60203 72.4796 4.37701C72.6343 4.14849 72.7327 4.03422 72.7749 4.03422C72.8347 4.03422 72.9823 4.09575 73.2179 4.2188C73.471 4.36295 73.5976 4.48073 73.5976 4.57214C73.5976 4.63894 73.5255 4.77957 73.3814 4.99404C73.2513 5.24015 73.1388 5.3632 73.0439 5.3632C72.9595 5.3632 72.8048 5.29288 72.5798 5.15225C72.3583 5.01162 72.2475 4.90087 72.2475 4.82001Z" fill="white"/>
<path d="M76.4296 3.43302C76.5175 2.86346 76.6581 2.49957 76.8515 2.34136C76.8831 2.37652 76.9095 2.40113 76.9306 2.41519C77.022 2.90389 77.131 3.69495 77.2576 4.78836C77.3841 5.87827 77.4896 6.85918 77.574 7.7311C77.6619 8.60302 77.7058 9.06359 77.7058 9.11281C77.7058 9.21477 77.6795 9.3765 77.6267 9.59799C77.5775 9.81597 77.4738 9.96364 77.3156 10.041C77.2031 9.14797 77.0906 8.26023 76.9781 7.37776C76.8691 6.49529 76.7495 5.62688 76.6194 4.77254C76.4929 3.91469 76.4296 3.46818 76.4296 3.43302Z" fill="white"/>
<path d="M77.3841 12.2243C78.3475 12.1645 78.9153 12.1136 79.0875 12.0714C79.5973 11.9132 80.0948 11.5985 80.58 11.1274C81.0687 10.6562 81.3992 10.1605 81.5715 9.64018C81.4062 9.35189 81.248 9.06886 81.0968 8.79111C80.8507 8.32703 80.7277 8.02291 80.7277 7.87876L80.7646 7.76274C80.7786 7.73461 80.8244 7.61859 80.9017 7.41467C80.9615 7.23537 81.0195 7.14571 81.0757 7.14571C81.241 7.14571 81.4361 7.38655 81.6611 7.86821C81.8896 8.28659 82.0039 8.60126 82.0039 8.81221C82.0039 10.215 81.5785 11.3453 80.7277 12.2032C80.3269 12.5899 79.9138 12.7833 79.4883 12.7833C79.2352 12.7833 78.5936 12.6937 77.5634 12.5144C77.5353 12.4933 77.4755 12.4282 77.3841 12.3192V12.2243Z" fill="white"/>
<path d="M81.9775 12.1346C82.0057 12.1136 82.0584 12.103 82.1357 12.103H82.6684C83.4173 12.103 83.9253 12.0678 84.1925 11.9975C84.5441 11.8815 84.9748 11.6073 85.4846 11.1748C86.019 10.7354 86.3477 10.3504 86.4707 10.0199C85.8731 10.0199 85.4758 9.97946 85.2789 9.89859C84.9203 9.77906 84.741 9.47318 84.741 8.98097C84.741 8.67158 84.857 8.32351 85.089 7.93677C85.3387 7.50433 85.59 7.2881 85.8432 7.2881C86.0295 7.2881 86.2422 7.51487 86.4813 7.96841C86.7028 8.31999 86.8505 8.63993 86.9243 8.92823H87.2038V10.0199H86.8135C86.7643 10.5086 86.4883 11.0553 85.9856 11.66C85.4723 12.2296 84.9783 12.6005 84.5036 12.7728C84.0782 12.7025 83.5913 12.6163 83.0428 12.5144C82.3326 12.3561 81.9775 12.2296 81.9775 12.1346ZM85.3053 8.72256C85.4705 8.85967 85.6568 8.92823 85.8643 8.92823C85.8994 8.92823 85.9434 8.9212 85.9961 8.90714C85.9961 8.79814 85.9697 8.69091 85.917 8.58544C85.8397 8.44129 85.7535 8.36922 85.6586 8.36922C85.4863 8.36922 85.3685 8.487 85.3053 8.72256Z" fill="white"/>
<path d="M87.0192 8.92823C87.1985 8.93526 87.4604 8.86319 87.805 8.71201C88.1495 8.56083 88.3552 8.48524 88.422 8.48524C88.5521 8.48524 88.7771 8.55907 89.0971 8.70673C89.417 8.8544 89.6737 8.92823 89.867 8.92823V10.0199C89.6455 10.0199 89.3783 9.93903 89.0654 9.7773C88.7525 9.61557 88.538 9.53471 88.422 9.53471C88.3693 9.53471 88.1882 9.61557 87.8788 9.7773C87.5694 9.93903 87.3145 10.0199 87.1141 10.0199H87.0192V8.92823ZM88.2849 5.90639C88.4501 5.42473 88.6013 5.15928 88.7384 5.11006C88.8615 5.17335 88.9951 5.25245 89.1392 5.34738C89.2904 5.47043 89.3941 5.58118 89.4504 5.67962C89.3414 6.23512 89.1867 6.51287 88.9863 6.51287C88.9125 6.51287 88.7789 6.43728 88.5855 6.2861C88.4343 6.12789 88.3341 6.00132 88.2849 5.90639ZM87.0192 6.39157C87.0192 6.22633 87.1493 5.95737 87.4095 5.5847C87.8067 5.85893 88.0617 6.0523 88.1742 6.1648V6.20172C88.1742 6.32829 88.139 6.48298 88.0687 6.66581C87.9878 6.85918 87.9087 6.95586 87.8314 6.95586C87.7435 6.95586 87.5853 6.88203 87.3567 6.73436C87.1317 6.5867 87.0192 6.47244 87.0192 6.39157Z" fill="white"/>
<path d="M89.6297 8.92823C90.1289 8.92823 90.6053 8.87022 91.0589 8.7542C91.7339 8.59599 92.1259 8.36922 92.2349 8.07389C92.3439 7.77856 92.4441 7.59574 92.5355 7.52542C92.5672 7.54652 92.583 7.59398 92.583 7.66781C92.583 7.89634 92.5179 8.20222 92.3878 8.58544C92.4863 8.6206 92.5724 8.63818 92.6463 8.63818C93.3811 8.63818 93.8926 8.52919 94.1809 8.31121C94.3602 8.16706 94.4973 7.92974 94.5923 7.59925C94.6837 7.28283 94.8261 7.08595 95.0194 7.0086L95.0458 7.05079C95.0599 7.07188 95.0669 7.09649 95.0669 7.12462C95.0669 7.23361 95.0194 7.4973 94.9245 7.91568C95.0265 8.07389 95.1302 8.17057 95.2357 8.20573C95.2673 8.21276 95.422 8.24792 95.6997 8.31121L95.974 8.20573C95.974 8.1319 95.9582 8.05279 95.9265 7.96841C95.8984 7.88052 95.8843 7.81899 95.8843 7.78383C95.8843 7.74164 95.9318 7.5764 96.0267 7.2881C96.1498 6.95762 96.2113 6.78183 96.2113 6.76073C96.2886 6.76073 96.3677 6.88203 96.4486 7.12462C96.5189 7.31799 96.5541 7.4762 96.5541 7.59925C96.5541 8.02467 96.4785 8.40965 96.3273 8.7542C96.1269 9.20774 95.8386 9.43451 95.4624 9.43451C95.2761 9.43451 94.9597 9.29915 94.5132 9.02843C94.4042 9.29212 94.1493 9.49603 93.7485 9.64018C93.4391 9.74214 93.1104 9.79312 92.7623 9.79312C92.4177 9.79312 92.0978 9.74214 91.8025 9.64018C91.1204 9.89332 90.484 10.0199 89.8934 10.0199H89.6297V8.92823Z" fill="white"/>
<path d="M96.3801 12.2243C97.3434 12.1645 97.9112 12.1136 98.0835 12.0714C98.5933 11.9132 99.0907 11.5985 99.5759 11.1274C100.065 10.6562 100.395 10.1605 100.567 9.64018C100.402 9.35189 100.244 9.06886 100.093 8.79111C99.8466 8.32703 99.7236 8.02291 99.7236 7.87876L99.7605 7.76274C99.7746 7.73461 99.8203 7.61859 99.8976 7.41467C99.9574 7.23537 100.015 7.14571 100.072 7.14571C100.237 7.14571 100.432 7.38655 100.657 7.86821C100.886 8.28659 101 8.60126 101 8.81221C101 10.215 100.574 11.3453 99.7236 12.2032C99.3228 12.5899 98.9097 12.7833 98.4843 12.7833C98.2311 12.7833 97.5895 12.6937 96.5594 12.5144C96.5312 12.4933 96.4715 12.4282 96.3801 12.3192V12.2243Z" fill="white"/>
<path d="M22.2931 39.0521H20.5385C18.2922 39.0521 16.3317 38.3609 14.6569 36.9786C13.0885 35.6893 11.9719 33.9613 11.3074 31.7948C11.0149 30.8378 10.3703 30.3593 9.37339 30.3593C8.78855 30.3593 8.2901 30.5586 7.87806 30.9574C7.4793 31.3428 7.27992 31.8214 7.27992 32.3929C7.27992 32.9645 7.4793 33.4562 7.87806 33.8683C8.2901 34.267 8.78855 34.4664 9.37339 34.4664H12.5834V39.0521H9.5927C7.73185 39.0521 6.12353 38.4207 4.76777 37.158C3.42529 35.8953 2.75405 34.3069 2.75405 32.3929C2.75405 30.5719 3.39871 29.0168 4.68802 27.7275C5.97732 26.4382 7.53911 25.7935 9.37339 25.7935C10.7956 25.7935 12.0982 26.2321 13.2812 27.1094C14.4642 27.9734 15.275 29.0899 15.7136 30.4589C16.5377 33.1306 18.146 34.4664 20.5385 34.4664H22.2931V39.0521Z" fill="white"/>
<path d="M30.9859 22.105H28.713C28.0883 22.105 27.55 21.8857 27.0981 21.4471C26.6461 20.9952 26.4202 20.4568 26.4202 19.8321C26.4202 19.2074 26.6461 18.6691 27.0981 18.2172C27.55 17.7652 28.0883 17.5393 28.713 17.5393C29.3377 17.5393 29.8694 17.7652 30.308 18.2172C30.7599 18.6691 30.9859 19.2074 30.9859 19.8321V22.105ZM38.8414 39.0521H37.0669C35.2194 39.0521 33.518 38.4872 31.9629 37.3574V39.0521H20.5385V34.4664H27.3971V25.9331H31.9629V28.7842C31.9629 30.4191 32.4347 31.7748 33.3784 32.8515C34.3222 33.9281 35.5517 34.4664 37.0669 34.4664H38.8414V39.0521Z" fill="white"/>
<path d="M55.2302 39.0521H53.4558C51.6082 39.0521 49.9068 38.4872 48.3517 37.3574V39.0521H36.9274V34.4664H43.7859V25.9331H48.3517V28.7842C48.3517 30.4191 48.8236 31.7748 49.7673 32.8515C50.711 33.9281 51.9405 34.4664 53.4558 34.4664H55.2302V39.0521ZM51.4819 47.1668H49.1691C48.5444 47.1668 48.0061 46.9408 47.5542 46.4889C47.1156 46.037 46.8962 45.4986 46.8962 44.8739C46.8962 44.2359 47.1156 43.6976 47.5542 43.259C48.0061 42.8203 48.5444 42.601 49.1691 42.601C49.8072 42.601 50.3521 42.8203 50.804 43.259C51.256 43.6976 51.4819 44.2359 51.4819 44.8739V47.1668ZM46.2981 47.1668H44.0053C43.3673 47.1668 42.8223 46.9408 42.3704 46.4889C41.9317 46.037 41.7124 45.4986 41.7124 44.8739C41.7124 44.2359 41.9317 43.6976 42.3704 43.259C42.8223 42.8203 43.3673 42.601 44.0053 42.601C44.63 42.601 45.1683 42.8203 45.6202 43.259C46.0721 43.6976 46.2981 44.2359 46.2981 44.8739V47.1668Z" fill="white"/>
<path d="M75.9655 39.0521H53.3162V34.4664H71.1405C70.7551 33.2967 70.0639 32.3397 69.067 31.5954C68.0834 30.851 66.9536 30.4789 65.6776 30.4789L58.8788 30.4988V25.9331H65.6776C68.5088 25.9331 70.9279 26.9366 72.9349 28.9437C74.9553 30.9374 75.9655 33.3566 75.9655 36.201V39.0521ZM64.282 23.5804H62.0091C61.3843 23.5804 60.846 23.3611 60.3941 22.9225C59.9422 22.4705 59.7162 21.9322 59.7162 21.3075C59.7162 20.6828 59.9422 20.1445 60.3941 19.6926C60.846 19.2406 61.3843 19.0147 62.0091 19.0147C62.6338 19.0147 63.1654 19.2406 63.6041 19.6926C64.056 20.1445 64.282 20.6828 64.282 21.3075V23.5804Z" fill="white"/>
<path d="M90.4095 39.0521H88.635C86.8007 39.0521 85.0994 38.4872 83.5309 37.3574V38.454C83.5309 41.325 82.4942 43.7508 80.4207 45.7313C78.3604 47.725 75.7818 48.7219 72.6848 48.7219V44.1562C74.5324 44.1562 76.041 43.6046 77.2107 42.5013C78.3937 41.3981 78.9851 40.049 78.9851 38.454V25.9331H83.5309V28.7842C83.5309 30.4191 84.0028 31.7748 84.9465 32.8515C85.9035 33.9281 87.133 34.4664 88.635 34.4664H90.4095V39.0521Z" fill="white"/>
<path d="M100.059 39.0521H88.635V34.4664H95.4936V25.9331H100.059V39.0521ZM100.259 21.786H97.9459C97.3212 21.786 96.7829 21.5601 96.331 21.1081C95.8923 20.6562 95.673 20.1179 95.673 19.4932C95.673 18.8552 95.8923 18.3168 96.331 17.8782C96.7829 17.4396 97.3212 17.2203 97.9459 17.2203C98.5839 17.2203 99.1289 17.4396 99.5808 17.8782C100.033 18.3168 100.259 18.8552 100.259 19.4932V21.786ZM95.0749 21.786H92.7821C92.144 21.786 91.5991 21.5601 91.1472 21.1081C90.7085 20.6562 90.4892 20.1179 90.4892 19.4932C90.4892 18.8552 90.7085 18.3168 91.1472 17.8782C91.5991 17.4396 92.144 17.2203 92.7821 17.2203C93.4068 17.2203 93.9451 17.4396 94.397 17.8782C94.8489 18.3168 95.0749 18.8552 95.0749 19.4932V21.786Z" fill="white"/>
<path d="M124.47 30.7183C123.124 30.147 121.778 29.7288 120.553 28.78C121.656 28.7187 122.497 29.239 123.428 29.4533C122.102 28.3617 120.685 27.3925 119.652 25.9744C120.745 26.6987 121.839 27.4129 122.932 28.1372C122.962 28.1066 122.993 28.0862 123.013 28.0556C122.274 27.2803 121.545 26.5151 120.806 25.7397C120.836 25.6887 120.867 25.6377 120.897 25.5867C121.201 25.7499 121.555 25.852 121.798 26.0866C122.78 27.015 123.721 27.9842 124.673 28.9432C124.926 29.1982 125.149 29.4635 125.432 29.7696C125.635 29.5757 125.786 29.4125 125.948 29.2799C126.232 29.0656 126.181 28.8616 126.009 28.5963C124.744 26.6783 123.063 25.1888 121.11 24.0564C119.612 23.1892 117.992 22.5363 116.433 21.7814C115.765 21.4549 115.107 21.108 114.439 20.7714C114.469 20.6897 114.49 20.6081 114.52 20.5265C115.016 20.6285 115.522 20.7203 116.13 20.8428C115.168 20.0164 114.085 19.4757 113.477 18.4249C113.508 18.3841 113.528 18.3331 113.558 18.2923C114.773 19.0472 115.978 19.8022 117.324 20.6387C116.423 19.4043 115.613 18.3025 114.814 17.2006C114.854 17.1598 114.895 17.119 114.945 17.0782C115.36 17.4863 115.795 17.8638 116.18 18.2923C117.213 19.4553 118.184 20.6795 119.257 21.7916C119.753 22.3017 120.432 22.6281 121.019 23.0464C121.818 23.6075 122.608 24.1788 123.478 24.8012C123.418 24.6175 123.397 24.4951 123.337 24.4033C121.667 21.5671 119.834 18.833 117.506 16.4865C117.101 16.0784 116.555 15.7826 116.028 15.5377C115.127 15.1296 114.176 14.8236 113.255 14.4665C112.698 14.2523 112.151 14.0074 111.767 13.5177C111.787 13.4565 111.807 13.4055 111.827 13.3443C112.627 13.5483 113.437 13.7626 114.237 13.9666C112.668 12.5383 110.957 11.2529 109.904 9.33487C111.331 10.5183 112.759 11.7017 114.176 12.8954C114.216 12.8648 114.257 12.824 114.287 12.7934C113.518 11.6915 112.749 10.5795 111.989 9.4777C112.04 9.42669 112.091 9.37568 112.141 9.32467C112.384 9.52871 112.668 9.70214 112.86 9.94699C113.69 11.0284 114.449 12.1812 115.33 13.232C116.079 14.1196 116.97 14.895 117.749 15.752C118.468 16.5375 119.126 17.3741 119.804 18.1902C119.905 18.3127 120.017 18.4453 120.118 18.5677C120.158 18.5473 120.199 18.5269 120.249 18.4963C120.118 18.1902 119.986 17.874 119.844 17.5781C119.176 16.1804 118.589 14.7215 117.8 13.3953C116.727 11.5997 115.411 9.9776 113.72 8.71255C113.285 8.38608 112.728 8.24325 112.212 8.02901C111.443 7.70254 110.613 7.4883 109.985 6.77416C110.896 6.55992 111.625 7.17204 112.587 7.32507C111.746 6.40688 110.512 6.07022 110.107 4.92759C110.147 4.86637 110.177 4.81536 110.218 4.75415C110.613 4.9786 111.018 5.21324 111.483 5.4785C111.119 4.82557 110.785 4.23385 110.461 3.63193C110.491 3.60132 110.522 3.57072 110.552 3.54011C110.765 3.71354 111.008 3.85637 111.169 4.06041C112.212 5.37648 113.214 6.72315 114.267 8.0188C115.188 9.15123 116.16 10.2531 117.182 11.3243C116.818 10.4775 116.484 9.62053 116.079 8.79416C115.573 7.74335 115.198 6.62113 114.348 5.77436C113.194 4.63173 112.06 3.4789 110.927 2.31586C110.603 1.9792 110.329 1.60172 110.096 1.17323C111.463 1.82617 112.394 3.0096 113.488 3.9992C113.528 3.9686 113.569 3.94819 113.609 3.91759C112.992 2.64233 112.374 1.37728 111.746 0.10202C111.797 0.0714143 111.858 0.0306061 111.908 0C112.89 1.46909 113.882 2.93819 114.864 4.40728C114.895 4.39708 114.935 4.38688 114.965 4.37668C114.773 3.32587 114.581 2.28526 114.399 1.23445C114.459 1.21404 114.52 1.19364 114.581 1.18344C114.662 1.39768 114.763 1.60172 114.803 1.82617C114.996 2.77496 115.107 3.74415 115.38 4.66233C115.735 5.82537 116.21 6.94759 116.666 8.06981C116.919 8.70234 117.243 9.31447 117.618 9.92659C117.658 7.9984 117.081 6.10082 117.304 4.17264C117.364 4.16244 117.415 4.15223 117.476 4.13183C117.648 4.59092 117.81 5.05001 117.982 5.5091C118.012 5.5091 118.043 5.5091 118.073 5.5091C118.225 4.67253 118.377 3.82577 118.549 2.90758C119.035 3.25445 119.004 3.64213 118.964 3.9992C118.792 5.4785 118.599 6.95779 118.417 8.42689C118.397 8.56971 118.417 8.71255 118.468 8.86558C119.025 7.93719 119.237 6.83537 119.986 6.03961C120.037 6.04981 120.087 6.07021 120.128 6.08042C120.118 6.23345 120.138 6.39668 120.087 6.52931C119.834 7.30466 119.581 8.06981 119.298 8.83497C118.832 10.0796 118.579 11.3549 118.802 12.6709C118.923 13.3749 119.247 14.0482 119.541 14.7113C120.28 16.4049 121.039 18.0882 121.818 19.7614C122.173 20.5265 122.578 21.2611 122.962 22.016C123.023 22.0058 123.074 21.9854 123.134 21.9752C123.063 21.5671 123.023 21.1488 122.932 20.7407C122.699 19.7614 122.436 18.782 122.193 17.8026C121.96 16.8844 121.707 15.9764 121.515 15.048C121.403 14.4971 121.383 13.9258 121.322 13.3647C121.393 13.3443 121.454 13.3341 121.525 13.3137C121.778 13.9156 122.041 14.5277 122.345 15.2623C122.517 14.2216 122.669 13.3035 122.82 12.3853C122.871 12.3853 122.922 12.3955 122.962 12.3955C123.033 13.6401 123.104 14.895 123.185 16.1396C123.225 16.1498 123.266 16.1498 123.316 16.16C123.671 15.3643 123.762 14.4359 124.582 13.8442C124.521 14.2114 124.481 14.5685 124.4 14.9358C124.106 16.2519 123.711 17.5577 123.519 18.8942C123.418 19.6287 123.63 20.4041 123.742 21.159C123.893 22.1486 123.914 23.2096 124.309 24.087C124.987 25.5867 125.918 26.964 126.778 28.4637C127.031 28.2188 127.173 28.0658 127.335 27.923C127.578 27.7087 127.578 27.5047 127.457 27.2088C127.011 26.1682 126.586 25.1174 126.181 24.0666C126.06 23.7402 126.039 23.3831 125.979 23.0362C126.039 23.0158 126.09 22.9852 126.151 22.9648C126.495 23.6177 126.849 24.2605 127.274 25.0562C127.193 23.4443 126.789 21.9752 127.224 20.4959C127.811 21.4447 127.608 22.5975 128.013 23.73C128.246 22.9036 128.449 22.1894 128.651 21.4549C129.157 21.5977 129.157 21.914 129.086 22.2404C128.894 23.1994 128.671 24.1584 128.479 25.1174C128.398 25.5459 128.368 25.9846 128.327 26.4233C128.317 26.5253 128.398 26.6273 128.459 26.8212C130.696 24.6073 132.882 22.4445 135.069 20.2817C133.945 19.0166 133.571 17.5679 133.935 15.9866C134.077 15.3847 134.391 14.7522 134.806 14.3033C138.713 10.0082 142.661 5.74375 146.598 1.4691C146.639 1.41809 146.7 1.38748 146.75 1.34667C147.428 1.73435 147.519 2.22405 147.034 2.78516C144.058 6.23345 141.071 9.68174 138.106 13.1402C137.903 13.3749 137.63 13.6299 137.954 13.9768C138.227 14.2625 138.763 14.3237 139.067 14.0584C139.492 13.6707 139.887 13.2525 140.292 12.8444C143.157 9.91639 146.031 6.9884 148.896 4.06041C149.018 3.93799 149.109 3.79516 149.21 3.68294C149.969 4.09102 150.07 4.58072 149.554 5.17244C146.608 8.57992 143.663 11.9976 140.727 15.4051C140.484 15.6805 140.1 15.9662 140.535 16.3845C140.849 16.6905 141.395 16.6395 141.76 16.2723C143.44 14.5583 145.11 12.824 146.811 11.1202C148.491 9.44709 150.192 7.80456 151.923 6.12122C152.479 6.40688 152.591 6.93739 152.115 7.4883C149.159 10.906 146.204 14.3339 143.248 17.7618C143.025 18.0168 142.61 18.2719 143.005 18.7003C143.329 19.0574 143.865 19.037 144.27 18.6391C145.535 17.3639 146.791 16.0784 148.046 14.793C150.02 12.773 151.994 10.7427 153.978 8.72274C154.099 8.60032 154.221 8.4983 154.453 8.27386C154.656 8.68194 154.828 9.02881 155 9.38588C153.816 10.6713 152.662 11.9364 151.508 13.1912C148.765 16.1702 145.991 19.1186 143.298 22.1384C141.648 23.9952 139.077 24.036 137.508 22.4853C137.458 22.4343 137.407 22.4037 137.316 22.3323C137.154 22.5261 136.982 22.7097 136.83 22.9036C135.372 24.6481 133.915 26.3927 132.457 28.1168C132.234 28.3821 132.174 28.6065 132.295 28.9432C132.538 29.6471 132.72 30.3715 132.943 31.0856C132.984 31.2284 133.064 31.3611 133.176 31.4937C133.338 30.3307 132.903 29.137 133.449 27.8822C133.591 28.3719 133.753 28.7494 133.803 29.137C133.935 30.2491 133.986 31.3611 134.137 32.4731C134.34 33.9524 134.633 35.4215 135.504 36.6865C136.283 37.8292 137.022 39.0126 137.852 40.1246C138.207 40.6041 138.713 40.9816 139.178 41.3693C140.272 42.2773 141.375 43.1648 142.478 44.0626C142.58 44.1442 142.691 44.1952 142.843 44.2871C141.739 42.9608 140.626 41.7161 139.614 40.3899C138.602 39.0738 137.468 37.8394 136.769 36.3091C136.82 36.2683 136.881 36.2172 136.931 36.1764C137.64 37.0232 138.348 37.8598 139.138 38.7882C138.571 37.4109 138.055 36.1458 137.539 34.8706C137.599 34.84 137.66 34.8196 137.721 34.789C138.531 36.3499 139.189 38.0026 140.322 39.3799C140.14 38.1862 139.958 37.0028 139.776 35.8092C140.474 36.3193 140.515 37.064 140.677 37.7476C140.849 38.5025 140.99 39.2677 141.132 40.0328C141.345 41.155 141.76 42.165 142.59 42.9914C143.693 44.1034 144.675 45.3787 145.88 46.3683C147.115 47.3783 148.532 48.1638 149.908 48.9902C150.981 49.6227 152.115 50.1634 153.218 50.7347C153.32 50.7858 153.411 50.8572 153.451 51C152.763 50.7143 152.034 50.4797 151.376 50.1328C149.584 49.1738 147.833 48.123 146.031 47.1742C144.321 46.2765 142.6 45.3481 140.798 44.6543C139.806 44.2769 138.642 44.3483 137.559 44.2565C136.769 44.185 135.98 44.1952 135.19 44.1238C134.917 44.1034 134.654 43.9606 134.391 43.7872C135.261 43.2771 136.192 43.5729 137.103 43.4097C135.818 43.0118 134.542 42.6139 133.257 42.216C133.267 42.1548 133.277 42.1038 133.297 42.0426C133.773 41.7672 134.269 41.8998 134.765 42.012C135.241 42.114 135.717 42.2467 136.223 42.2569C135.028 41.5223 133.834 40.7776 132.639 40.043C133.884 40.1654 134.937 40.7469 136 41.2979C137.235 41.9508 138.44 42.6751 139.675 43.3383C140.201 43.6137 140.768 43.8178 141.314 44.0524C141.345 44.0116 141.365 43.9708 141.395 43.93C141.021 43.6137 140.646 43.3077 140.272 42.9812C137.852 40.8592 135.089 39.2779 132.204 37.921C131.485 37.5843 130.605 37.5843 129.795 37.4109C129.005 37.2477 128.216 37.0946 127.436 36.9008C127.193 36.8396 126.971 36.6661 126.657 36.5029C127.436 36.0336 128.145 36.4927 128.975 36.4111C128.115 35.9622 127.366 35.5847 126.586 35.1868C125.807 36.1152 125.037 37.0334 124.268 37.9516C120.968 41.91 117.668 45.8582 114.368 49.8166C113.548 50.796 112.506 51.1326 111.281 50.8062C110.036 50.4695 109.337 49.6023 109.084 48.3373C108.821 47.0314 109.175 45.9704 110.137 45.0216C114.803 40.4409 119.44 35.8398 124.086 31.2386C124.157 31.055 124.288 30.902 124.47 30.7183ZM131.85 28.7698C131.202 29.5349 130.615 30.2082 130.058 30.9122C129.967 31.0244 129.967 31.2999 130.038 31.4427C130.757 32.9118 131.698 34.2278 132.832 35.4011C133.135 35.7173 133.399 36.0744 133.692 36.3907C134.056 36.7886 134.451 37.1558 134.836 37.5435C134.897 37.4925 134.957 37.4517 135.018 37.4007C134.492 36.4723 133.965 35.5337 133.429 34.6053C132.69 33.3199 131.931 32.0344 131.212 30.7387C131.08 30.5041 131.091 30.1776 131.03 29.892C131.101 29.8614 131.172 29.8308 131.242 29.8002C131.688 30.5245 132.143 31.2488 132.589 31.963C132.629 31.9426 132.66 31.9324 132.7 31.912C132.437 30.9122 132.153 29.892 131.85 28.7698ZM127.72 33.7075C129.673 35.8806 132.164 37.0844 134.674 38.2781C132.639 36.4315 130.949 34.1972 128.459 32.8098C128.216 33.1158 127.973 33.4117 127.72 33.7075Z" fill="white"/>
</svg>
