<svg width="120" height="112" viewBox="0 0 120 112" fill="none" xmlns="http://www.w3.org/2000/svg">
<g clip-path="url(#clip0_2399_748901)">
<path d="M93.2704 48.4181C92.571 49.2815 91.8808 50.1448 91.1952 51.0082V92.6101C91.1952 96.1727 88.2595 99.0719 84.652 99.0719H19.6342C16.0221 99.0719 13.091 96.1727 13.091 92.6101V28.4056C13.091 24.8384 16.0221 21.9438 19.6342 21.9438H81.0123C83.4649 19.0491 85.7379 16.3953 88.1307 13.7416L90.1737 11.4468L91.3517 10.1789C89.2626 9.4246 87.0033 9.01563 84.6474 9.01563H19.6342C8.80708 9.01108 0 17.7086 0 28.4056V92.6101C0 103.302 8.80708 112 19.6342 112H84.6474C95.4745 112 104.282 103.298 104.282 92.6101V35.2854C100.877 39.1843 97.2967 43.4558 93.2704 48.4181Z" fill="#417F56"/>
<path d="M119.063 3.24896C117.172 0.099859 113.058 -0.93621 109.87 0.926897C108.084 1.97205 106.428 3.16262 104.817 4.40773C104.003 5.02573 103.253 5.69372 102.494 6.35717C101.739 7.02516 100.998 7.71133 100.266 8.40204C98.7848 9.77438 97.455 11.2694 96.0838 12.7326L94.0362 14.9366L92.0437 17.1768C89.3657 20.1487 86.789 23.1842 84.2168 26.2243L80.416 30.8229L76.7119 35.4853C71.8206 41.7335 67.0627 48.059 62.5073 54.5208C60.2158 57.7426 57.975 60.9962 55.7525 64.2634C54.9334 65.4858 54.1236 66.7082 53.3183 67.9351C51.5744 66.4992 50.0053 64.9133 48.5881 63.1365C45.7076 59.5693 43.4621 55.2069 41.594 50.481L41.5526 50.3719C40.3056 47.2365 36.7855 45.546 33.4863 46.5821C30.0398 47.6591 28.1303 51.2944 29.2208 54.698C30.1319 57.5426 31.1856 60.3964 32.5108 63.2137C33.836 66.0266 35.4189 68.8076 37.3193 71.4432C39.2242 74.0697 41.4467 76.5372 43.8809 78.723C46.315 80.9133 48.9562 82.8082 51.648 84.4441C54.9334 86.4299 59.268 85.5438 61.4582 82.3674L61.5917 82.1765C63.7681 79.0138 66.0044 75.8783 68.2499 72.7519C70.4954 69.6256 72.7593 66.5128 75.0692 63.4319C79.689 57.2745 84.364 51.1626 89.1955 45.2007C94.0316 39.2387 98.9551 33.3677 104.072 27.7102L105.986 25.5835L107.937 23.5023C109.244 22.1209 110.532 20.7167 111.816 19.3262C113.095 17.9312 114.305 16.4543 115.502 14.982C116.703 13.5097 117.858 11.9874 118.884 10.3197L119.036 10.0743C120.269 8.03851 120.37 5.42562 119.063 3.24896Z" fill="#417F56"/>
</g>
<defs>
<clipPath id="clip0_2399_748901">
<rect width="120" height="112" fill="white"/>
</clipPath>
</defs>
</svg>
