<svg width="280" height="24" viewBox="0 0 280 24" fill="none" xmlns="http://www.w3.org/2000/svg">
<path d="M7.99967 19.1666C4.04634 19.1666 0.833008 15.9533 0.833008 12C0.833008 8.04665 4.04634 4.83331 7.99967 4.83331C11.953 4.83331 15.1663 8.04665 15.1663 12C15.1663 15.9533 11.953 19.1666 7.99967 19.1666ZM7.99967 5.83331C4.59967 5.83331 1.83301 8.59998 1.83301 12C1.83301 15.4 4.59967 18.1666 7.99967 18.1666C11.3997 18.1666 14.1663 15.4 14.1663 12C14.1663 8.59998 11.3997 5.83331 7.99967 5.83331Z" fill="#CBCBCB"/>
<path d="M7.05297 14.3867C6.91964 14.3867 6.79297 14.3333 6.69964 14.24L4.81297 12.3533C4.61964 12.16 4.61964 11.84 4.81297 11.6467C5.0063 11.4533 5.3263 11.4533 5.51964 11.6467L7.05297 13.18L10.4796 9.75334C10.673 9.56 10.993 9.56 11.1863 9.75334C11.3796 9.94667 11.3796 10.2667 11.1863 10.46L7.4063 14.24C7.31297 14.3333 7.1863 14.3867 7.05297 14.3867Z" fill="#CBCBCB"/>
<line x1="123.5" y1="12.5" x2="20.5" y2="12.5" stroke="url(#paint0_linear_2388_38930)" stroke-linecap="round" stroke-dasharray="4 4"/>
<path d="M139 14.75H140C140.41 14.75 140.75 14.41 140.75 14C140.75 13.59 140.41 13.25 140 13.25H139C138.31 13.25 137.75 12.69 137.75 12V2.75H146C147.18 2.75 148.26 3.38998 148.84 4.41998C149.04 4.77998 149.5 4.91002 149.86 4.71002C150.22 4.51002 150.35 4.05 150.15 3.69C149.31 2.19 147.72 1.25 146 1.25H137C136.59 1.25 136.25 1.59 136.25 2V12C136.25 13.52 137.48 14.75 139 14.75Z" fill="#417F56"/>
<path d="M133 20.75H134C134.41 20.75 134.75 20.41 134.75 20C134.75 19.31 135.31 18.75 136 18.75C136.69 18.75 137.25 19.31 137.25 20C137.25 20.41 137.59 20.75 138 20.75H142C142.41 20.75 142.75 20.41 142.75 20C142.75 19.31 143.31 18.75 144 18.75C144.69 18.75 145.25 19.31 145.25 20C145.25 20.41 145.59 20.75 146 20.75H147C149.07 20.75 150.75 19.07 150.75 17C150.75 16.59 150.41 16.25 150 16.25C149.59 16.25 149.25 16.59 149.25 17C149.25 18.24 148.24 19.25 147 19.25H146.65C146.32 18.1 145.26 17.25 144 17.25C142.74 17.25 141.68 18.1 141.35 19.25H138.64C138.31 18.1 137.25 17.25 135.99 17.25C134.73 17.25 133.67 18.1 133.34 19.25H133C131.76 19.25 130.75 18.24 130.75 17V14.75H133C133.96 14.75 134.75 13.96 134.75 13V10C134.75 9.04 133.97 8.25 133 8.25L134.07 6.38C134.29 5.99 134.71 5.75 135.16 5.75H136.25V12C136.25 13.52 137.48 14.75 139 14.75H140C140.41 14.75 140.75 14.41 140.75 14C140.75 13.59 140.41 13.25 140 13.25H139C138.31 13.25 137.75 12.69 137.75 12V5C137.75 4.59 137.41 4.25 137 4.25H135.16C134.17 4.25 133.26 4.78001 132.77 5.64001L131.06 8.63C130.93 8.86 130.93 9.15 131.06 9.38C131.19 9.61 131.44 9.75 131.71 9.75H133C133.14 9.75 133.25 9.86 133.25 10V13C133.25 13.14 133.14 13.25 133 13.25H130C129.59 13.25 129.25 13.59 129.25 14V17C129.25 19.07 130.93 20.75 133 20.75Z" fill="#417F56"/>
<path d="M144 22.75C145.52 22.75 146.75 21.52 146.75 20C146.75 18.48 145.52 17.25 144 17.25C142.48 17.25 141.25 18.48 141.25 20C141.25 21.52 142.48 22.75 144 22.75ZM144 18.75C144.69 18.75 145.25 19.31 145.25 20C145.25 20.69 144.69 21.25 144 21.25C143.31 21.25 142.75 20.69 142.75 20C142.75 19.31 143.31 18.75 144 18.75Z" fill="#417F56"/>
<path d="M136 22.75C137.52 22.75 138.75 21.52 138.75 20C138.75 18.48 137.52 17.25 136 17.25C134.48 17.25 133.25 18.48 133.25 20C133.25 21.52 134.48 22.75 136 22.75ZM136 18.75C136.69 18.75 137.25 19.31 137.25 20C137.25 20.69 136.69 21.25 136 21.25C135.31 21.25 134.75 20.69 134.75 20C134.75 19.31 135.31 18.75 136 18.75Z" fill="#417F56"/>
<path d="M130 14.75H133C133.96 14.75 134.75 13.96 134.75 13V10C134.75 9.04 133.96 8.25 133 8.25H131.71C131.44 8.25 131.19 8.39 131.06 8.63L129.35 11.63C129.29 11.74 129.25 11.87 129.25 12V14C129.25 14.41 129.59 14.75 130 14.75ZM133 9.75C133.14 9.75 133.25 9.86 133.25 10V13C133.25 13.14 133.14 13.25 133 13.25H130.75V12.2L132.15 9.75H133Z" fill="#417F56"/>
<path d="M144 8.75H150C150.41 8.75 150.75 8.41 150.75 8C150.75 7.59 150.41 7.25 150 7.25H144C143.59 7.25 143.25 7.59 143.25 8C143.25 8.41 143.59 8.75 144 8.75Z" fill="#417F56"/>
<path d="M146 11.75H150C150.41 11.75 150.75 11.41 150.75 11C150.75 10.59 150.41 10.25 150 10.25H146C145.59 10.25 145.25 10.59 145.25 11C145.25 11.41 145.59 11.75 146 11.75Z" fill="#417F56"/>
<path d="M148 14.75H150C150.41 14.75 150.75 14.41 150.75 14C150.75 13.59 150.41 13.25 150 13.25H148C147.59 13.25 147.25 13.59 147.25 14C147.25 14.41 147.59 14.75 148 14.75Z" fill="#417F56"/>
<line x1="259.5" y1="12.5" x2="156.5" y2="12.5" stroke="#417F56" stroke-linecap="round" stroke-dasharray="4 4"/>
<path d="M272 16.5C271.727 16.5 271.5 16.2734 271.5 16V14C271.5 13.7267 271.727 13.5 272 13.5C272.273 13.5 272.5 13.7267 272.5 14V16C272.5 16.2734 272.273 16.5 272 16.5Z" fill="#417F56"/>
<path d="M275.733 19.04H268.267C267.053 19.04 265.947 18.1067 265.747 16.9134L264.86 11.6C264.713 10.7734 265.12 9.71336 265.78 9.18669L270.4 5.48669C271.293 4.76669 272.7 4.77336 273.6 5.49336L278.22 9.18669C278.873 9.71336 279.273 10.7734 279.14 11.6L278.253 16.9067C278.053 18.0867 276.92 19.04 275.733 19.04ZM271.993 5.95336C271.64 5.95336 271.287 6.06002 271.027 6.26669L266.407 9.97336C266.033 10.2734 265.767 10.9667 265.847 11.44L266.733 16.7467C266.853 17.4467 267.553 18.04 268.267 18.04H275.733C276.447 18.04 277.147 17.4467 277.267 16.74L278.153 11.4334C278.227 10.9667 277.96 10.26 277.593 9.96669L272.973 6.27336C272.707 6.06002 272.347 5.95336 271.993 5.95336Z" fill="#417F56"/>
<defs>
<linearGradient id="paint0_linear_2388_38930" x1="124" y1="12" x2="20" y2="12" gradientUnits="userSpaceOnUse">
<stop offset="0.485754" stop-color="#417F56"/>
<stop offset="0.501641" stop-color="#CBCBCB"/>
</linearGradient>
</defs>
</svg>
