<svg width="280" height="24" viewBox="0 0 280 24" fill="none" xmlns="http://www.w3.org/2000/svg">
<path d="M12 22.75C6.07 22.75 1.25 17.93 1.25 12C1.25 6.07 6.07 1.25 12 1.25C17.93 1.25 22.75 6.07 22.75 12C22.75 17.93 17.93 22.75 12 22.75ZM12 2.75C6.9 2.75 2.75 6.9 2.75 12C2.75 17.1 6.9 21.25 12 21.25C17.1 21.25 21.25 17.1 21.25 12C21.25 6.9 17.1 2.75 12 2.75Z" fill="#417F56"/>
<path d="M10.5804 15.58C10.3804 15.58 10.1904 15.5 10.0504 15.36L7.22043 12.53C6.93043 12.24 6.93043 11.76 7.22043 11.47C7.51043 11.18 7.99043 11.18 8.28043 11.47L10.5804 13.77L15.7204 8.63001C16.0104 8.34001 16.4904 8.34001 16.7804 8.63001C17.0704 8.92001 17.0704 9.40001 16.7804 9.69001L11.1104 15.36C10.9704 15.5 10.7804 15.58 10.5804 15.58Z" fill="#417F56"/>
<line x1="131.5" y1="12.5" x2="28.5" y2="12.5" stroke="#417F56" stroke-linecap="round" stroke-dasharray="4 4"/>
<path d="M143.333 13.8333H144C144.273 13.8333 144.5 13.6067 144.5 13.3333C144.5 13.06 144.273 12.8333 144 12.8333H143.333C142.873 12.8333 142.5 12.46 142.5 12V5.83334H148C148.786 5.83334 149.507 6.26 149.893 6.94667C150.027 7.18667 150.333 7.27336 150.573 7.14002C150.813 7.00669 150.9 6.70001 150.767 6.46001C150.207 5.46001 149.146 4.83334 148 4.83334H142C141.726 4.83334 141.5 5.06001 141.5 5.33334V12C141.5 13.0133 142.32 13.8333 143.333 13.8333Z" fill="#417F56"/>
<path d="M139.334 17.8333H140C140.274 17.8333 140.5 17.6067 140.5 17.3333C140.5 16.8733 140.874 16.5 141.334 16.5C141.794 16.5 142.167 16.8733 142.167 17.3333C142.167 17.6067 142.394 17.8333 142.667 17.8333H145.334C145.607 17.8333 145.834 17.6067 145.834 17.3333C145.834 16.8733 146.207 16.5 146.667 16.5C147.127 16.5 147.5 16.8733 147.5 17.3333C147.5 17.6067 147.727 17.8333 148 17.8333H148.667C150.047 17.8333 151.167 16.7133 151.167 15.3333C151.167 15.06 150.94 14.8333 150.667 14.8333C150.394 14.8333 150.167 15.06 150.167 15.3333C150.167 16.16 149.494 16.8333 148.667 16.8333H148.434C148.214 16.0667 147.507 15.5 146.667 15.5C145.827 15.5 145.12 16.0667 144.9 16.8333H143.094C142.874 16.0667 142.167 15.5 141.327 15.5C140.487 15.5 139.78 16.0667 139.56 16.8333H139.334C138.507 16.8333 137.834 16.16 137.834 15.3333V13.8333H139.334C139.974 13.8333 140.5 13.3067 140.5 12.6667V10.6667C140.5 10.0267 139.98 9.50001 139.334 9.50001L140.047 8.25335C140.194 7.99335 140.474 7.83334 140.774 7.83334H141.5V12C141.5 13.0133 142.32 13.8333 143.334 13.8333H144C144.274 13.8333 144.5 13.6067 144.5 13.3333C144.5 13.06 144.274 12.8333 144 12.8333H143.334C142.874 12.8333 142.5 12.46 142.5 12V7.33334C142.5 7.06001 142.274 6.83334 142 6.83334H140.774C140.114 6.83334 139.507 7.18669 139.18 7.76002L138.04 9.75335C137.954 9.90668 137.954 10.1 138.04 10.2533C138.127 10.4067 138.294 10.5 138.474 10.5H139.334C139.427 10.5 139.5 10.5733 139.5 10.6667V12.6667C139.5 12.76 139.427 12.8333 139.334 12.8333H137.334C137.06 12.8333 136.834 13.06 136.834 13.3333V15.3333C136.834 16.7133 137.954 17.8333 139.334 17.8333Z" fill="#417F56"/>
<path d="M146.667 19.1667C147.68 19.1667 148.5 18.3467 148.5 17.3333C148.5 16.32 147.68 15.5 146.667 15.5C145.653 15.5 144.833 16.32 144.833 17.3333C144.833 18.3467 145.653 19.1667 146.667 19.1667ZM146.667 16.5C147.127 16.5 147.5 16.8733 147.5 17.3333C147.5 17.7933 147.127 18.1667 146.667 18.1667C146.207 18.1667 145.833 17.7933 145.833 17.3333C145.833 16.8733 146.207 16.5 146.667 16.5Z" fill="#417F56"/>
<path d="M141.334 19.1667C142.347 19.1667 143.167 18.3467 143.167 17.3333C143.167 16.32 142.347 15.5 141.334 15.5C140.32 15.5 139.5 16.32 139.5 17.3333C139.5 18.3467 140.32 19.1667 141.334 19.1667ZM141.334 16.5C141.794 16.5 142.167 16.8733 142.167 17.3333C142.167 17.7933 141.794 18.1667 141.334 18.1667C140.874 18.1667 140.5 17.7933 140.5 17.3333C140.5 16.8733 140.874 16.5 141.334 16.5Z" fill="#417F56"/>
<path d="M137.333 13.8333H139.333C139.973 13.8333 140.5 13.3067 140.5 12.6667V10.6667C140.5 10.0267 139.973 9.5 139.333 9.5H138.473C138.293 9.5 138.127 9.59334 138.04 9.75334L136.9 11.7533C136.86 11.8267 136.833 11.9133 136.833 12V13.3333C136.833 13.6067 137.06 13.8333 137.333 13.8333ZM139.333 10.5C139.427 10.5 139.5 10.5733 139.5 10.6667V12.6667C139.5 12.76 139.427 12.8333 139.333 12.8333H137.833V12.1333L138.767 10.5H139.333Z" fill="#417F56"/>
<path d="M146.667 9.83334H150.667C150.94 9.83334 151.167 9.60668 151.167 9.33334C151.167 9.06001 150.94 8.83334 150.667 8.83334H146.667C146.394 8.83334 146.167 9.06001 146.167 9.33334C146.167 9.60668 146.394 9.83334 146.667 9.83334Z" fill="#417F56"/>
<path d="M148 11.8333H150.667C150.94 11.8333 151.167 11.6067 151.167 11.3333C151.167 11.06 150.94 10.8333 150.667 10.8333H148C147.727 10.8333 147.5 11.06 147.5 11.3333C147.5 11.6067 147.727 11.8333 148 11.8333Z" fill="#417F56"/>
<path d="M149.334 13.8333H150.667C150.94 13.8333 151.167 13.6067 151.167 13.3333C151.167 13.06 150.94 12.8333 150.667 12.8333H149.334C149.06 12.8333 148.834 13.06 148.834 13.3333C148.834 13.6067 149.06 13.8333 149.334 13.8333Z" fill="#417F56"/>
<line x1="259.5" y1="12.5" x2="156.5" y2="12.5" stroke="#417F56" stroke-linecap="round" stroke-dasharray="4 4"/>
<path d="M272 16.5C271.727 16.5 271.5 16.2733 271.5 16V14C271.5 13.7267 271.727 13.5 272 13.5C272.273 13.5 272.5 13.7267 272.5 14V16C272.5 16.2733 272.273 16.5 272 16.5Z" fill="#417F56"/>
<path d="M275.733 19.04H268.267C267.053 19.04 265.947 18.1067 265.747 16.9133L264.86 11.6C264.713 10.7733 265.12 9.71333 265.78 9.18666L270.4 5.48666C271.293 4.76666 272.7 4.77333 273.6 5.49333L278.22 9.18666C278.873 9.71333 279.273 10.7733 279.14 11.6L278.253 16.9067C278.053 18.0867 276.92 19.04 275.733 19.04ZM271.993 5.95333C271.64 5.95333 271.287 6.05999 271.027 6.26666L266.407 9.97333C266.033 10.2733 265.767 10.9667 265.847 11.44L266.733 16.7467C266.853 17.4467 267.553 18.04 268.267 18.04H275.733C276.447 18.04 277.147 17.4467 277.267 16.74L278.153 11.4333C278.227 10.9667 277.96 10.26 277.593 9.96666L272.973 6.27333C272.707 6.05999 272.347 5.95333 271.993 5.95333Z" fill="#417F56"/>
</svg>
