<svg width="280" height="24" viewBox="0 0 280 24" fill="none" xmlns="http://www.w3.org/2000/svg">
<path d="M7.99967 19.1666C4.04634 19.1666 0.833008 15.9533 0.833008 12C0.833008 8.04665 4.04634 4.83331 7.99967 4.83331C11.953 4.83331 15.1663 8.04665 15.1663 12C15.1663 15.9533 11.953 19.1666 7.99967 19.1666ZM7.99967 5.83331C4.59967 5.83331 1.83301 8.59998 1.83301 12C1.83301 15.4 4.59967 18.1666 7.99967 18.1666C11.3997 18.1666 14.1663 15.4 14.1663 12C14.1663 8.59998 11.3997 5.83331 7.99967 5.83331Z" fill="#CBCBCB"/>
<path d="M7.05297 14.3867C6.91964 14.3867 6.79297 14.3333 6.69964 14.24L4.81297 12.3533C4.61964 12.16 4.61964 11.84 4.81297 11.6467C5.0063 11.4533 5.3263 11.4533 5.51964 11.6467L7.05297 13.18L10.4796 9.75334C10.673 9.56 10.993 9.56 11.1863 9.75334C11.3796 9.94667 11.3796 10.2667 11.1863 10.46L7.4063 14.24C7.31297 14.3333 7.1863 14.3867 7.05297 14.3867Z" fill="#CBCBCB"/>
<line x1="123.5" y1="12.5" x2="20.5" y2="12.5" stroke="#CBCBCB" stroke-linecap="round" stroke-dasharray="4 4"/>
<path d="M135.333 13.8333H136C136.273 13.8333 136.5 13.6066 136.5 13.3333C136.5 13.06 136.273 12.8333 136 12.8333H135.333C134.873 12.8333 134.5 12.46 134.5 12V5.83331H140C140.786 5.83331 141.507 6.25997 141.893 6.94664C142.027 7.18664 142.333 7.27333 142.573 7.13999C142.813 7.00666 142.9 6.69998 142.767 6.45998C142.207 5.45998 141.146 4.83331 140 4.83331H134C133.726 4.83331 133.5 5.05998 133.5 5.33331V12C133.5 13.0133 134.32 13.8333 135.333 13.8333Z" fill="#CBCBCB"/>
<path d="M131.334 17.8333H132C132.274 17.8333 132.5 17.6066 132.5 17.3333C132.5 16.8733 132.874 16.5 133.334 16.5C133.794 16.5 134.167 16.8733 134.167 17.3333C134.167 17.6066 134.394 17.8333 134.667 17.8333H137.334C137.607 17.8333 137.834 17.6066 137.834 17.3333C137.834 16.8733 138.207 16.5 138.667 16.5C139.127 16.5 139.5 16.8733 139.5 17.3333C139.5 17.6066 139.727 17.8333 140 17.8333H140.667C142.047 17.8333 143.167 16.7133 143.167 15.3333C143.167 15.06 142.94 14.8333 142.667 14.8333C142.394 14.8333 142.167 15.06 142.167 15.3333C142.167 16.16 141.494 16.8333 140.667 16.8333H140.434C140.214 16.0666 139.507 15.5 138.667 15.5C137.827 15.5 137.12 16.0666 136.9 16.8333H135.094C134.874 16.0666 134.167 15.5 133.327 15.5C132.487 15.5 131.78 16.0666 131.56 16.8333H131.334C130.507 16.8333 129.834 16.16 129.834 15.3333V13.8333H131.334C131.974 13.8333 132.5 13.3066 132.5 12.6666V10.6666C132.5 10.0266 131.98 9.49998 131.334 9.49998L132.047 8.25332C132.194 7.99332 132.474 7.83331 132.774 7.83331H133.5V12C133.5 13.0133 134.32 13.8333 135.334 13.8333H136C136.274 13.8333 136.5 13.6066 136.5 13.3333C136.5 13.06 136.274 12.8333 136 12.8333H135.334C134.874 12.8333 134.5 12.46 134.5 12V7.33331C134.5 7.05998 134.274 6.83331 134 6.83331H132.774C132.114 6.83331 131.507 7.18666 131.18 7.75999L130.04 9.75332C129.954 9.90665 129.954 10.1 130.04 10.2533C130.127 10.4066 130.294 10.5 130.474 10.5H131.334C131.427 10.5 131.5 10.5733 131.5 10.6666V12.6666C131.5 12.76 131.427 12.8333 131.334 12.8333H129.334C129.06 12.8333 128.834 13.06 128.834 13.3333V15.3333C128.834 16.7133 129.954 17.8333 131.334 17.8333Z" fill="#CBCBCB"/>
<path d="M138.667 19.1667C139.68 19.1667 140.5 18.3467 140.5 17.3333C140.5 16.32 139.68 15.5 138.667 15.5C137.653 15.5 136.833 16.32 136.833 17.3333C136.833 18.3467 137.653 19.1667 138.667 19.1667ZM138.667 16.5C139.127 16.5 139.5 16.8733 139.5 17.3333C139.5 17.7933 139.127 18.1667 138.667 18.1667C138.207 18.1667 137.833 17.7933 137.833 17.3333C137.833 16.8733 138.207 16.5 138.667 16.5Z" fill="#CBCBCB"/>
<path d="M133.334 19.1667C134.347 19.1667 135.167 18.3467 135.167 17.3333C135.167 16.32 134.347 15.5 133.334 15.5C132.32 15.5 131.5 16.32 131.5 17.3333C131.5 18.3467 132.32 19.1667 133.334 19.1667ZM133.334 16.5C133.794 16.5 134.167 16.8733 134.167 17.3333C134.167 17.7933 133.794 18.1667 133.334 18.1667C132.874 18.1667 132.5 17.7933 132.5 17.3333C132.5 16.8733 132.874 16.5 133.334 16.5Z" fill="#CBCBCB"/>
<path d="M129.333 13.8333H131.333C131.973 13.8333 132.5 13.3067 132.5 12.6667V10.6667C132.5 10.0267 131.973 9.5 131.333 9.5H130.473C130.293 9.5 130.127 9.59334 130.04 9.75334L128.9 11.7533C128.86 11.8267 128.833 11.9133 128.833 12V13.3333C128.833 13.6067 129.06 13.8333 129.333 13.8333ZM131.333 10.5C131.427 10.5 131.5 10.5733 131.5 10.6667V12.6667C131.5 12.76 131.427 12.8333 131.333 12.8333H129.833V12.1333L130.767 10.5H131.333Z" fill="#CBCBCB"/>
<path d="M138.667 9.83331H142.667C142.94 9.83331 143.167 9.60665 143.167 9.33331C143.167 9.05998 142.94 8.83331 142.667 8.83331H138.667C138.394 8.83331 138.167 9.05998 138.167 9.33331C138.167 9.60665 138.394 9.83331 138.667 9.83331Z" fill="#CBCBCB"/>
<path d="M140 11.8333H142.667C142.94 11.8333 143.167 11.6066 143.167 11.3333C143.167 11.06 142.94 10.8333 142.667 10.8333H140C139.727 10.8333 139.5 11.06 139.5 11.3333C139.5 11.6066 139.727 11.8333 140 11.8333Z" fill="#CBCBCB"/>
<path d="M141.334 13.8333H142.667C142.94 13.8333 143.167 13.6066 143.167 13.3333C143.167 13.06 142.94 12.8333 142.667 12.8333H141.334C141.06 12.8333 140.834 13.06 140.834 13.3333C140.834 13.6066 141.06 13.8333 141.334 13.8333Z" fill="#CBCBCB"/>
<line x1="251.5" y1="12.5" x2="148.5" y2="12.5" stroke="url(#paint0_linear_2388_38921)" stroke-linecap="round" stroke-dasharray="4 4"/>
<path d="M268 18.75C267.59 18.75 267.25 18.41 267.25 18V15C267.25 14.59 267.59 14.25 268 14.25C268.41 14.25 268.75 14.59 268.75 15V18C268.75 18.41 268.41 18.75 268 18.75Z" fill="#417F56"/>
<path d="M273.6 22.56H262.4C260.58 22.56 258.92 21.16 258.62 19.37L257.29 11.4C257.07 10.16 257.68 8.57001 258.67 7.78001L265.6 2.23001C266.94 1.15001 269.05 1.16001 270.4 2.24001L277.33 7.78001C278.31 8.57001 278.91 10.16 278.71 11.4L277.38 19.36C277.08 21.13 275.38 22.56 273.6 22.56ZM267.99 2.93001C267.46 2.93001 266.93 3.09001 266.54 3.40001L259.61 8.96001C259.05 9.41001 258.65 10.45 258.77 11.16L260.1 19.12C260.28 20.17 261.33 21.06 262.4 21.06H273.6C274.67 21.06 275.72 20.17 275.9 19.11L277.23 11.15C277.34 10.45 276.94 9.39001 276.39 8.95001L269.46 3.41001C269.06 3.09001 268.52 2.93001 267.99 2.93001Z" fill="#417F56"/>
<defs>
<linearGradient id="paint0_linear_2388_38921" x1="252" y1="12" x2="148" y2="12" gradientUnits="userSpaceOnUse">
<stop offset="0.485754" stop-color="#417F56"/>
<stop offset="0.501641" stop-color="#CBCBCB"/>
</linearGradient>
</defs>
</svg>
